<svg width="242" height="60" viewBox="0 0 242 60" fill="none" xmlns="http://www.w3.org/2000/svg">
<path opacity="0.05" d="M241.54 31.4943L231.557 29.8851C231.557 20.4598 233.182 12.4138 237.129 4.13793L227.61 0C219.252 11.7241 215.073 24.3678 215.073 39.0805V60H241.54V31.4943ZM204.161 31.4943L194.178 29.8851C194.178 20.4598 195.803 12.4138 199.75 4.13793L190.231 0C181.873 11.7241 177.694 24.3678 177.694 39.0805V60H204.161V31.4943Z" fill="black"/>
<path d="M0 13.0001H13.5C16.0714 13.0001 18 13.643 19.4286 14.7144C21 16.0001 21.8571 17.8573 21.8571 20.143C21.8571 22.7858 20.7857 24.4287 18.6429 25.4287V25.5716C21.5 26.5001 23.1429 29.0716 23.1429 32.143C23.1429 35.0716 22 37.3573 20.1429 38.7858C18.5714 39.9287 16.5714 40.4287 13.8571 40.4287H0V13.0001ZM12.1429 23.7144C13.5714 23.7144 14.6429 22.9287 14.6429 21.2858C14.6429 19.7144 13.5714 18.9287 12.0714 18.9287H7.42857V23.643H12.1429V23.7144ZM12.7857 34.3573C14.4286 34.3573 15.6429 33.3573 15.6429 31.5716C15.6429 29.643 14.3571 28.7858 12.7857 28.7858H7.5V34.4287H12.7857V34.3573Z" fill="#B8B8B8"/>
<path d="M24.3562 13.0001H31.4276V40.5001H24.3562V13.0001Z" fill="#B8B8B8"/>
<path d="M32.8562 30.7145C32.8562 24.5002 36.8562 20.3574 43.0705 20.3574C49.2847 20.3574 53.2133 24.5717 53.2133 30.7145C53.2133 36.9288 49.2847 41.0717 43.0705 41.0717C36.8562 41.0717 32.8562 36.9288 32.8562 30.7145ZM46.1419 30.7145C46.1419 27.286 45.0705 25.1431 42.9276 25.1431C40.7848 25.1431 39.7847 27.286 39.7847 30.7145C39.7847 34.1431 40.7848 36.3574 42.9276 36.3574C45.0705 36.286 46.1419 34.1431 46.1419 30.7145Z" fill="#B8B8B8"/>
<path d="M53.9997 30.7145C53.9997 24.5002 57.9997 20.3574 64.214 20.3574C70.4282 20.3574 74.2854 24.5002 74.2854 30.7145C74.2854 36.9288 70.3568 41.0717 64.1425 41.0717C57.9997 41.0717 53.9997 36.9288 53.9997 30.7145ZM67.2854 30.7145C67.2854 27.286 66.214 25.1431 64.0711 25.1431C61.9282 25.1431 60.9283 27.286 60.9283 30.7145C60.9283 34.1431 61.9282 36.3574 64.0711 36.3574C66.214 36.286 67.2854 34.1431 67.2854 30.7145Z" fill="#B8B8B8"/>
<path d="M75.7142 20.8574H82.2857V23.786H82.4285C83.7142 21.5003 85.5 20.286 88.3571 20.286C90.8571 20.286 92.7142 21.5003 93.6428 23.6431H93.7857C95.3571 21.0717 97.4285 20.286 99.8571 20.286C104.429 20.286 106.357 23.6431 106.357 28.1431V40.4289H99.5V29.3574C99.5 27.3574 98.8571 26.0717 97.1428 26.0717C95.4285 26.0717 94.5714 27.6431 94.5714 29.786V40.4289H87.7142V29.3574C87.7142 27.3574 87.0714 26.0717 85.3571 26.0717C83.6428 26.0717 82.7857 27.6431 82.7857 29.786V40.4289H75.7142V20.8574Z" fill="#B8B8B8"/>
<path d="M115 37.8573H114.929V40.4287H108.358V13.0001H115.215V22.8573H115.358C116.643 21.143 118.429 20.2144 120.929 20.2144C125.858 20.2144 128.715 24.643 128.715 30.5716C128.715 37.2144 125.643 41.0716 120.5 41.0716C118.358 41.0716 116.143 40.0716 115 37.8573ZM121.643 30.5001C121.643 27.3573 120.5 25.2858 118.429 25.2858C116.286 25.2858 115 27.3573 115 30.5001C115 33.643 116.358 35.7144 118.429 35.7144C120.5 35.7144 121.643 33.7144 121.643 30.5001Z" fill="#B8B8B8"/>
<path d="M129.499 30.6431C129.499 24.5003 133.57 20.286 139.427 20.286C142.356 20.286 144.57 21.2146 146.284 22.8574C148.57 25.0717 149.57 28.5003 149.499 32.5003H136.356C136.641 34.9289 137.784 36.2146 139.856 36.2146C141.07 36.2146 142.141 35.6431 142.57 34.3574H149.213C148.07 38.8574 144.57 41.0717 139.641 41.0717C133.57 41.0003 129.499 36.8574 129.499 30.6431ZM136.356 28.5717H142.641C142.499 26.2146 141.213 25.0003 139.57 25.0003C137.641 24.9289 136.57 26.286 136.356 28.5717Z" fill="#B8B8B8"/>
<path d="M157.286 24.2145H157.429C158.857 21.5002 160.714 20.4288 163.072 20.4288C163.643 20.4288 164 20.5002 164.214 20.6431V26.6431H164.072C160 25.9288 157.643 27.8573 157.643 32.2859V40.5002H150.714V20.8573H157.286V24.2145Z" fill="#B8B8B8"/>
<path d="M164.929 40.5001H171.571C171.857 41.3572 172.714 42.1429 174.357 42.1429C176.571 42.1429 177.357 40.7858 177.357 38.7143V37.2858H177.214C176.143 38.5715 174.643 39.5001 172.5 39.5001C168.286 39.5001 164.571 36.3572 164.571 30.2143C164.571 24.5715 167.571 20.2144 172.143 20.2144C174.786 20.2144 176.357 21.2858 177.429 22.9286H177.571V20.7858H184.143V37.7858C184.143 40.9286 183.071 43.3572 181.429 44.7858C179.714 46.2858 177.286 46.9286 174.5 46.9286C169.214 47.0001 165.571 44.8572 164.929 40.5001ZM177.643 29.9286C177.643 27.5001 176.5 25.5001 174.5 25.5001C172.571 25.5001 171.357 27.2143 171.357 29.9286C171.357 32.5715 172.571 34.4286 174.5 34.4286C176.429 34.4286 177.643 32.5001 177.643 29.9286Z" fill="#B8B8B8"/>
</svg>
