<svg width="20" height="20" viewBox="0 0 20 20" fill="none" xmlns="http://www.w3.org/2000/svg">
<path fill-rule="evenodd" clip-rule="evenodd" d="M0.949048 1.89858H2.27833L2.28981 1.94108L5.07967 12.3243L5.09482 12.3623C5.1652 12.5387 5.28684 12.69 5.44404 12.7966C5.60124 12.9032 5.78717 12.9602 5.97712 12.9603H16.976C17.163 12.9612 17.4069 12.9067 17.5631 12.8037C17.7204 12.7 17.8432 12.5517 17.9159 12.3778L17.9362 12.3291L19.9507 4.26819L19.9513 4.26643C20.0463 3.98128 19.9998 3.67021 19.8337 3.42655L19.8234 3.4115L19.8124 3.397C19.6323 3.16043 19.3535 3.01733 19.0501 3.01733H4.64873L3.85948 0.648557L3.85879 0.64651C3.73042 0.265176 3.37272 0.000488281 2.96028 0.000488281H0.949048C0.697345 0.000488281 0.455951 0.100477 0.27797 0.278458C0.0999886 0.456439 0 0.697833 0 0.949536C0 1.20124 0.0999888 1.44263 0.27797 1.62061C0.45595 1.79859 0.697344 1.89858 0.949048 1.89858ZM18.4764 4.41262H4.39866L6.32044 11.565H16.689L18.4764 4.41262Z" fill="black"/>
<path fill-rule="evenodd" clip-rule="evenodd" d="M7.98731 15.4745C7.57225 15.4745 7.17419 15.6394 6.8807 15.9329C6.58721 16.2263 6.42233 16.6244 6.42233 17.0395C6.42233 17.4545 6.58721 17.8526 6.8807 18.1461C7.17419 18.4396 7.57225 18.6045 7.98731 18.6045C8.40237 18.6045 8.80043 18.4396 9.09393 18.1461C9.38742 17.8526 9.5523 17.4545 9.5523 17.0395C9.5523 16.6244 9.38742 16.2263 9.09393 15.9329C8.80043 15.6394 8.40237 15.4745 7.98731 15.4745ZM5.89408 14.9462C6.44924 14.3911 7.2022 14.0792 7.98731 14.0792C8.77242 14.0792 9.52538 14.3911 10.0805 14.9462C10.6357 15.5014 10.9476 16.2543 10.9476 17.0395C10.9476 17.8246 10.6357 18.5775 10.0805 19.1327C9.52538 19.6879 8.77243 19.9997 7.98731 19.9997C7.2022 19.9997 6.44924 19.6879 5.89408 19.1327C5.33892 18.5775 5.02704 17.8246 5.02704 17.0395C5.02704 16.2543 5.33892 15.5014 5.89408 14.9462ZM15.0276 15.4745C14.6126 15.4745 14.2145 15.6394 13.921 15.9329C13.6275 16.2263 13.4626 16.6244 13.4626 17.0395C13.4626 17.4545 13.6275 17.8526 13.921 18.1461C14.2145 18.4396 14.6126 18.6045 15.0276 18.6045C15.4427 18.6045 15.8407 18.4396 16.1342 18.1461C16.4277 17.8526 16.5926 17.4545 16.5926 17.0395C16.5926 16.6244 16.4277 16.2263 16.1342 15.9329C15.8407 15.6394 15.4427 15.4745 15.0276 15.4745ZM12.9344 14.9462C13.4895 14.3911 14.2425 14.0792 15.0276 14.0792C15.8127 14.0792 16.5657 14.3911 17.1208 14.9462C17.676 15.5014 17.9879 16.2543 17.9879 17.0395C17.9879 17.8246 17.676 18.5775 17.1208 19.1327C16.5657 19.6879 15.8127 19.9997 15.0276 19.9997C14.2425 19.9997 13.4895 19.6879 12.9344 19.1327C12.3792 18.5775 12.0673 17.8246 12.0673 17.0395C12.0673 16.2543 12.3792 15.5014 12.9344 14.9462Z" fill="black"/>
</svg>
