<svg width="66" height="52" viewBox="0 0 66 52" fill="none" xmlns="http://www.w3.org/2000/svg">
<path d="M8.79979 16.0165C8.79979 12.4126 11.6866 9.48994 15.2447 9.48994H20.134V5.79266H15.2052C9.63607 5.79266 5.10633 10.3778 5.10633 16.0165C5.10633 21.6523 9.63607 26.2389 15.2052 26.2389H24.6962C25.2264 26.2389 25.6552 25.7107 25.6552 25.2717V6.33642C25.6552 5.29279 26.3011 4.41343 27.2629 4.14863C28.085 3.92207 29.2358 4.15146 30.0058 5.47688L41.6559 25.8098C41.9535 26.3238 42.3653 26.566 42.7531 26.4584C42.9999 26.3918 43.2862 26.1482 43.2862 25.6951V6.33783C43.2862 5.29279 43.9293 4.41202 44.8911 4.14863C45.7034 3.92348 46.8485 4.1543 47.6171 5.47688C47.6538 5.53352 49.7141 9.13451 53.1086 15.055L59.2672 25.8084C59.5662 26.3224 59.9794 26.5646 60.3658 26.4584C60.6098 26.3918 60.8975 26.1482 60.8975 25.6951V0.617025H57.2379V15.5463C57.2379 15.5463 51.123 4.88073 50.8423 4.39786C46.9613 -2.27736 39.6266 0.47967 39.6266 6.22738V15.5463C39.6266 15.5463 33.5131 4.88073 33.2311 4.39786C29.3486 -2.27736 22.0153 0.47967 22.0153 6.22738V21.4994C22.0153 22.0559 21.6021 22.5402 21.0041 22.5402H15.2447C11.6866 22.543 8.79979 19.6189 8.79979 16.0165Z" fill="#B8B8B8"/>
<path d="M62.3587 0.616851V25.6935C62.3587 26.7357 61.7114 27.6179 60.7496 27.8827C60.5647 27.9325 60.3741 27.9582 60.1827 27.9592C59.4494 27.9592 58.6131 27.5939 58.0095 26.5559L46.3594 6.22296C46.0604 5.71035 45.6542 5.46679 45.272 5.57441C45.0295 5.64097 44.7446 5.88169 44.7446 6.33624V25.6935C44.7446 26.7386 44.0987 27.6179 43.1369 27.8827C42.3147 28.1093 41.1654 27.8785 40.3968 26.5559L34.6641 16.5516C32.6931 13.1083 30.7206 9.66593 28.7467 6.22437C28.4477 5.71177 28.0359 5.46821 27.6495 5.57583C27.4041 5.6438 27.1178 5.88452 27.1178 6.33766L27.1164 25.273C27.1164 26.5757 25.9882 27.717 24.6992 27.717L15.2068 27.7185C8.83243 27.7185 3.64833 22.4692 3.64833 16.0177C3.64833 9.56482 8.83384 4.31413 15.2068 4.31413H20.137V0.618268H15.2096C6.81013 0.618268 0 7.51156 0 16.0177C0 24.5225 6.81013 31.4143 15.2096 31.4143H24.7937C28.4378 31.4186 30.7817 29.2563 30.7774 25.2701V16.4864C30.7774 16.4864 36.8909 27.1506 37.1744 27.6335C41.054 34.3087 48.3901 31.5503 48.3901 25.804V16.4878C48.3901 16.4878 54.5022 27.152 54.7828 27.6349C58.6667 34.3073 66 31.5474 66 25.8011V0.616851H62.3587ZM9.79846 44.6359V43.4408H16.1206V51.1072H14.9318V48.5739C14.6709 49.0129 14.3733 49.4165 14.0377 49.779C13.7005 50.1455 13.3096 50.4583 12.8785 50.7065C12.4028 50.9756 11.8907 51.1741 11.3582 51.2955C10.7185 51.4385 10.0645 51.5069 9.40923 51.4995C8.52312 51.5086 7.64401 51.3411 6.82282 51.0067C6.03561 50.6799 5.33361 50.1761 4.7709 49.534C4.19692 48.8769 3.74705 48.0585 3.42551 47.0701C3.10256 46.0789 2.94179 44.9262 2.94179 43.605C2.94179 42.5189 3.08 41.505 3.355 40.5662C3.62718 39.6245 4.04602 38.8046 4.61436 38.1136C5.19242 37.4107 5.92333 36.8502 6.7509 36.4753C7.60833 36.0759 8.61667 35.8749 9.77872 35.8749C10.5586 35.8749 11.2877 35.9711 11.9646 36.1637C12.6415 36.3563 13.2522 36.6494 13.7909 37.0417C14.3324 37.4325 14.7865 37.921 15.1574 38.5044C15.5283 39.0879 15.7949 39.7803 15.9585 40.5761H14.5228C14.4047 40.0467 14.1916 39.5434 13.8938 39.0907C13.611 38.6624 13.2531 38.2891 12.8376 37.989C12.4183 37.6891 11.9535 37.4591 11.4612 37.3079C10.949 37.1501 10.416 37.0708 9.88026 37.0728C8.90859 37.0728 8.07372 37.2456 7.37564 37.5854C6.69079 37.9204 6.09885 38.42 5.65231 39.0397C5.1982 39.6642 4.86679 40.4147 4.65385 41.287C4.43515 42.2297 4.32864 43.1951 4.33654 44.1629C4.33654 44.9871 4.45359 45.7702 4.69474 46.5122C4.93308 47.2528 5.28423 47.9055 5.74115 48.4691C6.2009 49.0355 6.76218 49.4802 7.425 49.8115C8.08923 50.1401 8.84513 50.3072 9.6941 50.3072C10.0918 50.3072 10.5008 50.2618 10.9253 50.1712C11.8055 49.9837 12.616 49.5526 13.2649 48.9265C13.6076 48.5966 13.9023 48.1916 14.1491 47.7101C14.3818 47.2414 14.5412 46.7529 14.6286 46.2459C14.7188 45.739 14.771 45.2023 14.7837 44.6373L9.79846 44.6359ZM19.5151 51.1072H18.284V40.4317H19.5151V42.4297H19.5546C19.8987 41.5773 20.3387 40.9839 20.8788 40.6469C21.4204 40.3099 22.1354 40.1428 23.0238 40.1428V41.481C22.3258 41.4682 21.7504 41.5773 21.3019 41.8123C20.8506 42.046 20.4896 42.3617 20.2231 42.7582C19.9551 43.1576 19.7718 43.6291 19.6688 44.1714C19.5644 44.7327 19.5129 45.3026 19.5151 45.8735V51.1072ZM24.3382 46.059C24.3382 46.6354 24.4129 47.1819 24.5653 47.7002C24.7014 48.1848 24.9283 48.639 25.2337 49.0384C25.527 49.4165 25.8979 49.7167 26.352 49.9446C26.8033 50.1712 27.3223 50.2859 27.9132 50.2859C28.7185 50.2859 29.4109 50.0707 29.9835 49.6459C30.5574 49.2182 30.941 48.615 31.1342 47.8305H32.5092C32.3669 48.3232 32.1677 48.7975 31.9155 49.2437C31.6734 49.6717 31.3606 50.0553 30.9904 50.378C30.6051 50.7128 30.1581 50.9683 29.6746 51.1299C29.1066 51.3176 28.5111 51.4076 27.9132 51.3961C27.0628 51.3961 26.3281 51.2531 25.7132 50.9628C25.1217 50.6923 24.6015 50.2863 24.1944 49.7775C23.7967 49.2763 23.5047 48.6858 23.3129 48.0061C23.1212 47.3264 23.0238 46.5957 23.0238 45.8098C23.0238 45.0267 23.1395 44.2904 23.3623 43.6036C23.5894 42.9168 23.9109 42.3136 24.3283 41.7996C24.7443 41.2876 25.2665 40.873 25.8585 40.5846C26.4592 40.2901 27.1446 40.1428 27.9132 40.1428C29.3756 40.1428 30.525 40.6469 31.3613 41.6566C32.1933 42.669 32.6051 44.1346 32.591 46.0576L24.3382 46.059ZM31.2781 45.0281C31.2781 44.5085 31.2076 44.0157 31.0637 43.554C30.9304 43.1172 30.7134 42.7107 30.4249 42.3575C30.1375 42.0137 29.7764 41.7397 29.3686 41.556C28.9113 41.3482 28.4136 41.2456 27.9118 41.2558C27.3618 41.2558 26.8809 41.3578 26.4606 41.5631C26.0542 41.7651 25.6914 42.0456 25.3931 42.3886C25.0917 42.7449 24.8528 43.15 24.6865 43.5866C24.5056 44.0495 24.3879 44.5349 24.3368 45.0296L31.2781 45.0281ZM35.207 46.059C35.207 46.6354 35.2818 47.1819 35.4327 47.7002C35.5822 48.2114 35.8064 48.6603 36.0997 49.0384C36.3931 49.4165 36.7668 49.7167 37.2209 49.9446C37.6708 50.1712 38.1912 50.2859 38.7792 50.2859C39.5859 50.2859 40.2783 50.0707 40.8537 49.6459C41.4277 49.2182 41.8099 48.615 42.0003 47.8305H43.3781C43.2353 48.3233 43.0356 48.7976 42.7829 49.2437C42.5404 49.6714 42.2276 50.0549 41.8578 50.378C41.4725 50.7119 41.0261 50.9673 40.5435 51.1299C39.9745 51.3177 39.378 51.4077 38.7792 51.3961C37.9288 51.3961 37.1983 51.2531 36.582 50.9628C35.9894 50.6935 35.4685 50.2874 35.0618 49.7775C34.6535 49.2518 34.3538 48.6496 34.1804 48.0061C33.982 47.2912 33.8842 46.5519 33.8899 45.8098C33.8899 45.0267 34.0055 44.2904 34.2297 43.6036C34.4568 42.9168 34.7783 42.3136 35.1958 41.7996C35.6108 41.2867 36.1332 40.8719 36.7259 40.5846C37.3267 40.2901 38.0106 40.1428 38.7778 40.1428C40.2403 40.1428 41.391 40.6469 42.2259 41.6566C43.0608 42.669 43.4711 44.1346 43.457 46.0576L35.207 46.059ZM42.1455 45.0281C42.1455 44.5085 42.075 44.0157 41.9326 43.554C41.8003 43.1171 41.5837 42.7105 41.2951 42.3575C41.007 42.014 40.6455 41.74 40.2374 41.556C39.7802 41.348 39.2825 41.2454 38.7806 41.2558C38.232 41.2558 37.7497 41.3578 37.3337 41.5631C36.9163 41.7713 36.5581 42.0474 36.2662 42.3886C35.9624 42.7437 35.7224 43.1491 35.5568 43.5866C35.3763 44.0496 35.2591 44.535 35.2085 45.0296L42.1455 45.0281ZM52.4446 43.7891C52.2246 42.9933 51.8495 42.3717 51.315 41.9242C50.7819 41.4781 50.1078 41.2558 49.2856 41.2558C48.6553 41.2558 48.1123 41.3861 47.6638 41.6452C47.2112 41.9086 46.8403 42.2541 46.5554 42.686C46.2606 43.1336 46.045 43.629 45.9179 44.1502C45.7797 44.694 45.712 45.2406 45.712 45.79C45.712 46.3521 45.7783 46.9016 45.9095 47.4368C46.0378 47.9721 46.2437 48.455 46.5328 48.8826C46.8233 49.3074 47.1914 49.6473 47.6427 49.9007C48.0911 50.1571 48.6426 50.2845 49.287 50.2845C50.2009 50.2845 50.9385 50.0296 51.4913 49.5198C52.0455 49.0115 52.4009 48.3119 52.549 47.417H53.8619C53.7624 47.9788 53.5869 48.5243 53.3401 49.0384C53.1004 49.5255 52.7901 49.9446 52.4164 50.2944C52.0399 50.6456 51.5914 50.9175 51.071 51.1072C50.498 51.3085 49.894 51.4063 49.287 51.3961C48.4353 51.3961 47.7033 51.2531 47.087 50.9628C46.4948 50.6934 45.9744 50.2873 45.5682 49.7775C45.1577 49.2496 44.8578 48.6436 44.6868 47.9962C44.4904 47.2775 44.3936 46.5352 44.3991 45.79C44.3991 45.0466 44.5049 44.3357 44.7164 43.6546C44.9162 43.0012 45.2331 42.3898 45.6514 41.8506C46.0604 41.3294 46.5723 40.9145 47.1815 40.6059C47.7908 40.2957 48.4917 40.1414 49.287 40.1414C50.5154 40.1414 51.5124 40.4373 52.2726 41.0264C53.0341 41.6197 53.5094 42.5387 53.6997 43.7877L52.4446 43.7891ZM55.8264 46.059C55.8264 46.6354 55.904 47.1819 56.0535 47.7002C56.2044 48.2114 56.4272 48.6603 56.7219 49.0384C57.0153 49.4165 57.3876 49.7167 57.8403 49.9446C58.2929 50.1726 58.8105 50.2859 59.4014 50.2859C60.2038 50.2859 60.8991 50.0707 61.4745 49.6459C62.0471 49.2182 62.432 48.615 62.6224 47.8305H63.9988C63.8549 48.3228 63.6552 48.797 63.4037 49.2437C63.1607 49.6707 62.8486 50.0541 62.48 50.378C62.0948 50.7128 61.6477 50.9683 61.1642 51.1299C60.5957 51.3176 59.9997 51.4076 59.4014 51.3961C58.5496 51.3961 57.8191 51.2531 57.2028 50.9628C56.6102 50.6935 56.0893 50.2874 55.6826 49.7775C55.2743 49.2518 54.9746 48.6496 54.8012 48.0061C54.6042 47.291 54.5079 46.5517 54.5149 45.8098C54.5149 45.0267 54.6263 44.2904 54.8519 43.6036C55.0761 42.9168 55.4005 42.3136 55.8151 41.7996C56.2321 41.2876 56.7552 40.8729 57.3481 40.5846C57.9474 40.2901 58.6328 40.1428 59.4014 40.1428C60.8638 40.1428 62.0132 40.6469 62.8481 41.6566C63.6801 42.669 64.0933 44.1346 64.0792 46.0576L55.8264 46.059ZM62.7677 45.0281C62.7677 44.5085 62.6944 44.0157 62.5519 43.554C62.4208 43.1169 62.2046 42.7102 61.9159 42.3575C61.6279 42.015 61.2676 41.7412 60.861 41.556C60.4033 41.3482 59.9051 41.2456 59.4028 41.2558C58.8528 41.2558 58.3719 41.3578 57.9531 41.5631C57.5459 41.7633 57.1832 42.0441 56.8869 42.3886C56.5841 42.7444 56.3442 43.1496 56.1776 43.5866C55.9973 44.0497 55.8796 44.535 55.8278 45.0296L62.7677 45.0281Z" fill="#B8B8B8"/>
</svg>
