<svg width="242" height="60" viewBox="0 0 242 60" fill="none" xmlns="http://www.w3.org/2000/svg">
<path opacity="0.05" d="M241.54 31.4943L231.557 29.8851C231.557 20.4598 233.182 12.4138 237.129 4.13793L227.61 0C219.252 11.7241 215.073 24.3678 215.073 39.0805V60H241.54V31.4943ZM204.161 31.4943L194.178 29.8851C194.178 20.4598 195.803 12.4138 199.75 4.13793L190.231 0C181.873 11.7241 177.694 24.3678 177.694 39.0805V60H204.161V31.4943Z" fill="black"/>
<g opacity="0.4" clip-path="url(#clip0_1_1312)">
<path d="M46.4309 37.4383C46.4309 38.2596 46.494 38.9229 46.6204 39.3966C46.7467 39.902 46.9362 40.3126 47.1889 40.5969C47.4416 40.8812 47.7259 41.1023 48.0733 41.197C48.4208 41.3234 48.8314 41.3549 49.3052 41.3549V42.4289H32.9122V41.3549C33.3228 41.3549 33.7335 41.2918 34.0809 41.197C34.4283 41.0707 34.7442 40.8812 34.9653 40.5969C35.218 40.3126 35.4075 39.902 35.5338 39.3966C35.6602 38.8913 35.7234 38.228 35.7234 37.4383V23.5407C35.7234 22.8142 35.6918 22.2141 35.6602 21.7403C35.6286 21.2349 35.5338 20.8559 35.3443 20.5084C35.1548 20.1926 34.9021 19.9399 34.5231 19.7504C34.1441 19.5609 33.6071 19.4345 32.9438 19.3398V18.2659H46.4309V37.4383Z" fill="black"/>
<path d="M40.6822 5.12634C41.4403 5.12634 42.1668 5.2211 42.8616 5.41061C43.5565 5.60013 44.1882 5.91598 44.7252 6.3266C45.2621 6.73721 45.7359 7.27416 46.0834 7.93746C46.4308 8.60076 46.5887 9.35881 46.5887 10.2748C46.5887 11.1592 46.4308 11.8857 46.0834 12.5174C45.7359 13.1491 45.2937 13.6229 44.7252 14.0335C44.1882 14.4125 43.5565 14.7284 42.8616 14.9179C42.1668 15.1074 41.4719 15.2021 40.777 15.2021C40.0505 15.2021 39.3556 15.1074 38.6923 14.9179C38.029 14.7284 37.4289 14.4125 36.892 14.0019C36.355 13.5913 35.9128 13.0543 35.597 12.4542C35.2811 11.8225 35.1232 11.096 35.1232 10.2116C35.1232 9.32723 35.2811 8.56917 35.597 7.93746C35.9128 7.30575 36.355 6.80038 36.8604 6.38977C37.3657 5.97915 37.9659 5.6633 38.6292 5.47378C39.3241 5.25269 39.9874 5.12634 40.6822 5.12634Z" fill="black"/>
<path d="M64.8452 18.2976V21.4245C65.6032 20.1927 66.5192 19.2135 67.6247 18.5187C68.7302 17.8238 70.0884 17.4763 71.6677 17.4763C74.384 17.4447 76.3739 18.1712 77.5742 19.6557C78.7744 21.1403 79.3745 23.3512 79.3745 26.2255V38.0701C79.3745 38.3544 79.4377 38.7019 79.5325 39.0809C79.6272 39.4599 79.7852 39.8073 79.9747 40.1548C80.1642 40.5022 80.4484 40.7865 80.7643 41.0076C81.1117 41.2287 81.5224 41.355 81.9961 41.3866V42.4605H67.9721V41.3866C68.288 41.355 68.5091 41.1655 68.667 40.8181C68.7934 40.4706 68.8565 39.7126 68.8565 38.5123V25.3411C68.8565 24.362 68.6354 23.6671 68.2248 23.1933C67.8142 22.7511 67.3404 22.53 66.8666 22.5932C66.3929 22.6564 65.9191 22.9406 65.5085 23.4776C65.0979 24.0145 64.8768 24.8042 64.8768 25.8465V38.2281C64.8768 39.302 64.9715 40.06 65.161 40.5022C65.3505 40.9444 65.698 41.2603 66.2665 41.4182V42.4921H51.5792V41.4182C52.6847 41.3866 53.4112 41.0392 53.7902 40.4075C54.1692 39.7758 54.3588 38.8282 54.3588 37.5964V23.5408C54.3588 22.688 54.2956 21.9931 54.2008 21.4561C54.0745 20.9192 53.9166 20.5085 53.6955 20.2243C53.4744 19.94 53.1585 19.7189 52.8111 19.5926C52.4636 19.4662 52.053 19.3715 51.5792 19.3399V18.266H64.8452V18.2976Z" fill="black"/>
<path d="M96.115 30.2686C95.8939 30.2686 95.6412 30.3002 95.3885 30.3317C95.1358 30.3633 94.8831 30.4581 94.6936 30.5844C94.4725 30.7108 94.3146 30.8687 94.1567 31.0898C93.9987 31.3109 93.9356 31.5952 93.9356 31.9742V37.9123C93.9356 38.4492 94.1251 38.7967 94.5357 39.0178C94.9463 39.2389 95.2622 39.3021 95.5464 39.2705C96.0834 39.2073 96.6203 38.9546 97.1257 38.544C97.6311 38.1334 97.8838 37.4385 97.8838 36.4594V30.2686H96.115ZM97.8838 22.688C97.8838 21.6141 97.6942 20.8561 97.2836 20.4455C96.873 20.0348 96.1465 19.7822 95.0726 19.719C94.5357 19.719 93.9671 19.7506 93.3986 19.8137C92.8301 19.8769 92.451 20.0348 92.2615 20.2559C92.9248 20.9508 93.3038 21.7089 93.4934 22.5301C93.6513 23.3513 93.5881 24.141 93.3354 24.8359C93.0512 25.5623 92.5774 26.1624 91.8509 26.6362C91.1244 27.11 90.24 27.3627 89.1345 27.3627C88.0606 27.3627 87.1131 27.0153 86.3234 26.2888C85.5338 25.5623 85.1548 24.5516 85.2179 23.2566C85.2495 22.0247 85.6601 21.014 86.4813 20.2559C87.3026 19.4979 88.2501 18.8978 89.3872 18.4871C90.4927 18.0765 91.6614 17.7923 92.8616 17.6659C94.0619 17.508 95.041 17.4448 95.7991 17.4448C96.9994 17.4448 98.326 17.5396 99.7473 17.7607C101.169 17.9818 102.527 18.3608 103.759 18.9609C104.991 19.5295 106.033 20.3507 106.886 21.4246C107.707 22.4669 108.117 23.8567 108.117 25.5939V36.9647C108.117 37.628 108.244 38.0702 108.497 38.3229C108.749 38.5756 109.002 38.7019 109.318 38.7019C109.634 38.7019 109.918 38.544 110.171 38.2597C110.423 37.9755 110.581 37.628 110.613 37.1542H111.592C111.592 38.1966 111.402 39.081 111.055 39.8706C110.708 40.6287 110.202 41.2604 109.602 41.7973C108.97 42.3343 108.244 42.7133 107.423 42.9344C106.57 43.1871 105.685 43.3134 104.738 43.3134C103.38 43.3134 102.211 43.0607 101.2 42.5238C100.221 41.9868 99.4315 41.1656 98.8945 40.0285C97.789 41.1656 96.5572 41.9868 95.2306 42.5554C93.904 43.0923 92.2931 43.345 90.4611 43.3134C89.5452 43.3134 88.6608 43.1555 87.8395 42.8712C86.9867 42.587 86.2603 42.1448 85.597 41.5762C84.9337 41.0077 84.4283 40.3128 84.0493 39.4916C83.6702 38.6703 83.4807 37.7228 83.4807 36.6489C83.4807 34.7537 83.9545 33.2692 84.9337 32.1637C85.8812 31.0582 87.0815 30.2054 88.5028 29.6053C89.9242 29.0052 91.5035 28.6261 93.2091 28.4366C94.9147 28.2471 96.5256 28.1523 98.0101 28.1208V22.688H97.8838Z" fill="black"/>
<path d="M125.016 18.2976V21.4245C125.774 20.1927 126.69 19.2135 127.795 18.5187C128.901 17.8238 130.259 17.4763 131.838 17.4763C134.555 17.4447 136.545 18.1712 137.745 19.6557C138.945 21.1403 139.545 23.3512 139.545 26.2255V38.0701C139.545 38.3544 139.608 38.7019 139.703 39.0809C139.798 39.4599 139.956 39.8073 140.145 40.1548C140.335 40.5022 140.619 40.7865 140.935 41.0076C141.282 41.2287 141.693 41.355 142.167 41.3866V42.4605H128.143V41.3866C128.459 41.355 128.68 41.1655 128.838 40.8181C128.964 40.4706 129.027 39.7126 129.027 38.5123V25.3411C129.027 24.362 128.806 23.6671 128.395 23.1933C127.985 22.7511 127.511 22.53 127.037 22.5932C126.532 22.6564 126.09 22.9406 125.679 23.4776C125.269 24.0145 125.047 24.8042 125.047 25.8465V38.2281C125.047 39.302 125.142 40.06 125.332 40.5022C125.521 40.9444 125.869 41.2603 126.437 41.4182V42.4921H111.75V41.4182C112.855 41.3866 113.582 41.0392 113.961 40.4075C114.34 39.7758 114.529 38.8282 114.529 37.5964V23.5408C114.529 22.688 114.466 21.9931 114.371 21.4561C114.245 20.9192 114.087 20.5085 113.866 20.2243C113.645 19.94 113.329 19.7189 112.982 19.5926C112.634 19.4662 112.224 19.3715 111.75 19.3399V18.266H125.016V18.2976Z" fill="black"/>
<path d="M168.225 35.1643C166.867 37.8174 165.193 39.8389 163.234 41.1971C161.276 42.5553 158.749 43.2502 155.654 43.2817C153.79 43.2817 152.053 42.9975 150.442 42.3974C148.831 41.7972 147.41 40.976 146.178 39.8705C144.946 38.765 143.999 37.4068 143.272 35.8275C142.546 34.2483 142.198 32.4795 142.198 30.5212C142.198 28.5629 142.577 26.7941 143.304 25.2148C144.03 23.6355 145.041 22.2457 146.304 21.1087C147.568 19.94 149.052 19.0556 150.726 18.4239C152.432 17.7922 154.232 17.4763 156.128 17.4763C156.886 17.4763 157.675 17.5079 158.528 17.5395C159.381 17.6027 160.265 17.729 161.15 17.9501C162.034 18.1712 162.855 18.4871 163.645 18.8661C164.435 19.2451 165.129 19.7189 165.73 20.2559C166.33 20.7928 166.804 21.4245 167.183 22.1194C167.53 22.8459 167.72 23.6355 167.72 24.5199C167.72 25.2464 167.593 25.8781 167.34 26.3835C167.088 26.9204 166.74 27.3626 166.298 27.7416C165.856 28.1207 165.351 28.3733 164.814 28.5629C164.245 28.7524 163.677 28.8155 163.108 28.8155C162.255 28.8155 161.497 28.5944 160.771 28.1838C160.044 27.7732 159.539 27.1731 159.223 26.415C159.033 26.0044 158.907 25.5306 158.876 25.0884C158.844 24.6147 158.907 24.1409 159.033 23.6671C159.16 23.1933 159.381 22.7827 159.634 22.3721C159.918 21.9931 160.265 21.6456 160.676 21.3929C160.613 20.8876 160.265 20.4769 159.665 20.1611C159.065 19.8768 158.402 19.6873 157.707 19.6241C156.98 19.561 156.349 19.5926 155.749 19.7821C155.148 19.94 154.864 20.2243 154.864 20.6033V37.849C154.864 38.1333 154.959 38.386 155.18 38.6387C155.401 38.8598 155.654 39.0493 155.97 39.2072C156.286 39.3651 156.633 39.4599 156.98 39.5546C157.359 39.6494 157.707 39.681 158.086 39.681C159.381 39.681 160.581 39.4283 161.655 38.9545C162.729 38.4807 163.677 37.9122 164.466 37.2805C165.256 36.6488 165.888 36.0486 166.33 35.4801C166.804 34.9116 167.088 34.5325 167.183 34.343L168.225 35.1643Z" fill="black"/>
<path d="M186.26 28.8787V20.8244C186.26 20.4454 186.039 20.1611 185.628 19.9716C185.218 19.7821 184.776 19.6873 184.302 19.6873C183.86 19.6873 183.386 19.7821 182.944 19.9716C182.501 20.1611 182.28 20.4454 182.28 20.8244V28.8787H186.26ZM182.312 31.1213V37.5963C182.312 37.9438 182.407 38.2596 182.628 38.4807C182.849 38.7334 183.102 38.9229 183.417 39.0809C183.733 39.2388 184.081 39.3651 184.46 39.4599C184.839 39.5546 185.249 39.5862 185.628 39.6494C187.492 39.7757 189.229 39.3651 190.903 38.3544C192.577 37.3752 194.093 36.0486 195.452 34.3746L196.557 35.1643C195.199 37.7859 193.493 39.8073 191.44 41.1971C189.387 42.5869 187.018 43.2817 184.27 43.2817C182.312 43.2817 180.48 42.9975 178.774 42.4605C177.069 41.9236 175.584 41.1023 174.352 40.0284C173.089 38.9545 172.11 37.6279 171.383 36.0171C170.657 34.4378 170.278 32.5742 170.278 30.458C170.278 28.4997 170.657 26.7309 171.383 25.1516C172.11 23.5723 173.089 22.1826 174.321 21.0455C175.553 19.8768 177.006 18.9924 178.68 18.3923C180.354 17.7606 182.122 17.4763 184.018 17.4763C185.976 17.4763 187.713 17.8238 189.261 18.4871C190.808 19.1819 192.135 20.1295 193.209 21.3298C194.283 22.5616 195.136 23.983 195.704 25.657C196.273 27.2994 196.557 29.1314 196.557 31.1213H182.312Z" fill="black"/>
<path d="M135.534 54.2735C135.692 54.2735 135.85 54.2419 135.976 54.1787C136.102 54.1471 136.229 54.0524 136.292 53.926C136.387 53.7997 136.45 53.6733 136.481 53.4838C136.513 53.2943 136.545 53.0416 136.545 52.7574V47.7984C136.545 47.5457 136.545 47.2931 136.513 47.1035C136.481 46.914 136.45 46.7245 136.387 46.5982C136.323 46.4718 136.229 46.3455 136.071 46.2823C135.944 46.2191 135.755 46.156 135.502 46.1244V45.7454H140.493V47.3246C140.619 47.072 140.745 46.8509 140.903 46.6298C141.061 46.4087 141.251 46.2191 141.44 46.0612C141.661 45.9033 141.882 45.7454 142.135 45.6506C142.388 45.5558 142.672 45.4927 142.988 45.4927C143.588 45.4927 144.093 45.6822 144.473 46.0296C144.852 46.4087 145.009 46.9456 145.009 47.6721C145.009 48.209 144.82 48.6512 144.504 48.9671C144.188 49.2829 143.746 49.4409 143.146 49.4409C142.893 49.4409 142.641 49.4093 142.451 49.3145C142.262 49.2198 142.072 49.0934 141.946 48.9355C141.819 48.7776 141.693 48.5881 141.63 48.3985C141.567 48.1774 141.535 47.9564 141.535 47.7353C141.535 47.6405 141.503 47.6089 141.44 47.6089C141.314 47.6089 141.219 47.6405 141.124 47.7353C141.03 47.83 140.935 47.9248 140.84 48.0511C140.745 48.1775 140.682 48.3354 140.619 48.4933C140.556 48.6512 140.524 48.8092 140.493 48.9671V52.3467C140.493 52.6626 140.493 52.9153 140.524 53.168C140.556 53.3891 140.587 53.5786 140.682 53.7365C140.745 53.8944 140.872 54.0208 140.998 54.084C141.124 54.1787 141.314 54.2103 141.535 54.2419V54.6525H135.502V54.2735H135.534Z" fill="black" fill-opacity="0.4"/>
<path d="M151.105 49.6621V46.693C151.105 46.5351 151.042 46.4403 150.884 46.3772C150.726 46.314 150.569 46.2824 150.411 46.2824C150.253 46.2824 150.095 46.314 149.905 46.3772C149.747 46.4403 149.653 46.5351 149.653 46.693V49.6621H151.105ZM149.653 50.4833V52.8838C149.653 53.0101 149.684 53.1365 149.779 53.2312C149.842 53.326 149.937 53.3892 150.063 53.4523C150.189 53.5155 150.316 53.5471 150.442 53.5787C150.6 53.6103 150.726 53.6418 150.884 53.6418C151.579 53.705 152.211 53.5155 152.843 53.1681C153.474 52.789 154.011 52.3152 154.517 51.7151L154.927 51.9994C154.422 52.9785 153.79 53.705 153.032 54.242C152.274 54.7473 151.39 55 150.379 55C149.653 55 148.989 54.9053 148.358 54.6842C147.726 54.4947 147.189 54.1788 146.715 53.7998C146.241 53.3892 145.894 52.9154 145.61 52.3153C145.325 51.7151 145.199 51.0518 145.199 50.2622C145.199 49.5357 145.325 48.904 145.61 48.3039C145.894 47.7038 146.241 47.1984 146.683 46.7878C147.126 46.3772 147.694 46.0297 148.294 45.8086C148.926 45.5875 149.558 45.4612 150.253 45.4612C150.979 45.4612 151.611 45.5875 152.179 45.8402C152.748 46.0929 153.222 46.4403 153.632 46.8825C154.043 47.3247 154.327 47.8617 154.548 48.4618C154.769 49.0619 154.864 49.7568 154.864 50.4833H149.653Z" fill="black" fill-opacity="0.4"/>
<path d="M154.454 45.7454H160.518V46.156C160.076 46.156 159.823 46.2823 159.76 46.5034C159.665 46.7245 159.697 47.0088 159.792 47.2931L161.276 51.4939L162.476 47.9564C162.603 47.5142 162.666 47.1983 162.634 46.9456C162.603 46.6929 162.54 46.535 162.413 46.4087C162.318 46.2823 162.16 46.2191 162.003 46.1876C161.845 46.156 161.718 46.156 161.592 46.156V45.7454H165.161V46.156C164.845 46.1876 164.593 46.3139 164.435 46.5034C164.245 46.6929 164.119 46.914 164.024 47.1983L161.402 54.6841H158.37L155.843 47.9564C155.654 47.3878 155.433 46.9456 155.243 46.6298C155.054 46.3455 154.769 46.156 154.422 46.156V45.7454H154.454Z" fill="black" fill-opacity="0.4"/>
<path d="M168.636 41.4182C168.92 41.4182 169.172 41.4498 169.425 41.513C169.678 41.5761 169.899 41.7025 170.12 41.8604C170.31 42.0183 170.499 42.2079 170.625 42.4605C170.752 42.7132 170.815 42.9975 170.815 43.3133C170.815 43.6292 170.752 43.9135 170.625 44.1346C170.499 44.3557 170.341 44.5452 170.12 44.7031C169.931 44.861 169.678 44.9558 169.425 45.019C169.172 45.0821 168.92 45.1137 168.667 45.1137C168.414 45.1137 168.13 45.0821 167.909 45.019C167.656 44.9558 167.435 44.8295 167.246 44.6715C167.056 44.5136 166.898 44.3241 166.772 44.103C166.646 43.8819 166.582 43.5976 166.582 43.2818C166.582 42.9659 166.646 42.6816 166.772 42.4605C166.898 42.2394 167.056 42.0499 167.246 41.892C167.435 41.7341 167.656 41.6393 167.909 41.5446C168.13 41.4498 168.383 41.4182 168.636 41.4182ZM170.783 52.8206C170.783 53.1049 170.815 53.3576 170.847 53.5471C170.91 53.7366 170.973 53.8629 171.068 53.9893C171.162 54.084 171.257 54.1788 171.383 54.2104C171.51 54.242 171.668 54.2735 171.826 54.2735V54.6842H165.793V54.2735C165.951 54.2735 166.077 54.242 166.235 54.2104C166.361 54.1788 166.488 54.084 166.551 53.9893C166.646 53.8945 166.709 53.7366 166.772 53.5471C166.835 53.3576 166.835 53.1049 166.835 52.8206V47.7037C166.835 47.4511 166.835 47.23 166.804 47.0404C166.804 46.8509 166.74 46.7246 166.677 46.5982C166.614 46.4719 166.519 46.3772 166.361 46.314C166.235 46.2508 166.014 46.1876 165.761 46.1561V45.7454H170.72V52.8206H170.783Z" fill="black" fill-opacity="0.4"/>
<path d="M177.543 49.6621V46.693C177.543 46.5351 177.48 46.4403 177.322 46.3772C177.164 46.314 177.006 46.2824 176.848 46.2824C176.69 46.2824 176.532 46.314 176.342 46.3772C176.185 46.4403 176.09 46.5351 176.09 46.693V49.6621H177.543ZM176.09 50.4833V52.8838C176.09 53.0101 176.121 53.1365 176.216 53.2312C176.279 53.326 176.374 53.3892 176.5 53.4523C176.627 53.5155 176.753 53.5471 176.879 53.5787C177.037 53.6103 177.164 53.6418 177.322 53.6418C178.017 53.705 178.648 53.5155 179.28 53.1681C179.912 52.789 180.449 52.3152 180.954 51.7151L181.365 51.9994C180.859 52.9785 180.228 53.705 179.469 54.242C178.711 54.7473 177.827 55 176.816 55C176.09 55 175.427 54.9053 174.795 54.6842C174.163 54.4947 173.626 54.1788 173.152 53.7998C172.679 53.3892 172.331 52.9154 172.047 52.3153C171.763 51.7151 171.636 51.0518 171.636 50.2622C171.636 49.5357 171.763 48.904 172.047 48.3039C172.331 47.7038 172.679 47.1984 173.152 46.7878C173.595 46.3772 174.131 46.0297 174.763 45.8086C175.395 45.5875 176.027 45.4612 176.722 45.4612C177.448 45.4612 178.08 45.5875 178.648 45.8402C179.217 46.0929 179.691 46.4403 180.101 46.8825C180.512 47.3247 180.796 47.8617 181.017 48.4618C181.238 49.0619 181.333 49.7568 181.333 50.4833H176.09Z" fill="black" fill-opacity="0.4"/>
<path d="M192.356 45.7454V46.156C191.914 46.156 191.661 46.2823 191.598 46.5034C191.503 46.7245 191.535 47.0088 191.63 47.2931L193.02 51.3992L194.315 47.9564C194.472 47.5457 194.567 47.1983 194.536 46.9456C194.504 46.6929 194.441 46.5034 194.315 46.4087C194.188 46.2823 194.062 46.2191 193.904 46.1876C193.746 46.156 193.62 46.156 193.493 46.156V45.7454H196.999V46.156C196.715 46.1876 196.462 46.3139 196.273 46.5034C196.083 46.6929 195.925 46.914 195.831 47.1983L193.114 54.6841H190.145L188.787 50.5464L187.397 54.6841H184.365L181.933 47.9564C181.743 47.3878 181.522 46.9456 181.364 46.6613C181.175 46.3455 180.922 46.1876 180.543 46.156V45.7454H185.976V46.156C185.786 46.156 185.723 46.2823 185.723 46.5034C185.723 46.7245 185.786 47.0088 185.881 47.2931L187.145 51.3676L188.345 47.5457C188.471 47.1983 188.44 46.8509 188.282 46.5666C188.124 46.2823 187.839 46.1244 187.366 46.1244V45.7454H192.356Z" fill="black" fill-opacity="0.4"/>
<path d="M57.8016 12.8964C57.5489 13.2123 57.1699 13.4649 56.6961 13.7176C56.1907 13.9387 55.5906 14.0651 54.8641 14.0651C53.9166 14.0651 53.1585 13.7808 52.59 13.2123C51.9898 12.6437 51.7056 11.8857 51.7056 10.9697V9.3904C51.7056 8.47442 51.9898 7.71637 52.5584 7.14782C53.1269 6.57928 53.8534 6.26343 54.7694 6.26343C55.7485 6.26343 56.475 6.48453 56.9488 6.92673C57.4226 7.36892 57.7068 8.00064 57.77 8.79028V8.82186H56.1276C56.0644 8.41125 55.938 8.12698 55.7485 7.90588C55.559 7.71636 55.2432 7.59002 54.8325 7.59002C54.4219 7.59002 54.1061 7.74795 53.8534 8.06381C53.6007 8.37966 53.4744 8.82186 53.4744 9.32723V10.9381C53.4744 11.4751 53.6007 11.8857 53.8534 12.2015C54.1061 12.5174 54.4535 12.6753 54.8957 12.6753C55.2116 12.6753 55.4643 12.6437 55.6538 12.6121C55.8433 12.549 55.9696 12.4858 56.096 12.391V11.1908H54.8957V10.0537H57.8648V12.8964H57.8016Z" fill="black" fill-opacity="0.4"/>
<path d="M61.0865 12.6121H64.3399V13.9387H59.3177V6.35815H61.0865V12.6121Z" fill="black" fill-opacity="0.4"/>
<path d="M69.9304 9.45357C69.9304 8.91662 69.8041 8.47442 69.5514 8.12698C69.2987 7.77954 68.9197 7.59002 68.4775 7.59002C68.0037 7.59002 67.6247 7.77954 67.372 8.09539C67.1193 8.44283 66.9929 8.88503 66.9929 9.42199V10.8118C66.9929 11.3487 67.1193 11.8225 67.372 12.1699C67.6247 12.5174 68.0037 12.7069 68.4775 12.7069C68.9513 12.7069 69.2987 12.5174 69.5514 12.1699C69.8041 11.8225 69.9304 11.3803 69.9304 10.8118V9.45357ZM71.6992 10.8433C71.6992 11.7909 71.4149 12.549 70.8148 13.1491C70.2147 13.7492 69.4566 14.0651 68.4775 14.0651C67.4983 14.0651 66.7403 13.7492 66.1401 13.1491C65.54 12.549 65.2557 11.7593 65.2557 10.8433V9.48516C65.2557 8.53759 65.54 7.77954 66.1401 7.17941C66.7403 6.57928 67.5299 6.26343 68.4775 6.26343C69.425 6.26343 70.2147 6.57928 70.8148 7.17941C71.4149 7.77954 71.6992 8.56918 71.6992 9.48516V10.8433Z" fill="black" fill-opacity="0.4"/>
<path d="M74.7 10.6854V12.5805H75.9318C76.3108 12.5805 76.5951 12.5173 76.7846 12.3594C76.9741 12.2015 77.0689 11.9804 77.0689 11.6645C77.0689 11.3487 76.9741 11.096 76.8162 10.9065C76.6583 10.7486 76.4056 10.6538 76.0265 10.6538H74.7V10.6854ZM74.7 9.51671H75.5843C75.995 9.51671 76.2792 9.42196 76.4687 9.29562C76.6583 9.13769 76.753 8.91659 76.753 8.63232C76.753 8.31646 76.6583 8.06378 76.4372 7.93743C76.2476 7.77951 75.9318 7.71634 75.5212 7.71634H74.6684V9.51671H74.7ZM72.9312 13.9703V6.35815H75.5528C76.5003 6.35815 77.2268 6.54767 77.7638 6.89511C78.3007 7.24255 78.5534 7.77951 78.5534 8.4428C78.5534 8.79025 78.4586 9.13769 78.3007 9.42196C78.1428 9.70623 77.8585 9.92733 77.5111 10.0537C77.9533 10.1484 78.2691 10.3695 78.4902 10.6538C78.7113 10.9697 78.8061 11.3171 78.8061 11.6961C78.8061 12.4226 78.5534 12.9911 78.048 13.3702C77.5427 13.7492 76.8478 13.9387 75.9002 13.9387H72.9312V13.9703Z" fill="black" fill-opacity="0.4"/>
<path d="M82.0594 11.1276H83.6702L82.8806 8.41125H82.849L82.0594 11.1276ZM84.0493 12.4858H81.6488L81.2382 13.9703H79.4694L81.933 6.38977H83.8282L86.2918 13.9703H84.5231L84.0493 12.4858Z" fill="black" fill-opacity="0.4"/>
<path d="M89.1977 12.6121H92.4826V13.9387H87.429V6.35815H89.1977V12.6121Z" fill="black" fill-opacity="0.4"/>
<path d="M100.158 10.6854V12.5805H101.39C101.769 12.5805 102.053 12.5173 102.243 12.3594C102.432 12.2015 102.527 11.9804 102.527 11.6645C102.527 11.3487 102.464 11.096 102.274 10.9065C102.116 10.7486 101.864 10.6538 101.485 10.6538H100.158V10.6854ZM100.158 9.51671H101.042C101.453 9.51671 101.737 9.42196 101.927 9.29562C102.116 9.13769 102.211 8.91659 102.211 8.63232C102.211 8.31646 102.116 8.06378 101.895 7.93743C101.706 7.77951 101.39 7.71634 100.979 7.71634H100.126V9.51671H100.158ZM98.3892 13.9703V6.35815H101.011C101.958 6.35815 102.685 6.54767 103.222 6.89511C103.759 7.24255 104.011 7.77951 104.011 8.4428C104.011 8.79025 103.917 9.13769 103.759 9.42196C103.601 9.70623 103.317 9.92733 102.969 10.0537C103.411 10.1484 103.727 10.3695 103.948 10.6538C104.169 10.9697 104.264 11.3171 104.264 11.6961C104.264 12.4226 104.011 12.9911 103.506 13.3702C103.001 13.7492 102.306 13.9387 101.358 13.9387H98.3892V13.9703Z" fill="black" fill-opacity="0.4"/>
<path d="M107.517 11.1276H109.128L108.339 8.41125H108.307L107.517 11.1276ZM109.507 12.4858H107.107L106.696 13.9703H104.927L107.391 6.38977H109.286L111.75 13.9703H109.981L109.507 12.4858Z" fill="black" fill-opacity="0.4"/>
<path d="M119.236 13.9703H117.467L114.687 9.1061L114.656 9.13769V13.9703H112.887V6.35815H114.656L117.435 11.1908H117.467V6.35815H119.236V13.9703Z" fill="black" fill-opacity="0.4"/>
<path d="M123.658 10.9065H122.836V13.9387H121.068V6.35815H122.836V9.3272H123.436L125.11 6.35815H127.29L124.953 9.80098L127.511 13.9387H125.332L123.658 10.9065Z" fill="black" fill-opacity="0.4"/>
<path d="M130.512 6.35815H128.743V13.9703H130.512V6.35815Z" fill="black" fill-opacity="0.4"/>
<path d="M138.787 13.9703H137.018L134.239 9.1061L134.207 9.13769V13.9703H132.438V6.35815H134.207L136.987 11.1908H137.018V6.35815H138.787V13.9703Z" fill="black" fill-opacity="0.4"/>
<path d="M146.62 12.8964C146.368 13.2123 145.989 13.4649 145.515 13.7176C145.01 13.9387 144.409 14.0651 143.683 14.0651C142.735 14.0651 141.977 13.7808 141.409 13.2123C140.809 12.6437 140.524 11.8857 140.524 10.9697V9.3904C140.524 8.47442 140.809 7.71637 141.377 7.14782C141.946 6.57928 142.704 6.26343 143.588 6.26343C144.567 6.26343 145.294 6.48453 145.768 6.92673C146.241 7.36892 146.526 8.00064 146.589 8.79028V8.82186H144.946C144.883 8.41125 144.757 8.12698 144.567 7.90588C144.378 7.71636 144.062 7.59002 143.651 7.59002C143.241 7.59002 142.893 7.74795 142.672 8.06381C142.42 8.37966 142.293 8.82186 142.293 9.32723V10.9381C142.293 11.4751 142.42 11.8857 142.672 12.2015C142.925 12.5174 143.272 12.6753 143.715 12.6753C144.03 12.6753 144.283 12.6437 144.473 12.6121C144.662 12.549 144.788 12.4858 144.915 12.391V11.1908H143.715V10.0537H146.684V12.8964H146.62Z" fill="black" fill-opacity="0.4"/>
<path d="M153.948 8.28491C153.948 8.41125 153.98 8.56918 154.043 8.69552C154.106 8.85345 154.201 8.97979 154.327 9.1693L154.643 8.97979C154.833 8.85345 154.959 8.7271 155.022 8.60076C155.085 8.47442 155.117 8.34808 155.117 8.22173C155.117 8.06381 155.054 7.93746 154.959 7.81112C154.864 7.68478 154.706 7.62161 154.548 7.62161C154.359 7.62161 154.201 7.68478 154.075 7.81112C153.98 7.93746 153.948 8.09539 153.948 8.28491ZM154.359 12.7069C154.517 12.7069 154.643 12.6753 154.801 12.6437C154.959 12.6121 155.085 12.549 155.243 12.4858L153.854 10.9065L153.79 10.9381C153.696 11.0644 153.601 11.1908 153.569 11.3171C153.538 11.4435 153.506 11.6014 153.506 11.7593C153.506 12.012 153.601 12.2331 153.759 12.4226C153.917 12.6121 154.106 12.7069 154.359 12.7069ZM153.064 9.95894C152.843 9.64309 152.685 9.35882 152.559 9.10613C152.432 8.85345 152.401 8.56918 152.401 8.31649C152.401 7.71637 152.59 7.211 153.001 6.83197C153.411 6.45294 153.917 6.26343 154.548 6.26343C155.117 6.26343 155.559 6.45294 155.907 6.80038C156.254 7.14782 156.412 7.59002 156.412 8.09539C156.412 8.44283 156.349 8.75869 156.191 9.04296C156.033 9.32723 155.812 9.57992 155.559 9.76943L155.117 10.0853L156.38 11.5382C156.507 11.3487 156.601 11.1276 156.665 10.9065C156.728 10.6854 156.759 10.4327 156.759 10.18H157.991C157.991 10.6854 157.928 11.1276 157.833 11.5382C157.739 11.9488 157.549 12.3279 157.296 12.6437L158.433 13.9703V14.0019H156.507L156.128 13.5597C155.812 13.7492 155.528 13.8756 155.212 13.9703C154.927 14.0651 154.58 14.0967 154.201 14.0967C153.443 14.0967 152.843 13.9071 152.401 13.4965C151.958 13.0859 151.737 12.5805 151.737 11.9488C151.737 11.5382 151.832 11.1908 152.053 10.9065C152.274 10.5907 152.622 10.3064 153.064 9.95894Z" fill="black" fill-opacity="0.4"/>
<path d="M30.5433 5V19.3399H28.585C28.427 17.8238 28.0164 16.3708 27.3847 14.9495C26.753 13.5281 25.9634 12.2647 24.9526 11.1276C23.9419 10.0221 22.71 9.10613 21.2887 8.41124C19.8673 7.71636 18.2565 7.36892 16.4245 7.36892V22.4037C17.53 22.4037 18.4776 22.1826 19.2988 21.772C20.0884 21.3613 20.7833 20.8244 21.3203 20.1295C21.8572 19.4346 22.2678 18.645 22.5521 17.6974C22.8364 16.7814 23.0259 15.8023 23.0891 14.76H24.542V33.4586H23.0891C22.9627 31.8162 22.6469 30.4264 22.1731 29.3209C21.6993 28.2154 21.1308 27.2994 20.4675 26.573C19.8042 25.8781 19.1409 25.3411 18.4144 24.9621C17.6879 24.6147 17.0562 24.362 16.4561 24.2672V36.9015C16.4561 37.7227 16.5824 38.4176 16.8351 38.9545C17.0878 39.4915 17.4353 39.9653 17.8143 40.3127C18.2249 40.6601 18.6355 40.9128 19.1093 41.0708C19.5831 41.2287 19.9937 41.2919 20.3727 41.2919V42.4289H0V41.3234C0.379027 41.3234 0.78964 41.2287 1.23184 41.0708C1.67404 40.9128 2.08465 40.6286 2.49526 40.2811C2.90587 39.9337 3.22173 39.4599 3.47442 38.8913C3.7271 38.3228 3.85344 37.6279 3.85344 36.8067V10.5907C3.85344 9.76943 3.7271 9.07454 3.47442 8.53759C3.22173 7.96905 2.90587 7.52685 2.49526 7.17941C2.08465 6.86355 1.67404 6.61087 1.23184 6.42135C0.78964 6.26342 0.379027 6.16867 0 6.13708V5H30.5433Z" fill="black"/>
</g>
<defs>
<clipPath id="clip0_1_1312">
<rect width="196.968" height="50" fill="white" transform="translate(0 5)"/>
</clipPath>
</defs>
</svg>
