<svg width="102" height="96" viewBox="0 0 102 96" fill="none" xmlns="http://www.w3.org/2000/svg">
<path fill-rule="evenodd" clip-rule="evenodd" d="M32.1072 78.7666C31.4318 76.9116 31.5259 74.9625 32.2268 73.2699C33.8596 74.1162 35.1846 75.5438 35.86 77.3988C36.5353 79.2539 36.4413 81.2029 35.7403 82.8956C34.1161 82.0492 32.7911 80.6216 32.1072 78.7666ZM29.611 84.1693C27.756 84.8532 26.3284 86.1782 25.4906 87.8024C27.1832 88.5119 29.1237 88.5974 30.9788 87.9221C32.8338 87.2468 34.2529 85.9132 35.0992 84.289C33.4065 83.588 31.466 83.4854 29.611 84.1693Z" fill="#D2A02A"/>
<path fill-rule="evenodd" clip-rule="evenodd" d="M26.3392 75.0218C25.9887 73.0727 26.4162 71.175 27.4078 69.6277C28.8611 70.739 29.9211 72.3718 30.263 74.3208C30.6135 76.2699 30.1861 78.1677 29.1945 79.715C27.7412 78.6036 26.6726 76.9623 26.3392 75.0218ZM22.9284 79.8945C20.9879 80.245 19.3551 81.305 18.2438 82.7668C19.7825 83.7499 21.6803 84.1858 23.6294 83.8354C25.5699 83.4849 27.2112 82.4248 28.314 80.963C26.7752 79.9885 24.8774 79.5611 22.9284 79.8945Z" fill="#D2A02A"/>
<path fill-rule="evenodd" clip-rule="evenodd" d="M21.2953 70.3203C21.2868 68.3456 22.039 66.5504 23.2786 65.1997C24.5267 66.5418 25.2875 68.337 25.2875 70.3203C25.2875 72.295 24.5352 74.0987 23.2957 75.4409C22.0561 74.0902 21.2953 72.3035 21.2953 70.3203ZM17.0894 74.5347C15.1233 74.5433 13.3281 75.3041 11.986 76.5436C13.3281 77.7832 15.1318 78.5354 17.098 78.5354C19.0642 78.5354 20.8679 77.7746 22.21 76.5265C20.8593 75.287 19.0641 74.5347 17.0894 74.5347Z" fill="#D2A02A"/>
<path fill-rule="evenodd" clip-rule="evenodd" d="M17.1309 64.8147C17.4729 62.8657 18.5158 61.2243 19.969 60.113C20.9607 61.6603 21.4052 63.5581 21.0632 65.5072C20.7213 67.4562 19.6698 69.0975 18.2166 70.2089C17.2335 68.6616 16.7975 66.7638 17.1309 64.8147ZM12.2668 68.2427C10.3263 67.9008 8.41996 68.3282 6.88123 69.3284C7.99254 70.7816 9.63385 71.8416 11.5744 72.175C13.5149 72.517 15.4212 72.0895 16.9599 71.0894C15.8572 69.6361 14.2159 68.5761 12.2668 68.2427Z" fill="#D2A02A"/>
<path fill-rule="evenodd" clip-rule="evenodd" d="M14.0003 58.6684C14.6757 56.8133 15.9921 55.3772 17.6078 54.5309C18.3173 56.2235 18.4199 58.1726 17.7531 60.0276C17.0778 61.8826 15.7528 63.3188 14.1371 64.1651C13.4276 62.481 13.325 60.532 14.0003 58.6684ZM8.61475 61.1987C6.75972 60.5234 4.81065 60.626 3.12659 61.3355C3.97289 62.9597 5.4005 64.2848 7.25553 64.9601C9.11056 65.6354 11.0596 65.5328 12.7437 64.8233C11.9059 63.1905 10.4698 61.8741 8.61475 61.1987Z" fill="#D2A02A"/>
<path fill-rule="evenodd" clip-rule="evenodd" d="M11.9746 52.0774C12.9577 50.3677 14.5135 49.188 16.2488 48.6323C16.6592 50.419 16.4198 52.3595 15.4367 54.0692C14.4536 55.7789 12.8978 56.9671 11.1539 57.5143C10.7436 55.7276 10.9915 53.7871 11.9746 52.0774ZM6.22996 53.6332C4.52025 52.6501 2.58828 52.4108 0.801636 52.8211C1.34874 54.565 2.52844 56.1208 4.23815 57.1039C5.94785 58.087 7.87982 58.3349 9.66647 57.9331C9.12791 56.1721 7.93966 54.6163 6.22996 53.6332Z" fill="#D2A02A"/>
<path fill-rule="evenodd" clip-rule="evenodd" d="M11.1216 45.2302C12.3868 43.7172 14.1222 42.8196 15.9345 42.5802C16.02 44.4096 15.4472 46.2732 14.1906 47.7948C12.9168 49.3079 11.19 50.2055 9.37774 50.4449C9.29226 48.6155 9.86501 46.7519 11.1216 45.2302ZM5.20606 45.7603C3.69297 44.4951 1.82939 43.9223 0 44.0164C0.239359 45.8286 1.12841 47.5725 2.6415 48.8377C4.15459 50.1029 6.01817 50.6757 7.84756 50.5902C7.61675 48.7693 6.71915 47.0254 5.20606 45.7603Z" fill="#D2A02A"/>
<path fill-rule="evenodd" clip-rule="evenodd" d="M11.4703 38.3401C12.9834 37.0663 14.8385 36.4936 16.6679 36.5705C16.437 38.3828 15.548 40.1267 14.0435 41.4004C12.5389 42.6742 10.6753 43.2469 8.84595 43.17C9.07676 41.3577 9.96581 39.6138 11.4703 38.3401ZM5.55476 37.8357C4.28103 36.3312 2.54568 35.4421 0.733387 35.2113C0.65645 37.0407 1.2292 38.9043 2.49439 40.4174C3.76812 41.9305 5.50347 42.8195 7.31576 43.0589C7.3927 41.2124 6.81994 39.3488 5.55476 37.8357Z" fill="#D2A02A"/>
<path fill-rule="evenodd" clip-rule="evenodd" d="M13.0098 31.6211C14.711 30.6295 16.6429 30.3816 18.4381 30.7748C17.891 32.5273 16.7199 34.0745 15.0102 35.0747C13.309 36.0578 11.377 36.3143 9.59038 35.921C10.1289 34.1686 11.3001 32.6127 13.0098 31.6211ZM7.27373 30.0909C6.2821 28.3812 4.72626 27.2015 2.98236 26.663C2.58058 28.4496 2.82849 30.3901 3.81157 32.0913C4.8032 33.801 6.35903 34.9807 8.10293 35.5278C8.50472 33.7326 8.25681 31.7921 7.27373 30.0909Z" fill="#D2A02A"/>
<path fill-rule="evenodd" clip-rule="evenodd" d="M15.6975 25.2606C17.5525 24.5767 19.5016 24.6793 21.1856 25.3803C20.3564 27.0131 18.9203 28.3381 17.0653 29.022C15.2188 29.6973 13.2697 29.6033 11.5856 28.9023C12.4148 27.2695 13.851 25.9445 15.6975 25.2606ZM10.3119 22.7559C9.62802 20.9009 8.303 19.4733 6.67878 18.627C5.9778 20.3196 5.89231 22.2686 6.5591 24.1237C7.24298 25.9787 8.56801 27.4063 10.1922 28.2526C10.8932 26.56 10.9872 24.6195 10.3119 22.7559Z" fill="#D2A02A"/>
<path fill-rule="evenodd" clip-rule="evenodd" d="M19.4398 19.4739C21.3803 19.1234 23.2867 19.5508 24.8339 20.5424C23.7226 21.9957 22.0813 23.0643 20.1408 23.4062C18.2088 23.7567 16.294 23.3293 14.7552 22.3376C15.8665 20.8844 17.4908 19.8158 19.4398 19.4739ZM14.5672 16.0716C14.2167 14.1225 13.1566 12.4897 11.7119 11.3784C10.7289 12.9257 10.2929 14.8235 10.6434 16.7725C10.9853 18.7216 12.0368 20.3629 13.4986 21.4657C14.4817 19.9184 14.9176 18.0121 14.5672 16.0716Z" fill="#D2A02A"/>
<path fill-rule="evenodd" clip-rule="evenodd" d="M24.1292 14.4132C26.1039 14.4132 27.8991 15.1655 29.2412 16.405C27.8991 17.6531 26.1039 18.414 24.1378 18.414C22.1545 18.414 20.3679 17.6617 19.0172 16.4221C20.3593 15.1912 22.1545 14.4218 24.1292 14.4132ZM19.9148 10.2159C19.9148 8.2412 19.154 6.43746 17.9059 5.09534C16.6663 6.44601 15.9141 8.24975 15.9141 10.2245C15.9226 12.1992 16.6834 14.0029 17.923 15.345C19.1625 13.9944 19.9148 12.1906 19.9148 10.2159Z" fill="#D2A02A"/>
<path fill-rule="evenodd" clip-rule="evenodd" d="M29.6246 10.2668C31.5651 10.6087 33.2065 11.6602 34.3263 13.1135C32.7876 14.1051 30.8898 14.5411 28.9407 14.2077C27.0002 13.8657 25.3589 12.8057 24.2476 11.3525C25.7863 10.3608 27.6841 9.92485 29.6246 10.2668ZM26.2138 5.39413C26.5557 3.44506 26.1112 1.54729 25.1281 0C23.6748 1.11131 22.6234 2.75263 22.2814 4.70169C21.9395 6.65076 22.384 8.54854 23.3671 10.0958C24.8118 8.97596 25.8718 7.33464 26.2138 5.39413Z" fill="#D2A02A"/>
<path d="M17.9121 16.2079C11.6887 23.6451 7.93591 33.2451 7.93591 43.717C7.93591 55.5311 12.7231 66.2339 20.451 73.9874C27.2642 80.8091 36.3683 85.3399 46.5069 86.3144C52.5165 86.5538 57.2268 90.6058 58.3723 95.9999H59.0818C58.4749 93.1276 56.9361 90.64 54.8161 88.8277C52.2344 86.6136 49.9092 85.9981 46.618 85.6904C36.5992 84.7329 27.6146 80.262 20.8869 73.5343C13.2617 65.9005 8.55141 55.3601 8.55141 43.717C8.55141 33.3306 12.3042 23.816 18.519 16.4729C19.7158 15.0452 22.6821 11.8139 23.9217 10.8052C22.4855 11.4292 18.8866 15.0538 17.9121 16.2079Z" fill="#D2A02A"/>
<path fill-rule="evenodd" clip-rule="evenodd" d="M28.7319 5.74448C30.2022 4.94947 31.8435 4.7785 33.3395 5.14608C32.8437 6.61643 31.8179 7.90726 30.3561 8.71082C28.8943 9.51439 27.253 9.67681 25.7484 9.30922C26.2528 7.83033 27.2786 6.5395 28.7319 5.74448Z" fill="#D2A02A"/>
<path fill-rule="evenodd" clip-rule="evenodd" d="M69.2697 78.7666C69.9536 76.9116 69.8595 74.9625 69.15 73.2699C67.5258 74.1162 66.2008 75.5438 65.5254 77.3988C64.8416 79.2539 64.9441 81.2029 65.6451 82.8956C67.2608 82.0492 68.5944 80.6216 69.2697 78.7666ZM71.7744 84.1693C73.6294 84.8532 75.0571 86.1782 75.8863 87.8024C74.2022 88.5119 72.2531 88.5974 70.4066 87.9221C68.5516 87.2468 67.1155 85.9132 66.2863 84.289C67.9703 83.588 69.9194 83.4854 71.7744 84.1693Z" fill="#D2A02A"/>
<path fill-rule="evenodd" clip-rule="evenodd" d="M75.0598 75.0218C75.4102 73.0727 74.9828 71.175 73.9912 69.6277C72.5294 70.739 71.4779 72.3718 71.1274 74.3208C70.7855 76.2699 71.2129 78.1677 72.196 79.715C73.6492 78.6036 74.7093 76.9623 75.0598 75.0218ZM78.4535 79.8945C80.394 80.245 82.0354 81.305 83.1467 82.7668C81.5994 83.7499 79.7016 84.1858 77.7525 83.8354C75.812 83.4849 74.1793 82.4248 73.0679 80.963C74.6067 79.9885 76.513 79.5611 78.4535 79.8945Z" fill="#D2A02A"/>
<path fill-rule="evenodd" clip-rule="evenodd" d="M80.0892 70.3203C80.0892 68.3456 79.3369 66.5504 78.0974 65.1997C76.8578 66.5418 76.097 68.337 76.097 70.3203C76.0884 72.295 76.8407 74.0987 78.0803 75.4409C79.3283 74.0902 80.0892 72.3035 80.0892 70.3203ZM84.2865 74.5347C86.2698 74.5433 88.0564 75.3041 89.3985 76.5436C88.0564 77.7832 86.2527 78.5354 84.2865 78.5354C82.3032 78.5354 80.5166 77.7746 79.1745 76.5265C80.5166 75.287 82.3118 74.5347 84.2865 74.5347Z" fill="#D2A02A"/>
<path fill-rule="evenodd" clip-rule="evenodd" d="M84.2544 64.8147C83.9125 62.8657 82.861 61.2243 81.4077 60.113C80.4247 61.6603 79.9801 63.5581 80.3221 65.5072C80.664 67.4562 81.7069 69.0975 83.1687 70.2089C84.1518 68.6616 84.5878 66.7638 84.2544 64.8147ZM89.1185 68.2427C91.059 67.9008 92.9654 68.3282 94.4956 69.3284C93.3842 70.7816 91.7429 71.8416 89.8024 72.175C87.8619 72.517 85.9556 72.0895 84.4168 71.0894C85.5281 69.6361 87.1695 68.5761 89.1185 68.2427Z" fill="#D2A02A"/>
<path fill-rule="evenodd" clip-rule="evenodd" d="M87.384 58.6684C86.7086 56.8133 85.3836 55.3772 83.7679 54.5309C83.0584 56.2235 82.9644 58.1726 83.6312 60.0276C84.3065 61.8826 85.6315 63.3188 87.2472 64.1651C87.9567 62.481 88.0593 60.532 87.384 58.6684ZM92.7695 61.1987C94.6246 60.5234 96.5651 60.626 98.2492 61.3355C97.4114 62.9597 95.9752 64.2848 94.1202 64.9601C92.2652 65.6354 90.3247 65.5328 88.6406 64.8233C89.4869 63.1905 90.9145 61.8741 92.7695 61.1987Z" fill="#D2A02A"/>
<path fill-rule="evenodd" clip-rule="evenodd" d="M89.4109 52.0774C88.4278 50.3677 86.872 49.188 85.1281 48.6323C84.7263 50.419 84.9656 52.3595 85.9487 54.0692C86.9233 55.7789 88.4876 56.9671 90.223 57.5143C90.6333 55.7276 90.394 53.7871 89.4109 52.0774ZM95.1469 53.6332C96.8566 52.6501 98.7886 52.4108 100.575 52.8211C100.028 54.565 98.8485 56.1208 97.1388 57.1039C95.4376 58.087 93.5056 58.3349 91.7104 57.9331C92.2575 56.1721 93.4372 54.6163 95.1469 53.6332Z" fill="#D2A02A"/>
<path fill-rule="evenodd" clip-rule="evenodd" d="M90.2627 45.2302C88.9889 43.7172 87.2621 42.8196 85.4413 42.5802C85.3643 44.4096 85.9371 46.2732 87.1937 47.7948C88.4589 49.3079 90.1943 50.2055 92.0066 50.4449C92.1006 48.6155 91.5193 46.7519 90.2627 45.2302ZM96.1782 45.7603C97.6913 44.4951 99.5549 43.9223 101.376 44.0078C101.145 45.8201 100.247 47.564 98.7342 48.8292C97.2212 50.0944 95.3576 50.6671 93.5282 50.5816C93.7675 48.7693 94.6651 47.0254 96.1782 45.7603Z" fill="#D2A02A"/>
<path fill-rule="evenodd" clip-rule="evenodd" d="M89.9139 38.3401C88.4009 37.0663 86.5373 36.4936 84.7079 36.5705C84.9387 38.3828 85.8277 40.1267 87.3408 41.4004C88.8454 42.6742 90.709 43.2469 92.5383 43.17C92.3075 41.3577 91.4185 39.6138 89.9139 38.3401ZM95.8295 37.8357C97.0947 36.3312 98.8301 35.4421 100.651 35.2113C100.728 37.0407 100.147 38.9043 98.8814 40.4174C97.6076 41.9305 95.8808 42.8195 94.06 43.0589C93.983 41.2124 94.5643 39.3488 95.8295 37.8357Z" fill="#D2A02A"/>
<path fill-rule="evenodd" clip-rule="evenodd" d="M88.3738 31.6211C86.6641 30.6295 84.7321 30.3816 82.9454 30.7748C83.4925 32.5273 84.6637 34.0745 86.3648 35.0747C88.0746 36.0578 90.0065 36.3143 91.7932 35.921C91.2461 34.1686 90.0749 32.6127 88.3738 31.6211ZM94.1098 30.0909C95.0929 28.3812 96.6573 27.2015 98.4012 26.663C98.7944 28.4496 98.5551 30.3901 97.5549 32.0913C96.5718 33.801 95.0074 34.9807 93.2635 35.5278C92.8788 33.7326 93.1182 31.7921 94.1098 30.0909Z" fill="#D2A02A"/>
<path fill-rule="evenodd" clip-rule="evenodd" d="M85.682 25.2606C83.827 24.5767 81.8865 24.6793 80.1938 25.3803C81.0402 27.0131 82.4592 28.3381 84.3142 29.022C86.1693 29.6973 88.1098 29.6033 89.8024 28.9023C88.9646 27.2695 87.537 25.9445 85.682 25.2606ZM91.0761 22.7559C91.76 20.9009 93.085 19.4733 94.7007 18.627C95.4102 20.3196 95.4957 22.2686 94.8204 24.1237C94.1451 25.9787 92.8115 27.4063 91.1958 28.2526C90.4948 26.56 90.3923 24.6195 91.0761 22.7559Z" fill="#D2A02A"/>
<path fill-rule="evenodd" clip-rule="evenodd" d="M81.9372 19.4739C79.9967 19.1234 78.0989 19.5508 76.5516 20.5424C77.6629 21.9957 79.2957 23.0643 81.2362 23.4062C83.1768 23.7567 85.0831 23.3293 86.6218 22.3376C85.519 20.8844 83.8863 19.8158 81.9372 19.4739ZM86.8099 16.0716C87.1604 14.1225 88.2118 12.4897 89.6736 11.3784C90.6567 12.9257 91.0927 14.8235 90.7422 16.7725C90.3917 18.7216 89.3317 20.3629 87.887 21.4657C86.9039 19.9184 86.4765 18.0121 86.8099 16.0716Z" fill="#D2A02A"/>
<path fill-rule="evenodd" clip-rule="evenodd" d="M77.2566 14.4132C75.2733 14.4132 73.4867 15.1655 72.136 16.405C73.4781 17.6531 75.2818 18.414 77.248 18.414C79.2227 18.414 81.0179 17.6617 82.36 16.4221C81.0179 15.1912 79.2313 14.4218 77.2566 14.4132ZM81.471 10.2159C81.471 8.2412 82.2318 6.43746 83.4713 5.09534C84.7109 6.44601 85.4717 8.24975 85.4632 10.2245C85.4632 12.1992 84.7023 14.0029 83.4543 15.345C82.2147 13.9944 81.4624 12.1906 81.471 10.2159Z" fill="#D2A02A"/>
<path fill-rule="evenodd" clip-rule="evenodd" d="M71.7574 10.2668C69.8168 10.6087 68.1755 11.6602 67.0642 13.1135C68.6029 14.1051 70.5007 14.5411 72.4498 14.2077C74.3903 13.8657 76.0316 12.8057 77.1429 11.3525C75.5957 10.3608 73.6979 9.92485 71.7574 10.2668ZM75.1768 5.39413C74.8348 3.44506 75.2794 1.54729 76.2624 0C77.7157 1.11131 78.7672 2.75263 79.1091 4.70169C79.4425 6.65076 79.0065 8.54854 78.0149 10.0958C76.5702 8.97596 75.5187 7.33464 75.1768 5.39413Z" fill="#D2A02A"/>
<path d="M83.4754 16.2079C89.7073 23.6451 93.4601 33.2451 93.4601 43.717C93.4601 55.5311 88.6729 66.2339 80.9365 73.9874C74.1319 80.8091 65.0277 85.3399 54.8891 86.3144C48.8795 86.5538 44.1692 90.6058 43.0152 95.9999H42.3142C42.9212 93.1276 44.4513 90.64 46.5714 88.8277C49.153 86.6136 51.4868 85.9981 54.778 85.6904C64.7798 84.7329 73.7728 80.262 80.492 73.5343C88.1173 65.9005 92.8275 55.3601 92.8275 43.717C92.8275 33.3306 89.0833 23.816 82.8685 16.4729C81.6631 15.0452 78.7053 11.8139 77.4572 10.8052C78.8934 11.4292 82.4923 15.0538 83.4754 16.2079Z" fill="#D2A02A"/>
<path fill-rule="evenodd" clip-rule="evenodd" d="M72.6477 5.74448C71.1859 4.94947 69.5446 4.7785 68.0486 5.14608C68.5444 6.61643 69.5617 7.90726 71.0235 8.71082C72.4938 9.51439 74.1351 9.67681 75.6311 9.30922C75.1353 7.83033 74.118 6.5395 72.6477 5.74448Z" fill="#D2A02A"/>
<path d="M36.2667 52.0364H38.5838L38.3411 55.5727H36.2667V57.2852H38.2749L37.9218 61.8667H39.6872L40.0402 57.2852H42.6663L42.3132 61.8667H44.0786L44.4537 57.2852H46.6825V55.5727H44.4979L44.7406 52.0364H46.6825V50.3239H44.8068L45.1599 45.7424H43.3945L43.0414 50.3239H40.3933L40.7685 45.7424H38.981L38.6279 50.3239H36.2667V52.0364ZM40.3492 52.0364H42.9752L42.7325 55.5727H40.1064L40.3492 52.0364Z" fill="#D2A02A"/>
<path d="M53.4809 21.3334C52.9292 27.4495 51.7707 28.5059 47.4675 28.5059H43.8816V33.1209H51.9914V61.8667H58.6667V21.3334H53.4809Z" fill="#D2A02A"/>
</svg>
