<svg width="24" height="18" viewBox="0 0 24 18" fill="none" xmlns="http://www.w3.org/2000/svg">
<g clip-path="url(#clip0_321_437)">
<path d="M0 0H24V18H0V0Z" fill="#000066"/>
<path d="M-6.02393 0V2.01783L7.98879 9.02417L9.01641 9.53798L26.0372 18.0484H30.0728V16.0306L16.06 9.02418L15.0325 8.51045L-1.98832 0L-6.02393 0ZM30.0728 0V2.01779L22.0762 6.01611L16.06 9.02418L10.0439 12.0322L9.01641 12.546L-1.98832 18.0483H-6.02393V16.0305L1.97267 12.0322L7.98879 9.02417L14.0049 6.01611L15.0325 5.50232L26.0372 0H30.0728ZM9.01641 0V9.53798V12.0322V12.546V18.0483H15.0325V8.51045V6.01611V5.50232V0H9.01641ZM-6.02393 6.01611V12.0322H1.97267H9.01641H10.0439H30.0728V6.01611H22.0762H15.0325H14.0049H-6.02393Z" fill="white"/>
<path d="M9.01641 9.53798L7.98879 9.02417L1.97267 12.0322H9.01641V9.53798Z" fill="white"/>
<path d="M15.0325 8.51045L16.06 9.02418L22.0762 6.01611H15.0325V8.51045Z" fill="white"/>
<path d="M15.0325 5.50232L14.0049 6.01611H15.0325V5.50232Z" fill="white"/>
<path d="M10.0439 12.0322H9.01641V12.546L10.0439 12.0322Z" fill="white"/>
<path d="M-6.02393 7.21933V10.829H30.0728V7.21933H-6.02393ZM10.2196 0V18.0483H13.8292V0H10.2196ZM-7.02393 18.0483L5.00834 12.0322H7.69878L-4.33348 18.0483H-7.02393ZM-5.02393 0L7.00834 6.01611H4.3179L-5.02393 1.34527V0ZM16.3502 6.01611L28.3824 0H31.0729L19.0406 6.01611H16.3502ZM29.0728 18.0483L17.0406 12.0322H19.731L29.0728 16.7031V18.0483Z" fill="#CC0000"/>
</g>
<defs>
<clipPath id="clip0_321_437">
<rect width="24" height="18" fill="white"/>
</clipPath>
</defs>
</svg>
