<svg width="211" height="64" viewBox="0 0 211 64" fill="none" xmlns="http://www.w3.org/2000/svg">
<path d="M28.0471 63.5C28.0471 63.5 0.998779 55.4469 0.998779 15.7094V0.5H55.0985V15.7094C55.0985 54.0279 28.0471 63.5 28.0471 63.5Z" fill="#51AF3D"/>
<path d="M70.1345 31.014V9.5144H83.1942V11.0962C83.193 11.4805 83.1168 11.8609 82.9698 12.2156C82.8228 12.5702 82.608 12.8922 82.3377 13.1632C82.0673 13.4341 81.7466 13.6487 81.394 13.7947C81.0414 13.9407 80.6638 14.0152 80.2826 14.014H75.3426V18.532H81.845V20.0676C81.845 20.8586 81.5334 21.6172 80.9788 22.1765C80.4242 22.7357 79.672 23.05 78.8877 23.05H75.3426V31.014H70.1345Z" fill="black"/>
<path d="M86.1396 31.014V9.5144H93.5649C95.4532 9.5144 96.8349 9.68435 97.71 10.0243C98.8973 10.4685 99.9116 11.2858 100.603 12.3554C101.326 13.5318 101.689 14.8973 101.645 16.2806C101.646 17.4794 101.36 18.6606 100.811 19.7237C100.305 20.7638 99.4808 21.6116 98.4593 22.1408V22.2023C98.7537 22.616 99.0222 23.0478 99.2633 23.4953L103.408 31.014H97.5913L93.8025 23.7656H91.366V31.014H86.1396ZM91.3568 19.2537H93.6258C94.3553 19.2985 95.0726 19.0501 95.6207 18.5627C95.8668 18.3045 96.0567 17.9975 96.1783 17.6611C96.3 17.3248 96.3507 16.9665 96.3273 16.6093C96.3273 15.4237 95.9101 14.661 95.0756 14.3211C94.4459 14.09 93.7775 13.9857 93.1081 14.014H91.3477L91.3568 19.2537Z" fill="black"/>
<path d="M105.77 31.014V9.5144H119.128V14.014H110.981V17.93H117.483V22.4418H110.981V26.5022H119.539V31.014H105.77Z" fill="black"/>
<path d="M122.881 31.014V9.5144H136.242V14.014H128.098V17.93H134.6V22.4418H128.098V26.5022H136.659V31.014H122.881Z" fill="black"/>
<path d="M139.996 31.014V9.5144H147.571C150.947 9.5144 153.627 10.4614 155.608 12.3554C157.59 14.2494 158.579 16.8714 158.575 20.2212C158.575 23.5874 157.586 26.2278 155.608 28.1423C153.631 30.0568 150.952 31.0151 147.571 31.0171L139.996 31.014ZM145.217 26.5022H147.364C149.191 26.5022 150.612 25.9606 151.628 24.8774C152.643 23.7942 153.156 22.2412 153.166 20.2181C153.166 18.2115 152.649 16.6758 151.615 15.6111C150.582 14.5463 149.161 14.016 147.352 14.0201H145.204L145.217 26.5022Z" fill="black"/>
<path d="M160.809 20.126C160.809 16.9994 161.853 14.3877 163.94 12.2909C166.028 10.1942 168.702 9.14688 171.962 9.14893C175.223 9.14893 177.897 10.1963 179.985 12.2909C182.072 14.3856 183.12 16.9973 183.128 20.126C183.128 23.3325 182.08 26.0046 179.985 28.1423C177.889 30.28 175.215 31.3529 171.962 31.3611C168.702 31.3693 166.028 30.2964 163.94 28.1423C161.853 25.9883 160.809 23.3162 160.809 20.126ZM166.206 20.126C166.206 21.9688 166.748 23.5045 167.833 24.7331C168.357 25.3119 168.994 25.7743 169.706 26.0906C170.417 26.407 171.185 26.5704 171.962 26.5704C172.74 26.5704 173.508 26.407 174.219 26.0906C174.931 25.7743 175.568 25.3119 176.092 24.7331C177.177 23.5045 177.719 21.9688 177.719 20.126C177.77 18.4988 177.186 16.9163 176.092 15.7186C175.555 15.1625 174.913 14.7205 174.204 14.4187C173.494 14.1169 172.732 13.9614 171.962 13.9614C171.193 13.9614 170.431 14.1169 169.721 14.4187C169.012 14.7205 168.37 15.1625 167.833 15.7186C166.739 16.9163 166.155 18.4988 166.206 20.126Z" fill="black"/>
<path d="M185.592 31.0147L187.349 9.51503H193.017L196.118 18.5909L197.19 22.1415H197.251C197.657 20.7081 198.015 19.5246 198.326 18.5909L201.426 9.51196H207.094L208.824 31.0116H203.604L202.949 21.3275C202.907 20.8453 202.888 20.3048 202.888 19.7028C202.888 19.1008 202.888 18.6217 202.916 18.2592L202.949 17.7187H202.888C202.409 19.2216 202.011 20.4246 201.694 21.3275L199.459 27.5532H194.985L192.749 21.3275L191.555 17.7187H191.494C191.574 18.9203 191.574 20.1259 191.494 21.3275L190.84 31.0116L185.592 31.0147Z" fill="black"/>
<path d="M70.3669 54.0212V41.1614H73.4857V46.3059H78.1242V41.1614H81.246V54.0212H78.1242V48.9842H73.4857V54.0212H70.3669Z" fill="black"/>
<path d="M83.2306 47.5109C83.2078 46.642 83.3623 45.7776 83.6845 44.9713C84.0067 44.1651 84.4898 43.4342 85.1037 42.824C86.3524 41.5709 87.9513 40.9443 89.9006 40.9443C91.8498 40.9443 93.4497 41.5709 94.7005 42.824C95.314 43.4344 95.7965 44.1654 96.1182 44.9716C96.4399 45.7779 96.5939 46.6422 96.5705 47.5109C96.5954 48.3973 96.4426 49.2797 96.1213 50.1051C95.8 50.9305 95.3167 51.682 94.7005 52.3146C93.4477 53.6045 91.8457 54.2495 89.8945 54.2495C87.9432 54.2495 86.3443 53.6086 85.0976 52.3269C84.4804 51.6926 83.9968 50.939 83.676 50.1113C83.3551 49.2837 83.2036 48.3992 83.2306 47.5109ZM86.459 47.5109C86.4216 48.5236 86.7691 49.5124 87.4305 50.2752C87.7456 50.6189 88.1281 50.8929 88.5538 51.0797C88.9794 51.2665 89.4389 51.362 89.9031 51.3603C90.3672 51.3586 90.826 51.2596 91.2502 51.0696C91.6745 50.8796 92.055 50.6028 92.3675 50.2567C93.0301 49.4944 93.3787 48.5055 93.3421 47.4925C93.3728 46.5192 93.0227 45.5727 92.3675 44.8573C92.0467 44.5238 91.6628 44.2587 91.2385 44.0777C90.8142 43.8967 90.3582 43.8034 89.8975 43.8034C89.4368 43.8034 88.9808 43.8967 88.5565 44.0777C88.1322 44.2587 87.7483 44.5238 87.4275 44.8573C86.7677 45.5772 86.4174 46.5313 86.4529 47.5109H86.459Z" fill="black"/>
<path d="M98.5461 54.0212V41.1614H101.665V51.3215H106.873V54.0212H98.5461Z" fill="black"/>
<path d="M108.39 54.0212V41.1614H112.922C114.94 41.1614 116.542 41.7275 117.728 42.8598C118.914 43.9922 119.505 45.5596 119.503 47.5621C119.503 49.5769 118.912 51.1567 117.728 52.3013C116.544 53.4459 114.942 54.0192 112.922 54.0212H108.39ZM111.512 51.3215H112.797C113.891 51.3215 114.744 50.998 115.355 50.3509C115.966 49.7039 116.271 48.7743 116.269 47.5621C116.269 46.3643 115.959 45.4429 115.34 44.7979C114.721 44.1529 113.871 43.8355 112.791 43.8458H111.506L111.512 51.3215Z" fill="black"/>
<path d="M121.536 54.0212V41.1614H124.652V54.0212H121.536Z" fill="black"/>
<path d="M127.334 54.0212V41.1614H130.49L134.023 47.1843C134.166 47.4362 134.327 47.7433 134.504 48.1058C134.681 48.4682 134.808 48.7753 134.93 49.0272L135.092 49.3865H135.128C135.033 48.4631 134.985 47.7321 134.985 47.1936V41.1614H138.107V54.0212H134.967L131.419 48.032C131.276 47.7802 131.114 47.47 130.934 47.1106C130.755 46.7513 130.615 46.4411 130.508 46.1892L130.347 45.8299H130.313C130.407 46.7533 130.454 47.4853 130.456 48.0259V54.0151L127.334 54.0212Z" fill="black"/>
<path d="M140.104 47.5626C140.084 46.6858 140.242 45.8142 140.57 45.002C140.898 44.1899 141.389 43.4545 142.011 42.8419C142.64 42.2148 143.39 41.7232 144.213 41.3969C145.037 41.0707 145.917 40.9165 146.802 40.9438C148.787 40.9438 150.423 41.513 151.708 42.6514L150.207 45.0103C149.787 44.6427 149.304 44.3564 148.781 44.1656C148.249 43.9457 147.681 43.829 147.106 43.8216C145.845 43.8216 144.902 44.1667 144.277 44.8567C143.645 45.569 143.31 46.4998 143.342 47.4551C143.316 47.9765 143.397 48.4977 143.58 48.9864C143.762 49.475 144.042 49.9208 144.402 50.2961C144.74 50.6417 145.145 50.9141 145.591 51.0968C146.037 51.2795 146.515 51.3687 146.997 51.3588C147.938 51.3576 148.852 51.0326 149.585 50.4374V49.4453H147.782V46.7548H152.351V54.0217H149.747V53.6623L149.765 53.1218H149.729C149.291 53.4886 148.784 53.7632 148.239 53.9295C147.639 54.1329 147.009 54.2367 146.375 54.2367C145.556 54.2488 144.744 54.0943 143.985 53.7824C143.227 53.4705 142.539 53.0077 141.962 52.4215C140.724 51.2093 140.104 49.5897 140.104 47.5626Z" fill="black"/>
<path d="M158.718 47.5631C158.694 46.6868 158.849 45.8148 159.173 45.0012C159.497 44.1876 159.983 43.4497 160.601 42.8332C161.855 41.574 163.459 40.9443 165.41 40.9443C166.298 40.9441 167.179 41.1 168.014 41.405C168.828 41.6919 169.571 42.1553 170.188 42.7626L168.745 45.1368C168.297 44.7406 167.787 44.4211 167.237 44.1908C166.705 43.9549 166.131 43.8296 165.55 43.8222C164.362 43.8222 163.465 44.1795 162.858 44.8941C162.246 45.617 161.92 46.5424 161.944 47.4925C161.925 48.4814 162.258 49.4444 162.882 50.2076C163.507 50.9754 164.396 51.3594 165.547 51.3594C166.765 51.3594 167.895 50.8321 168.937 49.7776L170.542 52.0781C169.882 52.7785 169.085 53.3318 168.2 53.7021C167.316 54.0724 166.364 54.2516 165.407 54.228C163.376 54.228 161.752 53.6015 160.534 52.3483C159.315 51.0952 158.71 49.5002 158.718 47.5631Z" fill="black"/>
<path d="M171.134 47.5109C171.112 46.642 171.266 45.7776 171.588 44.9713C171.911 44.1651 172.394 43.4342 173.008 42.824C174.256 41.5709 175.856 40.9443 177.807 40.9443C179.759 40.9443 181.358 41.5709 182.604 42.824C183.218 43.4342 183.701 44.1651 184.023 44.9713C184.346 45.7776 184.5 46.642 184.477 47.5109C184.502 48.3975 184.349 49.28 184.027 50.1054C183.705 50.9309 183.221 51.6823 182.604 52.3146C181.356 53.6045 179.757 54.2495 177.807 54.2495C175.858 54.2495 174.258 53.6086 173.008 52.3269C172.389 51.6931 171.905 50.9397 171.583 50.112C171.261 49.2844 171.108 48.3996 171.134 47.5109ZM174.363 47.5109C174.327 48.5233 174.675 49.5114 175.334 50.2752C175.648 50.6211 176.03 50.8973 176.456 51.0863C176.881 51.2753 177.341 51.3729 177.806 51.3729C178.271 51.3729 178.731 51.2753 179.156 51.0863C179.582 50.8973 179.964 50.6211 180.277 50.2752C180.939 49.5124 181.286 48.5236 181.249 47.5109C181.281 46.538 180.932 45.5916 180.277 44.8757C179.956 44.5422 179.572 44.277 179.148 44.096C178.723 43.9149 178.267 43.8216 177.806 43.8216C177.345 43.8216 176.889 43.9149 176.464 44.096C176.04 44.277 175.655 44.5422 175.334 44.8757C174.681 45.5923 174.333 46.5382 174.363 47.5109Z" fill="black"/>
<path d="M186.458 54.0219V41.1621H190.898C191.736 41.123 192.574 41.2269 193.377 41.4692C194.088 41.7348 194.694 42.2237 195.107 42.8636C195.535 43.5681 195.747 44.3845 195.717 45.2101C195.716 45.9276 195.545 46.6345 195.217 47.271C194.916 47.8941 194.422 48.4017 193.81 48.7177V48.7545C193.985 49.0027 194.146 49.2612 194.291 49.5285L196.77 54.025H193.307L191.048 49.6851H189.586V54.0219H186.458ZM189.58 46.9885H190.935C191.372 47.0149 191.801 46.8658 192.129 46.5738C192.277 46.4203 192.392 46.2371 192.466 46.0361C192.54 45.8351 192.571 45.6207 192.558 45.4067C192.558 44.6972 192.308 44.2427 191.809 44.0369C191.431 43.902 191.031 43.8415 190.63 43.8587H189.58V46.9885Z" fill="black"/>
<path d="M198.191 54.0215V41.1617H203.491C204.049 41.1389 204.606 41.2367 205.124 41.4486C205.642 41.6605 206.109 41.9815 206.494 42.3902C207.277 43.2587 207.69 44.4025 207.645 45.5752C207.691 46.7565 207.278 47.9092 206.494 48.7879C206.111 49.2007 205.645 49.5258 205.127 49.7409C204.609 49.9561 204.051 50.0563 203.491 50.0349H201.313V54.0123L198.191 54.0215ZM201.313 47.3474H202.836C203.062 47.363 203.289 47.3276 203.5 47.2436C203.71 47.1597 203.9 47.0293 204.054 46.8621C204.346 46.5033 204.496 46.0481 204.475 45.5845C204.497 45.1278 204.351 44.679 204.063 44.3252C203.916 44.1664 203.735 44.0423 203.535 43.9617C203.334 43.881 203.119 43.8457 202.903 43.8583H201.316L201.313 47.3474Z" fill="black"/>
<path d="M208.073 52.5472C208.073 52.1553 208.227 51.7796 208.502 51.5025C208.777 51.2255 209.149 51.0698 209.538 51.0698C209.73 51.0698 209.921 51.1081 210.098 51.1823C210.276 51.2566 210.437 51.3655 210.573 51.5027C210.709 51.6399 210.816 51.8028 210.889 51.982C210.963 52.1613 211 52.3533 211 52.5472C211 52.7408 210.962 52.9325 210.889 53.1113C210.815 53.2902 210.707 53.4527 210.572 53.5896C210.436 53.7265 210.275 53.8351 210.097 53.9092C209.92 53.9833 209.73 54.0214 209.538 54.0214C209.346 54.0218 209.155 53.984 208.978 53.9101C208.8 53.8362 208.638 53.7276 208.502 53.5907C208.366 53.4538 208.258 53.2911 208.185 53.112C208.111 52.933 208.073 52.741 208.073 52.5472Z" fill="black"/>
<path d="M43.6642 15.829H21.8757V28.4493H43.6642V32.2301C43.6642 38.6217 41.8765 43.7816 32.237 43.8031H21.8818V60.4837C25.4605 62.7258 28.0523 63.4998 28.0523 63.4998C28.0523 63.4998 55.1037 54.0277 55.1037 15.7092V4.24683C55.0976 10.6353 52.2925 15.7123 43.6642 15.829Z" fill="#0F5431"/>
</svg>
