<svg xmlns="http://www.w3.org/2000/svg" width="150" height="44" fill="none">
    <style>
        .a{fill:#fff}
    </style>
    <g clip-path="url(#clip0)">
        <path d="M143.6 44H5.5c-3 0-5.5-2.5-5.5-5.5v-33C0 2.5 2.5 0 5.5 0h138.1c3 0 5.5 2.5 5.5 5.5v33c0 3-2.5 5.5-5.5 5.5z" fill="#000"/>
        <path d="M143.6.9c2.5 0 4.6 2.1 4.6 4.6v33c0 2.5-2 4.6-4.6 4.6H5.5C3 43.1.9 41 .9 38.5v-33C.9 3 3 .9 5.5.9h138.1zm0-.9H5.5C2.5 0 0 2.5 0 5.5v33c0 3 2.5 5.5 5.5 5.5h138.1c3 0 5.5-2.5 5.5-5.5v-33c0-3-2.5-5.5-5.5-5.5z" fill="#A6A6A6"/>
        <path d="M78.6 14.6c-1 0-1.9-.4-2.5-1.1-.7-.6-1.1-1.6-1.1-2.5 0-1 .4-1.9 1.1-2.5.6-.7 1.5-1.1 2.4-1.1 1 0 1.9.4 2.5 1.1.7.7 1.1 1.5 1.1 2.5-.1 1-.4 1.8-1.1 2.5-.6.7-1.5 1.1-2.4 1.1zm-29.7 0c-.9 0-1.8-.4-2.5-1.1-.7-.6-1-1.5-1-2.5s.3-1.9 1-2.5c.7-.7 1.5-1.1 2.5-1.1.5 0 1 .1 1.4.3.5.2.8.5 1.1.8l.1.1-.8.7-.1-.1c-.4-.5-.9-.7-1.7-.7-.7 0-1.2.2-1.7.7-.5.4-.7 1.1-.7 1.8s.2 1.4.7 1.8c.5.5 1 .7 1.7.7s1.3-.2 1.8-.7c.3-.2.4-.6.5-1.1h-2.4v-1h3.4v.1c0 .1.1.3.1.5 0 .9-.3 1.7-.9 2.2-.6.7-1.5 1.1-2.5 1.1zm39.4-.2h-1L84 9.3l.1.9v4.2H83V7.6h1.3l3 4.9V7.6h1v6.8zm-17.6 0h-1.1V8.6h-1.9v-1h4.8v1h-1.8v5.8zm-3.8 0h-1.1V7.6h1.1v6.8zm-6 0h-1V8.6H58v-1h4.8v1h-1.9v5.8zm-3.6 0h-4V7.6h4v1h-3v1.9H57v1h-2.7v1.9h3v1zm19.5-1.6c.5.5 1.1.7 1.8.7.6 0 1.2-.2 1.7-.7.4-.5.7-1.1.7-1.8s-.3-1.4-.7-1.8c-.5-.5-1.1-.7-1.7-.7-.7 0-1.3.2-1.8.7-.4.5-.7 1.1-.7 1.8s.3 1.4.7 1.8zM74.9 23.9c-2.5 0-4.6 2-4.6 4.7s2.1 4.7 4.6 4.7c2.6 0 4.7-2 4.7-4.7s-2.1-4.7-4.7-4.7zm0 7.5c-1.4 0-2.6-1.1-2.6-2.8 0-1.7 1.2-2.8 2.6-2.8 1.5 0 2.7 1.1 2.7 2.8 0 1.7-1.2 2.8-2.7 2.8zm-10.2-7.5c-2.6 0-4.7 2-4.7 4.7s2.1 4.7 4.7 4.7 4.7-2 4.7-4.7-2.1-4.7-4.7-4.7zm0 7.5c-1.4 0-2.6-1.1-2.6-2.8 0-1.7 1.2-2.8 2.6-2.8 1.4 0 2.6 1.1 2.6 2.8 0 1.7-1.2 2.8-2.6 2.8zm-12.2-6v1.9h4.8c-.2 1.2-.5 2-1.1 2.5-.7.7-1.8 1.5-3.7 1.5-2.9 0-5.2-2.4-5.2-5.3s2.3-5.3 5.2-5.3c1.6 0 2.8.6 3.6 1.4l1.4-1.4c-1.2-1.1-2.7-2-5-2-4 0-7.3 3.3-7.3 7.3s3.3 7.3 7.3 7.3c2.2 0 3.8-.8 5.1-2.1 1.3-1.3 1.7-3.1 1.7-4.6 0-.5 0-.9-.1-1.3h-6.7v.1zm49.9 1.5c-.4-1-1.6-3-4-3-2.5 0-4.5 1.9-4.5 4.7 0 2.6 2 4.7 4.7 4.7 2.1 0 3.4-1.3 3.9-2.1l-1.6-1.1c-.5.8-1.3 1.3-2.3 1.3-1.1 0-1.8-.4-2.3-1.4l6.3-2.6-.2-.5zM96 28.5c-.1-1.8 1.4-2.8 2.4-2.8.8 0 1.5.4 1.8 1L96 28.5zM90.9 33H93V19.3h-2.1V33zm-3.4-8h-.1c-.4-.6-1.3-1.1-2.4-1.1-2.4 0-4.5 2.1-4.5 4.7s2.1 4.7 4.5 4.7c1.1 0 2-.5 2.4-1.1h.1v.7c0 1.8-.9 2.7-2.5 2.7-1.2 0-2-.9-2.3-1.6l-1.8.7c.5 1.2 1.9 2.8 4.1 2.8 2.4 0 4.5-1.4 4.5-4.9v-8.4h-2v.8zm-2.3 6.4c-1.5 0-2.6-1.1-2.6-2.8 0-1.6 1.1-2.8 2.6-2.8 1.4 0 2.5 1.2 2.5 2.8 0 1.7-1.1 2.8-2.5 2.8zM112 19.3h-4.9V33h2v-5.2h2.9c2.3 0 4.5-1.7 4.5-4.3 0-2.6-2.2-4.2-4.5-4.2zm0 6.6h-2.9v-4.7h2.9c1.6 0 2.5 1.2 2.5 2.3 0 1.1-.9 2.4-2.5 2.4zm12.7-2c-1.5 0-3 .7-3.6 2.1l1.8.8c.4-.8 1.1-1.1 1.9-1.1 1 0 2.1.7 2.1 1.8v.2c-.3-.2-1.2-.6-2.1-.6-2 0-4 1.1-4 3.1 0 1.9 1.6 3.1 3.4 3.1 1.4 0 2.2-.7 2.6-1.4h.1V33h2v-5.3c0-2.4-1.8-3.8-4.2-3.8zm-.2 7.5c-.7 0-1.6-.3-1.6-1.1 0-1.1 1.1-1.5 2.1-1.5.9 0 1.4.2 1.9.5-.1 1.2-1.2 2.1-2.4 2.1zm11.6-7.2l-2.3 6h-.1l-2.5-6H129l3.7 8.3-2.1 4.7h2.1l5.7-13h-2.3zM117.6 33h2.1V19.3h-2.1V33z" class="a"/>
        <path d="M11.5 8.3c-.3.3-.5.9-.5 1.5v24.4c0 .6.2 1.2.5 1.5l.1.1 13.6-13.7v-.3L11.6 8.2l-.1.1z" fill="url(#paint0_linear)"/>
        <path d="M29.7 26.7l-4.5-4.5v-.4l4.5-4.5.1.1 5.4 3c1.6.9 1.6 2.3 0 3.2l-5.4 3-.1.1z" fill="url(#paint1_linear)"/>
        <path d="M29.8 26.6L25.2 22 11.5 35.7c.5.6 1.3.6 2.3.1l16-9.2z" fill="url(#paint2_linear)"/>
        <path d="M29.8 17.4l-16-9.2c-1-.5-1.8-.4-2.3.1L25.2 22l4.6-4.6z" fill="url(#paint3_linear)"/>
        <path d="M29.7 26.5l-15.9 9.1c-.9.5-1.7.5-2.2 0l-.1.1.1.1c.5.4 1.3.5 2.2 0l16-9.2-.1-.1z" fill="#000" opacity=".2"/>
        <path d="M35.2 23.4l-5.5 3.1.1.1 5.4-3c.8-.5 1.1-1 1.1-1.6 0 .5-.4 1-1.1 1.4z" fill="#000" opacity=".1"/>
        <path d="M13.8 8.4l21.4 12.2c.7.4 1.1.9 1.2 1.4 0-.6-.4-1.1-1.2-1.6L13.8 8.2c-1.6-.9-2.8-.1-2.8 1.6v.2c0-1.8 1.2-2.5 2.8-1.6z" fill="#fff" opacity=".3"/>
    </g>
    <defs>
        <linearGradient id="paint0_linear" x1="24" y1="9.6" x2="2.1" y2="15.4" gradientUnits="userSpaceOnUse">
            <stop stop-color="#00A0FF"/>
            <stop offset=".007" stop-color="#00A1FF"/>
            <stop offset=".26" stop-color="#00BEFF"/>
            <stop offset=".512" stop-color="#00D2FF"/>
            <stop offset=".76" stop-color="#00DFFF"/>
            <stop offset="1" stop-color="#00E3FF"/>
        </linearGradient>
        <linearGradient id="paint1_linear" x1="37.2" y1="22" x2="10.6" y2="22" gradientUnits="userSpaceOnUse">
            <stop stop-color="#FFE000"/>
            <stop offset=".409" stop-color="#FFBD00"/>
            <stop offset=".775" stop-color="orange"/>
            <stop offset="1" stop-color="#FF9C00"/>
        </linearGradient>
        <linearGradient id="paint2_linear" x1="27.3" y1="24.5" x2="9.8" y2="54" gradientUnits="userSpaceOnUse">
            <stop stop-color="#FF3A44"/>
            <stop offset="1" stop-color="#C31162"/>
        </linearGradient>
        <linearGradient id="paint3_linear" x1="8" y1=".2" x2="15.8" y2="13.4" gradientUnits="userSpaceOnUse">
            <stop stop-color="#32A071"/>
            <stop offset=".069" stop-color="#2DA771"/>
            <stop offset=".476" stop-color="#15CF74"/>
            <stop offset=".801" stop-color="#06E775"/>
            <stop offset="1" stop-color="#00F076"/>
        </linearGradient>
        <clipPath id="clip0">
            <path class="a" d="M0 0h149.1v44H0z"/>
        </clipPath>
    </defs>
</svg>
