<svg width="24" height="24" viewBox="0 0 24 24" fill="none" xmlns="http://www.w3.org/2000/svg">
<path d="M1.36563 0.234375L0.234375 1.36562L22.6344 23.7656L23.7656 22.6344L18.9453 17.8141C22.222 15.5955 23.8393 12.4933 23.8609 12.4516C23.9517 12.3185 24.0002 12.1611 24 12C23.9999 11.8196 23.9388 11.6444 23.8266 11.5031C23.7432 11.3689 19.1346 4 12 4C9.97588 4 8.15946 4.60015 6.5875 5.45625L1.36563 0.234375ZM12 6.4C15.0928 6.4 17.6 8.9072 17.6 12C17.6 13.2576 17.176 14.4103 16.475 15.3438L14.1609 13.0297C14.3117 12.7183 14.4 12.3703 14.4 12C14.4 10.6744 13.3256 9.6 12 9.6C11.6297 9.6 11.2817 9.68828 10.9703 9.83906L8.65625 7.525C9.58972 6.82397 10.7424 6.4 12 6.4ZM3.96094 7.26094C1.58333 9.2609 0.219985 11.4296 0.175 11.5016C0.0619116 11.6431 0.000213488 11.8188 0 12C0.000142326 12.1548 0.0451926 12.3062 0.129688 12.4359C0.130725 12.4375 0.131766 12.4391 0.132813 12.4406C0.146569 12.469 4.01507 20 12 20C13.48 20 14.8164 19.7388 16.0156 19.3172L13.9453 17.2453C13.3381 17.4709 12.6848 17.6 12 17.6C8.9072 17.6 6.4 15.0928 6.4 12C6.4 11.3152 6.52909 10.6619 6.75469 10.0547L3.96094 7.26094Z" fill="#CCCCCC"/>
</svg>
