<svg width="152" height="60" viewBox="0 0 152 60" fill="none" xmlns="http://www.w3.org/2000/svg">
<path d="M17.8956 5C17.3062 6.46431 16.4198 7.79061 15.2923 8.89528C14.1647 9.99995 12.8205 10.859 11.3445 11.4183C11.3547 8.37268 14.6762 5.08176 17.8956 5ZM11.2423 49.6828C9.01424 46.9029 6.02994 45.2575 3.79171 46.2999C5.63135 49.969 9.37195 51.2772 11.2423 49.6828ZM7.75715 44.2866C6.19346 41.2205 3.60774 39.0334 1.20599 39.6057C2.27911 43.5098 5.62113 45.4823 7.75715 44.2866ZM5.48826 38.4202C4.56844 35.1701 2.42219 32.5129 0 32.6151C0.296387 36.6214 3.15805 39.1662 5.48826 38.4202ZM4.46624 32.288C4.20051 28.9358 2.64704 25.9106 0.204405 25.5324C-0.316827 29.5286 2.04405 32.5946 4.42536 32.288H4.46624ZM4.61954 26.0741C4.99769 22.7321 4.06765 19.4412 1.75788 18.5929C0.44969 22.4357 2.14625 25.8697 4.57866 26.0741H4.61954ZM5.96861 19.942C6.99064 16.7226 6.76579 13.2682 4.67065 11.9702C2.59594 15.5882 3.5873 19.3083 5.92773 19.9829L5.96861 19.942ZM8.49301 14.1982C10.1691 11.2037 10.7108 7.70836 8.92226 6.02202C6.13214 9.21073 6.32632 13.0944 8.49301 14.1982ZM9.9545 15.0363C12.1416 16.1809 14.9522 15.118 16.8532 12.9922C15.0851 11.3365 11.6613 12.0724 9.9545 15.0567V15.0363ZM7.53231 20.5143C9.9034 21.2093 12.438 19.6456 13.8178 17.2541C11.743 15.9561 8.58499 17.2643 7.53231 20.5143ZM6.25478 26.2785C8.70764 26.4931 10.8845 24.4798 11.7533 21.9145C9.46393 21.0458 6.65337 22.9467 6.25478 26.2785ZM6.13214 32.1551C8.57477 31.8894 10.3327 29.4877 10.6801 26.8202C8.24772 26.4625 5.86641 28.8131 6.13214 32.1551ZM7.15416 37.9705C9.50481 37.2244 10.7619 34.516 10.5779 31.8383C8.09442 31.9201 6.22412 34.7204 7.15416 37.9705ZM9.30041 43.52C11.4569 42.3243 12.1314 39.432 11.4364 36.7747C9.01424 37.3368 7.71627 40.4744 9.25953 43.52H9.30041ZM12.5811 48.6302C14.4514 47.0256 14.4821 43.9595 13.2659 41.476C10.997 42.5287 10.3531 45.8809 12.5402 48.6302H12.5811ZM17.6912 54.1389C11.4098 49.4417 7.16733 42.5159 5.83659 34.7862C4.50584 27.0565 6.18802 19.1107 10.5371 12.5834C6.01677 19.1296 4.18157 27.1611 5.41007 35.0209C6.63858 42.8806 10.8371 49.969 17.1393 54.8236C17.4255 55.0485 17.773 55.0689 17.9161 54.8236C18.0591 54.5783 17.9161 54.3126 17.6708 54.098L17.6912 54.1389Z" fill="#E0E3EB"/>
<g clip-path="url(#clip0_1_998)">
<path d="M101.103 37.7237C97.4943 37.7237 95.2518 35.6333 95.2518 32.2637C95.2518 28.7667 97.3211 26.591 100.653 26.591H100.933C101.351 26.591 101.926 26.6046 102.712 26.7028V22.4817H105.066V37.3433C105.066 37.3433 102.83 37.7237 101.103 37.7237ZM101.082 28.4442C98.802 28.4442 97.6934 29.6749 97.6934 32.2051C97.6934 34.4769 99.0311 35.889 101.18 35.889C101.593 35.889 102.067 35.8617 102.712 35.8065V28.5956C102.067 28.4919 101.548 28.4442 101.082 28.4442V28.4442ZM68.8634 37.3828L62.5054 26.2876L62.5034 37.3828H60.2875V23.3367H63.3898L69.7477 34.3331L69.745 23.3367H71.9902V37.3828H68.8634ZM89.1154 37.599C88.045 37.599 86.9288 37.479 85.6 37.2233L85.4561 37.196V35.2337L85.6661 35.2787C86.8382 35.529 87.85 35.7424 88.8625 35.7424C89.68 35.7424 91.5843 35.6142 91.5843 34.4108C91.5843 33.4017 90.2684 33.1481 89.2116 32.9456L89.1447 32.9319C88.947 32.8951 88.7609 32.8576 88.6041 32.8181C87.0536 32.4158 85.3995 31.811 85.3995 29.7335C85.3995 27.7071 87.0032 26.546 89.8 26.546C91.1425 26.546 92.1168 26.6892 92.9002 26.8065L93.2807 26.8624V28.7667L93.0782 28.7299C92.1918 28.5669 91.1527 28.3992 90.1538 28.3992C89.0432 28.3992 87.7252 28.6071 87.7252 29.5951C87.7252 30.4153 88.8038 30.6499 90.0529 30.9219C91.7997 31.2996 93.9652 31.7742 93.9652 34.1578C93.9652 36.3444 92.1993 37.599 89.1154 37.599ZM111.673 37.599C109.237 37.599 106.981 37.1694 106.981 34.059C106.981 30.6737 110.47 30.6737 112.556 30.6737C112.763 30.6737 113.743 30.7194 114.044 30.7324C114.041 28.8335 114.017 28.3808 111.264 28.3808C110.172 28.3808 108.96 28.5962 107.889 28.7885L107.685 28.8253V26.9503L107.822 26.921C109.063 26.6687 110.26 26.546 111.48 26.546C114.148 26.546 116.409 26.8146 116.409 30.1256V37.346L116.247 37.3644C114.399 37.5717 112.931 37.599 111.674 37.599H111.673ZM112.497 32.349C110.486 32.349 109.239 32.6449 109.239 34.1176C109.239 35.8221 110.829 35.9633 112.321 35.9633C112.877 35.9633 113.879 35.8917 114.185 35.8699V32.4076C113.754 32.3892 112.633 32.349 112.497 32.349V32.349ZM78.6482 37.599C76.2086 37.599 73.9532 37.1694 73.9532 34.059C73.9532 30.6737 77.442 30.6737 79.527 30.6737C79.735 30.6737 80.7175 30.7194 81.0188 30.7324C81.0161 28.8335 80.9895 28.3808 78.2357 28.3808C77.1434 28.3808 75.9311 28.5962 74.8607 28.7885L74.6561 28.8253V26.9503L74.7972 26.921C75.9996 26.6724 77.224 26.5468 78.4518 26.546C81.1197 26.546 83.3813 26.8146 83.3813 30.1256V37.346L83.2184 37.3644C81.3707 37.5717 79.9027 37.599 78.6482 37.599V37.599ZM79.4684 32.349C77.4577 32.349 76.2141 32.6449 76.2141 34.1176C76.2141 35.8221 77.8013 35.9633 79.2932 35.9633C79.8522 35.9633 80.8538 35.8917 81.16 35.8699V32.4076C80.7257 32.3892 79.6047 32.349 79.4691 32.349" fill="#231F20"/>
<mask id="mask0_1_998" style="mask-type:alpha" maskUnits="userSpaceOnUse" x="117" y="25" width="12" height="18">
<path d="M117.946 25.9092H128.192V42.2728H117.946V25.9092Z" fill="white"/>
</mask>
<g mask="url(#mask0_1_998)">
<path d="M125.782 42.1554V37.5477C124.863 37.6759 124.376 37.6759 123.982 37.6759C123.049 37.6759 122.013 37.4734 121.211 37.1352C119.416 36.3886 118.346 34.4932 118.346 32.0611C118.346 30.8475 118.642 28.6282 120.62 27.4323C121.614 26.8391 122.786 26.5854 124.549 26.5854C125.18 26.5854 126.032 26.6332 126.855 26.6809L128.192 26.7504V41.0877L125.782 42.1554V42.1554ZM124.373 28.4393C121.981 28.4386 120.769 29.6591 120.769 32.0611C120.769 35.1539 122.577 35.8036 124.098 35.8036C124.468 35.8036 124.884 35.8036 125.805 35.6864V28.5061C125.083 28.4584 124.75 28.4393 124.372 28.4393H124.373Z" fill="#231F20"/>
</g>
<mask id="mask1_1_998" style="mask-type:alpha" maskUnits="userSpaceOnUse" x="40" y="15" width="19" height="23">
<path d="M40.2189 15.011H58.628V37.5001H40.2189V15.011Z" fill="white"/>
</mask>
<g mask="url(#mask1_1_998)">
<path d="M49.7725 15.011L41.9875 36.3996C41.8913 36.663 41.7228 36.8939 41.5014 37.066C41.28 37.238 41.0147 37.3443 40.7357 37.3726V37.3828H48.9653C49.6096 37.3828 50.1612 36.973 50.3664 36.4003L58.1541 15.011H49.7725Z" fill="#0996C7"/>
</g>
<path d="M40.0641 37.0583C40.5414 37.0583 40.9593 36.821 41.215 36.4617C41.2416 36.4242 41.335 36.2933 41.4011 36.1154L44.2566 28.2663L42.5861 23.6824C42.4888 23.4503 42.3312 23.2484 42.1297 23.0977C41.9281 22.947 41.6899 22.8529 41.4397 22.8252C41.1896 22.7975 40.9365 22.8373 40.7069 22.9403C40.4772 23.0433 40.2793 23.2058 40.1336 23.411C40.1064 23.4485 39.9952 23.6156 39.9475 23.7574L37.092 31.6038L38.77 36.206C38.8788 36.459 39.0594 36.6745 39.2894 36.826C39.5194 36.9774 39.7887 37.0582 40.0641 37.0583" fill="#0996C7"/>
<mask id="mask2_1_998" style="mask-type:alpha" maskUnits="userSpaceOnUse" x="22" y="21" width="19" height="24">
<path d="M22.4916 21.8184H40.9007V44.8618H22.4916V21.8184Z" fill="white"/>
</mask>
<g mask="url(#mask2_1_998)">
<path d="M40.6742 22.4893H32.354C31.7097 22.4893 31.1581 22.897 30.9502 23.4724L23.1652 44.8611H31.5468L39.3324 23.4731C39.4334 23.1949 39.615 22.953 39.8539 22.7782C40.0929 22.6035 40.3785 22.5039 40.6742 22.492V22.4893Z" fill="#0996C7"/>
</g>
</g>
<path d="M136.711 8.89459C135.583 7.79012 134.697 6.46405 134.108 5C137.326 5.08175 140.647 8.37208 140.658 11.4172C139.182 10.858 137.838 9.99906 136.711 8.89459Z" fill="#E0E3EB"/>
<path d="M148.209 46.2926C145.971 45.2708 142.987 46.9364 140.78 49.6749C142.63 51.269 146.37 49.961 148.209 46.2926Z" fill="#E0E3EB"/>
<path d="M150.794 39.5996C148.393 39.0273 145.808 41.2345 144.244 44.2796C146.38 45.4751 149.721 43.503 150.794 39.5996Z" fill="#E0E3EB"/>
<path d="M152 32.5897C149.537 32.4875 147.432 35.1443 146.513 38.3938C148.843 39.1602 151.704 36.6158 152 32.5897Z" fill="#E0E3EB"/>
<path d="M147.575 32.2627C147.841 28.9111 149.394 25.8864 151.837 25.5084V25.5288C152.317 29.5242 149.956 32.5897 147.575 32.2627Z" fill="#E0E3EB"/>
<path d="M150.283 18.5905C147.974 19.4386 147.044 22.7289 147.422 26.0704C149.854 25.866 151.55 22.4326 150.283 18.5905Z" fill="#E0E3EB"/>
<path d="M147.371 12.0098C145.327 13.3076 145.041 16.7614 146.073 19.9802C148.413 19.3058 149.405 15.5863 147.371 12.0098Z" fill="#E0E3EB"/>
<path d="M143.079 6.02184C141.291 7.7181 141.833 11.2128 143.509 14.1966C145.675 13.093 145.869 9.20999 143.079 6.02184Z" fill="#E0E3EB"/>
<path d="M135.15 13.0215C137.051 15.1367 139.861 16.1994 142.047 15.0651C140.341 12.0711 136.918 11.3354 135.15 13.0215Z" fill="#E0E3EB"/>
<path d="M144.5 20.5116C142.129 21.2064 139.595 19.643 138.215 17.2519L138.185 17.2621C140.259 15.9541 143.417 17.2621 144.5 20.5116Z" fill="#E0E3EB"/>
<path d="M145.757 26.2747C143.325 26.4893 141.128 24.4763 140.259 21.9115H140.249C142.538 21.0429 145.348 22.9435 145.757 26.2747Z" fill="#E0E3EB"/>
<path d="M145.9 32.1503C143.457 31.9255 141.7 29.4833 141.352 26.8163H141.342C143.754 26.4587 146.135 28.8089 145.9 32.1503Z" fill="#E0E3EB"/>
<path d="M141.475 31.8233C141.475 31.8235 141.475 31.8236 141.475 31.8237C143.912 31.9231 145.776 34.7197 144.898 37.9544C142.497 37.2187 141.291 34.511 141.475 31.8237C141.472 31.8236 141.468 31.8235 141.465 31.8233H141.475Z" fill="#E0E3EB"/>
<path d="M140.617 36.769C140.617 36.7698 140.616 36.7706 140.616 36.7713C142.991 37.3395 144.283 40.4722 142.752 43.5132C140.617 42.318 139.922 39.3867 140.616 36.7713C140.613 36.7706 140.61 36.7698 140.607 36.769H140.617Z" fill="#E0E3EB"/>
<path d="M138.788 41.5002C138.787 41.5015 138.786 41.5027 138.786 41.504C141.007 42.5304 141.646 45.8771 139.472 48.6531C137.603 47.019 137.572 43.9558 138.786 41.504C138.783 41.5027 138.78 41.5014 138.777 41.5002H138.788Z" fill="#E0E3EB"/>
<path d="M134.118 54.8659C133.975 54.6819 134.087 54.3549 134.363 54.1404L134.343 54.1301C140.623 49.4338 144.865 42.5093 146.195 34.7809C147.526 27.0526 145.844 19.1082 141.496 12.5821C146.03 19.1311 147.874 27.1727 146.646 35.0432C145.417 42.9137 141.21 50.0107 134.894 54.8659C134.608 55.0396 134.261 55.0498 134.118 54.8659Z" fill="#E0E3EB"/>
<defs>
<clipPath id="clip0_1_998">
<rect width="105.682" height="30" fill="white" transform="translate(23.1733 15)"/>
</clipPath>
</defs>
</svg>
