<svg width="58" height="58" viewBox="0 0 58 58" fill="none" xmlns="http://www.w3.org/2000/svg">
<path d="M58 0H0V58H58V0Z" fill="#CDCDCD"/>
<path d="M48.9008 53.0046V49.9293H45.9332V47.9729H48.5943V45.0799H45.9332V43.2142H48.9008V40.2051H42.4762V53.0046H48.9008ZM40.4624 40.2051H36.1935L35.3143 44.8391C35.1869 45.4807 35.0875 46.2077 35.0165 47.0196C34.9777 46.5334 34.9347 46.0819 34.8876 45.6686C34.841 45.2544 34.7866 44.8702 34.726 44.5155L34.0052 40.2051H29.7027L28.2098 53.0046H31.891L32.1975 47.2014L32.2804 44.8386C32.3192 45.2145 32.3441 45.4631 32.3554 45.5848C32.4492 46.3926 32.5232 46.9611 32.5791 47.2925L33.5071 53.0046H36.3261L37.412 47.3018C37.4834 46.9197 37.544 46.5262 37.5947 46.1197C37.6445 45.7137 37.6874 45.287 37.7268 44.8391L37.8355 47.1693L38.0919 53.0046H41.7062L40.4624 40.2051ZM21.9555 48.6358L22.304 46.6297L22.5443 45.0788C22.5495 45.0509 22.5604 44.9711 22.5774 44.8381C22.5935 44.706 22.6215 44.4683 22.6608 44.1255C22.6826 43.9536 22.7033 43.7967 22.7224 43.6528C22.7421 43.5093 22.7566 43.3799 22.7685 43.2628L22.8762 44.4735C22.9037 44.7226 22.9259 44.9276 22.9425 45.0908C22.9591 45.2539 22.9731 45.3828 22.9839 45.4765C23.0891 46.3164 23.147 46.7975 23.1584 46.9192C23.175 47.0637 23.1859 47.1377 23.1911 47.1429L23.4148 48.6358H21.9555ZM24.9403 40.2051H20.7123L17.6369 53.0046H21.2094L21.4916 51.3797H23.8212L24.0781 53.0046H27.651L24.9403 40.2051ZM13.2189 48.2961H14.4958C14.4958 48.5778 14.4668 48.8336 14.4083 49.0624C14.3508 49.2918 14.2701 49.486 14.168 49.6465C14.0655 49.8076 13.9402 49.9313 13.7906 50.0199C13.6409 50.1084 13.4757 50.1519 13.2934 50.1519C12.8347 50.1519 12.5001 49.9008 12.2899 49.3975C12.0797 48.8952 11.9751 48.0879 11.9751 46.9772C11.9751 44.3627 12.451 43.0557 13.4006 43.0557C13.6715 43.0557 13.8972 43.1733 14.0769 43.4084C14.2566 43.6434 14.371 43.9619 14.4213 44.3663L17.7705 43.1391C16.8592 41.0279 15.3911 39.9726 13.3685 39.9726C11.843 39.9726 10.6412 40.5697 9.76243 41.7627C8.88421 42.9568 8.44458 44.5895 8.44458 46.6623C8.44458 48.7072 8.8811 50.315 9.75467 51.4874C10.6334 52.6478 11.843 53.2278 13.3851 53.2278C14.9551 53.2278 16.1404 52.6364 16.942 51.4532C17.6768 50.3705 18.0444 48.5964 18.0444 46.1305V45.6008H13.2194L13.2189 48.2961Z" fill="white"/>
<path d="M48.5104 27.7308H48.6347C49.6356 27.7308 50.1358 28.2093 50.1358 29.1657C50.1358 29.6359 50.0022 30.0227 49.7376 30.3261C49.472 30.6306 49.1411 30.7823 48.7424 30.7823H48.5104V27.7308ZM51.5863 32.3322C52.9072 31.7403 53.5679 30.671 53.5679 29.1243C53.5679 27.6759 53.0755 26.5595 52.0922 25.7755C51.3185 25.1614 50.1519 24.8549 48.5933 24.8549H45.054V37.6543H48.4949V33.1778L48.4695 32.3322C48.5306 32.5093 48.5819 32.6605 48.6233 32.7884C48.6642 32.9153 48.6937 33.0173 48.7098 33.0949L50.417 37.6543H54.1562L51.5863 32.3322ZM44.1219 37.6538V34.5785H41.1532V32.6216H43.8148V29.7291H41.1532V27.8634H44.1219V24.8549H37.6962V37.6543L44.1219 37.6538ZM37.0246 24.8549H33.6505L33.0214 28.8255C32.9328 29.3785 32.8526 29.9947 32.7811 30.6741C32.7091 31.354 32.6428 32.1328 32.5822 33.0116C32.3772 31.0552 32.1369 29.3615 31.8609 27.9302L31.2804 24.8549H28.3045L27.6583 28.5107C27.4755 29.566 27.3259 30.6798 27.2104 31.8516L27.1027 32.8547L26.9862 31.6859C26.9033 30.8838 26.7547 29.7814 26.5388 28.3776L25.9749 24.8549H22.5593L25.411 37.6543H28.7768L29.4318 33.0121C29.4867 32.6253 29.5338 32.2571 29.5727 31.9096C29.611 31.5612 29.6441 31.2297 29.6721 30.9149C29.728 30.2956 29.7689 29.8731 29.7969 29.6457C29.8078 29.7565 29.8274 29.9166 29.8544 30.1268C29.8823 30.337 29.9155 30.5996 29.9543 30.9149C30.0315 31.5503 30.1475 32.3016 30.3018 33.169L31.0982 37.6543H34.4314L37.0246 24.8549ZM18.7544 33.766C18.5333 34.3522 18.2184 34.6448 17.8094 34.6448C17.4112 34.6448 17.1005 34.3481 16.8768 33.7541C16.6525 33.1597 16.5412 32.3234 16.5412 31.2458C16.5412 30.1516 16.6598 29.3226 16.898 28.7592C17.1403 28.1518 17.4666 27.8473 17.8756 27.8473C18.6933 27.8473 19.1024 29.0047 19.1024 31.3209C19.1024 32.3653 18.9869 33.1809 18.7544 33.766ZM21.3823 26.4296C20.5088 25.2251 19.3349 24.6229 17.8591 24.6229C16.6541 24.6229 15.6122 25.0677 14.7335 25.9573C13.5508 27.1571 12.9595 28.8897 12.9595 31.1552C12.9595 33.5211 13.526 35.2946 14.6589 36.4773C15.5594 37.4115 16.6401 37.8786 17.9005 37.8786C19.3204 37.8786 20.4725 37.2712 21.3569 36.0543C22.2466 34.8338 22.6919 33.2472 22.6919 31.296C22.6924 29.2563 22.2554 27.6345 21.3823 26.4296ZM7.30072 27.648H7.54099C7.91744 27.648 8.22606 27.7888 8.46944 28.071C8.71281 28.3476 8.8345 28.7069 8.8345 29.1486C8.8345 29.5965 8.71022 29.9487 8.46115 30.206C8.2126 30.4634 7.8786 30.5913 7.45762 30.5913L7.3002 30.583L7.30072 27.648ZM7.83977 33.4595C9.13328 33.4595 10.1249 33.2021 10.8157 32.6884C11.827 31.9262 12.3329 30.7678 12.3329 29.2149C12.3329 27.7893 11.8575 26.6755 10.9068 25.8739C10.0995 25.1946 8.86194 24.8549 7.19301 24.8549H3.84375V37.6543H7.3002V33.4595H7.83977Z" fill="white"/>
<path d="M37.0604 22.883V22.0379H36.2448V21.5009H36.9765V20.7056H36.2448V20.1929H37.0604V19.3665H35.2946V22.8835L37.0604 22.883ZM30.5457 19.366H29.5965V20.6093H29.1429V19.366H28.1932V22.883H29.1429V21.4683H29.596V22.883H30.5451L30.5457 19.366ZM23.1465 20.2085H23.6908V19.366H21.6723V20.2085H22.1968V22.883H23.1465V20.2085Z" fill="white"/>
</svg>
