<svg width="16" height="16" viewBox="0 0 16 16" fill="none" xmlns="http://www.w3.org/2000/svg">
<path fill-rule="evenodd" clip-rule="evenodd" d="M7.33507 1.37143C4.04144 1.37143 1.37143 4.04144 1.37143 7.33507C1.37143 10.6287 4.04144 13.2987 7.33507 13.2987C8.88063 13.2987 10.2889 12.7108 11.3483 11.7463C11.3817 11.6582 11.4338 11.5757 11.5047 11.5047C11.5757 11.4338 11.6582 11.3817 11.7463 11.3483C12.7108 10.2889 13.2987 8.88063 13.2987 7.33507C13.2987 4.04144 10.6287 1.37143 7.33507 1.37143ZM12.984 12.0143C14.0371 10.7444 14.6701 9.11367 14.6701 7.33507C14.6701 3.28402 11.3861 0 7.33507 0C3.28402 0 0 3.28402 0 7.33507C0 11.3861 3.28402 14.6701 7.33507 14.6701C9.11367 14.6701 10.7444 14.0371 12.0143 12.984L14.8294 15.7992C15.0972 16.0669 15.5314 16.0669 15.7992 15.7992C16.0669 15.5314 16.0669 15.0972 15.7992 14.8294L12.984 12.0143Z" fill="#72BF44"/>
</svg>
