<?xml version="1.0" standalone="no"?>
<!DOCTYPE svg PUBLIC "-//W3C//DTD SVG 1.1//EN" "http://www.w3.org/Graphics/SVG/1.1/DTD/svg11.dtd" >
<svg>
<metadata>
Created by FontForge 20090914 at Sat Feb 12 00:10:06 2022
 By www-data
2014 published by FontShop International GmbH
</metadata>
<defs>
<font id="FFGoodPro-Regular" horiz-adv-x="532" >
  <font-face 
    font-family="FF Good Pro"
    font-weight="400"
    font-stretch="normal"
    units-per-em="1000"
    panose-1="2 11 5 4 2 1 1 2 1 2"
    ascent="817"
    descent="-183"
    x-height="504"
    cap-height="725"
    bbox="-557 -211 892 931"
    underline-thickness="60"
    underline-position="-90"
    unicode-range="U+0020-U+FEFF"
  />
<missing-glyph horiz-adv-x="509" 
d="M268 323c34 14 62.6689 33 86.002 57s35 54.333 35 91c0 14 -2.5 28 -7.5 42s-13.167 26.5 -24.5 37.5s-25.833 19.833 -43.5 26.5s-39.167 10 -64.5 10c-40 0 -73.333 -10 -100 -30s-45.667 -44.667 -57 -74l48 -17c10 21.333 23.667 38.333 41 51s39 19 65 19
c15.333 0 28.166 -2 38.499 -6s18.666 -9.33301 24.999 -16s10.833 -14.167 13.5 -22.5s4 -16.833 4 -25.5c0 -26 -9.33301 -48.667 -28 -68s-48 -36.333 -88 -51l5 -91h46zM205.002 122h74v77h-74v-77zM16.002 725h454v-725h-454v725z" />
    <glyph glyph-name="uniFB00" unicode="ff" horiz-adv-x="600" 
d="M581 450h-135v-450h-73v450h-210v-450h-73v450h-68v54h68v41c0 24.667 3.5 48 10.5 70s18.333 41.167 34 57.5s36 29.5 61 39.5s55.5 15.667 91.5 17l4 -52c-48.667 -2 -82.667 -15.167 -102 -39.5s-29 -55.5 -29 -93.5v-40h213v41c0 24.667 3.5 48 10.5 70
s18.333 41.167 34 57.5s36 29.5 61 39.5s55.5 15.667 91.5 17l4 -52c-48.667 -2 -82.667 -15.167 -102 -39.5s-29 -55.5 -29 -93.5v-40h138v-54z" />
    <glyph glyph-name="fi" unicode="fi" horiz-adv-x="522" 
d="M291 677c-48.667 -2 -82.667 -15.167 -102 -39.5s-29 -55.5 -29 -93.5v-40h283v-504h-73v450h-207v-450h-73v450h-68v54h68v41c0 24.667 3.5 48 10.5 70s18.333 41.167 34 57.5s36 29.5 61 39.5s55.5 15.667 91.5 17zM440 725v-102h-69v102h69z" />
    <glyph glyph-name="fl" unicode="fl" horiz-adv-x="528" 
d="M292 449h-129.001v-449h-73v449h-68v55h68v41c0 28 4 53.333 12 76s20.833 42 38.5 58s40.334 28.333 68.001 37s61.5 13 101.5 13h62v20h74v-749h-74v677h-60c-55.333 0 -94.5 -11.167 -117.5 -33.5s-34.5 -55.5 -34.5 -99.5v-40h132v-55z" />
    <glyph glyph-name="uniFB03" unicode="ffi" horiz-adv-x="802" 
d="M571 677c-48.667 -2 -82.667 -15.167 -102 -39.5s-29 -55.5 -29 -93.5v-40h283v-504h-73v450h-207v-450h-73v450h-207v-450h-73v450h-68v54h68v41c0 24.667 3.5 48 10.5 70s18.333 41.167 34 57.5s36 29.5 61 39.5s55.5 15.667 91.5 17l4 -52
c-48.667 -2 -82.667 -15.167 -102 -39.5s-29 -55.5 -29 -93.5v-40h210v41c0 24.667 3.5 48 10.5 70s18.333 41.167 34 57.5s36 29.5 61 39.5s55.5 15.667 91.5 17zM720 725v-102h-69v102h69z" />
    <glyph glyph-name="uniFB04" unicode="ffl" horiz-adv-x="807" 
d="M370 545c0 28 4 53.333 12 76s20.667 42 38 58s40 28.333 68 37s62 13 102 13h62v20h74v-749h-74v677h-60c-55.333 0 -94.5 -11.167 -117.5 -33.5s-34.5 -55.5 -34.5 -99.5v-40h132v-54h-129v-450h-73v450h-207v-450h-73v450h-68v54h68v41c0 24.667 3.5 48 10.5 70
s18.333 41.167 34 57.5s36 29.5 61 39.5s55.5 15.667 91.5 17l4 -52c-48.667 -2 -82.667 -15.167 -102 -39.5s-29 -55.5 -29 -93.5v-40h210v41z" />
    <glyph glyph-name=".notdef" horiz-adv-x="509" 
d="M268 323c34 14 62.6689 33 86.002 57s35 54.333 35 91c0 14 -2.5 28 -7.5 42s-13.167 26.5 -24.5 37.5s-25.833 19.833 -43.5 26.5s-39.167 10 -64.5 10c-40 0 -73.333 -10 -100 -30s-45.667 -44.667 -57 -74l48 -17c10 21.333 23.667 38.333 41 51s39 19 65 19
c15.333 0 28.166 -2 38.499 -6s18.666 -9.33301 24.999 -16s10.833 -14.167 13.5 -22.5s4 -16.833 4 -25.5c0 -26 -9.33301 -48.667 -28 -68s-48 -36.333 -88 -51l5 -91h46zM205.002 122h74v77h-74v-77zM16.002 725h454v-725h-454v725z" />
    <glyph glyph-name="space" unicode=" " horiz-adv-x="241" 
 />
    <glyph glyph-name="exclam" unicode="!" horiz-adv-x="231" 
d="M151 725v-303l-8 -216h-59l-8 215v304h75zM67 100h94v-100h-94v100z" />
    <glyph glyph-name="quotedbl" unicode="&#x22;" horiz-adv-x="303" 
d="M181 725h70v-112l-19 -117h-35l-16 117v112zM50 725h70v-112l-19 -117h-35l-16 117v112z" />
    <glyph glyph-name="numbersign" unicode="#" 
d="M31 505h123l18 220h55l-18 -220h144l18 220h55l-18 -220h93v-53h-94l-15 -180h109v-53h-111l-18 -219h-56l19 219h-144l-18 -219h-55l18 219h-105v53h107l15 180h-122v53zM194 272h143l14 180h-143z" />
    <glyph glyph-name="dollar" unicode="$" 
d="M305 832l0.999023 -101.002c42 -7.33301 78.5 -23.166 109.5 -47.499s53.167 -54.5 66.5 -90.5l-56 -24c-10.667 25.333 -26.5 46 -47.5 62s-47.167 26.667 -78.5 32l-13 -260c24.667 -9.33301 49.334 -19.5 74.001 -30.5s46.667 -24.333 66 -40s35 -34.834 47 -57.501
s18 -50 18 -82c0 -30 -5.16699 -57.167 -15.5 -81.5s-25 -45.166 -44 -62.499s-41.667 -30.833 -68 -40.5s-55.5 -15.5 -87.5 -17.5l-9 -94h-53l-1 96c-46.667 7.33301 -86.5 24.833 -119.5 52.5s-57.167 63.167 -72.5 106.5l59 29c12 -32 29.833 -58.167 53.5 -78.5
s51.5 -33.5 83.5 -39.5l16 277c-25.333 8.66699 -50 18.334 -74 29.001s-45.5 23.667 -64.5 39s-34.333 34 -46 56s-17.5 49 -17.5 81c0 26.667 5 51.167 15 73.5s24.167 41.833 42.5 58.5s40.5 30 66.5 40s55 15.667 87 17l10 98h52zM419.999 184.998
c0 18.667 -3.66992 35.167 -11.0029 49.5s-17.166 26.666 -29.499 36.999s-26.666 19.5 -42.999 27.5s-33.833 15.667 -52.5 23l-8 -263c44.667 2.66699 79.834 14.334 105.501 35.001s38.5 51 38.5 91zM105.996 550.998c0 -17.333 3.5 -32.667 10.5 -46s16.333 -25 28 -35
s25.5 -19 41.5 -27s33 -15.333 51 -22l5 245c-48 -2.66699 -82.667 -15 -104 -37s-32 -48 -32 -78z" />
    <glyph glyph-name="percent" unicode="%" horiz-adv-x="583" 
d="M275 542c0 -40.667 -10.167 -72.167 -30.5 -94.5s-49.5 -33.5 -87.5 -33.5s-67 11.167 -87 33.5s-30 53.833 -30 94.5v62c0 41.333 10 73.5 30 96.5s49 34.5 87 34.5s67.167 -11.5 87.5 -34.5s30.5 -55.167 30.5 -96.5v-62zM95 541c0 -52 20.667 -78 62 -78
c42 0 63 26 63 78v64c0 52.667 -21 79 -63 79c-41.333 0 -62 -26.333 -62 -79v-64zM462 725h61l-410 -725h-61zM545 116c0 -40 -10 -71.167 -30 -93.5s-49 -33.5 -87 -33.5c-38.667 0 -68 11.167 -88 33.5s-30 53.5 -30 93.5v63c0 40.667 10 72.667 30 96s49.333 35 88 35
c38 0 67 -11.667 87 -35s30 -55.333 30 -96v-63zM365 115c0 -51.333 21 -77 63 -77c41.333 0 62 25.667 62 77v65c0 52 -20.667 78 -62 78c-42 0 -63 -26 -63 -78v-65z" />
    <glyph glyph-name="ampersand" unicode="&#x26;" horiz-adv-x="611" 
d="M396 585c-15.333 32 -32.8301 54.832 -52.4971 68.499s-42.167 20.5 -67.5 20.5c-30 0 -53 -8 -69 -24s-24 -39 -24 -69c0 -16 3 -32.333 9 -49s14 -32 24 -46l199 -273c10 30 17.5 62.5 22.5 97.5s7.5 71.833 7.5 110.5v13h138v-56h-79
c-2 -42 -6.83301 -81.667 -14.5 -119s-18.167 -71.333 -31.5 -102c23.333 -30 47.5 -52.5 72.5 -67.5s51.167 -26.167 78.5 -33.5l-11 -63c-32 5.33301 -63.167 16.5 -93.5 33.5s-57.833 38.5 -82.5 64.5c-22.667 -32 -49.334 -56.5 -80.001 -73.5s-65.667 -25.5 -105 -25.5
c-62.667 0 -112.667 17.167 -150 51.5s-56 86.833 -56 157.5c0 50 12 95.5 36 136.5s56.333 74.833 97 101.5c-15.333 20 -28 41.833 -38 65.5s-15 49.167 -15 76.5c0 21.333 3.5 41.333 10.5 60s17.333 34.834 31 48.501s30.667 24.5 51 32.5s43.5 12 69.5 12
c41.333 0 75.666 -9.33301 102.999 -28s50.666 -48.667 69.999 -90zM243.003 51.999c29.333 0 55.5 8.00195 78.5 24.002s43.167 38 60.5 66l-180 245c-15.333 -10.667 -28.833 -23.334 -40.5 -38.001s-21.5 -30.334 -29.5 -47.001s-14 -33.5 -18 -50.5s-6 -33.167 -6 -48.5
c0 -52 12 -90.167 36 -114.5s57 -36.5 99 -36.5z" />
    <glyph glyph-name="quotesingle" unicode="'" horiz-adv-x="172" 
d="M51 725h70v-112l-19 -117h-35l-16 117v112z" />
    <glyph glyph-name="parenleft" unicode="(" horiz-adv-x="261" 
d="M64 462c0 63.333 4.5 117.166 13.5 161.499s22.5 80.5 40.5 108.5s40.167 48.5 66.5 61.5s56.5 19.5 90.5 19.5h27v-51h-27c-22 0 -42 -5 -60 -15s-33.5 -26.667 -46.5 -50s-23 -54.166 -30 -92.499s-10.5 -85.833 -10.5 -142.5v-268c0 -56.667 3.5 -104.167 10.5 -142.5
s17 -69.166 30 -92.499s28.5 -40 46.5 -50s38 -15 60 -15h27v-51h-27c-34 0 -64.167 6.5 -90.5 19.5s-48.5 33.5 -66.5 61.5s-31.5 64.167 -40.5 108.5s-13.5 98.166 -13.5 161.499v268z" />
    <glyph glyph-name="parenright" unicode=")" horiz-adv-x="261" 
d="M197 194c0 -63.333 -4.5 -117.168 -13.5 -161.501s-22.5 -80.5 -40.5 -108.5s-40.167 -48.5 -66.5 -61.5s-56.5 -19.5 -90.5 -19.5h-28v52h28c22 0 42 5 60 15s33.333 26.5 46 49.5s22.5 53.667 29.5 92s10.5 85.833 10.5 142.5v268c0 56.667 -3.5 104.167 -10.5 142.5
s-16.833 69 -29.5 92s-28 39.5 -46 49.5s-38 15 -60 15h-28v52h28c34 0 64.167 -6.5 90.5 -19.5s48.5 -33.5 66.5 -61.5s31.5 -64.167 40.5 -108.5s13.5 -98.166 13.5 -161.499v-268z" />
    <glyph glyph-name="asterisk" unicode="*" horiz-adv-x="310" 
d="M126 803h51l-8 -109l97 42l16 -51l-103 -25l69 -83l-41 -32l-56 94l-53 -94l-43 32l70 83l-104 25l17 51l97 -42z" />
    <glyph glyph-name="plus" unicode="+" 
d="M235 283h-153v57h153v197h57v-197h158v-57h-158v-196h-57v196z" />
    <glyph glyph-name="comma" unicode="," horiz-adv-x="209" 
d="M59 96l93.001 0.00195312v-70c0 -41.333 -6.33301 -74.833 -19 -100.5s-36.334 -40.834 -71.001 -45.501l-5 36c18 5.33301 30 14.166 36 26.499s9 31.5 9 57.5h-43v96z" />
    <glyph glyph-name="hyphen" unicode="-" horiz-adv-x="273" 
d="M26 325h221v-65h-221v65z" />
    <glyph glyph-name="period" unicode="." horiz-adv-x="208" 
d="M57 100h94v-100h-94v100z" />
    <glyph glyph-name="slash" unicode="/" horiz-adv-x="317" 
d="M263 746h62l-290 -831h-61z" />
    <glyph glyph-name="zero" unicode="0" 
d="M490 228c0 -74 -19.167 -132.166 -57.5 -174.499s-93.833 -63.5 -166.5 -63.5s-128.167 21.167 -166.5 63.5s-57.5 100.5 -57.5 174.5v264c0 75.333 19.167 134.666 57.5 177.999s93.833 65 166.5 65s128.167 -21.667 166.5 -65s57.5 -102.333 57.5 -177v-265z
M119 228.001c0 -114 49 -171 147 -171c98.667 0 148 57 148 171v265c0 115.333 -49.333 173 -148 173c-98 0 -147 -57.667 -147 -173v-265z" />
    <glyph glyph-name="one" unicode="1" 
d="M105 49l136 -0.00195312v499h-176v55h95c18.667 0 34.167 1.33301 46.5 4s22.333 8.33398 30 17.001s13.5 21.334 17.5 38.001s6.66699 38.667 8 66h58v-679h126v-49h-341v49z" />
    <glyph glyph-name="two" unicode="2" 
d="M275 735c35.333 0 65.835 -4.83496 91.502 -14.502s47 -22.834 64 -39.501s29.667 -36.167 38 -58.5s12.5 -46.166 12.5 -71.499c0 -41.333 -7.83301 -77.666 -23.5 -108.999s-35.334 -59.666 -59.001 -84.999s-49.667 -48.666 -78 -69.999s-55 -43.166 -80 -65.499
s-46.833 -45.833 -65.5 -70.5s-30 -53 -34 -85h351v-66h-428l-2 43c0.666992 38.667 9.66699 73.5 27 104.5s38.666 59.667 63.999 86s52.666 51.333 81.999 75s56.5 47.667 81.5 72s45.833 50 62.5 77s25 57.167 25 90.5c0 36 -10.5 65.167 -31.5 87.5
s-54.833 33.5 -101.5 33.5c-38 0 -70.167 -11.833 -96.5 -35.5s-44.166 -55.5 -53.499 -95.5l-61 20c6 23.333 14.833 45.666 26.5 66.999s26.5 40.166 44.5 56.499s39 29.333 63 39s51 14.5 81 14.5z" />
    <glyph glyph-name="three" unicode="3" 
d="M209 407h50.001c43.333 0 77 10 101 30s36 54 36 102c0 46 -11 79.167 -33 99.5s-53 30.5 -93 30.5c-37.333 0 -68.666 -10.333 -93.999 -31s-44.333 -50 -57 -88l-59 21c15.333 50 41.666 89.833 78.999 119.5s82.666 44.5 135.999 44.5c34 0 63.667 -4.66699 89 -14
s46.166 -22.5 62.499 -39.5s28.5 -37 36.5 -60s12 -48.167 12 -75.5c0 -44 -8.83301 -79.833 -26.5 -107.5s-43.5 -47.167 -77.5 -58.5v-2c38.667 -9.33301 68.334 -27.666 89.001 -54.999s31 -65 31 -113c0 -74 -18.5 -129.167 -55.5 -165.5s-91.167 -54.5 -162.5 -54.5
c-51.333 0 -96.166 12.167 -134.499 36.5s-66.5 61.5 -84.5 111.5l57 24c14.667 -36 36.167 -63 64.5 -81s59.833 -27 94.5 -27c51.333 0 87.666 13.667 108.999 41s32 66.666 32 117.999c0 26 -3.5 47.5 -10.5 64.5s-17 30.5 -30 40.5s-28.833 17 -47.5 21s-39.667 6 -63 6
h-51v62z" />
    <glyph glyph-name="four" unicode="4" 
d="M357 0v140h-339v51l338 534h72v-521h98l-7 -64h-91v-140h-71zM357 204l3 417h-2l-252 -417h251z" />
    <glyph glyph-name="five" unicode="5" 
d="M63 369l32.001 356h368l-5 -68h-303l-21 -241h2c21.333 12 44.5 21.667 69.5 29s51.5 11 79.5 11c137.333 0 206 -75.333 206 -226c0 -78 -19.5 -137.5 -58.5 -178.5s-95.5 -61.5 -169.5 -61.5c-48 0 -90.833 12.667 -128.5 38s-64.167 63 -79.5 113l57 23
c13.333 -38 33.5 -65.833 60.5 -83.5s56.5 -26.5 88.5 -26.5c53.333 0 92.166 14.833 116.499 44.5s36.5 73.5 36.5 131.5s-12.167 99.333 -36.5 124s-62.5 37 -114.5 37c-27.333 0 -54.833 -4.66699 -82.5 -14s-49.167 -21.333 -64.5 -36z" />
    <glyph glyph-name="six" unicode="6" 
d="M277 735c46 0 85.835 -11.832 119.502 -35.499s58.167 -58.5 73.5 -104.5l-53 -26c-13.333 36 -31.5 61.667 -54.5 77s-50.5 23 -82.5 23c-51.333 0 -89.666 -16.667 -114.999 -50s-38 -79.333 -38 -138v-83h2c18 19.333 41 33.666 69 42.999s57 14 87 14
c36.667 0 67.834 -5 93.501 -15s46.667 -24.333 63 -43s28.166 -41.5 35.499 -68.5s11 -57.5 11 -91.5c0 -83.333 -19.333 -145.333 -58 -186s-92.334 -61 -161.001 -61c-32.667 0 -62.334 4.83301 -89.001 14.5s-49.667 24.167 -69 43.5s-34.333 43.833 -45 73.5
s-16 64.167 -16 103.5v250c0 38 5 72.833 15 104.5s24.667 59 44 82s43.166 41 71.499 54s60.5 19.5 96.5 19.5zM273.002 390.001c-17.333 0 -34.665 -2 -51.998 -6s-32.833 -9.66699 -46.5 -17s-24.834 -16.5 -33.501 -27.5s-13.334 -23.5 -14.001 -37.5v-83
c0 -28.667 3.66699 -53.167 11 -73.5s17.333 -37 30 -50s27.667 -22.667 45 -29s36.333 -9.5 57 -9.5c95.333 0 143 59.667 143 179c0 50.667 -11 89 -33 115s-57.667 39 -107 39z" />
    <glyph glyph-name="seven" unicode="7" 
d="M133 0l290 658h-395v67h479v-58l-287 -667h-87z" />
    <glyph glyph-name="eight" unicode="8" 
d="M266 -10c-75.333 0 -132.5 17.167 -171.5 51.5s-58.5 89.5 -58.5 165.5c0 95.333 37.333 154.333 112 177v2c-30.667 12 -54.167 31.333 -70.5 58s-24.5 60.667 -24.5 102c0 28 4 53.667 12 77s20.5 43.333 37.5 60s39 29.5 66 38.5s59.5 13.5 97.5 13.5
s70.5 -4.5 97.5 -13.5s49 -21.833 66 -38.5s29.5 -36.667 37.5 -60s12 -49 12 -77c0 -41.333 -8.33301 -75.333 -25 -102s-40.667 -46 -72 -58v-2c75.333 -22.667 113 -81.667 113 -177c0 -76 -19.333 -131.167 -58 -165.5s-95.667 -51.5 -171 -51.5zM418 211
c0 26 -3.66699 47.999 -11 65.999s-17.666 32.5 -30.999 43.5s-29.333 18.833 -48 23.5s-39.334 7 -62.001 7s-43.334 -2.33301 -62.001 -7s-34.667 -12.5 -48 -23.5s-23.666 -25.5 -30.999 -43.5s-11 -40 -11 -66c0 -58 12.5 -98.5 37.5 -121.5s63.167 -34.5 114.5 -34.5
s89.5 11.333 114.5 34s37.5 63.334 37.5 122.001zM266 670.999c-50 0 -85.667 -10 -107 -30s-32 -53.333 -32 -100c0 -45.333 11 -78.333 33 -99s57.333 -31 106 -31c48 0 83.167 10.333 105.5 31s33.5 53.667 33.5 99c0 46.667 -10.667 80 -32 100s-57 30 -107 30z" />
    <glyph glyph-name="nine" unicode="9" 
d="M107 154c16 -34 36.002 -58.834 60.002 -74.501s54.667 -23.5 92 -23.5c44 0 79.333 12.667 106 38s40 63 40 113v142h-2c-16.667 -17.333 -38 -31 -64 -41s-55.667 -15 -89 -15c-65.333 0 -116 17.5 -152 52.5s-54 89.5 -54 163.5c0 70.667 18.833 126 56.5 166
s93.834 60 168.501 60c32.667 0 62.167 -5.16699 88.5 -15.5s48.666 -24.833 66.999 -43.5s32.333 -41.5 42 -68.5s14.5 -56.833 14.5 -89.5v-308c0 -33.333 -5.33301 -63.666 -16 -90.999s-25.834 -50.5 -45.501 -69.5s-42.834 -33.667 -69.501 -44s-56 -15.5 -88 -15.5
c-52.667 0 -96.167 11.5 -130.5 34.5s-59.833 56.5 -76.5 100.5zM261.002 354.999c15.333 0 31.167 1.99902 47.5 5.99902s31.5 9.66699 45.5 17s25.667 16.333 35 27s14.666 23 15.999 37v79c0 46 -11.667 82.167 -35 108.5s-57.666 39.5 -102.999 39.5
c-48.667 0 -85.167 -13.333 -109.5 -40s-36.5 -66 -36.5 -118c0 -57.333 12.333 -97.666 37 -120.999s59 -35 103 -35z" />
    <glyph glyph-name="colon" unicode=":" horiz-adv-x="208" 
d="M57 481h94v-100h-94v100zM57 100h94v-100h-94v100z" />
    <glyph glyph-name="semicolon" unicode=";" horiz-adv-x="209" 
d="M58 481h94v-100h-94v100zM59 96l93.001 0.00195312v-70c0 -41.333 -6.33301 -74.833 -19 -100.5s-36.334 -40.834 -71.001 -45.501l-5 36c18 5.33301 30 14.166 36 26.499s9 31.5 9 57.5h-43v96z" />
    <glyph glyph-name="less" unicode="&#x3c;" 
d="M189 314l234 -151v-75l-335 221v10l334 223v-76z" />
    <glyph glyph-name="equal" unicode="=" 
d="M89 344v59h354v-59h-354zM89 205v58h354v-58h-354z" />
    <glyph glyph-name="greater" unicode="&#x3e;" 
d="M342 314l-232 152v76l334 -223v-10l-335 -221v75z" />
    <glyph glyph-name="question" unicode="?" horiz-adv-x="494" 
d="M23 576c8 22.667 18.832 43.6689 32.499 63.002s30 36.166 49 50.499s40.667 25.5 65 33.5s50.833 12 79.5 12c36 0 66.667 -5 92 -15s45.833 -23.333 61.5 -40s27.167 -35.667 34.5 -57s11 -43.333 11 -66c0 -52 -15.833 -99 -47.5 -141s-75.834 -75.333 -132.501 -100
l-7 -110h-57l-6 146c58.667 25.333 102.334 54.166 131.001 86.499s43 70.5 43 114.5c0 14.667 -2.16699 29 -6.5 43s-11.333 26.5 -21 37.5s-22.667 20 -39 27s-36.5 10.5 -60.5 10.5c-40 0 -73.667 -10.333 -101 -31s-47.666 -49 -60.999 -85zM185.999 100.002h94v-100
h-94v100z" />
    <glyph glyph-name="at" unicode="@" horiz-adv-x="774" 
d="M533 449l-22.999 -234.999c-0.666992 -3.33301 -1 -8 -1 -14v-13c0 -43.333 20.667 -65 62 -65c14.667 0 27.667 2.5 39 7.5s20.833 13.333 28.5 25s13.5 27 17.5 46s6 42.833 6 71.5v136c0 84.667 -23 150.834 -69 198.501s-112.333 71.5 -199 71.5
c-44.667 0 -84.5 -7.16699 -119.5 -21.5s-64.667 -34 -89 -59s-42.833 -55 -55.5 -90s-19 -72.833 -19 -113.5v-201c0 -48.667 6.83301 -91.5 20.5 -128.5s33.167 -68.167 58.5 -93.5s55.5 -44.5 90.5 -57.5s74.167 -19.5 117.5 -19.5c57.333 0 105.333 7.83301 144 23.5
s73.334 38.5 104.001 68.5l40 -33c-72 -75.333 -168.333 -113 -289 -113c-54 0 -102.333 7.83301 -145 23.5s-78.834 38.5 -108.501 68.5s-52.334 66.833 -68.001 110.5s-23.5 93.5 -23.5 149.5v204c0 47.333 7.66699 91.666 23 132.999s37.666 77.166 66.999 107.499
s65.166 54.333 107.499 72s90.5 26.5 144.5 26.5c52.667 0 99.334 -8.33301 140.001 -25s74.667 -39.5 102 -68.5s48.166 -63.5 62.499 -103.5s21.5 -83.333 21.5 -130v-135c0 -36 -3.66699 -67 -11 -93s-17.666 -47.5 -30.999 -64.5s-29.166 -29.667 -47.499 -38
s-38.833 -12.5 -61.5 -12.5c-26.667 0 -49.167 4.83301 -67.5 14.5s-31.833 25.167 -40.5 46.5c-17.333 -20 -37.666 -35.5 -60.999 -46.5s-49 -16.5 -77 -16.5c-38.667 0 -68.334 12.333 -89.001 37s-31 60.667 -31 108c0 42 5.66699 80.833 17 116.5s28 66.5 50 92.5
s49.167 46.333 81.5 61s69.5 22 111.5 22h100l-2 -51h-28zM469.001 442.001h-18.001c-59.333 0 -104.166 -21 -134.499 -63s-45.5 -98.333 -45.5 -169c0 -33.333 5.83301 -56.666 17.5 -69.999s28.167 -20 49.5 -20c23.333 0 43.833 6.16699 61.5 18.5
s32.5 32.166 44.5 59.499z" />
    <glyph glyph-name="A" unicode="A" horiz-adv-x="605" 
d="M97 0h-84l245 725h88l246 -725h-86l-61 191h-288zM178 256h247l-123 389h-2z" />
    <glyph glyph-name="B" unicode="B" horiz-adv-x="578" 
d="M496 544c0 -44 -8 -78.834 -24 -104.501s-42 -44.167 -78 -55.5v-2c47.333 -10 82 -30 104 -60s33 -68.333 33 -115c0 -67.333 -16.667 -118.666 -50 -153.999s-87.666 -53 -162.999 -53h-235v725h209c69.333 0 120.666 -16.167 153.999 -48.5s50 -76.5 50 -132.5z
M164 67.999h150c45.333 0 79.333 10.5 102 31.5s34 58.167 34 111.5c0 46 -11 79.667 -33 101s-56.333 32 -103 32h-150v-276zM164 409.999h130c46 0 78.333 10.667 97 32s28 53 28 95c0 40 -9.66699 69.667 -29 89s-51.333 29 -96 29h-130v-245z" />
    <glyph glyph-name="C" unicode="C" horiz-adv-x="533" 
d="M287 735c26 0 50.1641 -3.83105 72.4971 -11.498s42.333 -18 60 -31s32.834 -28.5 45.501 -46.5s22 -37.333 28 -58l-60 -24c-10 31.333 -26.667 56.166 -50 74.499s-53.666 27.5 -90.999 27.5c-49.333 0 -86.666 -15.333 -111.999 -46s-38 -74.334 -38 -131.001v-258
c0 -52 12.833 -94 38.5 -126s63.167 -48 112.5 -48c38.667 0 69 8.16699 91 24.5s38.667 44.833 50 85.5l61 -22c-13.333 -54 -37.666 -93.333 -72.999 -118s-80.333 -37 -135 -37c-34.667 0 -66 5.83301 -94 17.5s-52 28 -72 49s-35.333 46.333 -46 76s-16 62.167 -16 97.5
v258c0 76.667 20.167 137 60.5 181s96.166 66 167.499 66z" />
    <glyph glyph-name="D" unicode="D" horiz-adv-x="626" 
d="M321 725c78.667 0 139.167 -21.833 181.5 -65.5s63.5 -103.834 63.5 -180.501v-236c0 -75.333 -21.167 -134.666 -63.5 -177.999s-102.833 -65 -181.5 -65h-238v725h238zM484 475c0 120 -54.333 180 -163 180h-156v-586h156c108.667 0 163 58.667 163 176v230z" />
    <glyph glyph-name="E" unicode="E" horiz-adv-x="537" 
d="M485 725v-72h-320v-246h256v-65h-256v-271h335v-71h-417v725h402z" />
    <glyph glyph-name="F" unicode="F" horiz-adv-x="525" 
d="M486 725v-72h-321v-254h276v-68h-276v-331h-82v725h403z" />
    <glyph glyph-name="G" unicode="G" horiz-adv-x="600" 
d="M307 735c56.667 0 105 -13.8301 145 -41.4971s67.333 -64.167 82 -109.5l-60 -23c-31.333 70 -84.333 105 -159 105c-59.333 0 -103.166 -17 -131.499 -51s-42.5 -82.333 -42.5 -145v-234c0 -58.667 14.333 -102.667 43 -132s70 -44 124 -44
c35.333 0 65.5 6.16699 90.5 18.5s46.5 34.166 64.5 65.499v151h-110v57h184v-352h-69v69c-22.667 -28 -48.834 -48 -78.501 -60s-62.167 -18 -97.5 -18c-73.333 0 -130.5 21.167 -171.5 63.5s-61.5 102.5 -61.5 180.5v236c0 39.333 5.16699 75.166 15.5 107.499
s25.833 60.166 46.5 83.499s46.5 41.333 77.5 54s67.167 19 108.5 19z" />
    <glyph glyph-name="H" unicode="H" horiz-adv-x="627" 
d="M165 725v-319h297v319h82v-725h-82v335h-297v-335h-82v725h82z" />
    <glyph glyph-name="I" unicode="I" horiz-adv-x="284" 
d="M183 725v-725h-82v725h82z" />
    <glyph glyph-name="J" unicode="J" horiz-adv-x="276" 
d="M193 725v-610c0 -86 -21.333 -150 -64 -192s-105 -63.333 -187 -64l-6 65c60 0 104.167 14.667 132.5 44s42.5 78.333 42.5 147v610h82z" />
    <glyph glyph-name="K" unicode="K" horiz-adv-x="588" 
d="M474 0l-221 344l-88 -105v-239h-82v725h82v-397l286 397h98l-241 -325l263 -400h-97z" />
    <glyph glyph-name="L" unicode="L" horiz-adv-x="484" 
d="M163 725v-653h296v-72h-376v725h80z" />
    <glyph glyph-name="M" unicode="M" horiz-adv-x="784" 
d="M701 725v-725h-75v557h-2l-213 -417h-37l-214 417h-2v-557h-75v725h74l234 -472h2l234 472h74z" />
    <glyph glyph-name="N" unicode="N" horiz-adv-x="627" 
d="M149 725l319 -552h2v552h74v-725h-60l-325 564h-2v-564h-74v725h66z" />
    <glyph glyph-name="O" unicode="O" horiz-adv-x="602" 
d="M301 735c78.667 0 138.5 -21.668 179.5 -65.001s61.5 -102.666 61.5 -177.999v-258c0 -76 -20.5 -135.667 -61.5 -179s-100.833 -65 -179.5 -65s-138.667 21.667 -180 65s-62 103 -62 179v257c0 76 20.667 135.667 62 179s101.333 65 180 65zM460 490.999
c0 116.667 -53 175 -159 175c-106.667 0 -160 -58.333 -160 -175v-257c0 -117.333 53.333 -176 160 -176c106 0 159 58.667 159 176v257z" />
    <glyph glyph-name="P" unicode="P" horiz-adv-x="559" 
d="M319 725c66 0 116.333 -18.833 151 -56.5s52 -91.167 52 -160.5c0 -68 -17 -121 -51 -159s-83.333 -57 -148 -57h-158v-292h-82v725h236zM165 358l153 0.000976562c42.667 0 73.667 12.167 93 36.5s29 62.166 29 113.499c0 50.667 -9.66699 88 -29 112s-50.333 36 -93 36
h-153v-298z" />
    <glyph glyph-name="Q" unicode="Q" horiz-adv-x="602" 
d="M301 735c78.667 0 138.502 -21.6699 179.502 -65.0029s61.5 -102.666 61.5 -177.999v-258c0 -64.667 -14.833 -117.5 -44.5 -158.5s-72.834 -67.167 -129.501 -78.5l121 -118l-73 -32l-126 143c-74.667 2.66699 -131.834 25.334 -171.501 68.001
s-59.5 101.334 -59.5 176.001v257c0 76 20.667 135.667 62 179s101.333 65 180 65zM460.002 490.997c0 116.667 -53 175 -159 175c-106.667 0 -160 -58.333 -160 -175v-257c0 -117.333 53.333 -176 160 -176c106 0 159 58.667 159 176v257z" />
    <glyph glyph-name="R" unicode="R" horiz-adv-x="576" 
d="M282 317h-117v-317h-82v725h218c70 0 121.833 -17.167 155.5 -51.5s50.5 -82.833 50.5 -145.5c0 -56.667 -12.333 -101.667 -37 -135s-60.667 -54.333 -108 -63l191 -330h-94zM165 383h131.998c48.667 0 82.334 12.5 101.001 37.5s28 59.5 28 103.5s-9.16699 77 -27.5 99
s-51.166 33 -98.499 33h-135v-273z" />
    <glyph glyph-name="S" unicode="S" horiz-adv-x="492" 
d="M242 735c52 0 96.499 -12.6621 133.499 -37.9951s63.167 -59 78.5 -101l-58 -26c-11.333 30.667 -29.833 54.667 -55.5 72s-56.5 26 -92.5 26c-23.333 0 -43.333 -2.83301 -60 -8.5s-30.167 -13.5 -40.5 -23.5s-17.833 -21.833 -22.5 -35.5s-7 -28.5 -7 -44.5
c0 -28.667 8.5 -52.334 25.5 -71.001s38.333 -35 64 -49s53.334 -27.333 83.001 -40s57.334 -27.834 83.001 -45.501s47 -39.167 64 -64.5s25.5 -57.333 25.5 -96c0 -64.667 -19.5 -114.167 -58.5 -148.5s-91.167 -51.5 -156.5 -51.5c-26 0 -50.667 3.66699 -74 11
s-44.5 17.833 -63.5 31.5s-35.5 30.334 -49.5 50.001s-24.667 42.167 -32 67.5l64 25c12 -38.667 32 -67.834 60 -87.501s59.333 -29.5 94 -29.5c44.667 0 78.667 10.333 102 31s35 52 35 94c0 30.667 -8.5 55.5 -25.5 74.5s-38.5 35.5 -64.5 49.5
s-53.833 27.167 -83.5 39.5s-57.5 27.166 -83.5 44.499s-47.5 38.5 -64.5 63.5s-25.5 57.5 -25.5 97.5c0 26 4.66699 50.167 14 72.5s22.666 41.666 39.999 57.999s38.833 29.166 64.5 38.499s54.5 14 86.5 14z" />
    <glyph glyph-name="T" unicode="T" horiz-adv-x="484" 
d="M468 725v-72h-185v-653h-82v653h-185v72h452z" />
    <glyph glyph-name="U" unicode="U" horiz-adv-x="628" 
d="M555 725v-496.999c0 -74.667 -20.667 -133 -62 -175s-101 -63 -179 -63c-77.333 0 -137 20.667 -179 62s-63 99 -63 173v500h83v-500c0 -30.667 4.16699 -56.334 12.5 -77.001s19.833 -37.334 34.5 -50.001s31.5 -21.667 50.5 -27s39.5 -8 61.5 -8
c51.333 0 90.833 12.833 118.5 38.5s41.5 66.834 41.5 123.501v500h81z" />
    <glyph glyph-name="V" unicode="V" horiz-adv-x="588" 
d="M336 0h-84l-238 725h90l189 -627h2l189 627h91z" />
    <glyph glyph-name="W" unicode="W" horiz-adv-x="915" 
d="M695 0h-89l-147 593h-2l-149 -593h-89l-179 725h83l142 -625h2l153 625h76l151 -627h2l144 627h83z" />
    <glyph glyph-name="X" unicode="X" horiz-adv-x="580" 
d="M238 367l-204 358h93l163 -309h2l163 309h91l-202 -361l207 -364h-92l-169 314h-2l-168 -314h-90z" />
    <glyph glyph-name="Y" unicode="Y" horiz-adv-x="561" 
d="M321 248v-248h-82v248l-229 477h93l176 -402h2l178 402h91z" />
    <glyph glyph-name="Z" unicode="Z" 
d="M486 0h-447v51l348 603h-330v71h429v-48l-350 -606h350v-71z" />
    <glyph glyph-name="bracketleft" unicode="[" horiz-adv-x="259" 
d="M77 813h241v-53h-174v-864h174v-53h-241v970z" />
    <glyph glyph-name="backslash" unicode="\" horiz-adv-x="323" 
d="M324 -85h-62l-290 831h63z" />
    <glyph glyph-name="bracketright" unicode="]" horiz-adv-x="260" 
d="M183 -157h-242v54h173v863h-173v53h242v-970z" />
    <glyph glyph-name="asciicircum" unicode="^" horiz-adv-x="455" 
d="M205 750h50l145 -227h-63l-107 171l-110 -171h-65z" />
    <glyph glyph-name="underscore" unicode="_" horiz-adv-x="415" 
d="M415 -60v-53h-415v53h415z" />
    <glyph glyph-name="grave" unicode="`" horiz-adv-x="273" 
d="M103 725l71 -136h-59l-99 136h87z" />
    <glyph glyph-name="a" unicode="a" horiz-adv-x="458" 
d="M59 406c19.333 32 42.4961 57.998 69.4961 77.998s60.5 30 100.5 30c28 0 51.833 -4.33301 71.5 -13s35.834 -20.667 48.501 -36s22 -33.5 28 -54.5s9 -43.833 9 -68.5v-253c0 -14 3.5 -25 10.5 -33s17.5 -12 31.5 -12h14v-44
c-5.33301 -1.33301 -11.166 -2.66602 -17.499 -3.99902s-13.166 -2 -20.499 -2c-21.333 0 -39 4.83301 -53 14.5s-24 21.834 -30 36.501c-18.667 -17.333 -39.667 -30.5 -63 -39.5s-48 -13.5 -74 -13.5c-44.667 0 -79.334 12 -104.001 36s-37 56.333 -37 97
c0 23.333 3.66699 44.833 11 64.5s19.833 36.834 37.5 51.501s40.834 26 69.501 34s64.334 12 107.001 12h45v55c0 75.333 -31 113 -93 113c-24.667 0 -46.5 -6.83301 -65.5 -20.5s-35.833 -32.834 -50.5 -57.501zM197.996 45.998c25.333 0 47 4.5 65 13.5
s34.667 22.167 50 39.5v135h-45c-30 0 -54.833 -2.5 -74.5 -7.5s-35.334 -12 -47.001 -21s-20 -20 -25 -33s-7.5 -27.5 -7.5 -43.5c0 -29.333 7.33301 -50.5 22 -63.5s35.334 -19.5 62.001 -19.5z" />
    <glyph glyph-name="b" unicode="b" horiz-adv-x="504" 
d="M288 -8c-60.667 0 -108.667 20.332 -144 60.999h-2l-4 -53h-64v749h73v-297h2c16.667 19.333 37 34.333 61 45s51 16 81 16c54 0 94.833 -16.833 122.5 -50.5s41.5 -78.167 41.5 -133.5v-154c0 -55.333 -14 -99.666 -42 -132.999s-69.667 -50 -125 -50zM147 115.999
c12 -18.667 28 -34.001 48 -46.001s45 -18 75 -18c38 0 66.167 10.833 84.5 32.5s27.5 51.834 27.5 90.501v153c0 38 -9 68 -27 90s-46 33 -84 33c-28 0 -52.667 -6.16699 -74 -18.5s-38 -26.833 -50 -43.5v-273z" />
    <glyph glyph-name="c" unicode="c" horiz-adv-x="427" 
d="M350 379c-10.667 25.333 -25.833 43.999 -45.5 55.999s-42.167 18 -67.5 18c-37.333 0 -65.833 -10.333 -85.5 -31s-29.5 -51 -29.5 -91v-158c0 -39.333 10 -69.666 30 -90.999s48.333 -32 85 -32c28 0 51.167 6.33301 69.5 19s33.166 33 44.499 61l53 -21
c-13.333 -36 -34.166 -64.667 -62.499 -86s-64.833 -32 -109.5 -32c-30 0 -56.333 4.66699 -79 14s-41.667 22 -57 38s-27 34.833 -35 56.5s-12 45.167 -12 70.5v164c0 25.333 4 49 12 71s19.667 41 35 57s34.333 28.5 57 37.5s49 13.5 79 13.5
c40 0 74.333 -9.83301 103 -29.5s50.667 -46.5 66 -80.5z" />
    <glyph glyph-name="d" unicode="d" horiz-adv-x="505" 
d="M216 514c28 0 53.833 -4.83203 77.5 -14.499s44.167 -23.834 61.5 -42.501h2v292h73v-749h-65l-4 53h-2c-36 -41.333 -84.667 -62 -146 -62c-54 0 -94.833 16.833 -122.5 50.5s-41.5 78.167 -41.5 133.5v155c0 55.333 14 99.833 42 133.5s69.667 50.5 125 50.5z
M357 392.001c-12.667 16.667 -28.833 31 -48.5 43s-44.5 18 -74.5 18c-38 0 -66.167 -10.833 -84.5 -32.5s-27.5 -52.167 -27.5 -91.5v-155c0 -38 9 -67.833 27 -89.5s46 -32.5 84 -32.5c28 0 52.667 6 74 18s38 26.667 50 44v278z" />
    <glyph glyph-name="e" unicode="e" horiz-adv-x="455" 
d="M122 252l-0.000976562 -79.001c0 -39.333 10.333 -69.833 31 -91.5s50 -32.5 88 -32.5c29.333 0 53.333 6.83301 72 20.5s34.667 36.5 48 68.5l53 -21c-14.667 -42 -36.5 -73.5 -65.5 -94.5s-66.833 -31.5 -113.5 -31.5c-30 0 -56.5 4.5 -79.5 13.5
s-42.5 21.5 -58.5 37.5s-28 35 -36 57s-12 46 -12 72v163c0 26 4 49.833 12 71.5s19.833 40.5 35.5 56.5s34.834 28.5 57.501 37.5s48.667 13.5 78 13.5c28.667 0 54.167 -4.66699 76.5 -14s41.333 -22.166 57 -38.499s27.5 -35.5 35.5 -57.5s12 -45.667 12 -71v-80h-291z
M121.999 299.999h226v39c0 36 -10 64.5 -30 85.5s-48 31.5 -84 31.5c-38 0 -66.167 -10.833 -84.5 -32.5s-27.5 -50.167 -27.5 -85.5v-38z" />
    <glyph glyph-name="f" unicode="f" horiz-adv-x="317" 
d="M298 450h-135v-450h-73v450h-68v54h68v41c0 24.667 3.5 48 10.5 70s18.333 41.167 34 57.5s36 29.5 61 39.5s55.5 15.667 91.5 17l4 -52c-48.667 -2 -82.667 -15.167 -102 -39.5s-29 -55.5 -29 -93.5v-40h138v-54z" />
    <glyph glyph-name="g" unicode="g" horiz-adv-x="491" 
d="M248 182c-35.333 0 -66.002 4.6709 -92.002 14.0039c-16.667 -6 -28.334 -13.5 -35.001 -22.5s-10 -18.833 -10 -29.5c0 -13.333 5 -24.166 15 -32.499s27.667 -12.5 53 -12.5h123c30 0 55.333 -2.83301 76 -8.5s37.334 -13.834 50.001 -24.501
s21.834 -23.334 27.501 -38.001s8.5 -31.334 8.5 -50.001c0 -49.333 -18.833 -87.5 -56.5 -114.5s-90.834 -40.5 -159.501 -40.5c-63.333 0 -110.166 10.667 -140.499 32s-45.5 52 -45.5 92c0 19.333 4 37.833 12 55.5s20.667 32.167 38 43.5
c-20 7.33301 -35.5 18.166 -46.5 32.499s-16.5 31.833 -16.5 52.5c0 17.333 5.5 33.666 16.5 48.999s28.167 28.333 51.5 39c-29.333 26.667 -44 69.334 -44 128.001c0 56.667 14 98.5 42 125.5s72.333 40.5 133 40.5c48 0 86.333 -8.66699 115 -26
c16 9.33301 29.833 20.666 41.5 33.999s19.834 26.333 24.501 39l38 -16c-5.33301 -20 -13.5 -38.667 -24.5 -56s-23.833 -31.666 -38.5 -42.999c14.667 -25.333 22 -58 22 -98c0 -56.667 -14.167 -98.334 -42.5 -125.001s-73.5 -40 -135.5 -40zM143.998 346.004
c0 -20.667 1.66602 -37.999 4.99902 -51.999s9 -25.333 17 -34s18.833 -14.834 32.5 -18.501s30.5 -5.5 50.5 -5.5c40.667 0 68.5 8 83.5 24s22.5 44.667 22.5 86s-8 70.166 -24 86.499s-43.333 24.5 -82 24.5c-39.333 0 -66.666 -8.16699 -81.999 -24.5
s-23 -45.166 -23 -86.499zM171.997 37.0049c-32 -16.667 -48.002 -44.667 -48.002 -84c0 -26.667 11 -46.167 33 -58.5s52.667 -18.5 92 -18.5c30.667 0 55.834 2.5 75.501 7.5s34.834 11.833 45.501 20.5s18 18.667 22 30s6 23.333 6 36c0 22.667 -6.83301 39.5 -20.5 50.5
s-40.167 16.5 -79.5 16.5h-126z" />
    <glyph glyph-name="h" unicode="h" horiz-adv-x="514" 
d="M147 0l-72.999 0.00195312v749h73v-297h2c16.667 20 37.167 35.167 61.5 45.5s51.166 15.5 80.499 15.5c54 0 94.833 -16.667 122.5 -50s41.5 -78 41.5 -134v-329h-73v328c0 39.333 -9 69.666 -27 90.999s-46 32 -84 32c-28 0 -52.833 -6.33301 -74.5 -19
s-38.167 -27.334 -49.5 -44.001v-388z" />
    <glyph glyph-name="i" unicode="i" horiz-adv-x="230" 
d="M151 504v-504h-73v504h73zM150 725v-102h-71v102h71z" />
    <glyph glyph-name="j" unicode="j" horiz-adv-x="229" 
d="M166 725v-102h-71v102h71zM-12 -112c36 4.66699 62.833 18 80.5 40s26.5 54.667 26.5 98v478h73v-477c0 -62.667 -14.833 -110.167 -44.5 -142.5s-72.5 -50.5 -128.5 -54.5z" />
    <glyph glyph-name="k" unicode="k" horiz-adv-x="492" 
d="M147 749v-514l223 269h84l-181 -216l203 -288h-87l-165 240l-77 -82v-158h-73v749h73z" />
    <glyph glyph-name="l" unicode="l" horiz-adv-x="236" 
d="M155 749v-749h-74v749h74z" />
    <glyph glyph-name="m" unicode="m" horiz-adv-x="748" 
d="M416 0l-72.999 -0.00195312v329c0 44.667 -8.5 76 -25.5 94s-39.5 27 -67.5 27c-23.333 0 -44.666 -7.16699 -63.999 -21.5s-34 -32.5 -44 -54.5v-374h-73v504h65v-62h2c15.333 23.333 34.5 41 57.5 53s47.5 18 73.5 18c29.333 0 54.833 -6.66699 76.5 -20
s38.167 -34.666 49.5 -63.999h2c13.333 26.667 32.166 47.334 56.499 62.001s52.166 22 83.499 22c48.667 0 86.667 -15.167 114 -45.5s41 -76.5 41 -138.5v-329h-73v329c0 38 -7.83301 67.667 -23.5 89s-40.5 32 -74.5 32c-30 0 -54.667 -9.5 -74 -28.5
s-29 -49.833 -29 -92.5v-329z" />
    <glyph glyph-name="n" unicode="n" horiz-adv-x="509" 
d="M142 0h-73v504h65l2 -56h2c36 43.333 85.333 65 148 65c54 0 94.833 -16.667 122.5 -50s41.5 -78 41.5 -134v-329h-73v328c0 39.333 -9 69.666 -27 90.999s-45.667 32 -83 32c-28.667 0 -53.667 -6.16699 -75 -18.5s-38 -27.166 -50 -44.499v-388z" />
    <glyph glyph-name="o" unicode="o" horiz-adv-x="480" 
d="M431 168c0 -26 -4.16699 -49.8311 -12.5 -71.498s-20.666 -40.334 -36.999 -56.001s-36.333 -27.834 -60 -36.501s-50.834 -13 -81.501 -13c-62 0 -109.333 16.5 -142 49.5s-49 75.5 -49 127.5v166c0 26 4.16699 49.833 12.5 71.5s20.5 40.5 36.5 56.5
s35.833 28.5 59.5 37.5s51.167 13.5 82.5 13.5c30.667 0 58 -4.5 82 -13.5s44 -21.333 60 -37s28.167 -34.5 36.5 -56.5s12.5 -46 12.5 -72v-166zM122 171.002c0 -37.333 9.5 -67 28.5 -89s48.833 -33 89.5 -33s70.5 11 89.5 33s28.5 51.667 28.5 89v161
c0 37.333 -9.5 67.166 -28.5 89.499s-48.833 33.5 -89.5 33.5c-41.333 0 -71.333 -11.167 -90 -33.5s-28 -52.166 -28 -89.499v-161z" />
    <glyph glyph-name="p" unicode="p" horiz-adv-x="499" 
d="M283 -8c-28.667 0 -54.832 4.66699 -78.499 14s-43.834 23.666 -60.501 42.999h-2v-218h-73v673h65l3 -55h2c17.333 20.667 38.333 36.5 63 47.5s52.667 16.5 84 16.5c54.667 0 95.667 -17 123 -51s41 -78.333 41 -133v-154c0 -55.333 -14 -99.666 -42 -132.999
s-69.667 -50 -125 -50zM142.002 114c12 -17.333 28 -32.168 48 -44.501s45 -18.5 75 -18.5c38 0 66.167 10.833 84.5 32.5s27.5 52.167 27.5 91.5v153c0 38.667 -8.83301 68.834 -26.5 90.501s-45.5 32.5 -83.5 32.5c-28.667 0 -53.667 -6.16699 -75 -18.5
s-38 -26.833 -50 -43.5v-275z" />
    <glyph glyph-name="q" unicode="q" horiz-adv-x="499" 
d="M221 513c61.333 0 109.001 -22.666 143.001 -67.999h2l4 59h60v-673h-73v223h-2c-16.667 -20.667 -36.834 -36.5 -60.501 -47.5s-50.5 -16.5 -80.5 -16.5c-52 0 -92.5 16.167 -121.5 48.5s-43.5 75.5 -43.5 129.5v168c0 53.333 15 96.166 45 128.499
s72.333 48.5 127 48.5zM357.001 383.001c-16 24.667 -34.1689 42.334 -54.502 53.001s-42.166 16 -65.499 16c-35.333 0 -63.333 -10.333 -84 -31s-31 -50.334 -31 -89.001v-161c0 -36 9.16699 -65 27.5 -87s47.166 -33 86.499 -33c28.667 0 53.334 7.33301 74.001 22
s36.334 33.667 47.001 57v253z" />
    <glyph glyph-name="r" unicode="r" horiz-adv-x="348" 
d="M321 432c-15.333 8 -32.333 12 -51 12c-38.667 0 -68.667 -14.5 -90 -43.5s-34 -66.167 -38 -111.5v-289h-73v504h64l3 -96h2c14 36 32.333 62.333 55 79s48.667 25 78 25c10 0 20.5 -1.16699 31.5 -3.5s20.833 -5.83301 29.5 -10.5z" />
    <glyph glyph-name="s" unicode="s" horiz-adv-x="416" 
d="M327 387c-11.333 25.333 -26.166 43.5039 -44.499 54.5039s-40.166 16.5 -65.499 16.5c-32.667 0 -56.667 -7.33301 -72 -22s-23 -32.667 -23 -54c0 -19.333 6.33301 -34.833 19 -46.5s28.5 -21.834 47.5 -30.501s39.667 -16.834 62 -24.501s43 -17.334 62 -29.001
s34.833 -26.334 47.5 -44.001s19 -40.834 19 -69.501c0 -22 -4 -42 -12 -60s-19.167 -33.5 -33.5 -46.5s-31.333 -23 -51 -30s-41.5 -10.5 -65.5 -10.5c-40 0 -74.667 8.66699 -104 26s-52.333 45 -69 83l48 24c12.667 -28.667 30 -49 52 -61s45.333 -18 70 -18
c32 0 56 7.83301 72 23.5s24 36.834 24 63.501c0 20 -6.33301 36.167 -19 48.5s-28.667 22.833 -48 31.5s-40 16.834 -62 24.501s-42.667 17.167 -62 28.5s-35.333 25.666 -48 42.999s-19 40 -19 68c0 18.667 3.5 36.167 10.5 52.5s17.167 30.833 30.5 43.5
s30.166 22.667 50.499 30s44.166 11 71.499 11c38 0 70.833 -8.83301 98.5 -26.5s48.5 -43.5 62.5 -77.5z" />
    <glyph glyph-name="t" unicode="t" horiz-adv-x="330" 
d="M295 447h-130v-316c0 -30 6.33301 -50.833 19 -62.5s29.667 -17.5 51 -17.5c18 0 34 3.33301 48 10l10 -46c-11.333 -6.66699 -23.5 -12 -36.5 -16s-28.167 -6 -45.5 -6c-42 0 -72.667 12 -92 36s-29 59 -29 105v309l-68 13v46l71 4l19 144h53v-146h130v-57z" />
    <glyph glyph-name="u" unicode="u" horiz-adv-x="509" 
d="M367 504h73v-504h-65l-4 54h-2c-36 -42 -84.667 -63 -146 -63c-54 0 -95 16.833 -123 50.5s-42 78.167 -42 133.5v329h74v-330c0 -38 9 -67.833 27 -89.5s45.667 -32.5 83 -32.5c28.667 0 53.667 6 75 18s38 26.667 50 44v390z" />
    <glyph glyph-name="v" unicode="v" horiz-adv-x="489" 
d="M284 0h-81l-184 504h84l140 -435h2l142 435h83z" />
    <glyph glyph-name="w" unicode="w" horiz-adv-x="717" 
d="M359 422h-2l-111 -422h-81l-143 504h77l108 -430h2l114 430h71l113 -432h2l108 432h78l-145 -504h-80z" />
    <glyph glyph-name="x" unicode="x" horiz-adv-x="481" 
d="M189 259l-156 245h85l125 -205l122 205h85l-158 -248l165 -256h-85l-134 217l-129 -217h-85z" />
    <glyph glyph-name="y" unicode="y" horiz-adv-x="504" 
d="M284 -30c-16.667 -44.667 -38.332 -78.3311 -64.999 -100.998s-62.334 -35.334 -107.001 -38.001l-6 53c30.667 4.66699 54.667 14.167 72 28.5s31.333 37.166 42 68.499l9 27l-206 496h82l159 -414h2l138 414h77z" />
    <glyph glyph-name="z" unicode="z" horiz-adv-x="430" 
d="M387 0h-346v47l260 397h-248v60h337v-46l-262 -398h259v-60z" />
    <glyph glyph-name="braceleft" unicode="{" horiz-adv-x="263" 
d="M29 351c27.333 2.66699 49 9.66504 65 20.998s24 27.333 24 48c0 12.667 -2 27 -6 43l-13.5 52c-5 18.667 -9.5 38.834 -13.5 60.501s-6 44.834 -6 69.501c0 56.667 19.333 98.834 58 126.501s91.667 41.5 159 41.5h28v-47h-28c-47.333 0 -84 -10.833 -110 -32.5
s-39 -54.167 -39 -97.5c0 -22 2 -43.167 6 -63.5s8.33301 -39.666 13 -57.999l13 -51.5c4 -16 6 -31 6 -45c0 -22.667 -5.66699 -41.334 -17 -56.001s-30.333 -25.667 -57 -33v-2c26.667 -6.66699 45.667 -17.334 57 -32.001s17 -33.334 17 -56.001c0 -14 -2 -29 -6 -45
l-13 -51c-4.66699 -18 -9 -37 -13 -57s-6 -41 -6 -63c0 -42.667 12.833 -75.5 38.5 -98.5s62.5 -34.5 110.5 -34.5h27v-47h-27c-68 0 -121.167 14.333 -159.5 43s-57.5 71.334 -57.5 128.001c0 24.667 2 47.667 6 69s8.5 41.333 13.5 60l13.5 51c4 15.333 6 29.333 6 42
c0 20.667 -8 36.667 -24 48s-37.667 18.333 -65 21v46z" />
    <glyph glyph-name="bar" unicode="|" horiz-adv-x="264" 
d="M97 813h70v-970h-70v970z" />
    <glyph glyph-name="braceright" unicode="}" horiz-adv-x="263" 
d="M234 305c-27.333 -2.66699 -49 -9.66602 -65 -20.999s-24 -27.333 -24 -48c0 -12.667 2 -26.667 6 -42l13.5 -51c5 -18.667 9.5 -38.667 13.5 -60s6 -44.333 6 -69c0 -56.667 -19.167 -99.334 -57.5 -128.001s-91.5 -43 -159.5 -43h-27v48h27
c48 0 84.833 11.333 110.5 34s38.5 55.334 38.5 98.001c0 22 -2 43 -6 63s-8.33301 39 -13 57l-13 51c-4 16 -6 31 -6 45c0 22.667 5.5 41.334 16.5 56.001s29.833 25.334 56.5 32.001v2c-26.667 7.33301 -45.5 18.333 -56.5 33s-16.5 33.334 -16.5 56.001c0 14 2 29 6 45
l13 51.5c4.66699 18.333 9 37.666 13 57.999s6 41.5 6 63.5c0 43.333 -13 75.833 -39 97.5s-62.667 32.5 -110 32.5h-28v47h28c67.333 0 120.333 -13.833 159 -41.5s58 -69.834 58 -126.501c0 -24.667 -2 -47.834 -6 -69.501s-8.5 -41.834 -13.5 -60.501l-13.5 -52
c-4 -16 -6 -30.333 -6 -43c0 -20.667 8 -36.667 24 -48s37.667 -18.333 65 -21v-46z" />
    <glyph glyph-name="asciitilde" unicode="~" horiz-adv-x="507" 
d="M55 315c9.33301 91.333 48.001 137.002 116.001 137.002c22.667 0 41.334 -4.66699 56.001 -14s27.667 -19.833 39 -31.5s22.333 -22.167 33 -31.5s23.334 -14 38.001 -14c16.667 0 29.667 6 39 18s15.666 32.667 18.999 62h57c-9.33301 -91.333 -48 -137 -116 -137
c-22 0 -40.333 4.66699 -55 14s-27.834 19.666 -39.501 30.999s-22.834 21.666 -33.501 30.999s-23.334 14 -38.001 14c-16.667 0 -29.667 -6 -39 -18s-15.666 -32.333 -18.999 -61h-57z" />
    <glyph glyph-name="uni00A0" unicode="&#xa0;" horiz-adv-x="241" 
 />
    <glyph glyph-name="exclamdown" unicode="&#xa1;" horiz-adv-x="231" 
d="M77 -100v303l8 216h59l8 -214v-305h-75zM161 525h-94v100h94v-100z" />
    <glyph glyph-name="cent" unicode="&#xa2;" 
d="M53 488c0 72.667 18.001 130.667 54.001 174s86.333 67.333 151 72l10 92h49l1 -94c42 -7.33301 77.833 -24.166 107.5 -50.499s50.167 -57.5 61.5 -93.5l-60 -24c-10 30 -26.667 54.167 -50 72.5s-53.666 27.5 -90.999 27.5c-50 0 -87.667 -15.333 -113 -46
s-38 -73.667 -38 -129v-258c0 -51.333 12.833 -93 38.5 -125s63.167 -48 112.5 -48c38.667 0 69.167 8.16699 91.5 24.5s39.166 44.5 50.499 84.5l61 -22c-12.667 -50 -34.5 -87.333 -65.5 -112s-70.5 -38.667 -118.5 -42l-10 -90h-49l-1 92
c-29.333 4 -55.833 12.5 -79.5 25.5s-43.834 29.667 -60.501 50s-29.5 44.166 -38.5 71.499s-13.5 57.333 -13.5 90v258z" />
    <glyph glyph-name="sterling" unicode="&#xa3;" 
d="M39 387l65.999 0.000976562c-3.33301 24.667 -6.16602 48 -8.49902 70s-3.5 39.667 -3.5 53c0 70.667 16.5 126 49.5 166s80.833 60 143.5 60c48 0 89 -13.167 123 -39.5s56.667 -61.5 68 -105.5l-58 -22c-11.333 36 -28 61.333 -50 76s-49 22 -81 22
c-43.333 0 -74.5 -14.333 -93.5 -43s-28.5 -69 -28.5 -121c0 -12.667 0.833008 -29.334 2.5 -50.001s4.16699 -42.667 7.5 -66h230l-7 -56h-216l9.5 -73c3 -22.667 5.16699 -41.334 6.5 -56.001c20.667 -6.66699 39 -17.667 55 -33s31 -31 45 -47s28.167 -30 42.5 -42
s30.5 -18 48.5 -18c21.333 0 38 9.33301 50 28s21.333 50.667 28 96l55 -14c-8.66699 -65.333 -23.834 -112 -45.501 -140s-49.834 -42 -84.501 -42c-25.333 0 -47 6.16699 -65 18.5s-34.167 27 -48.5 44s-28 34.167 -41 51.5s-26.5 31.333 -40.5 42
c-1.33301 -29.333 -4.66602 -53.833 -9.99902 -73.5s-12.666 -35.667 -21.999 -48s-20.166 -21.166 -32.499 -26.499s-25.833 -8 -40.5 -8c-24 0 -43.167 7.83301 -57.5 23.5s-21.5 37.5 -21.5 65.5c0 34.667 10.5 63.5 31.5 86.5s50.833 36.5 89.5 40.5
c-2.66699 12.667 -5.83398 30.167 -9.50098 52.5l-11.5 72.5h-66zM97.999 45.001c14.667 0 25.667 8.00098 33 24.001s11 45.667 11 89c-14 -1.33301 -25.667 -4.33301 -35 -9s-16.666 -10.5 -21.999 -17.5s-9 -14.833 -11 -23.5s-3 -17.334 -3 -26.001
c0 -13.333 2.66699 -22.833 8 -28.5s11.666 -8.5 18.999 -8.5z" />
    <glyph glyph-name="currency" unicode="&#xa4;" 
d="M150 379c0 24.667 6.33203 47.001 18.999 67.001l-45 48l31 35l47 -49c9.33301 6 19.333 10.833 30 14.5s21.667 5.5 33 5.5c24 0 45.333 -6.66699 64 -20l48 50l32 -34l-47 -51c12.667 -20 19 -42 19 -66c0 -24.667 -6.66699 -47.334 -20 -68.001l47 -49l-32 -34l-47 49
c-19.333 -13.333 -40.666 -20 -63.999 -20s-44.333 6.66699 -63 20l-47 -51l-32 34l47 51c-13.333 19.333 -20 42 -20 68zM198.999 379.001c0 -20.667 6.5 -37.834 19.5 -51.501s28.833 -20.5 47.5 -20.5s34.5 6.83301 47.5 20.5s19.5 30.834 19.5 51.501
c0 20 -6.5 36.833 -19.5 50.5s-28.833 20.5 -47.5 20.5s-34.5 -6.83301 -47.5 -20.5s-19.5 -30.5 -19.5 -50.5z" />
    <glyph glyph-name="yen" unicode="&#xa5;" 
d="M305 170v-170h-78v170h-152v55h152v50h-152v55h135l-205 395h88l172 -360h2l172 360h88l-206 -395h123v-55h-139v-50h139v-55h-139z" />
    <glyph glyph-name="brokenbar" unicode="&#xa6;" horiz-adv-x="264" 
d="M97 813h70v-414h-70v414zM97 257h70v-414h-70v414z" />
    <glyph glyph-name="section" unicode="&#xa7;" horiz-adv-x="446" 
d="M119 -29c10 -26.667 24.333 -45.833 43 -57.5s41 -17.5 67 -17.5c35.333 0 59.833 8.5 73.5 25.5s20.5 36.833 20.5 59.5c0 21.333 -6.83301 40.166 -20.5 56.499s-30.667 31.833 -51 46.5s-42.5 29.334 -66.5 44.001s-46.167 30.834 -66.5 48.501s-37.333 37.667 -51 60
s-20.5 48.833 -20.5 79.5c0 32.667 8.33301 60.5 25 83.5s39 40.833 67 53.5c-21.333 17.333 -39.166 36.833 -53.499 58.5s-21.5 47.167 -21.5 76.5c0 19.333 3.16699 37.833 9.5 55.5s16.166 33.334 29.499 47.001s30.166 24.5 50.499 32.5s44.5 12 72.5 12
c43.333 0 79.333 -10.333 108 -31s49 -50 61 -88l-56 -17c-10 26 -24.333 45 -43 57s-41 18 -67 18c-35.333 0 -59.833 -8.66699 -73.5 -26s-20.5 -37.333 -20.5 -60c0 -21.333 6.83301 -40.166 20.5 -56.499s30.667 -31.833 51 -46.5s42.5 -29.334 66.5 -44.001
s46.167 -30.834 66.5 -48.501s37.333 -37.834 51 -60.501s20.5 -49 20.5 -79c0 -33.333 -8.33301 -61.333 -25 -84s-39 -40.334 -67 -53.001c21.333 -18 39.166 -37.667 53.499 -59s21.5 -46.666 21.5 -75.999c0 -19.333 -3.16699 -38 -9.5 -56s-16.166 -33.667 -29.499 -47
s-30.166 -24 -50.499 -32s-44.5 -12 -72.5 -12c-43.333 0 -79.333 10.333 -108 31s-49 50 -61 88zM346 247.001c0 18.667 -4.66699 35.499 -14 50.499s-21.333 29.167 -36 42.5s-31.5 26.166 -50.5 38.499l-56.5 37.5c-51.333 -17.333 -77 -48.333 -77 -93
c0 -18.667 4.66699 -35.667 14 -51s21.5 -29.666 36.5 -42.999s31.833 -26.166 50.5 -38.499l56 -37.5c26.667 9.33301 46.167 22 58.5 38s18.5 34.667 18.5 56z" />
    <glyph glyph-name="dieresis" unicode="&#xa8;" horiz-adv-x="273" 
d="M96 725v-103h-59v103h59zM236 725v-103h-59v103h59z" />
    <glyph glyph-name="copyright" unicode="&#xa9;" horiz-adv-x="706" 
d="M355 618c43.333 0 79.668 -11.3311 109.001 -33.998s49 -51.667 59 -87l-50 -17c-8 26.667 -21.333 47.5 -40 62.5s-43 22.5 -73 22.5c-40 0 -70.167 -12.167 -90.5 -36.5s-30.5 -58.5 -30.5 -102.5v-132c0 -40.667 10.167 -73.834 30.5 -99.501
s50.166 -38.5 89.499 -38.5c32 0 56.833 6.83301 74.5 20.5s31.167 37.5 40.5 71.5l50 -15c-10.667 -46 -30.167 -79 -58.5 -99s-65.166 -30 -110.499 -30c-28.667 0 -54.334 4.66699 -77.001 14s-42 22.333 -58 39s-28.333 36.667 -37 60s-13 49 -13 77v132
c0 59.333 16.167 106.166 48.5 140.499s77.833 51.5 136.5 51.5zM651.002 299.002c0 -43.333 -6.66699 -84 -20 -122s-32.666 -71 -57.999 -99s-56.5 -50.167 -93.5 -66.5s-79.167 -24.5 -126.5 -24.5s-89.5 8.16699 -126.5 24.5s-68.333 38.5 -94 66.5s-45.167 61 -58.5 99
s-20 78.667 -20 122v124c0 44 6.66699 85 20 123s32.833 71 58.5 99s57 50 94 66s79.167 24 126.5 24s89.5 -8 126.5 -24s68.167 -38 93.5 -66s44.666 -61 57.999 -99s20 -79 20 -123v-124zM601.002 422.002c0 38 -5.5 73.167 -16.5 105.5s-27.167 60.333 -48.5 84
s-47.333 42 -78 55s-65.667 19.5 -105 19.5s-74.333 -6.5 -105 -19.5s-56.667 -31.333 -78 -55s-37.5 -51.667 -48.5 -84s-16.5 -67.5 -16.5 -105.5v-122c0 -38 5.5 -73.167 16.5 -105.5s27.167 -60.333 48.5 -84s47.333 -42 78 -55s65.667 -19.5 105 -19.5
s74.333 6.5 105 19.5s56.667 31.333 78 55s37.5 51.667 48.5 84s16.5 67.5 16.5 105.5v122z" />
    <glyph glyph-name="ordfeminine" unicode="&#xaa;" horiz-adv-x="299" 
d="M31 677c9.33301 22 23.833 39.665 43.5 52.998s42.167 20 67.5 20c37.333 0 64.166 -10.167 80.499 -30.5s24.5 -45.166 24.5 -74.499v-147c0 -15.333 7.33301 -23 22 -23h13v-37h-30c-10.667 0 -20.5 2.5 -29.5 7.5s-15.833 12.167 -20.5 21.5
c-25.333 -21.333 -56 -32 -92 -32c-30 0 -53 7.33301 -69 22s-24 34.334 -24 59.001c0 14 2.33301 26.833 7 38.5s12.667 22 24 31s26.5 16 45.5 21s42.5 7.5 70.5 7.5h32v32c0 18 -4.33301 32.667 -13 44s-24.334 17 -47.001 17c-15.333 0 -29.166 -4.5 -41.499 -13.5
s-21.166 -20.833 -26.499 -35.5zM123 474.998c14.667 0 27.999 2.50098 39.999 7.50098s23 13.167 33 24.5v68h-32c-36 0 -60.833 -5.33301 -74.5 -16s-20.5 -24.334 -20.5 -41.001c0 -14.667 4.83301 -25.5 14.5 -32.5s22.834 -10.5 39.501 -10.5z" />
    <glyph glyph-name="guillemotleft" unicode="&#xab;" horiz-adv-x="403" 
d="M253 258l128 -180h-68l-126 180l126 179h68zM89 258l128 -180h-68l-126 180l126 179h68z" />
    <glyph glyph-name="logicalnot" unicode="&#xac;" 
d="M393 282h-311v58h368v-210h-57v152z" />
    <glyph glyph-name="uni00AD" unicode="&#xad;" horiz-adv-x="273" 
d="M26 325h221v-65h-221v65z" />
    <glyph glyph-name="registered" unicode="&#xae;" horiz-adv-x="273" 
d="M253 613c0 -15.333 -2.3291 -29.833 -6.99609 -43.5s-11.834 -25.834 -21.501 -36.501s-21.834 -19 -36.501 -25s-32 -9 -52 -9s-37.167 3 -51.5 9s-26.333 14.333 -36 25s-16.834 22.834 -21.501 36.501s-7 28.167 -7 43.5v55c0 30.667 9.5 57 28.5 79
s48.167 33 87.5 33s68.666 -11 87.999 -33s29 -48.333 29 -79v-55zM45.0039 613c0 -28 7.16699 -49.833 21.5 -65.5s37.5 -23.5 69.5 -23.5s55.333 7.83301 70 23.5s22 37.5 22 65.5v55c0 28 -7.33301 49.667 -22 65s-38 23 -70 23s-55.167 -7.66699 -69.5 -23
s-21.5 -37 -21.5 -65v-55zM136.004 627l-23.999 0.000976562v-66h-33v164h62c21.333 0 36.666 -4.33301 45.999 -13s14 -20.334 14 -35.001c0 -11.333 -2.83301 -21 -8.5 -29s-14.167 -13.667 -25.5 -17l43 -70h-37zM112.005 650.001l28 0.000976562
c11.333 0 18.666 2.5 21.999 7.5s5 11.167 5 18.5s-1.66699 13.166 -5 17.499s-10.666 6.5 -21.999 6.5h-28v-50z" />
    <glyph glyph-name="macron" unicode="&#xaf;" horiz-adv-x="273" 
d="M255 629h-237v51h237v-51z" />
    <glyph glyph-name="degree" unicode="&#xb0;" horiz-adv-x="258" 
d="M25 677c0 14.667 2.66699 28.5 8 41.5s12.666 24.5 21.999 34.5s20.333 17.833 33 23.5s26.334 8.5 41.001 8.5s28.334 -2.83301 41.001 -8.5s23.667 -13.5 33 -23.5s16.666 -21.5 21.999 -34.5s8 -26.833 8 -41.5c0 -15.333 -2.66699 -29.5 -8 -42.5
s-12.666 -24.333 -21.999 -34s-20.333 -17.334 -33 -23.001s-26.334 -8.5 -41.001 -8.5s-28.334 2.83301 -41.001 8.5s-23.667 13.334 -33 23.001s-16.666 21 -21.999 34s-8 27.167 -8 42.5zM69 677c0 -19.333 5.66699 -35 17 -47s25.666 -18 42.999 -18
c16.667 0 30.834 6 42.501 18s17.5 27.667 17.5 47c0 18.667 -5.83301 34.167 -17.5 46.5s-25.834 18.5 -42.501 18.5c-17.333 0 -31.666 -6.16699 -42.999 -18.5s-17 -27.833 -17 -46.5z" />
    <glyph glyph-name="plusminus" unicode="&#xb1;" 
d="M235 306h-153v58h153v173h57v-173h158v-58h-158v-169h-57v169zM82 42v59h368v-59h-368z" />
    <glyph glyph-name="twosuperior" unicode="&#xb2;" horiz-adv-x="278" 
d="M141 802c18 0 33.3301 -2.33691 45.9971 -7.00391s23 -11 31 -19s14 -17.167 18 -27.5s6 -21.166 6 -32.499c0 -18 -3.5 -33.667 -10.5 -47s-15.833 -25.166 -26.5 -35.499s-22.167 -20 -34.5 -29l-35.5 -26c-11.333 -8.33301 -21 -17.166 -29 -26.499s-13 -20 -15 -32
h155v-41h-210l-1 24c0.666992 16.667 4.83398 31.834 12.501 45.501s17.334 26.167 29.001 37.5s24.167 22 37.5 32s25.5 20 36.5 30s20.333 20.333 28 31s11.5 22.334 11.5 35.001c0 14 -4 25.167 -12 33.5s-21.333 12.5 -40 12.5c-16 0 -29.5 -4.83301 -40.5 -14.5
s-18.833 -22.834 -23.5 -39.501l-41 14c6.66699 22 18.834 41.167 36.501 57.5s41.5 24.5 71.5 24.5z" />
    <glyph glyph-name="threesuperior" unicode="&#xb3;" horiz-adv-x="278" 
d="M104 662l25.0029 0.000976562c18 0 31.667 3.83301 41 11.5s14 20.5 14 38.5c0 32.667 -16.667 49 -50 49c-31.333 0 -52.666 -15.667 -63.999 -47l-38 14c7.33301 22 20.166 39.833 38.499 53.5s41.166 20.5 68.499 20.5c34 0 59 -8.33301 75 -25s24 -36.667 24 -60
c0 -36 -15.333 -59.667 -46 -71v-2c35.333 -8 53 -32.333 53 -73c0 -32 -9.33301 -56 -28 -72s-45.334 -24 -80.001 -24c-26 0 -48.333 5.66699 -67 17s-32.334 28.666 -41.001 51.999l38 15c13.333 -29.333 35.666 -44 66.999 -44c20.667 0 35.167 5.16699 43.5 15.5
s12.5 24.833 12.5 43.5c0 19.333 -5.16699 32.5 -15.5 39.5s-25.166 10.5 -44.499 10.5h-26v38z" />
    <glyph glyph-name="acute" unicode="&#xb4;" horiz-adv-x="273" 
d="M221 725l-90 -136h-58l60 136h88z" />
    <glyph glyph-name="mu" unicode="&#xb5;" horiz-adv-x="520" 
d="M69 504h72.999v-326c0 -38.667 9.66699 -68.667 29 -90s48 -32 86 -32c28 0 52 6.16699 72 18.5s36 26.833 48 43.5v386h73v-504h-65l-3 55h-2c-30 -38 -70.333 -57 -121 -57c-56 0 -96.333 21.333 -121 64h-2c0.666992 -20 1.83398 -40.333 3.50098 -61
s3.16699 -41 4.5 -61s2.83301 -39.167 4.5 -57.5s3.5 -34.833 5.5 -49.5l-75 -6c-1.33301 24 -2.5 52 -3.5 84l-3 97c-1 32.667 -1.83301 64 -2.5 94s-1 55.333 -1 76v326z" />
    <glyph glyph-name="paragraph" unicode="&#xb6;" horiz-adv-x="597" 
d="M600 748v-67h-115v-844h-72v844h-172v-844h-71v619c-51.333 0 -89.833 13.167 -115.5 39.5s-38.5 61.833 -38.5 106.5c0 20 3.16699 39 9.5 57s16 33.5 29 46.5s29 23.333 48 31s41.5 11.5 67.5 11.5h430z" />
    <glyph glyph-name="periodcentered" unicode="&#xb7;" horiz-adv-x="236" 
d="M62 318c0 16.667 5.33301 30.834 16 42.501s23.667 17.5 39 17.5s28.666 -5.83301 39.999 -17.5s17 -25.834 17 -42.501s-5.66699 -30.667 -17 -42s-24.666 -17 -39.999 -17s-28.333 5.66699 -39 17s-16 25.333 -16 42z" />
    <glyph glyph-name="cedilla" unicode="&#xb8;" horiz-adv-x="273" 
d="M145 15l-8 -48.9971c31.333 -3.33301 52.5 -10.333 63.5 -21s16.5 -23.667 16.5 -39c0 -21.333 -9.83301 -38.833 -29.5 -52.5s-48.5 -22.167 -86.5 -25.5l-12 38c26.667 4.66699 44.667 9.66699 54 15s14 12.666 14 21.999c0 7.33301 -4.66699 13.666 -14 18.999
s-29 8.66602 -59 9.99902l18 86z" />
    <glyph glyph-name="onesuperior" unicode="&#xb9;" horiz-adv-x="278" 
d="M188 800v-321.001h-54v228h-68v35h29c9.33301 0 17 0.666992 23 2s10.833 4 14.5 8s6.5 9.83301 8.5 17.5s3.66699 17.834 5 30.501h42z" />
    <glyph glyph-name="ordmasculine" unicode="&#xba;" horiz-adv-x="285" 
d="M267 545c0 -30 -10.499 -56.001 -31.499 -78.001s-52.5 -33 -94.5 -33c-40.667 0 -71.5 11 -92.5 33s-31.5 48 -31.5 78v93c0 14.667 2.66699 28.834 8 42.501s13.166 25.667 23.499 36s23.333 18.5 39 24.5s33.5 9 53.5 9c42 0 73.5 -11.167 94.5 -33.5
s31.5 -48.5 31.5 -78.5v-93zM69.001 548.999c0 -24.667 6.66699 -43.5 20 -56.5s30.666 -19.5 51.999 -19.5c22.667 0 40.667 6.5 54 19.5s20 31.833 20 56.5v85c0 24 -6.66699 42.333 -20 55s-31.333 19 -54 19c-21.333 0 -38.666 -6.33301 -51.999 -19s-20 -31 -20 -55
v-85z" />
    <glyph glyph-name="guillemotright" unicode="&#xbb;" horiz-adv-x="403" 
d="M314 258l-128 179h68l126 -179l-126 -180h-68zM150 258l-128 179h68l126 -179l-126 -180h-68z" />
    <glyph glyph-name="onequarter" unicode="&#xbc;" horiz-adv-x="575" 
d="M188 727v-321.001h-54v228h-68v35h29c9.33301 0 17 0.666992 23 2s10.833 4 14.5 8s6.5 9.83301 8.5 17.5s3.66699 17.834 5 30.501h42zM80 -0.000976562l390 725h56l-391 -725h-55zM473 -0.000976562v60h-156v34l153 225h50v-219h42l-5 -40h-37v-60h-47zM473 99.999
l4 162h-2l-102 -162h100z" />
    <glyph glyph-name="onehalf" unicode="&#xbd;" horiz-adv-x="575" 
d="M188 727v-321.001h-54v228h-68v35h29c9.33301 0 17 0.666992 23 2s10.833 4 14.5 8s6.5 9.83301 8.5 17.5s3.66699 17.834 5 30.501h42zM60 -0.000976562l390 725h56l-391 -725h-55zM438 322.999c18 0 33.3301 -2.33691 45.9971 -7.00391s23 -11 31 -19
s14 -17.167 18 -27.5s6 -21.166 6 -32.499c0 -18 -3.5 -33.667 -10.5 -47s-15.833 -25.166 -26.5 -35.499s-22.167 -20 -34.5 -29l-35.5 -26c-11.333 -8.33301 -21 -17.166 -29 -26.499s-13 -20 -15 -32h155v-41h-210l-1 24c0.666992 16.667 4.83398 31.834 12.501 45.501
s17.334 26.167 29.001 37.5s24.167 22 37.5 32s25.5 20 36.5 30s20.333 20.333 28 31s11.5 22.334 11.5 35.001c0 14 -4 25.167 -12 33.5s-21.333 12.5 -40 12.5c-16 0 -29.5 -4.83301 -40.5 -14.5s-18.833 -22.834 -23.5 -39.501l-41 14
c6.66699 22 18.834 41.167 36.501 57.5s41.5 24.5 71.5 24.5z" />
    <glyph glyph-name="threequarters" unicode="&#xbe;" horiz-adv-x="575" 
d="M104 589l25.0029 0.000976562c18 0 31.667 3.83301 41 11.5s14 20.5 14 38.5c0 32.667 -16.667 49 -50 49c-31.333 0 -52.666 -15.667 -63.999 -47l-38 14c7.33301 22 20.166 39.833 38.499 53.5s41.166 20.5 68.499 20.5c34 0 59 -8.33301 75 -25s24 -36.667 24 -60
c0 -36 -15.333 -59.667 -46 -71v-2c35.333 -8 53 -32.333 53 -73c0 -32 -9.33301 -56 -28 -72s-45.334 -24 -80.001 -24c-26 0 -48.333 5.66699 -67 17s-32.334 28.666 -41.001 51.999l38 15c13.333 -29.333 35.666 -44 66.999 -44c20.667 0 35.167 5.16699 43.5 15.5
s12.5 24.833 12.5 43.5c0 19.333 -5.16699 32.5 -15.5 39.5s-25.166 10.5 -44.499 10.5h-26v38zM90.0029 0.000976562l390 725h56l-391 -725h-55zM473.003 0.000976562v60h-156v34l153 225h50v-219h42l-5 -40h-37v-60h-47zM473.003 100.001l4 162h-2l-102 -162h100z" />
    <glyph glyph-name="questiondown" unicode="&#xbf;" horiz-adv-x="494" 
d="M471 50c-8 -22.667 -18.8311 -43.666 -32.498 -62.999s-30 -36.166 -49 -50.499s-40.667 -25.5 -65 -33.5s-50.833 -12 -79.5 -12c-36 0 -66.667 5 -92 15s-45.833 23.167 -61.5 39.5s-27.167 35.166 -34.5 56.499s-11 43.333 -11 66c0 52 15.667 99 47 141
s75.333 75.333 132 100l8 111h57l6 -147c-58.667 -24.667 -102.334 -53.334 -131.001 -86.001s-43 -70.667 -43 -114c0 -14.667 2.16699 -29 6.5 -43s11.333 -26.5 21 -37.5s22.667 -20 39 -27s36.5 -10.5 60.5 -10.5c40 0 73.667 10.333 101 31s47.666 48.667 60.999 84z
M308.002 525.001h-94v101h94v-101z" />
    <glyph glyph-name="Agrave" unicode="&#xc0;" horiz-adv-x="605" 
d="M97 0h-84l245 725h88l246 -725h-86l-61 191h-288zM178 256h247l-123 389h-2zM261 872l72 -111h-67l-103 111h98z" />
    <glyph glyph-name="Aacute" unicode="&#xc1;" horiz-adv-x="605" 
d="M97 0h-84l245 725h88l246 -725h-86l-61 191h-288zM178 256h247l-123 389h-2zM430 872l-95 -111h-65l65 111h95z" />
    <glyph glyph-name="Acircumflex" unicode="&#xc2;" horiz-adv-x="605" 
d="M97 0h-84l245 725h88l246 -725h-86l-61 191h-288zM178 256h247l-123 389h-2zM180 761l90 111h62l90 -111h-67l-54 68l-54 -68h-67z" />
    <glyph glyph-name="Atilde" unicode="&#xc3;" horiz-adv-x="605" 
d="M97 0h-84l245 725h88l246 -725h-86l-61 191h-288zM178 256h247l-123 389h-2zM442 865c-5.33301 -35.333 -13.832 -62.667 -25.499 -82s-29.834 -29 -54.501 -29c-13.333 0 -25.333 3.83301 -36 11.5s-20.334 16 -29.001 25l-24.5 25
c-7.66699 7.66699 -15.5 11.5 -23.5 11.5c-9.33301 0 -17 -5.33301 -23 -16s-11.333 -27.667 -16 -51l-40 7c5.33301 36 13.833 63.5 25.5 82.5s29.5 28.5 53.5 28.5c14 0 26.333 -3.83301 37 -11.5s20.334 -16.167 29.001 -25.5l24.5 -25.5
c7.66699 -7.66699 15.167 -11.5 22.5 -11.5c10 0 18 5.5 24 16.5s11.333 28.167 16 51.5z" />
    <glyph glyph-name="Adieresis" unicode="&#xc4;" horiz-adv-x="605" 
d="M97 0h-84l245 725h88l246 -725h-86l-61 191h-288zM178 256h247l-123 389h-2zM247 871v-98h-61v98h61zM417 871v-98h-62v98h62z" />
    <glyph glyph-name="Aring" unicode="&#xc5;" horiz-adv-x="605" 
d="M97 0h-84l245 725h88l246 -725h-86l-61 191h-288zM178 256h247l-123 389h-2zM218 823c0 21.333 7.83301 39.166 23.5 53.499s35.834 21.5 60.501 21.5c23.333 0 43 -7.16699 59 -21.5s24 -32.166 24 -53.499s-8 -39 -24 -53s-35.667 -21 -59 -21
c-24.667 0 -44.834 7 -60.501 21s-23.5 31.667 -23.5 53zM262 823c0 -11.333 3.66699 -20.833 11 -28.5s17 -11.5 29 -11.5c11.333 0 20.666 3.83301 27.999 11.5s11 17.167 11 28.5s-3.66699 21 -11 29s-16.666 12 -27.999 12c-12 0 -21.667 -4 -29 -12
s-11 -17.667 -11 -29z" />
    <glyph glyph-name="AE" unicode="&#xc6;" horiz-adv-x="859" 
d="M100 0h-85l354 725h441v-72h-322l24 -246h256v-65h-250l25 -271h278v-71h-355l-17 193h-257zM223 258h220l-33 388h-2z" />
    <glyph glyph-name="Ccedilla" unicode="&#xc7;" horiz-adv-x="533" 
d="M287 735c26 0 50.1641 -3.83105 72.4971 -11.498s42.333 -18 60 -31s32.834 -28.5 45.501 -46.5s22 -37.333 28 -58l-60 -24c-10 31.333 -26.667 56.166 -50 74.499s-53.666 27.5 -90.999 27.5c-49.333 0 -86.666 -15.333 -111.999 -46s-38 -74.334 -38 -131.001v-258
c0 -52 12.833 -94 38.5 -126s63.167 -48 112.5 -48c38.667 0 69 8.16699 91 24.5s38.667 44.833 50 85.5l61 -22c-13.333 -54 -37.666 -93.333 -72.999 -118s-80.333 -37 -135 -37c-34.667 0 -66 5.83301 -94 17.5s-52 28 -72 49s-35.333 46.333 -46 76s-16 62.167 -16 97.5
v258c0 76.667 20.167 137 60.5 181s96.166 66 167.499 66zM304.997 15.002l-8 -48.9971c31.333 -3.33301 52.5 -10.333 63.5 -21s16.5 -23.667 16.5 -39c0 -21.333 -9.83301 -38.833 -29.5 -52.5s-48.5 -22.167 -86.5 -25.5l-12 38c26.667 4.66699 44.667 9.66699 54 15
s14 12.666 14 21.999c0 7.33301 -4.66699 13.666 -14 18.999s-29 8.66602 -59 9.99902l18 86z" />
    <glyph glyph-name="Egrave" unicode="&#xc8;" horiz-adv-x="537" 
d="M485 725v-72h-320v-246h256v-65h-256v-271h335v-71h-417v725h402zM264 872l72 -111h-67l-103 111h98z" />
    <glyph glyph-name="Eacute" unicode="&#xc9;" horiz-adv-x="537" 
d="M485 725v-72h-320v-246h256v-65h-256v-271h335v-71h-417v725h402zM396 872l-95 -111h-65l65 111h95z" />
    <glyph glyph-name="Ecircumflex" unicode="&#xca;" horiz-adv-x="537" 
d="M485 725v-72h-320v-246h256v-65h-256v-271h335v-71h-417v725h402zM171 761l90 111h62l90 -111h-67l-54 68l-54 -68h-67z" />
    <glyph glyph-name="Edieresis" unicode="&#xcb;" horiz-adv-x="537" 
d="M485 725v-72h-320v-246h256v-65h-256v-271h335v-71h-417v725h402zM235 871v-98h-61v98h61zM405 871v-98h-62v98h62z" />
    <glyph glyph-name="Igrave" unicode="&#xcc;" horiz-adv-x="284" 
d="M183 725v-725h-82v725h82zM110 872l72 -111h-67l-103 111h98z" />
    <glyph glyph-name="Iacute" unicode="&#xcd;" horiz-adv-x="284" 
d="M183 725v-725h-82v725h82zM264 872l-95 -111h-65l65 111h95z" />
    <glyph glyph-name="Icircumflex" unicode="&#xce;" horiz-adv-x="284" 
d="M183 725v-725h-82v725h82zM22 761l90 111h62l90 -111h-67l-54 68l-54 -68h-67z" />
    <glyph glyph-name="Idieresis" unicode="&#xcf;" horiz-adv-x="284" 
d="M183 725v-725h-82v725h82zM89 871v-98h-61v98h61zM259 871v-98h-62v98h62z" />
    <glyph glyph-name="Eth" unicode="&#xd0;" horiz-adv-x="638" 
d="M333 725c78.667 0 139.167 -21.833 181.5 -65.5s63.5 -103.834 63.5 -180.501v-236c0 -75.333 -21.167 -134.666 -63.5 -177.999s-102.833 -65 -181.5 -65h-238v347h-76v50h76v328h238zM496 475c0 120 -54.333 180 -163 180h-156v-258h85v-50h-85v-278h156
c108.667 0 163 58.667 163 176v230z" />
    <glyph glyph-name="Ntilde" unicode="&#xd1;" horiz-adv-x="627" 
d="M149 725l319 -552h2v552h74v-725h-60l-325 564h-2v-564h-74v725h66zM456 865c-5.33301 -35.333 -13.832 -62.667 -25.499 -82s-29.834 -29 -54.501 -29c-13.333 0 -25.333 3.83301 -36 11.5s-20.334 16 -29.001 25l-24.5 25c-7.66699 7.66699 -15.5 11.5 -23.5 11.5
c-9.33301 0 -17 -5.33301 -23 -16s-11.333 -27.667 -16 -51l-40 7c5.33301 36 13.833 63.5 25.5 82.5s29.5 28.5 53.5 28.5c14 0 26.333 -3.83301 37 -11.5s20.334 -16.167 29.001 -25.5l24.5 -25.5c7.66699 -7.66699 15.167 -11.5 22.5 -11.5c10 0 18 5.5 24 16.5
s11.333 28.167 16 51.5z" />
    <glyph glyph-name="Ograve" unicode="&#xd2;" horiz-adv-x="602" 
d="M301 735c78.667 0 138.5 -21.668 179.5 -65.001s61.5 -102.666 61.5 -177.999v-258c0 -76 -20.5 -135.667 -61.5 -179s-100.833 -65 -179.5 -65s-138.667 21.667 -180 65s-62 103 -62 179v257c0 76 20.667 135.667 62 179s101.333 65 180 65zM460 490.999
c0 116.667 -53 175 -159 175c-106.667 0 -160 -58.333 -160 -175v-257c0 -117.333 53.333 -176 160 -176c106 0 159 58.667 159 176v257zM276 871.999l72 -111h-67l-103 111h98z" />
    <glyph glyph-name="Oacute" unicode="&#xd3;" horiz-adv-x="602" 
d="M301 735c78.667 0 138.5 -21.668 179.5 -65.001s61.5 -102.666 61.5 -177.999v-258c0 -76 -20.5 -135.667 -61.5 -179s-100.833 -65 -179.5 -65s-138.667 21.667 -180 65s-62 103 -62 179v257c0 76 20.667 135.667 62 179s101.333 65 180 65zM460 490.999
c0 116.667 -53 175 -159 175c-106.667 0 -160 -58.333 -160 -175v-257c0 -117.333 53.333 -176 160 -176c106 0 159 58.667 159 176v257zM413 871.999l-95 -111h-65l65 111h95z" />
    <glyph glyph-name="Ocircumflex" unicode="&#xd4;" horiz-adv-x="602" 
d="M301 735c78.667 0 138.5 -21.668 179.5 -65.001s61.5 -102.666 61.5 -177.999v-258c0 -76 -20.5 -135.667 -61.5 -179s-100.833 -65 -179.5 -65s-138.667 21.667 -180 65s-62 103 -62 179v257c0 76 20.667 135.667 62 179s101.333 65 180 65zM460 490.999
c0 116.667 -53 175 -159 175c-106.667 0 -160 -58.333 -160 -175v-257c0 -117.333 53.333 -176 160 -176c106 0 159 58.667 159 176v257zM179 760.999l90 111h62l90 -111h-67l-54 68l-54 -68h-67z" />
    <glyph glyph-name="Otilde" unicode="&#xd5;" horiz-adv-x="602" 
d="M301 735c78.667 0 138.5 -21.668 179.5 -65.001s61.5 -102.666 61.5 -177.999v-258c0 -76 -20.5 -135.667 -61.5 -179s-100.833 -65 -179.5 -65s-138.667 21.667 -180 65s-62 103 -62 179v257c0 76 20.667 135.667 62 179s101.333 65 180 65zM460 490.999
c0 116.667 -53 175 -159 175c-106.667 0 -160 -58.333 -160 -175v-257c0 -117.333 53.333 -176 160 -176c106 0 159 58.667 159 176v257zM437 864.999c-5.33301 -35.333 -13.832 -62.667 -25.499 -82s-29.834 -29 -54.501 -29c-13.333 0 -25.333 3.83301 -36 11.5
s-20.334 16 -29.001 25l-24.5 25c-7.66699 7.66699 -15.5 11.5 -23.5 11.5c-9.33301 0 -17 -5.33301 -23 -16s-11.333 -27.667 -16 -51l-40 7c5.33301 36 13.833 63.5 25.5 82.5s29.5 28.5 53.5 28.5c14 0 26.333 -3.83301 37 -11.5s20.334 -16.167 29.001 -25.5l24.5 -25.5
c7.66699 -7.66699 15.167 -11.5 22.5 -11.5c10 0 18 5.5 24 16.5s11.333 28.167 16 51.5z" />
    <glyph glyph-name="Odieresis" unicode="&#xd6;" horiz-adv-x="602" 
d="M301 735c78.667 0 138.5 -21.668 179.5 -65.001s61.5 -102.666 61.5 -177.999v-258c0 -76 -20.5 -135.667 -61.5 -179s-100.833 -65 -179.5 -65s-138.667 21.667 -180 65s-62 103 -62 179v257c0 76 20.667 135.667 62 179s101.333 65 180 65zM460 490.999
c0 116.667 -53 175 -159 175c-106.667 0 -160 -58.333 -160 -175v-257c0 -117.333 53.333 -176 160 -176c106 0 159 58.667 159 176v257zM247 870.999v-98h-61v98h61zM417 870.999v-98h-62v98h62z" />
    <glyph glyph-name="multiply" unicode="&#xd7;" 
d="M265 270l-121 -130l-40 41l122 130l-122 131l39 42l122 -131l123 131l39 -42l-123 -131l123 -130l-39 -41z" />
    <glyph glyph-name="Oslash" unicode="&#xd8;" horiz-adv-x="602" 
d="M301 735c40.667 0 76.502 -6.16602 107.502 -18.499s56.5 -29.833 76.5 -52.5l42 60l32 -25l-49 -70c21.333 -38.667 32 -84.334 32 -137.001v-258c0 -76 -20.5 -135.667 -61.5 -179s-100.833 -65 -179.5 -65c-40.667 0 -76.334 6 -107.001 18s-56.334 29 -77.001 51
l-39 -57l-31 25l46 66c-22.667 39.333 -34 86.333 -34 141v257c0 76 20.667 135.667 62 179s101.333 65 180 65zM141.002 234.001c0 -11.333 0.5 -22.668 1.5 -34.001s2.16699 -21.666 3.5 -30.999l292 426c-24 47.333 -69.667 71 -137 71
c-106.667 0 -160 -58.333 -160 -175v-257zM460.002 490.999c0 10.667 -0.500977 21 -1.50098 31s-2.16699 19.667 -3.5 29l-291 -424c24.667 -46 70.334 -69 137.001 -69c106 0 159 58.667 159 176v257z" />
    <glyph glyph-name="Ugrave" unicode="&#xd9;" horiz-adv-x="628" 
d="M555 725v-496.999c0 -74.667 -20.667 -133 -62 -175s-101 -63 -179 -63c-77.333 0 -137 20.667 -179 62s-63 99 -63 173v500h83v-500c0 -30.667 4.16699 -56.334 12.5 -77.001s19.833 -37.334 34.5 -50.001s31.5 -21.667 50.5 -27s39.5 -8 61.5 -8
c51.333 0 90.833 12.833 118.5 38.5s41.5 66.834 41.5 123.501v500h81zM302 872.001l72 -111h-67l-103 111h98z" />
    <glyph glyph-name="Uacute" unicode="&#xda;" horiz-adv-x="628" 
d="M555 725v-496.999c0 -74.667 -20.667 -133 -62 -175s-101 -63 -179 -63c-77.333 0 -137 20.667 -179 62s-63 99 -63 173v500h83v-500c0 -30.667 4.16699 -56.334 12.5 -77.001s19.833 -37.334 34.5 -50.001s31.5 -21.667 50.5 -27s39.5 -8 61.5 -8
c51.333 0 90.833 12.833 118.5 38.5s41.5 66.834 41.5 123.501v500h81zM424 872.001l-95 -111h-65l65 111h95z" />
    <glyph glyph-name="Ucircumflex" unicode="&#xdb;" horiz-adv-x="628" 
d="M555 725v-496.999c0 -74.667 -20.667 -133 -62 -175s-101 -63 -179 -63c-77.333 0 -137 20.667 -179 62s-63 99 -63 173v500h83v-500c0 -30.667 4.16699 -56.334 12.5 -77.001s19.833 -37.334 34.5 -50.001s31.5 -21.667 50.5 -27s39.5 -8 61.5 -8
c51.333 0 90.833 12.833 118.5 38.5s41.5 66.834 41.5 123.501v500h81zM193 761.001l90 111h62l90 -111h-67l-54 68l-54 -68h-67z" />
    <glyph glyph-name="Udieresis" unicode="&#xdc;" horiz-adv-x="628" 
d="M555 725v-496.999c0 -74.667 -20.667 -133 -62 -175s-101 -63 -179 -63c-77.333 0 -137 20.667 -179 62s-63 99 -63 173v500h83v-500c0 -30.667 4.16699 -56.334 12.5 -77.001s19.833 -37.334 34.5 -50.001s31.5 -21.667 50.5 -27s39.5 -8 61.5 -8
c51.333 0 90.833 12.833 118.5 38.5s41.5 66.834 41.5 123.501v500h81zM260 871.001v-98h-61v98h61zM430 871.001v-98h-62v98h62z" />
    <glyph glyph-name="Yacute" unicode="&#xdd;" horiz-adv-x="561" 
d="M321 248v-248h-82v248l-229 477h93l176 -402h2l178 402h91zM395 872l-95 -111h-65l65 111h95z" />
    <glyph glyph-name="Thorn" unicode="&#xde;" horiz-adv-x="559" 
d="M319 592c66 0 116.333 -18.833 151 -56.5s52 -91.167 52 -160.5c0 -68 -17 -121 -51 -159s-83.333 -57 -148 -57h-158v-159h-82v725h82v-133h154zM165 225h153c42.667 0 73.667 12.167 93 36.5s29 61.833 29 112.5c0 51.333 -9.66699 88.833 -29 112.5
s-50.333 35.5 -93 35.5h-153v-297z" />
    <glyph glyph-name="germandbls" unicode="&#xdf;" horiz-adv-x="507" 
d="M249 406c0 26.667 6.8291 50.1641 20.4961 70.4971s36.5 36.833 68.5 49.5c2.66699 11.333 4 25.333 4 42c0 25.333 -6.66699 46 -20 62s-32.666 24 -57.999 24c-35.333 0 -63.333 -14.833 -84 -44.5s-31 -77.5 -31 -143.5v-466h-75v467c0 80.667 16.333 141.667 49 183
s78.667 62 138 62c22.667 0 42.834 -4 60.501 -12s32.834 -18.667 45.501 -32s22.334 -29.166 29.001 -47.499s10 -37.833 10 -58.5c0 -15.333 -0.833008 -29.833 -2.5 -43.5s-4.83398 -26.5 -9.50098 -38.5c-28.667 -6 -47.667 -15 -57 -27s-14 -26.333 -14 -43
c0 -14.667 4 -27.667 12 -39s18 -22.333 30 -33s24.833 -21.5 38.5 -32.5s26.5 -23.5 38.5 -37.5s22 -30.333 30 -49s12 -41 12 -67c0 -51.333 -15.5 -91.166 -46.5 -119.499s-73.5 -42.5 -127.5 -42.5c-24 0 -48.167 3.5 -72.5 10.5s-45.166 18.5 -62.499 34.5l19 53
c15.333 -13.333 32.5 -22.833 51.5 -28.5s39.167 -8.5 60.5 -8.5c35.333 0 61.5 8.83301 78.5 26.5s25.5 43.167 25.5 76.5c0 20 -4 37 -12 51s-18 26.833 -30 38.5s-24.833 22.834 -38.5 33.501s-26.5 22 -38.5 34s-22 25.5 -30 40.5s-12 33.167 -12 54.5z" />
    <glyph glyph-name="agrave" unicode="&#xe0;" horiz-adv-x="458" 
d="M59 406c19.333 32 42.4961 57.998 69.4961 77.998s60.5 30 100.5 30c28 0 51.833 -4.33301 71.5 -13s35.834 -20.667 48.501 -36s22 -33.5 28 -54.5s9 -43.833 9 -68.5v-253c0 -14 3.5 -25 10.5 -33s17.5 -12 31.5 -12h14v-44
c-5.33301 -1.33301 -11.166 -2.66602 -17.499 -3.99902s-13.166 -2 -20.499 -2c-21.333 0 -39 4.83301 -53 14.5s-24 21.834 -30 36.501c-18.667 -17.333 -39.667 -30.5 -63 -39.5s-48 -13.5 -74 -13.5c-44.667 0 -79.334 12 -104.001 36s-37 56.333 -37 97
c0 23.333 3.66699 44.833 11 64.5s19.833 36.834 37.5 51.501s40.834 26 69.501 34s64.334 12 107.001 12h45v55c0 75.333 -31 113 -93 113c-24.667 0 -46.5 -6.83301 -65.5 -20.5s-35.833 -32.834 -50.5 -57.501zM197.996 45.998c25.333 0 47 4.5 65 13.5
s34.667 22.167 50 39.5v135h-45c-30 0 -54.833 -2.5 -74.5 -7.5s-35.334 -12 -47.001 -21s-20 -20 -25 -33s-7.5 -27.5 -7.5 -43.5c0 -29.333 7.33301 -50.5 22 -63.5s35.334 -19.5 62.001 -19.5zM215.996 724.998l71 -136h-59l-99 136h87z" />
    <glyph glyph-name="aacute" unicode="&#xe1;" horiz-adv-x="458" 
d="M59 406c19.333 32 42.4961 57.998 69.4961 77.998s60.5 30 100.5 30c28 0 51.833 -4.33301 71.5 -13s35.834 -20.667 48.501 -36s22 -33.5 28 -54.5s9 -43.833 9 -68.5v-253c0 -14 3.5 -25 10.5 -33s17.5 -12 31.5 -12h14v-44
c-5.33301 -1.33301 -11.166 -2.66602 -17.499 -3.99902s-13.166 -2 -20.499 -2c-21.333 0 -39 4.83301 -53 14.5s-24 21.834 -30 36.501c-18.667 -17.333 -39.667 -30.5 -63 -39.5s-48 -13.5 -74 -13.5c-44.667 0 -79.334 12 -104.001 36s-37 56.333 -37 97
c0 23.333 3.66699 44.833 11 64.5s19.833 36.834 37.5 51.501s40.834 26 69.501 34s64.334 12 107.001 12h45v55c0 75.333 -31 113 -93 113c-24.667 0 -46.5 -6.83301 -65.5 -20.5s-35.833 -32.834 -50.5 -57.501zM197.996 45.998c25.333 0 47 4.5 65 13.5
s34.667 22.167 50 39.5v135h-45c-30 0 -54.833 -2.5 -74.5 -7.5s-35.334 -12 -47.001 -21s-20 -20 -25 -33s-7.5 -27.5 -7.5 -43.5c0 -29.333 7.33301 -50.5 22 -63.5s35.334 -19.5 62.001 -19.5zM331.996 724.998l-90 -136h-58l60 136h88z" />
    <glyph glyph-name="acircumflex" unicode="&#xe2;" horiz-adv-x="458" 
d="M59 406c19.333 32 42.4961 57.998 69.4961 77.998s60.5 30 100.5 30c28 0 51.833 -4.33301 71.5 -13s35.834 -20.667 48.501 -36s22 -33.5 28 -54.5s9 -43.833 9 -68.5v-253c0 -14 3.5 -25 10.5 -33s17.5 -12 31.5 -12h14v-44
c-5.33301 -1.33301 -11.166 -2.66602 -17.499 -3.99902s-13.166 -2 -20.499 -2c-21.333 0 -39 4.83301 -53 14.5s-24 21.834 -30 36.501c-18.667 -17.333 -39.667 -30.5 -63 -39.5s-48 -13.5 -74 -13.5c-44.667 0 -79.334 12 -104.001 36s-37 56.333 -37 97
c0 23.333 3.66699 44.833 11 64.5s19.833 36.834 37.5 51.501s40.834 26 69.501 34s64.334 12 107.001 12h45v55c0 75.333 -31 113 -93 113c-24.667 0 -46.5 -6.83301 -65.5 -20.5s-35.833 -32.834 -50.5 -57.501zM197.996 45.998c25.333 0 47 4.5 65 13.5
s34.667 22.167 50 39.5v135h-45c-30 0 -54.833 -2.5 -74.5 -7.5s-35.334 -12 -47.001 -21s-20 -20 -25 -33s-7.5 -27.5 -7.5 -43.5c0 -29.333 7.33301 -50.5 22 -63.5s35.334 -19.5 62.001 -19.5zM112.996 588.998l92 136h52l93 -136h-65l-54 87l-54 -87h-64z" />
    <glyph glyph-name="atilde" unicode="&#xe3;" horiz-adv-x="458" 
d="M59 406c19.333 32 42.4961 57.998 69.4961 77.998s60.5 30 100.5 30c28 0 51.833 -4.33301 71.5 -13s35.834 -20.667 48.501 -36s22 -33.5 28 -54.5s9 -43.833 9 -68.5v-253c0 -14 3.5 -25 10.5 -33s17.5 -12 31.5 -12h14v-44
c-5.33301 -1.33301 -11.166 -2.66602 -17.499 -3.99902s-13.166 -2 -20.499 -2c-21.333 0 -39 4.83301 -53 14.5s-24 21.834 -30 36.501c-18.667 -17.333 -39.667 -30.5 -63 -39.5s-48 -13.5 -74 -13.5c-44.667 0 -79.334 12 -104.001 36s-37 56.333 -37 97
c0 23.333 3.66699 44.833 11 64.5s19.833 36.834 37.5 51.501s40.834 26 69.501 34s64.334 12 107.001 12h45v55c0 75.333 -31 113 -93 113c-24.667 0 -46.5 -6.83301 -65.5 -20.5s-35.833 -32.834 -50.5 -57.501zM197.996 45.998c25.333 0 47 4.5 65 13.5
s34.667 22.167 50 39.5v135h-45c-30 0 -54.833 -2.5 -74.5 -7.5s-35.334 -12 -47.001 -21s-20 -20 -25 -33s-7.5 -27.5 -7.5 -43.5c0 -29.333 7.33301 -50.5 22 -63.5s35.334 -19.5 62.001 -19.5zM367.996 715.998c-5.33301 -41.333 -13.8359 -73.332 -25.5029 -95.999
s-30.167 -34 -55.5 -34c-14 0 -26.333 4.83301 -37 14.5s-20.167 20.167 -28.5 31.5l-24 31.5c-7.66699 9.66699 -15.5 14.5 -23.5 14.5c-9.33301 0 -16.833 -6.5 -22.5 -19.5s-11.167 -34.5 -16.5 -64.5l-40 8c5.33301 42 13.833 74.333 25.5 97s29.834 34 54.501 34
c14 0 26.333 -4.83301 37 -14.5s20.334 -20.334 29.001 -32.001l24.5 -32c7.66699 -9.66699 15.5 -14.5 23.5 -14.5c9.33301 0 16.833 6.66699 22.5 20s10.834 35 15.501 65z" />
    <glyph glyph-name="adieresis" unicode="&#xe4;" horiz-adv-x="458" 
d="M59 406c19.333 32 42.4961 57.998 69.4961 77.998s60.5 30 100.5 30c28 0 51.833 -4.33301 71.5 -13s35.834 -20.667 48.501 -36s22 -33.5 28 -54.5s9 -43.833 9 -68.5v-253c0 -14 3.5 -25 10.5 -33s17.5 -12 31.5 -12h14v-44
c-5.33301 -1.33301 -11.166 -2.66602 -17.499 -3.99902s-13.166 -2 -20.499 -2c-21.333 0 -39 4.83301 -53 14.5s-24 21.834 -30 36.501c-18.667 -17.333 -39.667 -30.5 -63 -39.5s-48 -13.5 -74 -13.5c-44.667 0 -79.334 12 -104.001 36s-37 56.333 -37 97
c0 23.333 3.66699 44.833 11 64.5s19.833 36.834 37.5 51.501s40.834 26 69.501 34s64.334 12 107.001 12h45v55c0 75.333 -31 113 -93 113c-24.667 0 -46.5 -6.83301 -65.5 -20.5s-35.833 -32.834 -50.5 -57.501zM197.996 45.998c25.333 0 47 4.5 65 13.5
s34.667 22.167 50 39.5v135h-45c-30 0 -54.833 -2.5 -74.5 -7.5s-35.334 -12 -47.001 -21s-20 -20 -25 -33s-7.5 -27.5 -7.5 -43.5c0 -29.333 7.33301 -50.5 22 -63.5s35.334 -19.5 62.001 -19.5zM191.996 724.998v-103h-59v103h59zM331.996 724.998v-103h-59v103h59z" />
    <glyph glyph-name="aring" unicode="&#xe5;" horiz-adv-x="458" 
d="M59 406c19.333 32 42.4961 57.998 69.4961 77.998s60.5 30 100.5 30c28 0 51.833 -4.33301 71.5 -13s35.834 -20.667 48.501 -36s22 -33.5 28 -54.5s9 -43.833 9 -68.5v-253c0 -14 3.5 -25 10.5 -33s17.5 -12 31.5 -12h14v-44
c-5.33301 -1.33301 -11.166 -2.66602 -17.499 -3.99902s-13.166 -2 -20.499 -2c-21.333 0 -39 4.83301 -53 14.5s-24 21.834 -30 36.501c-18.667 -17.333 -39.667 -30.5 -63 -39.5s-48 -13.5 -74 -13.5c-44.667 0 -79.334 12 -104.001 36s-37 56.333 -37 97
c0 23.333 3.66699 44.833 11 64.5s19.833 36.834 37.5 51.501s40.834 26 69.501 34s64.334 12 107.001 12h45v55c0 75.333 -31 113 -93 113c-24.667 0 -46.5 -6.83301 -65.5 -20.5s-35.833 -32.834 -50.5 -57.501zM197.996 45.998c25.333 0 47 4.5 65 13.5
s34.667 22.167 50 39.5v135h-45c-30 0 -54.833 -2.5 -74.5 -7.5s-35.334 -12 -47.001 -21s-20 -20 -25 -33s-7.5 -27.5 -7.5 -43.5c0 -29.333 7.33301 -50.5 22 -63.5s35.334 -19.5 62.001 -19.5zM148.996 663.998c0 23.333 7.83301 42.833 23.5 58.5
s35.834 23.5 60.501 23.5c24 0 43.833 -7.83301 59.5 -23.5s23.5 -35.167 23.5 -58.5s-8 -42.666 -24 -57.999s-35.667 -23 -59 -23c-24.667 0 -44.834 7.66699 -60.501 23s-23.5 34.666 -23.5 57.999zM192.996 663.998c0 -13.333 3.5 -24 10.5 -32s16.833 -12 29.5 -12
c12 0 21.5 4 28.5 12s10.5 18.667 10.5 32c0 12.667 -3.5 23.334 -10.5 32.001s-16.5 13 -28.5 13c-12.667 0 -22.5 -4.33301 -29.5 -13s-10.5 -19.334 -10.5 -32.001z" />
    <glyph glyph-name="ae" unicode="&#xe6;" horiz-adv-x="724" 
d="M404 243l0.000976562 -75.001c0 -38 8.66699 -67.5 26 -88.5s45 -31.5 83 -31.5c32 0 57.333 7.83301 76 23.5s33.334 38.167 44.001 67.5l50 -22c-15.333 -40 -37 -71.167 -65 -93.5s-65 -33.5 -111 -33.5c-40 0 -71.667 7.83301 -95 23.5s-40.666 36.167 -51.999 61.5
h-2c-17.333 -30.667 -41.666 -52.5 -72.999 -65.5s-64 -19.5 -98 -19.5c-45.333 0 -80.666 12.333 -105.999 37s-38 57.334 -38 98.001c0 23.333 3.83301 45 11.5 65s20.5 37.5 38.5 52.5s41.833 26.833 71.5 35.5s66.5 13 110.5 13h54v58c0 34 -9 59.833 -27 77.5
s-43 26.5 -75 26.5c-26 0 -48.5 -7.5 -67.5 -22.5s-33.167 -35.167 -42.5 -60.5l-52 24c13.333 36 34.666 65 63.999 87s63 33 101 33c35.333 0 64.166 -6.66699 86.499 -20s39.166 -30.666 50.499 -51.999h2c12 21.333 29.333 38.666 52 51.999s52 20 88 20
c27.333 0 51.666 -4.83301 72.999 -14.5s39.166 -22.667 53.499 -39s25.333 -35.333 33 -57s11.5 -44.5 11.5 -68.5v-92h-276zM202.001 46.999c12.667 0 25.8301 1.66797 39.4971 5.00098s26.334 8.5 38.001 15.5s21.834 15.5 30.501 25.5s15 22 19 36v108h-54
c-30.667 0 -56.167 -2.83301 -76.5 -8.5s-36.666 -13.334 -48.999 -23.001s-21 -21 -26 -34s-7.5 -27.167 -7.5 -42.5c0 -54.667 28.667 -82 86 -82zM403.997 291l209 -0.000976562v49c0 36 -8.83301 64.167 -26.5 84.5s-43.5 30.5 -77.5 30.5c-38 0 -65 -10.167 -81 -30.5
s-24 -49.166 -24 -86.499v-47z" />
    <glyph glyph-name="ccedilla" unicode="&#xe7;" horiz-adv-x="427" 
d="M350 379c-10.667 25.333 -25.833 43.999 -45.5 55.999s-42.167 18 -67.5 18c-37.333 0 -65.833 -10.333 -85.5 -31s-29.5 -51 -29.5 -91v-158c0 -39.333 10 -69.666 30 -90.999s48.333 -32 85 -32c28 0 51.167 6.33301 69.5 19s33.166 33 44.499 61l53 -21
c-13.333 -36 -34.166 -64.667 -62.499 -86s-64.833 -32 -109.5 -32c-30 0 -56.333 4.66699 -79 14s-41.667 22 -57 38s-27 34.833 -35 56.5s-12 45.167 -12 70.5v164c0 25.333 4 49 12 71s19.667 41 35 57s34.333 28.5 57 37.5s49 13.5 79 13.5
c40 0 74.333 -9.83301 103 -29.5s50.667 -46.5 66 -80.5zM249.001 14.999l-8 -48.9971c31.333 -3.33301 52.5 -10.333 63.5 -21s16.5 -23.667 16.5 -39c0 -21.333 -9.83301 -38.833 -29.5 -52.5s-48.5 -22.167 -86.5 -25.5l-12 38c26.667 4.66699 44.667 9.66699 54 15
s14 12.666 14 21.999c0 7.33301 -4.66699 13.666 -14 18.999s-29 8.66602 -59 9.99902l18 86z" />
    <glyph glyph-name="egrave" unicode="&#xe8;" horiz-adv-x="455" 
d="M122 252l-0.000976562 -79.001c0 -39.333 10.333 -69.833 31 -91.5s50 -32.5 88 -32.5c29.333 0 53.333 6.83301 72 20.5s34.667 36.5 48 68.5l53 -21c-14.667 -42 -36.5 -73.5 -65.5 -94.5s-66.833 -31.5 -113.5 -31.5c-30 0 -56.5 4.5 -79.5 13.5
s-42.5 21.5 -58.5 37.5s-28 35 -36 57s-12 46 -12 72v163c0 26 4 49.833 12 71.5s19.833 40.5 35.5 56.5s34.834 28.5 57.501 37.5s48.667 13.5 78 13.5c28.667 0 54.167 -4.66699 76.5 -14s41.333 -22.166 57 -38.499s27.5 -35.5 35.5 -57.5s12 -45.667 12 -71v-80h-291z
M121.999 299.999h226v39c0 36 -10 64.5 -30 85.5s-48 31.5 -84 31.5c-38 0 -66.167 -10.833 -84.5 -32.5s-27.5 -50.167 -27.5 -85.5v-38zM210.999 724.999l71 -136h-59l-99 136h87z" />
    <glyph glyph-name="eacute" unicode="&#xe9;" horiz-adv-x="455" 
d="M122 252l-0.000976562 -79.001c0 -39.333 10.333 -69.833 31 -91.5s50 -32.5 88 -32.5c29.333 0 53.333 6.83301 72 20.5s34.667 36.5 48 68.5l53 -21c-14.667 -42 -36.5 -73.5 -65.5 -94.5s-66.833 -31.5 -113.5 -31.5c-30 0 -56.5 4.5 -79.5 13.5
s-42.5 21.5 -58.5 37.5s-28 35 -36 57s-12 46 -12 72v163c0 26 4 49.833 12 71.5s19.833 40.5 35.5 56.5s34.834 28.5 57.501 37.5s48.667 13.5 78 13.5c28.667 0 54.167 -4.66699 76.5 -14s41.333 -22.166 57 -38.499s27.5 -35.5 35.5 -57.5s12 -45.667 12 -71v-80h-291z
M121.999 299.999h226v39c0 36 -10 64.5 -30 85.5s-48 31.5 -84 31.5c-38 0 -66.167 -10.833 -84.5 -32.5s-27.5 -50.167 -27.5 -85.5v-38zM340.999 724.999l-90 -136h-58l60 136h88z" />
    <glyph glyph-name="ecircumflex" unicode="&#xea;" horiz-adv-x="455" 
d="M122 252l-0.000976562 -79.001c0 -39.333 10.333 -69.833 31 -91.5s50 -32.5 88 -32.5c29.333 0 53.333 6.83301 72 20.5s34.667 36.5 48 68.5l53 -21c-14.667 -42 -36.5 -73.5 -65.5 -94.5s-66.833 -31.5 -113.5 -31.5c-30 0 -56.5 4.5 -79.5 13.5
s-42.5 21.5 -58.5 37.5s-28 35 -36 57s-12 46 -12 72v163c0 26 4 49.833 12 71.5s19.833 40.5 35.5 56.5s34.834 28.5 57.501 37.5s48.667 13.5 78 13.5c28.667 0 54.167 -4.66699 76.5 -14s41.333 -22.166 57 -38.499s27.5 -35.5 35.5 -57.5s12 -45.667 12 -71v-80h-291z
M121.999 299.999h226v39c0 36 -10 64.5 -30 85.5s-48 31.5 -84 31.5c-38 0 -66.167 -10.833 -84.5 -32.5s-27.5 -50.167 -27.5 -85.5v-38zM115.999 588.999l92 136h52l93 -136h-65l-54 87l-54 -87h-64z" />
    <glyph glyph-name="edieresis" unicode="&#xeb;" horiz-adv-x="455" 
d="M122 252l-0.000976562 -79.001c0 -39.333 10.333 -69.833 31 -91.5s50 -32.5 88 -32.5c29.333 0 53.333 6.83301 72 20.5s34.667 36.5 48 68.5l53 -21c-14.667 -42 -36.5 -73.5 -65.5 -94.5s-66.833 -31.5 -113.5 -31.5c-30 0 -56.5 4.5 -79.5 13.5
s-42.5 21.5 -58.5 37.5s-28 35 -36 57s-12 46 -12 72v163c0 26 4 49.833 12 71.5s19.833 40.5 35.5 56.5s34.834 28.5 57.501 37.5s48.667 13.5 78 13.5c28.667 0 54.167 -4.66699 76.5 -14s41.333 -22.166 57 -38.499s27.5 -35.5 35.5 -57.5s12 -45.667 12 -71v-80h-291z
M121.999 299.999h226v39c0 36 -10 64.5 -30 85.5s-48 31.5 -84 31.5c-38 0 -66.167 -10.833 -84.5 -32.5s-27.5 -50.167 -27.5 -85.5v-38zM193.999 724.999v-103h-59v103h59zM333.999 724.999v-103h-59v103h59z" />
    <glyph glyph-name="igrave" unicode="&#xec;" horiz-adv-x="230" 
d="M151 504v-504h-73v504h73zM75 725l71 -136h-59l-99 136h87z" />
    <glyph glyph-name="iacute" unicode="&#xed;" horiz-adv-x="230" 
d="M151 504v-504h-73v504h73zM232 725l-90 -136h-58l60 136h88z" />
    <glyph glyph-name="icircumflex" unicode="&#xee;" horiz-adv-x="230" 
d="M151 504v-504h-73v504h73zM-3 589l92 136h52l93 -136h-65l-54 87l-54 -87h-64z" />
    <glyph glyph-name="idieresis" unicode="&#xef;" horiz-adv-x="230" 
d="M151 504v-504h-73v504h73zM76 725v-103h-59v103h59zM216 725v-103h-59v103h59z" />
    <glyph glyph-name="eth" unicode="&#xf0;" horiz-adv-x="481" 
d="M160 730c42.667 -6 79.333 -16.0029 110 -30.0029l44 62l39 -30l-40 -55c44 -28 75 -63.667 93 -107s27 -90.666 27 -141.999v-254c0 -54 -16.167 -97.833 -48.5 -131.5s-79.833 -50.5 -142.5 -50.5c-31.333 0 -58.833 4.33301 -82.5 13s-43.667 20.834 -60 36.501
s-28.666 34.167 -36.999 55.5s-12.5 45 -12.5 71v163c0 26 3.83301 49.833 11.5 71.5s19 40.334 34 56.001s33.5 28 55.5 37s47.667 13.5 77 13.5c31.333 0 58.166 -4.83301 80.499 -14.5s40.5 -23.167 54.5 -40.5h2c-2 40.667 -9.16699 75.667 -21.5 105
s-33.166 53.666 -62.499 72.999l-53 -74l-39 29l49 69c-26.667 10.667 -56.334 19.334 -89.001 26.001zM122.999 170.997c0 -37.333 9.5 -67 28.5 -89s49.167 -33 90.5 -33c40 0 69.5 11 88.5 33s28.5 51.667 28.5 89v158c0 37.333 -9.5 67.166 -28.5 89.499
s-49.167 33.5 -90.5 33.5c-40 0 -69.5 -11.167 -88.5 -33.5s-28.5 -52.166 -28.5 -89.499v-158z" />
    <glyph glyph-name="ntilde" unicode="&#xf1;" horiz-adv-x="509" 
d="M142 0h-73v504h65l2 -56h2c36 43.333 85.333 65 148 65c54 0 94.833 -16.667 122.5 -50s41.5 -78 41.5 -134v-329h-73v328c0 39.333 -9 69.666 -27 90.999s-45.667 32 -83 32c-28.667 0 -53.667 -6.16699 -75 -18.5s-38 -27.166 -50 -44.499v-388zM395 716
c-5.33301 -41.333 -13.8359 -73.332 -25.5029 -95.999s-30.167 -34 -55.5 -34c-14 0 -26.333 4.83301 -37 14.5s-20.167 20.167 -28.5 31.5l-24 31.5c-7.66699 9.66699 -15.5 14.5 -23.5 14.5c-9.33301 0 -16.833 -6.5 -22.5 -19.5s-11.167 -34.5 -16.5 -64.5l-40 8
c5.33301 42 13.833 74.333 25.5 97s29.834 34 54.501 34c14 0 26.333 -4.83301 37 -14.5s20.334 -20.334 29.001 -32.001l24.5 -32c7.66699 -9.66699 15.5 -14.5 23.5 -14.5c9.33301 0 16.833 6.66699 22.5 20s10.834 35 15.501 65z" />
    <glyph glyph-name="ograve" unicode="&#xf2;" horiz-adv-x="480" 
d="M431 168c0 -26 -4.16699 -49.8311 -12.5 -71.498s-20.666 -40.334 -36.999 -56.001s-36.333 -27.834 -60 -36.501s-50.834 -13 -81.501 -13c-62 0 -109.333 16.5 -142 49.5s-49 75.5 -49 127.5v166c0 26 4.16699 49.833 12.5 71.5s20.5 40.5 36.5 56.5
s35.833 28.5 59.5 37.5s51.167 13.5 82.5 13.5c30.667 0 58 -4.5 82 -13.5s44 -21.333 60 -37s28.167 -34.5 36.5 -56.5s12.5 -46 12.5 -72v-166zM122 171.002c0 -37.333 9.5 -67 28.5 -89s48.833 -33 89.5 -33s70.5 11 89.5 33s28.5 51.667 28.5 89v161
c0 37.333 -9.5 67.166 -28.5 89.499s-48.833 33.5 -89.5 33.5c-41.333 0 -71.333 -11.167 -90 -33.5s-28 -52.166 -28 -89.499v-161zM207 725.002l71 -136h-59l-99 136h87z" />
    <glyph glyph-name="oacute" unicode="&#xf3;" horiz-adv-x="480" 
d="M431 168c0 -26 -4.16699 -49.8311 -12.5 -71.498s-20.666 -40.334 -36.999 -56.001s-36.333 -27.834 -60 -36.501s-50.834 -13 -81.501 -13c-62 0 -109.333 16.5 -142 49.5s-49 75.5 -49 127.5v166c0 26 4.16699 49.833 12.5 71.5s20.5 40.5 36.5 56.5
s35.833 28.5 59.5 37.5s51.167 13.5 82.5 13.5c30.667 0 58 -4.5 82 -13.5s44 -21.333 60 -37s28.167 -34.5 36.5 -56.5s12.5 -46 12.5 -72v-166zM122 171.002c0 -37.333 9.5 -67 28.5 -89s48.833 -33 89.5 -33s70.5 11 89.5 33s28.5 51.667 28.5 89v161
c0 37.333 -9.5 67.166 -28.5 89.499s-48.833 33.5 -89.5 33.5c-41.333 0 -71.333 -11.167 -90 -33.5s-28 -52.166 -28 -89.499v-161zM353 725.002l-90 -136h-58l60 136h88z" />
    <glyph glyph-name="ocircumflex" unicode="&#xf4;" horiz-adv-x="480" 
d="M431 168c0 -26 -4.16699 -49.8311 -12.5 -71.498s-20.666 -40.334 -36.999 -56.001s-36.333 -27.834 -60 -36.501s-50.834 -13 -81.501 -13c-62 0 -109.333 16.5 -142 49.5s-49 75.5 -49 127.5v166c0 26 4.16699 49.833 12.5 71.5s20.5 40.5 36.5 56.5
s35.833 28.5 59.5 37.5s51.167 13.5 82.5 13.5c30.667 0 58 -4.5 82 -13.5s44 -21.333 60 -37s28.167 -34.5 36.5 -56.5s12.5 -46 12.5 -72v-166zM122 171.002c0 -37.333 9.5 -67 28.5 -89s48.833 -33 89.5 -33s70.5 11 89.5 33s28.5 51.667 28.5 89v161
c0 37.333 -9.5 67.166 -28.5 89.499s-48.833 33.5 -89.5 33.5c-41.333 0 -71.333 -11.167 -90 -33.5s-28 -52.166 -28 -89.499v-161zM121 589.002l92 136h52l93 -136h-65l-54 87l-54 -87h-64z" />
    <glyph glyph-name="otilde" unicode="&#xf5;" horiz-adv-x="480" 
d="M431 168c0 -26 -4.16699 -49.8311 -12.5 -71.498s-20.666 -40.334 -36.999 -56.001s-36.333 -27.834 -60 -36.501s-50.834 -13 -81.501 -13c-62 0 -109.333 16.5 -142 49.5s-49 75.5 -49 127.5v166c0 26 4.16699 49.833 12.5 71.5s20.5 40.5 36.5 56.5
s35.833 28.5 59.5 37.5s51.167 13.5 82.5 13.5c30.667 0 58 -4.5 82 -13.5s44 -21.333 60 -37s28.167 -34.5 36.5 -56.5s12.5 -46 12.5 -72v-166zM122 171.002c0 -37.333 9.5 -67 28.5 -89s48.833 -33 89.5 -33s70.5 11 89.5 33s28.5 51.667 28.5 89v161
c0 37.333 -9.5 67.166 -28.5 89.499s-48.833 33.5 -89.5 33.5c-41.333 0 -71.333 -11.167 -90 -33.5s-28 -52.166 -28 -89.499v-161zM378 716.002c-5.33301 -41.333 -13.8359 -73.332 -25.5029 -95.999s-30.167 -34 -55.5 -34c-14 0 -26.333 4.83301 -37 14.5
s-20.167 20.167 -28.5 31.5l-24 31.5c-7.66699 9.66699 -15.5 14.5 -23.5 14.5c-9.33301 0 -16.833 -6.5 -22.5 -19.5s-11.167 -34.5 -16.5 -64.5l-40 8c5.33301 42 13.833 74.333 25.5 97s29.834 34 54.501 34c14 0 26.333 -4.83301 37 -14.5
s20.334 -20.334 29.001 -32.001l24.5 -32c7.66699 -9.66699 15.5 -14.5 23.5 -14.5c9.33301 0 16.833 6.66699 22.5 20s10.834 35 15.501 65z" />
    <glyph glyph-name="odieresis" unicode="&#xf6;" horiz-adv-x="480" 
d="M431 168c0 -26 -4.16699 -49.8311 -12.5 -71.498s-20.666 -40.334 -36.999 -56.001s-36.333 -27.834 -60 -36.501s-50.834 -13 -81.501 -13c-62 0 -109.333 16.5 -142 49.5s-49 75.5 -49 127.5v166c0 26 4.16699 49.833 12.5 71.5s20.5 40.5 36.5 56.5
s35.833 28.5 59.5 37.5s51.167 13.5 82.5 13.5c30.667 0 58 -4.5 82 -13.5s44 -21.333 60 -37s28.167 -34.5 36.5 -56.5s12.5 -46 12.5 -72v-166zM122 171.002c0 -37.333 9.5 -67 28.5 -89s48.833 -33 89.5 -33s70.5 11 89.5 33s28.5 51.667 28.5 89v161
c0 37.333 -9.5 67.166 -28.5 89.499s-48.833 33.5 -89.5 33.5c-41.333 0 -71.333 -11.167 -90 -33.5s-28 -52.166 -28 -89.499v-161zM199 725.002v-103h-59v103h59zM339 725.002v-103h-59v103h59z" />
    <glyph glyph-name="divide" unicode="&#xf7;" 
d="M82 282v58h368v-58h-368zM214 487c0 14.667 4.83301 27.167 14.5 37.5s21.167 15.5 34.5 15.5s25 -5.16699 35 -15.5s15 -22.833 15 -37.5s-5 -27 -15 -37s-21.667 -15 -35 -15s-24.833 5 -34.5 15s-14.5 22.333 -14.5 37zM214 140c0 14.667 4.83301 27.167 14.5 37.5
s21.167 15.5 34.5 15.5s25 -5.16699 35 -15.5s15 -22.833 15 -37.5s-5 -27 -15 -37s-21.667 -15 -35 -15s-24.833 5 -34.5 15s-14.5 22.333 -14.5 37z" />
    <glyph glyph-name="oslash" unicode="&#xf8;" horiz-adv-x="480" 
d="M431 168c0 -26 -4.16797 -49.832 -12.501 -71.499s-20.666 -40.334 -36.999 -56.001s-36.333 -27.834 -60 -36.501s-50.834 -13 -81.501 -13c-60 0 -106.667 15.667 -140 47l-28 -36l-31 25l33 43c-16.667 26.667 -25 59.334 -25 98.001v166
c0 26 4.16699 49.833 12.5 71.5s20.5 40.5 36.5 56.5s35.833 28.5 59.5 37.5s51.167 13.5 82.5 13.5c30.667 0 57.834 -4.5 81.501 -13.5s43.5 -21.167 59.5 -36.5l30 38l32 -25l-36 -46c16 -27.333 24 -59.333 24 -96v-166zM121.999 171.001
c0 -6 0.166016 -12.168 0.499023 -18.501s0.833008 -12.833 1.5 -19.5l215 276c-9.33301 14.667 -22.166 26 -38.499 34s-36.5 12 -60.5 12c-41.333 0 -71.333 -11.167 -90 -33.5s-28 -52.166 -28 -89.499v-161zM357.998 332c0 5.33301 -0.165039 10.833 -0.498047 16.5
s-0.833008 11.5 -1.5 17.5l-214 -274c9.33301 -13.333 22.166 -23.833 38.499 -31.5s36.166 -11.5 59.499 -11.5c40.667 0 70.5 11 89.5 33s28.5 51.667 28.5 89v161z" />
    <glyph glyph-name="ugrave" unicode="&#xf9;" horiz-adv-x="509" 
d="M367 504h73v-504h-65l-4 54h-2c-36 -42 -84.667 -63 -146 -63c-54 0 -95 16.833 -123 50.5s-42 78.167 -42 133.5v329h74v-330c0 -38 9 -67.833 27 -89.5s45.667 -32.5 83 -32.5c28.667 0 53.667 6 75 18s38 26.667 50 44v390zM225 725l71 -136h-59l-99 136h87z" />
    <glyph glyph-name="uacute" unicode="&#xfa;" horiz-adv-x="509" 
d="M367 504h73v-504h-65l-4 54h-2c-36 -42 -84.667 -63 -146 -63c-54 0 -95 16.833 -123 50.5s-42 78.167 -42 133.5v329h74v-330c0 -38 9 -67.833 27 -89.5s45.667 -32.5 83 -32.5c28.667 0 53.667 6 75 18s38 26.667 50 44v390zM366 725l-90 -136h-58l60 136h88z" />
    <glyph glyph-name="ucircumflex" unicode="&#xfb;" horiz-adv-x="509" 
d="M367 504h73v-504h-65l-4 54h-2c-36 -42 -84.667 -63 -146 -63c-54 0 -95 16.833 -123 50.5s-42 78.167 -42 133.5v329h74v-330c0 -38 9 -67.833 27 -89.5s45.667 -32.5 83 -32.5c28.667 0 53.667 6 75 18s38 26.667 50 44v390zM136 589l92 136h52l93 -136h-65l-54 87
l-54 -87h-64z" />
    <glyph glyph-name="udieresis" unicode="&#xfc;" horiz-adv-x="509" 
d="M367 504h73v-504h-65l-4 54h-2c-36 -42 -84.667 -63 -146 -63c-54 0 -95 16.833 -123 50.5s-42 78.167 -42 133.5v329h74v-330c0 -38 9 -67.833 27 -89.5s45.667 -32.5 83 -32.5c28.667 0 53.667 6 75 18s38 26.667 50 44v390zM214 725v-103h-59v103h59zM354 725v-103
h-59v103h59z" />
    <glyph glyph-name="yacute" unicode="&#xfd;" horiz-adv-x="504" 
d="M284 -30c-16.667 -44.667 -38.332 -78.3311 -64.999 -100.998s-62.334 -35.334 -107.001 -38.001l-6 53c30.667 4.66699 54.667 14.167 72 28.5s31.333 37.166 42 68.499l9 27l-206 496h82l159 -414h2l138 414h77zM375.002 725.003l-90 -136h-58l60 136h88z" />
    <glyph glyph-name="thorn" unicode="&#xfe;" horiz-adv-x="499" 
d="M283 -8c-28.667 0 -54.832 4.66699 -78.499 14s-43.834 23.666 -60.501 42.999h-2v-218h-73v918h73v-301h2c16 20.667 36 36.667 60 48s51.333 17 82 17c54.667 0 95.667 -17 123 -51s41 -78.333 41 -133v-154c0 -55.333 -14 -99.666 -42 -132.999s-69.667 -50 -125 -50z
M142.002 114c12 -17.333 28 -32.168 48 -44.501s45 -18.5 75 -18.5c38 0 66.167 11 84.5 33s27.5 52.333 27.5 91v153c0 38.667 -8.83301 68.834 -26.5 90.501s-45.5 32.5 -83.5 32.5c-28.667 0 -53.667 -6.16699 -75 -18.5s-38 -26.833 -50 -43.5v-275z" />
    <glyph glyph-name="ydieresis" unicode="&#xff;" horiz-adv-x="504" 
d="M284 -30c-16.667 -44.667 -38.332 -78.3311 -64.999 -100.998s-62.334 -35.334 -107.001 -38.001l-6 53c30.667 4.66699 54.667 14.167 72 28.5s31.333 37.166 42 68.499l9 27l-206 496h82l159 -414h2l138 414h77zM226.002 725.003v-103h-59v103h59zM366.002 725.003
v-103h-59v103h59z" />
    <glyph glyph-name="Amacron" unicode="&#x100;" horiz-adv-x="605" 
d="M97 0h-84l245 725h88l246 -725h-86l-61 191h-288zM178 256h247l-123 389h-2zM431 799h-257v49h257v-49z" />
    <glyph glyph-name="amacron" unicode="&#x101;" horiz-adv-x="458" 
d="M59 406c19.333 32 42.4961 57.998 69.4961 77.998s60.5 30 100.5 30c28 0 51.833 -4.33301 71.5 -13s35.834 -20.667 48.501 -36s22 -33.5 28 -54.5s9 -43.833 9 -68.5v-253c0 -14 3.5 -25 10.5 -33s17.5 -12 31.5 -12h14v-44
c-5.33301 -1.33301 -11.166 -2.66602 -17.499 -3.99902s-13.166 -2 -20.499 -2c-21.333 0 -39 4.83301 -53 14.5s-24 21.834 -30 36.501c-18.667 -17.333 -39.667 -30.5 -63 -39.5s-48 -13.5 -74 -13.5c-44.667 0 -79.334 12 -104.001 36s-37 56.333 -37 97
c0 23.333 3.66699 44.833 11 64.5s19.833 36.834 37.5 51.501s40.834 26 69.501 34s64.334 12 107.001 12h45v55c0 75.333 -31 113 -93 113c-24.667 0 -46.5 -6.83301 -65.5 -20.5s-35.833 -32.834 -50.5 -57.501zM197.996 45.998c25.333 0 47 4.5 65 13.5
s34.667 22.167 50 39.5v135h-45c-30 0 -54.833 -2.5 -74.5 -7.5s-35.334 -12 -47.001 -21s-20 -20 -25 -33s-7.5 -27.5 -7.5 -43.5c0 -29.333 7.33301 -50.5 22 -63.5s35.334 -19.5 62.001 -19.5zM347.996 628.998h-237v51h237v-51z" />
    <glyph glyph-name="Abreve" unicode="&#x102;" horiz-adv-x="605" 
d="M97 0h-84l245 725h88l246 -725h-86l-61 191h-288zM178 256h247l-123 389h-2zM238 872c2.66699 -30 9.16992 -50 19.5029 -60s25.166 -15 44.499 -15s34.166 5 44.499 15s16.5 30 18.5 60h56c-3.33301 -21.333 -7.66602 -39.5 -12.999 -54.5s-12.833 -27 -22.5 -36
s-21.334 -15.5 -35.001 -19.5s-29.834 -6 -48.501 -6c-19.333 0 -35.833 2 -49.5 6s-25.167 10.5 -34.5 19.5s-16.833 21 -22.5 36s-10.167 33.167 -13.5 54.5h56z" />
    <glyph glyph-name="abreve" unicode="&#x103;" horiz-adv-x="458" 
d="M59 406c19.333 32 42.4961 57.998 69.4961 77.998s60.5 30 100.5 30c28 0 51.833 -4.33301 71.5 -13s35.834 -20.667 48.501 -36s22 -33.5 28 -54.5s9 -43.833 9 -68.5v-253c0 -14 3.5 -25 10.5 -33s17.5 -12 31.5 -12h14v-44
c-5.33301 -1.33301 -11.166 -2.66602 -17.499 -3.99902s-13.166 -2 -20.499 -2c-21.333 0 -39 4.83301 -53 14.5s-24 21.834 -30 36.501c-18.667 -17.333 -39.667 -30.5 -63 -39.5s-48 -13.5 -74 -13.5c-44.667 0 -79.334 12 -104.001 36s-37 56.333 -37 97
c0 23.333 3.66699 44.833 11 64.5s19.833 36.834 37.5 51.501s40.834 26 69.501 34s64.334 12 107.001 12h45v55c0 75.333 -31 113 -93 113c-24.667 0 -46.5 -6.83301 -65.5 -20.5s-35.833 -32.834 -50.5 -57.501zM197.996 45.998c25.333 0 47 4.5 65 13.5
s34.667 22.167 50 39.5v135h-45c-30 0 -54.833 -2.5 -74.5 -7.5s-35.334 -12 -47.001 -21s-20 -20 -25 -33s-7.5 -27.5 -7.5 -43.5c0 -29.333 7.33301 -50.5 22 -63.5s35.334 -19.5 62.001 -19.5zM168.996 724.998c2.66699 -39.333 9 -66 19 -80s24.667 -21 44 -21
s34.166 7 44.499 21s16.5 40.667 18.5 80h56c-3.33301 -27.333 -7.66602 -50.166 -12.999 -68.499s-12.666 -33 -21.999 -44s-20.833 -18.833 -34.5 -23.5s-30.167 -7 -49.5 -7s-35.833 2.33301 -49.5 7s-25 12.5 -34 23.5s-16.333 25.667 -22 44
s-9.83398 41.166 -12.501 68.499h55z" />
    <glyph glyph-name="Aogonek" unicode="&#x104;" horiz-adv-x="605" 
d="M97 0l-83.999 0.000976562l245 725h88l246 -725h-17c-10.667 0 -20.334 -2 -29.001 -6s-16.167 -9.33301 -22.5 -16s-11.166 -14.167 -14.499 -22.5s-5 -16.833 -5 -25.5c0 -30 16.333 -45 49 -45c12.667 0 24.667 1.66699 36 5s22.666 9 33.999 17l16 -41
c-12.667 -9.33301 -27.5 -16.833 -44.5 -22.5s-35.167 -8.5 -54.5 -8.5c-32.667 0 -57.5 6.66699 -74.5 20s-25.5 32 -25.5 56c0 17.333 5.16699 35.166 15.5 53.499s25.833 33.5 46.5 45.5l-57 181h-288zM178.001 256.001h247l-123 389h-2z" />
    <glyph glyph-name="aogonek" unicode="&#x105;" horiz-adv-x="458" 
d="M59 406c19.333 32 42.498 57.9961 69.498 77.9961s60.5 30 100.5 30c28 0 51.833 -4.33301 71.5 -13s35.834 -20.667 48.501 -36s22 -33.5 28 -54.5s9 -43.833 9 -68.5v-253c0 -14 3.5 -25 10.5 -33s17.5 -12 31.5 -12h14v-44
c-4 -1.33301 -8.33301 -2.16602 -13 -2.49902s-9.66699 -1.16602 -15 -2.49902c-8 -1.33301 -16.167 -4.16602 -24.5 -8.49902s-16 -9.66602 -23 -15.999s-12.667 -13.5 -17 -21.5s-6.5 -16.333 -6.5 -25c0 -25.333 15.333 -38 46 -38c12.667 0 25.334 1.66699 38.001 5
s24.667 9 36 17l16 -41c-12.667 -9.33301 -27.334 -16.833 -44.001 -22.5s-35 -8.5 -55 -8.5c-66 0 -99 24.333 -99 73c0 21.333 7.33301 40 22 56s34.667 28.667 60 38c-11.333 4.66699 -20.333 10.667 -27 18s-11.667 15.333 -15 24
c-18.667 -17.333 -39.667 -30.5 -63 -39.5s-48 -13.5 -74 -13.5c-44.667 0 -79.334 12 -104.001 36s-37 56.333 -37 97c0 23.333 3.66699 44.833 11 64.5s19.833 36.834 37.5 51.501s40.834 26 69.501 34s64.334 12 107.001 12h45v55c0 75.333 -31 113 -93 113
c-24.667 0 -46.5 -6.83301 -65.5 -20.5s-35.833 -32.834 -50.5 -57.501zM197.998 45.9961c25.333 0 47 4.5 65 13.5s34.667 22.167 50 39.5v135h-45c-30 0 -54.833 -2.5 -74.5 -7.5s-35.334 -12 -47.001 -21s-20 -20 -25 -33s-7.5 -27.5 -7.5 -43.5
c0 -29.333 7.33301 -50.5 22 -63.5s35.334 -19.5 62.001 -19.5z" />
    <glyph glyph-name="Cacute" unicode="&#x106;" horiz-adv-x="533" 
d="M287 735c26 0 50.1641 -3.83105 72.4971 -11.498s42.333 -18 60 -31s32.834 -28.5 45.501 -46.5s22 -37.333 28 -58l-60 -24c-10 31.333 -26.667 56.166 -50 74.499s-53.666 27.5 -90.999 27.5c-49.333 0 -86.666 -15.333 -111.999 -46s-38 -74.334 -38 -131.001v-258
c0 -52 12.833 -94 38.5 -126s63.167 -48 112.5 -48c38.667 0 69 8.16699 91 24.5s38.667 44.833 50 85.5l61 -22c-13.333 -54 -37.666 -93.333 -72.999 -118s-80.333 -37 -135 -37c-34.667 0 -66 5.83301 -94 17.5s-52 28 -72 49s-35.333 46.333 -46 76s-16 62.167 -16 97.5
v258c0 76.667 20.167 137 60.5 181s96.166 66 167.499 66zM393.997 872.002l-95 -111h-65l65 111h95z" />
    <glyph glyph-name="cacute" unicode="&#x107;" horiz-adv-x="427" 
d="M350 379c-10.667 25.333 -25.833 43.999 -45.5 55.999s-42.167 18 -67.5 18c-37.333 0 -65.833 -10.333 -85.5 -31s-29.5 -51 -29.5 -91v-158c0 -39.333 10 -69.666 30 -90.999s48.333 -32 85 -32c28 0 51.167 6.33301 69.5 19s33.166 33 44.499 61l53 -21
c-13.333 -36 -34.166 -64.667 -62.499 -86s-64.833 -32 -109.5 -32c-30 0 -56.333 4.66699 -79 14s-41.667 22 -57 38s-27 34.833 -35 56.5s-12 45.167 -12 70.5v164c0 25.333 4 49 12 71s19.667 41 35 57s34.333 28.5 57 37.5s49 13.5 79 13.5
c40 0 74.333 -9.83301 103 -29.5s50.667 -46.5 66 -80.5zM341.001 724.999l-90 -136h-58l60 136h88z" />
    <glyph glyph-name="Ccircumflex" unicode="&#x108;" horiz-adv-x="533" 
d="M287 735c26 0 50.1641 -3.83105 72.4971 -11.498s42.333 -18 60 -31s32.834 -28.5 45.501 -46.5s22 -37.333 28 -58l-60 -24c-10 31.333 -26.667 56.166 -50 74.499s-53.666 27.5 -90.999 27.5c-49.333 0 -86.666 -15.333 -111.999 -46s-38 -74.334 -38 -131.001v-258
c0 -52 12.833 -94 38.5 -126s63.167 -48 112.5 -48c38.667 0 69 8.16699 91 24.5s38.667 44.833 50 85.5l61 -22c-13.333 -54 -37.666 -93.333 -72.999 -118s-80.333 -37 -135 -37c-34.667 0 -66 5.83301 -94 17.5s-52 28 -72 49s-35.333 46.333 -46 76s-16 62.167 -16 97.5
v258c0 76.667 20.167 137 60.5 181s96.166 66 167.499 66zM166.997 761.002l90 111h62l90 -111h-67l-54 68l-54 -68h-67z" />
    <glyph glyph-name="ccircumflex" unicode="&#x109;" horiz-adv-x="427" 
d="M350 379c-10.667 25.333 -25.833 43.999 -45.5 55.999s-42.167 18 -67.5 18c-37.333 0 -65.833 -10.333 -85.5 -31s-29.5 -51 -29.5 -91v-158c0 -39.333 10 -69.666 30 -90.999s48.333 -32 85 -32c28 0 51.167 6.33301 69.5 19s33.166 33 44.499 61l53 -21
c-13.333 -36 -34.166 -64.667 -62.499 -86s-64.833 -32 -109.5 -32c-30 0 -56.333 4.66699 -79 14s-41.667 22 -57 38s-27 34.833 -35 56.5s-12 45.167 -12 70.5v164c0 25.333 4 49 12 71s19.667 41 35 57s34.333 28.5 57 37.5s49 13.5 79 13.5
c40 0 74.333 -9.83301 103 -29.5s50.667 -46.5 66 -80.5zM116.001 588.999l92 136h52l93 -136h-65l-54 87l-54 -87h-64z" />
    <glyph glyph-name="Cdotaccent" unicode="&#x10a;" horiz-adv-x="533" 
d="M287 735c26 0 50.1641 -3.83105 72.4971 -11.498s42.333 -18 60 -31s32.834 -28.5 45.501 -46.5s22 -37.333 28 -58l-60 -24c-10 31.333 -26.667 56.166 -50 74.499s-53.666 27.5 -90.999 27.5c-49.333 0 -86.666 -15.333 -111.999 -46s-38 -74.334 -38 -131.001v-258
c0 -52 12.833 -94 38.5 -126s63.167 -48 112.5 -48c38.667 0 69 8.16699 91 24.5s38.667 44.833 50 85.5l61 -22c-13.333 -54 -37.666 -93.333 -72.999 -118s-80.333 -37 -135 -37c-34.667 0 -66 5.83301 -94 17.5s-52 28 -72 49s-35.333 46.333 -46 76s-16 62.167 -16 97.5
v258c0 76.667 20.167 137 60.5 181s96.166 66 167.499 66zM325.997 872.002v-99h-79v99h79z" />
    <glyph glyph-name="cdotaccent" unicode="&#x10b;" horiz-adv-x="427" 
d="M350 379c-10.667 25.333 -25.833 43.999 -45.5 55.999s-42.167 18 -67.5 18c-37.333 0 -65.833 -10.333 -85.5 -31s-29.5 -51 -29.5 -91v-158c0 -39.333 10 -69.666 30 -90.999s48.333 -32 85 -32c28 0 51.167 6.33301 69.5 19s33.166 33 44.499 61l53 -21
c-13.333 -36 -34.166 -64.667 -62.499 -86s-64.833 -32 -109.5 -32c-30 0 -56.333 4.66699 -79 14s-41.667 22 -57 38s-27 34.833 -35 56.5s-12 45.167 -12 70.5v164c0 25.333 4 49 12 71s19.667 41 35 57s34.333 28.5 57 37.5s49 13.5 79 13.5
c40 0 74.333 -9.83301 103 -29.5s50.667 -46.5 66 -80.5zM271.001 724.999v-102h-71v102h71z" />
    <glyph glyph-name="Ccaron" unicode="&#x10c;" horiz-adv-x="533" 
d="M287 735c26 0 50.1641 -3.83105 72.4971 -11.498s42.333 -18 60 -31s32.834 -28.5 45.501 -46.5s22 -37.333 28 -58l-60 -24c-10 31.333 -26.667 56.166 -50 74.499s-53.666 27.5 -90.999 27.5c-49.333 0 -86.666 -15.333 -111.999 -46s-38 -74.334 -38 -131.001v-258
c0 -52 12.833 -94 38.5 -126s63.167 -48 112.5 -48c38.667 0 69 8.16699 91 24.5s38.667 44.833 50 85.5l61 -22c-13.333 -54 -37.666 -93.333 -72.999 -118s-80.333 -37 -135 -37c-34.667 0 -66 5.83301 -94 17.5s-52 28 -72 49s-35.333 46.333 -46 76s-16 62.167 -16 97.5
v258c0 76.667 20.167 137 60.5 181s96.166 66 167.499 66zM235.997 872.002l52 -70l54 70h65l-93 -111h-52l-92 111h66z" />
    <glyph glyph-name="ccaron" unicode="&#x10d;" horiz-adv-x="427" 
d="M350 379c-10.667 25.333 -25.833 43.999 -45.5 55.999s-42.167 18 -67.5 18c-37.333 0 -65.833 -10.333 -85.5 -31s-29.5 -51 -29.5 -91v-158c0 -39.333 10 -69.666 30 -90.999s48.333 -32 85 -32c28 0 51.167 6.33301 69.5 19s33.166 33 44.499 61l53 -21
c-13.333 -36 -34.166 -64.667 -62.499 -86s-64.833 -32 -109.5 -32c-30 0 -56.333 4.66699 -79 14s-41.667 22 -57 38s-27 34.833 -35 56.5s-12 45.167 -12 70.5v164c0 25.333 4 49 12 71s19.667 41 35 57s34.333 28.5 57 37.5s49 13.5 79 13.5
c40 0 74.333 -9.83301 103 -29.5s50.667 -46.5 66 -80.5zM179.001 724.999l54 -87l54 87h64l-92 -136h-52l-92 136h64z" />
    <glyph glyph-name="Dcaron" unicode="&#x10e;" horiz-adv-x="626" 
d="M321 725c78.667 0 139.167 -21.833 181.5 -65.5s63.5 -103.834 63.5 -180.501v-236c0 -75.333 -21.167 -134.666 -63.5 -177.999s-102.833 -65 -181.5 -65h-238v725h238zM484 475c0 120 -54.333 180 -163 180h-156v-586h156c108.667 0 163 58.667 163 176v230zM240 872
l52 -70l54 70h65l-93 -111h-52l-92 111h66z" />
    <glyph glyph-name="dcaron" unicode="&#x10f;" horiz-adv-x="505" 
d="M216 514c28 0 53.833 -4.83203 77.5 -14.499s44.167 -23.834 61.5 -42.501h2v292h73v-749h-65l-4 53h-2c-36 -41.333 -84.667 -62 -146 -62c-54 0 -94.833 16.833 -122.5 50.5s-41.5 78.167 -41.5 133.5v155c0 55.333 14 99.833 42 133.5s69.667 50.5 125 50.5z
M357 392.001c-12.667 16.667 -28.833 31 -48.5 43s-44.5 18 -74.5 18c-38 0 -66.167 -10.833 -84.5 -32.5s-27.5 -52.167 -27.5 -91.5v-155c0 -38 9 -67.833 27 -89.5s46 -32.5 84 -32.5c28 0 52.667 6 74 18s38 26.667 50 44v278zM574.001 749.001l-52 -136h-41l25 136h68z
" />
    <glyph glyph-name="Dcroat" unicode="&#x110;" horiz-adv-x="638" 
d="M333 725c78.667 0 139.167 -21.833 181.5 -65.5s63.5 -103.834 63.5 -180.501v-236c0 -75.333 -21.167 -134.666 -63.5 -177.999s-102.833 -65 -181.5 -65h-238v347h-76v50h76v328h238zM496 475c0 120 -54.333 180 -163 180h-156v-258h85v-50h-85v-278h156
c108.667 0 163 58.667 163 176v230z" />
    <glyph glyph-name="dcroat" unicode="&#x111;" horiz-adv-x="507" 
d="M279 650l78 0.000976562v99h73v-99h50v-47h-50v-603h-65l-4 53h-2c-36 -41.333 -84.667 -62 -146 -62c-54 0 -94.833 16.833 -122.5 50.5s-41.5 78.167 -41.5 133.5v155c0 55.333 14 99.833 42 133.5s69.667 50.5 125 50.5c28 0 53.833 -4.83301 77.5 -14.5
s44.167 -23.834 61.5 -42.501h2v146h-78v47zM357 392.001c-12.667 16.667 -28.833 31 -48.5 43s-44.5 18 -74.5 18c-38 0 -66.167 -10.833 -84.5 -32.5s-27.5 -52.167 -27.5 -91.5v-155c0 -38 9 -67.833 27 -89.5s46 -32.5 84 -32.5c28 0 52.667 6 74 18s38 26.667 50 44
v278z" />
    <glyph glyph-name="Emacron" unicode="&#x112;" horiz-adv-x="537" 
d="M485 725v-72h-320v-246h256v-65h-256v-271h335v-71h-417v725h402zM418 799h-257v49h257v-49z" />
    <glyph glyph-name="emacron" unicode="&#x113;" horiz-adv-x="455" 
d="M122 252l-0.000976562 -79.001c0 -39.333 10.333 -69.833 31 -91.5s50 -32.5 88 -32.5c29.333 0 53.333 6.83301 72 20.5s34.667 36.5 48 68.5l53 -21c-14.667 -42 -36.5 -73.5 -65.5 -94.5s-66.833 -31.5 -113.5 -31.5c-30 0 -56.5 4.5 -79.5 13.5
s-42.5 21.5 -58.5 37.5s-28 35 -36 57s-12 46 -12 72v163c0 26 4 49.833 12 71.5s19.833 40.5 35.5 56.5s34.834 28.5 57.501 37.5s48.667 13.5 78 13.5c28.667 0 54.167 -4.66699 76.5 -14s41.333 -22.166 57 -38.499s27.5 -35.5 35.5 -57.5s12 -45.667 12 -71v-80h-291z
M121.999 299.999h226v39c0 36 -10 64.5 -30 85.5s-48 31.5 -84 31.5c-38 0 -66.167 -10.833 -84.5 -32.5s-27.5 -50.167 -27.5 -85.5v-38zM352.999 628.999h-237v51h237v-51z" />
    <glyph glyph-name="Ebreve" unicode="&#x114;" horiz-adv-x="537" 
d="M485 725v-72h-320v-246h256v-65h-256v-271h335v-71h-417v725h402zM227 872c2.66699 -30 9.16992 -50 19.5029 -60s25.166 -15 44.499 -15s34.166 5 44.499 15s16.5 30 18.5 60h56c-3.33301 -21.333 -7.66602 -39.5 -12.999 -54.5s-12.833 -27 -22.5 -36
s-21.334 -15.5 -35.001 -19.5s-29.834 -6 -48.501 -6c-19.333 0 -35.833 2 -49.5 6s-25.167 10.5 -34.5 19.5s-16.833 21 -22.5 36s-10.167 33.167 -13.5 54.5h56z" />
    <glyph glyph-name="ebreve" unicode="&#x115;" horiz-adv-x="455" 
d="M122 252l-0.000976562 -79.001c0 -39.333 10.333 -69.833 31 -91.5s50 -32.5 88 -32.5c29.333 0 53.333 6.83301 72 20.5s34.667 36.5 48 68.5l53 -21c-14.667 -42 -36.5 -73.5 -65.5 -94.5s-66.833 -31.5 -113.5 -31.5c-30 0 -56.5 4.5 -79.5 13.5
s-42.5 21.5 -58.5 37.5s-28 35 -36 57s-12 46 -12 72v163c0 26 4 49.833 12 71.5s19.833 40.5 35.5 56.5s34.834 28.5 57.501 37.5s48.667 13.5 78 13.5c28.667 0 54.167 -4.66699 76.5 -14s41.333 -22.166 57 -38.499s27.5 -35.5 35.5 -57.5s12 -45.667 12 -71v-80h-291z
M121.999 299.999h226v39c0 36 -10 64.5 -30 85.5s-48 31.5 -84 31.5c-38 0 -66.167 -10.833 -84.5 -32.5s-27.5 -50.167 -27.5 -85.5v-38zM170.999 724.999c2.66699 -39.333 9 -66 19 -80s24.667 -21 44 -21s34.166 7 44.499 21s16.5 40.667 18.5 80h56
c-3.33301 -27.333 -7.66602 -50.166 -12.999 -68.499s-12.666 -33 -21.999 -44s-20.833 -18.833 -34.5 -23.5s-30.167 -7 -49.5 -7s-35.833 2.33301 -49.5 7s-25 12.5 -34 23.5s-16.333 25.667 -22 44s-9.83398 41.166 -12.501 68.499h55z" />
    <glyph glyph-name="Edotaccent" unicode="&#x116;" horiz-adv-x="537" 
d="M485 725v-72h-320v-246h256v-65h-256v-271h335v-71h-417v725h402zM334 872v-99h-79v99h79z" />
    <glyph glyph-name="edotaccent" unicode="&#x117;" horiz-adv-x="455" 
d="M122 252l-0.000976562 -79.001c0 -39.333 10.333 -69.833 31 -91.5s50 -32.5 88 -32.5c29.333 0 53.333 6.83301 72 20.5s34.667 36.5 48 68.5l53 -21c-14.667 -42 -36.5 -73.5 -65.5 -94.5s-66.833 -31.5 -113.5 -31.5c-30 0 -56.5 4.5 -79.5 13.5
s-42.5 21.5 -58.5 37.5s-28 35 -36 57s-12 46 -12 72v163c0 26 4 49.833 12 71.5s19.833 40.5 35.5 56.5s34.834 28.5 57.501 37.5s48.667 13.5 78 13.5c28.667 0 54.167 -4.66699 76.5 -14s41.333 -22.166 57 -38.499s27.5 -35.5 35.5 -57.5s12 -45.667 12 -71v-80h-291z
M121.999 299.999h226v39c0 36 -10 64.5 -30 85.5s-48 31.5 -84 31.5c-38 0 -66.167 -10.833 -84.5 -32.5s-27.5 -50.167 -27.5 -85.5v-38zM269.999 724.999v-102h-71v102h71z" />
    <glyph glyph-name="Eogonek" unicode="&#x118;" horiz-adv-x="537" 
d="M485 725l0.000976562 -72h-320v-246h256v-65h-256v-271h335v-71h-40c-10.667 0 -20.334 -2 -29.001 -6s-16.167 -9.33301 -22.5 -16s-11.166 -14.167 -14.499 -22.5s-5 -16.833 -5 -25.5c0 -30 16.333 -45 49 -45c12.667 0 24.667 1.66699 36 5s22.666 9 33.999 17
l16 -41c-12.667 -9.33301 -27.5 -16.833 -44.5 -22.5s-35.167 -8.5 -54.5 -8.5c-32.667 0 -57.5 6.66699 -74.5 20s-25.5 32 -25.5 56c0 16.667 4.5 33 13.5 49s23.167 28.667 42.5 38l4 2h-302v725h402z" />
    <glyph glyph-name="eogonek" unicode="&#x119;" horiz-adv-x="455" 
d="M122 252l0.000976562 -79.001c0 -39.333 10.333 -69.833 31 -91.5s50 -32.5 88 -32.5c29.333 0 53.333 6.83301 72 20.5s34.667 36.5 48 68.5l53 -21c-10.667 -30 -24.834 -54.833 -42.501 -74.5s-39.834 -33.5 -66.501 -41.5
c-8.66699 -2.66699 -17.5 -6.16699 -26.5 -10.5s-17.167 -9.83301 -24.5 -16.5s-13.333 -14.167 -18 -22.5s-7 -17.833 -7 -28.5c0 -25.333 15.333 -38 46 -38c12.667 0 25.334 1.66699 38.001 5s24.667 9 36 17l16 -41c-12.667 -9.33301 -27.334 -16.833 -44.001 -22.5
s-35 -8.5 -55 -8.5c-66 0 -99 24.333 -99 73c0 17.333 5 33 15 47s24 25.667 42 35l3 2c-57.333 1.33301 -101.333 18.5 -132 51.5s-46 75.5 -46 127.5v163c0 26 4 49.833 12 71.5s19.833 40.5 35.5 56.5s34.834 28.5 57.501 37.5s48.667 13.5 78 13.5
c28.667 0 54.167 -4.66699 76.5 -14s41.333 -22.166 57 -38.499s27.5 -35.5 35.5 -57.5s12 -45.667 12 -71v-80h-291zM122.001 299.999h226v39c0 36 -10 64.5 -30 85.5s-48 31.5 -84 31.5c-38 0 -66.167 -10.833 -84.5 -32.5s-27.5 -50.167 -27.5 -85.5v-38z" />
    <glyph glyph-name="Ecaron" unicode="&#x11a;" horiz-adv-x="537" 
d="M485 725v-72h-320v-246h256v-65h-256v-271h335v-71h-417v725h402zM239 872l52 -70l54 70h65l-93 -111h-52l-92 111h66z" />
    <glyph glyph-name="ecaron" unicode="&#x11b;" horiz-adv-x="455" 
d="M122 252l-0.000976562 -79.001c0 -39.333 10.333 -69.833 31 -91.5s50 -32.5 88 -32.5c29.333 0 53.333 6.83301 72 20.5s34.667 36.5 48 68.5l53 -21c-14.667 -42 -36.5 -73.5 -65.5 -94.5s-66.833 -31.5 -113.5 -31.5c-30 0 -56.5 4.5 -79.5 13.5
s-42.5 21.5 -58.5 37.5s-28 35 -36 57s-12 46 -12 72v163c0 26 4 49.833 12 71.5s19.833 40.5 35.5 56.5s34.834 28.5 57.501 37.5s48.667 13.5 78 13.5c28.667 0 54.167 -4.66699 76.5 -14s41.333 -22.166 57 -38.499s27.5 -35.5 35.5 -57.5s12 -45.667 12 -71v-80h-291z
M121.999 299.999h226v39c0 36 -10 64.5 -30 85.5s-48 31.5 -84 31.5c-38 0 -66.167 -10.833 -84.5 -32.5s-27.5 -50.167 -27.5 -85.5v-38zM179.999 724.999l54 -87l54 87h64l-92 -136h-52l-92 136h64z" />
    <glyph glyph-name="Gcircumflex" unicode="&#x11c;" horiz-adv-x="600" 
d="M307 735c56.667 0 105 -13.8301 145 -41.4971s67.333 -64.167 82 -109.5l-60 -23c-31.333 70 -84.333 105 -159 105c-59.333 0 -103.166 -17 -131.499 -51s-42.5 -82.333 -42.5 -145v-234c0 -58.667 14.333 -102.667 43 -132s70 -44 124 -44
c35.333 0 65.5 6.16699 90.5 18.5s46.5 34.166 64.5 65.499v151h-110v57h184v-352h-69v69c-22.667 -28 -48.834 -48 -78.501 -60s-62.167 -18 -97.5 -18c-73.333 0 -130.5 21.167 -171.5 63.5s-61.5 102.5 -61.5 180.5v236c0 39.333 5.16699 75.166 15.5 107.499
s25.833 60.166 46.5 83.499s46.5 41.333 77.5 54s67.167 19 108.5 19zM193 761.003l90 111h62l90 -111h-67l-54 68l-54 -68h-67z" />
    <glyph glyph-name="gcircumflex" unicode="&#x11d;" horiz-adv-x="491" 
d="M248 182c-35.333 0 -66.002 4.6709 -92.002 14.0039c-16.667 -6 -28.334 -13.5 -35.001 -22.5s-10 -18.833 -10 -29.5c0 -13.333 5 -24.166 15 -32.499s27.667 -12.5 53 -12.5h123c30 0 55.333 -2.83301 76 -8.5s37.334 -13.834 50.001 -24.501
s21.834 -23.334 27.501 -38.001s8.5 -31.334 8.5 -50.001c0 -49.333 -18.833 -87.5 -56.5 -114.5s-90.834 -40.5 -159.501 -40.5c-63.333 0 -110.166 10.667 -140.499 32s-45.5 52 -45.5 92c0 19.333 4 37.833 12 55.5s20.667 32.167 38 43.5
c-20 7.33301 -35.5 18.166 -46.5 32.499s-16.5 31.833 -16.5 52.5c0 17.333 5.5 33.666 16.5 48.999s28.167 28.333 51.5 39c-29.333 26.667 -44 69.334 -44 128.001c0 56.667 14 98.5 42 125.5s72.333 40.5 133 40.5c48 0 86.333 -8.66699 115 -26
c16 9.33301 29.833 20.666 41.5 33.999s19.834 26.333 24.501 39l38 -16c-5.33301 -20 -13.5 -38.667 -24.5 -56s-23.833 -31.666 -38.5 -42.999c14.667 -25.333 22 -58 22 -98c0 -56.667 -14.167 -98.334 -42.5 -125.001s-73.5 -40 -135.5 -40zM143.998 346.004
c0 -20.667 1.66602 -37.999 4.99902 -51.999s9 -25.333 17 -34s18.833 -14.834 32.5 -18.501s30.5 -5.5 50.5 -5.5c40.667 0 68.5 8 83.5 24s22.5 44.667 22.5 86s-8 70.166 -24 86.499s-43.333 24.5 -82 24.5c-39.333 0 -66.666 -8.16699 -81.999 -24.5
s-23 -45.166 -23 -86.499zM171.997 37.0049c-32 -16.667 -48.002 -44.667 -48.002 -84c0 -26.667 11 -46.167 33 -58.5s52.667 -18.5 92 -18.5c30.667 0 55.834 2.5 75.501 7.5s34.834 11.833 45.501 20.5s18 18.667 22 30s6 23.333 6 36c0 22.667 -6.83301 39.5 -20.5 50.5
s-40.167 16.5 -79.5 16.5h-126zM135.995 589.005l92 136h52l93 -136h-65l-54 87l-54 -87h-64z" />
    <glyph glyph-name="Gbreve" unicode="&#x11e;" horiz-adv-x="600" 
d="M307 735c56.667 0 105 -13.8301 145 -41.4971s67.333 -64.167 82 -109.5l-60 -23c-31.333 70 -84.333 105 -159 105c-59.333 0 -103.166 -17 -131.499 -51s-42.5 -82.333 -42.5 -145v-234c0 -58.667 14.333 -102.667 43 -132s70 -44 124 -44
c35.333 0 65.5 6.16699 90.5 18.5s46.5 34.166 64.5 65.499v151h-110v57h184v-352h-69v69c-22.667 -28 -48.834 -48 -78.501 -60s-62.167 -18 -97.5 -18c-73.333 0 -130.5 21.167 -171.5 63.5s-61.5 102.5 -61.5 180.5v236c0 39.333 5.16699 75.166 15.5 107.499
s25.833 60.166 46.5 83.499s46.5 41.333 77.5 54s67.167 19 108.5 19zM248 872.003c2.66699 -30 9.16992 -50 19.5029 -60s25.166 -15 44.499 -15s34.166 5 44.499 15s16.5 30 18.5 60h56c-3.33301 -21.333 -7.66602 -39.5 -12.999 -54.5s-12.833 -27 -22.5 -36
s-21.334 -15.5 -35.001 -19.5s-29.834 -6 -48.501 -6c-19.333 0 -35.833 2 -49.5 6s-25.167 10.5 -34.5 19.5s-16.833 21 -22.5 36s-10.167 33.167 -13.5 54.5h56z" />
    <glyph glyph-name="gbreve" unicode="&#x11f;" horiz-adv-x="491" 
d="M248 182c-35.333 0 -66.002 4.6709 -92.002 14.0039c-16.667 -6 -28.334 -13.5 -35.001 -22.5s-10 -18.833 -10 -29.5c0 -13.333 5 -24.166 15 -32.499s27.667 -12.5 53 -12.5h123c30 0 55.333 -2.83301 76 -8.5s37.334 -13.834 50.001 -24.501
s21.834 -23.334 27.501 -38.001s8.5 -31.334 8.5 -50.001c0 -49.333 -18.833 -87.5 -56.5 -114.5s-90.834 -40.5 -159.501 -40.5c-63.333 0 -110.166 10.667 -140.499 32s-45.5 52 -45.5 92c0 19.333 4 37.833 12 55.5s20.667 32.167 38 43.5
c-20 7.33301 -35.5 18.166 -46.5 32.499s-16.5 31.833 -16.5 52.5c0 17.333 5.5 33.666 16.5 48.999s28.167 28.333 51.5 39c-29.333 26.667 -44 69.334 -44 128.001c0 56.667 14 98.5 42 125.5s72.333 40.5 133 40.5c48 0 86.333 -8.66699 115 -26
c16 9.33301 29.833 20.666 41.5 33.999s19.834 26.333 24.501 39l38 -16c-5.33301 -20 -13.5 -38.667 -24.5 -56s-23.833 -31.666 -38.5 -42.999c14.667 -25.333 22 -58 22 -98c0 -56.667 -14.167 -98.334 -42.5 -125.001s-73.5 -40 -135.5 -40zM143.998 346.004
c0 -20.667 1.66602 -37.999 4.99902 -51.999s9 -25.333 17 -34s18.833 -14.834 32.5 -18.501s30.5 -5.5 50.5 -5.5c40.667 0 68.5 8 83.5 24s22.5 44.667 22.5 86s-8 70.166 -24 86.499s-43.333 24.5 -82 24.5c-39.333 0 -66.666 -8.16699 -81.999 -24.5
s-23 -45.166 -23 -86.499zM171.997 37.0049c-32 -16.667 -48.002 -44.667 -48.002 -84c0 -26.667 11 -46.167 33 -58.5s52.667 -18.5 92 -18.5c30.667 0 55.834 2.5 75.501 7.5s34.834 11.833 45.501 20.5s18 18.667 22 30s6 23.333 6 36c0 22.667 -6.83301 39.5 -20.5 50.5
s-40.167 16.5 -79.5 16.5h-126zM193.995 725.005c2.66699 -39.333 9 -66 19 -80s24.667 -21 44 -21s34.166 7 44.499 21s16.5 40.667 18.5 80h56c-3.33301 -27.333 -7.66602 -50.166 -12.999 -68.499s-12.666 -33 -21.999 -44s-20.833 -18.833 -34.5 -23.5
s-30.167 -7 -49.5 -7s-35.833 2.33301 -49.5 7s-25 12.5 -34 23.5s-16.333 25.667 -22 44s-9.83398 41.166 -12.501 68.499h55z" />
    <glyph glyph-name="Gdotaccent" unicode="&#x120;" horiz-adv-x="600" 
d="M307 735c56.667 0 105 -13.8301 145 -41.4971s67.333 -64.167 82 -109.5l-60 -23c-31.333 70 -84.333 105 -159 105c-59.333 0 -103.166 -17 -131.499 -51s-42.5 -82.333 -42.5 -145v-234c0 -58.667 14.333 -102.667 43 -132s70 -44 124 -44
c35.333 0 65.5 6.16699 90.5 18.5s46.5 34.166 64.5 65.499v151h-110v57h184v-352h-69v69c-22.667 -28 -48.834 -48 -78.501 -60s-62.167 -18 -97.5 -18c-73.333 0 -130.5 21.167 -171.5 63.5s-61.5 102.5 -61.5 180.5v236c0 39.333 5.16699 75.166 15.5 107.499
s25.833 60.166 46.5 83.499s46.5 41.333 77.5 54s67.167 19 108.5 19zM348 872.003v-99h-79v99h79z" />
    <glyph glyph-name="gdotaccent" unicode="&#x121;" horiz-adv-x="491" 
d="M248 182c-35.333 0 -66.002 4.6709 -92.002 14.0039c-16.667 -6 -28.334 -13.5 -35.001 -22.5s-10 -18.833 -10 -29.5c0 -13.333 5 -24.166 15 -32.499s27.667 -12.5 53 -12.5h123c30 0 55.333 -2.83301 76 -8.5s37.334 -13.834 50.001 -24.501
s21.834 -23.334 27.501 -38.001s8.5 -31.334 8.5 -50.001c0 -49.333 -18.833 -87.5 -56.5 -114.5s-90.834 -40.5 -159.501 -40.5c-63.333 0 -110.166 10.667 -140.499 32s-45.5 52 -45.5 92c0 19.333 4 37.833 12 55.5s20.667 32.167 38 43.5
c-20 7.33301 -35.5 18.166 -46.5 32.499s-16.5 31.833 -16.5 52.5c0 17.333 5.5 33.666 16.5 48.999s28.167 28.333 51.5 39c-29.333 26.667 -44 69.334 -44 128.001c0 56.667 14 98.5 42 125.5s72.333 40.5 133 40.5c48 0 86.333 -8.66699 115 -26
c16 9.33301 29.833 20.666 41.5 33.999s19.834 26.333 24.501 39l38 -16c-5.33301 -20 -13.5 -38.667 -24.5 -56s-23.833 -31.666 -38.5 -42.999c14.667 -25.333 22 -58 22 -98c0 -56.667 -14.167 -98.334 -42.5 -125.001s-73.5 -40 -135.5 -40zM143.998 346.004
c0 -20.667 1.66602 -37.999 4.99902 -51.999s9 -25.333 17 -34s18.833 -14.834 32.5 -18.501s30.5 -5.5 50.5 -5.5c40.667 0 68.5 8 83.5 24s22.5 44.667 22.5 86s-8 70.166 -24 86.499s-43.333 24.5 -82 24.5c-39.333 0 -66.666 -8.16699 -81.999 -24.5
s-23 -45.166 -23 -86.499zM171.997 37.0049c-32 -16.667 -48.002 -44.667 -48.002 -84c0 -26.667 11 -46.167 33 -58.5s52.667 -18.5 92 -18.5c30.667 0 55.834 2.5 75.501 7.5s34.834 11.833 45.501 20.5s18 18.667 22 30s6 23.333 6 36c0 22.667 -6.83301 39.5 -20.5 50.5
s-40.167 16.5 -79.5 16.5h-126zM289.995 725.005v-102h-71v102h71z" />
    <glyph glyph-name="Gcommaaccent" unicode="&#x122;" horiz-adv-x="600" 
d="M307 735c56.667 0 105 -13.8301 145 -41.4971s67.333 -64.167 82 -109.5l-60 -23c-31.333 70 -84.333 105 -159 105c-59.333 0 -103.166 -17 -131.499 -51s-42.5 -82.333 -42.5 -145v-234c0 -58.667 14.333 -102.667 43 -132s70 -44 124 -44
c35.333 0 65.5 6.16699 90.5 18.5s46.5 34.166 64.5 65.499v151h-110v57h184v-352h-69v69c-22.667 -28 -48.834 -48 -78.501 -60s-62.167 -18 -97.5 -18c-73.333 0 -130.5 21.167 -171.5 63.5s-61.5 102.5 -61.5 180.5v236c0 39.333 5.16699 75.166 15.5 107.499
s25.833 60.166 46.5 83.499s46.5 41.333 77.5 54s67.167 19 108.5 19zM270 -35.9971l84 -0.000976562v-40c0 -35.333 -6.16699 -60.666 -18.5 -75.999s-34.833 -24.666 -67.5 -27.999l-4 31c17.333 2.66699 28.833 7.16699 34.5 13.5s8.5 17.166 8.5 32.499l-37 4v63z" />
    <glyph glyph-name="gcommaaccent" unicode="&#x123;" horiz-adv-x="491" 
d="M248 182c-35.333 0 -66.002 4.6709 -92.002 14.0039c-16.667 -6 -28.334 -13.5 -35.001 -22.5s-10 -18.833 -10 -29.5c0 -13.333 5 -24.166 15 -32.499s27.667 -12.5 53 -12.5h123c30 0 55.333 -2.83301 76 -8.5s37.334 -13.834 50.001 -24.501
s21.834 -23.334 27.501 -38.001s8.5 -31.334 8.5 -50.001c0 -49.333 -18.833 -87.5 -56.5 -114.5s-90.834 -40.5 -159.501 -40.5c-63.333 0 -110.166 10.667 -140.499 32s-45.5 52 -45.5 92c0 19.333 4 37.833 12 55.5s20.667 32.167 38 43.5
c-20 7.33301 -35.5 18.166 -46.5 32.499s-16.5 31.833 -16.5 52.5c0 17.333 5.5 33.666 16.5 48.999s28.167 28.333 51.5 39c-29.333 26.667 -44 69.334 -44 128.001c0 56.667 14 98.5 42 125.5s72.333 40.5 133 40.5c48 0 86.333 -8.66699 115 -26
c16 9.33301 29.833 20.666 41.5 33.999s19.834 26.333 24.501 39l38 -16c-5.33301 -20 -13.5 -38.667 -24.5 -56s-23.833 -31.666 -38.5 -42.999c14.667 -25.333 22 -58 22 -98c0 -56.667 -14.167 -98.334 -42.5 -125.001s-73.5 -40 -135.5 -40zM143.998 346.004
c0 -20.667 1.66602 -37.999 4.99902 -51.999s9 -25.333 17 -34s18.833 -14.834 32.5 -18.501s30.5 -5.5 50.5 -5.5c40.667 0 68.5 8 83.5 24s22.5 44.667 22.5 86s-8 70.166 -24 86.499s-43.333 24.5 -82 24.5c-39.333 0 -66.666 -8.16699 -81.999 -24.5
s-23 -45.166 -23 -86.499zM171.997 37.0049c-32 -16.667 -48.002 -44.667 -48.002 -84c0 -26.667 11 -46.167 33 -58.5s52.667 -18.5 92 -18.5c30.667 0 55.834 2.5 75.501 7.5s34.834 11.833 45.501 20.5s18 18.667 22 30s6 23.333 6 36c0 22.667 -6.83301 39.5 -20.5 50.5
s-40.167 16.5 -79.5 16.5h-126zM294.995 585.005l-84 0.00292969v39c0 36 6.16699 61.667 18.5 77s34.833 24.666 67.5 27.999l4 -31c-16.667 -2.66699 -28 -7.33398 -34 -14.001s-9 -17.334 -9 -32.001l37 -5v-62z" />
    <glyph glyph-name="Hcircumflex" unicode="&#x124;" horiz-adv-x="627" 
d="M165 725v-319h297v319h82v-725h-82v335h-297v-335h-82v725h82zM194 761l90 111h62l90 -111h-67l-54 68l-54 -68h-67z" />
    <glyph glyph-name="hcircumflex" unicode="&#x125;" horiz-adv-x="514" 
d="M147 0l-72.999 0.00195312v749h73v-297h2c16.667 20 37.167 35.167 61.5 45.5s51.166 15.5 80.499 15.5c54 0 94.833 -16.667 122.5 -50s41.5 -78 41.5 -134v-329h-73v328c0 39.333 -9 69.666 -27 90.999s-46 32 -84 32c-28 0 -52.833 -6.33301 -74.5 -19
s-38.167 -27.334 -49.5 -44.001v-388zM-9.99902 773.002l92 136h52l93 -136h-65l-54 87l-54 -87h-64z" />
    <glyph glyph-name="Hbar" unicode="&#x126;" horiz-adv-x="627" 
d="M165 725v-110h297v110h82v-110h67v-50h-67v-565h-82v335h-297v-335h-82v565h-69v50h69v110h82zM462 406v159h-297v-159h297z" />
    <glyph glyph-name="hbar" unicode="&#x127;" horiz-adv-x="514" 
d="M147 0l-72.999 0.00195312v595h-87v48h87v106h73v-106h119v-48h-119v-143h2c16.667 20 37.167 35.167 61.5 45.5s51.166 15.5 80.499 15.5c54 0 94.833 -16.667 122.5 -50s41.5 -78 41.5 -134v-329h-73v328c0 39.333 -9 69.666 -27 90.999s-46 32 -84 32
c-28 0 -52.833 -6.33301 -74.5 -19s-38.167 -27.334 -49.5 -44.001v-388z" />
    <glyph glyph-name="Itilde" unicode="&#x128;" horiz-adv-x="284" 
d="M183 725v-725h-82v725h82zM279 865c-5.33301 -35.333 -13.832 -62.667 -25.499 -82s-29.834 -29 -54.501 -29c-13.333 0 -25.333 3.83301 -36 11.5s-20.334 16 -29.001 25l-24.5 25c-7.66699 7.66699 -15.5 11.5 -23.5 11.5c-9.33301 0 -17 -5.33301 -23 -16
s-11.333 -27.667 -16 -51l-40 7c5.33301 36 13.833 63.5 25.5 82.5s29.5 28.5 53.5 28.5c14 0 26.333 -3.83301 37 -11.5s20.334 -16.167 29.001 -25.5l24.5 -25.5c7.66699 -7.66699 15.167 -11.5 22.5 -11.5c10 0 18 5.5 24 16.5s11.333 28.167 16 51.5z" />
    <glyph glyph-name="itilde" unicode="&#x129;" horiz-adv-x="230" 
d="M151 504v-504h-73v504h73zM255 716c-5.33301 -41.333 -13.8359 -73.332 -25.5029 -95.999s-30.167 -34 -55.5 -34c-14 0 -26.333 4.83301 -37 14.5s-20.167 20.167 -28.5 31.5l-24 31.5c-7.66699 9.66699 -15.5 14.5 -23.5 14.5c-9.33301 0 -16.833 -6.5 -22.5 -19.5
s-11.167 -34.5 -16.5 -64.5l-40 8c5.33301 42 13.833 74.333 25.5 97s29.834 34 54.501 34c14 0 26.333 -4.83301 37 -14.5s20.334 -20.334 29.001 -32.001l24.5 -32c7.66699 -9.66699 15.5 -14.5 23.5 -14.5c9.33301 0 16.833 6.66699 22.5 20s10.834 35 15.501 65z" />
    <glyph glyph-name="Imacron" unicode="&#x12a;" horiz-adv-x="284" 
d="M183 725v-725h-82v725h82zM271 799h-257v49h257v-49z" />
    <glyph glyph-name="imacron" unicode="&#x12b;" horiz-adv-x="230" 
d="M151 504v-504h-73v504h73zM235 629h-237v51h237v-51z" />
    <glyph glyph-name="Ibreve" unicode="&#x12c;" horiz-adv-x="284" 
d="M183 725v-725h-82v725h82zM78 872c2.66699 -30 9.16992 -50 19.5029 -60s25.166 -15 44.499 -15s34.166 5 44.499 15s16.5 30 18.5 60h56c-3.33301 -21.333 -7.66602 -39.5 -12.999 -54.5s-12.833 -27 -22.5 -36s-21.334 -15.5 -35.001 -19.5s-29.834 -6 -48.501 -6
c-19.333 0 -35.833 2 -49.5 6s-25.167 10.5 -34.5 19.5s-16.833 21 -22.5 36s-10.167 33.167 -13.5 54.5h56z" />
    <glyph glyph-name="ibreve" unicode="&#x12d;" horiz-adv-x="230" 
d="M151 504v-504h-73v504h73zM51 725c2.66699 -39.333 9 -66 19 -80s24.667 -21 44 -21s34.166 7 44.499 21s16.5 40.667 18.5 80h56c-3.33301 -27.333 -7.66602 -50.166 -12.999 -68.499s-12.666 -33 -21.999 -44s-20.833 -18.833 -34.5 -23.5s-30.167 -7 -49.5 -7
s-35.833 2.33301 -49.5 7s-25 12.5 -34 23.5s-16.333 25.667 -22 44s-9.83398 41.166 -12.501 68.499h55z" />
    <glyph glyph-name="Iogonek" unicode="&#x12e;" horiz-adv-x="284" 
d="M183 725l-0.000976562 -725.001h-7c-24 0 -42 -7.83301 -54 -23.5s-18 -32.5 -18 -50.5c0 -27.333 15.667 -41 47 -41c12.667 0 25.334 1.66699 38.001 5s24.667 9 36 17l16 -41c-12.667 -9.33301 -27.5 -16.833 -44.5 -22.5s-35.167 -8.5 -54.5 -8.5
c-32.667 0 -57.5 6.66699 -74.5 20s-25.5 32 -25.5 56c0 16.667 4.83301 33.334 14.5 50.001s24.5 30 44.5 40v724h82z" />
    <glyph glyph-name="iogonek" unicode="&#x12f;" horiz-adv-x="230" 
d="M151 504l0.000976562 -504c-10.667 0 -20.334 -2 -29.001 -6s-16.167 -9.33301 -22.5 -16s-11.166 -14.167 -14.499 -22.5s-5 -16.833 -5 -25.5c0 -30 16.333 -45 49 -45c12.667 0 24.667 1.66699 36 5s22.666 9 33.999 17l16 -41
c-12.667 -9.33301 -27.5 -16.833 -44.5 -22.5s-35.167 -8.5 -54.5 -8.5c-32.667 0 -57.5 7.5 -74.5 22.5s-25.5 34.5 -25.5 58.5c0 17.333 5 34.333 15 51s25.667 31 47 43v494h73zM151.001 725v-102h-71v102h71z" />
    <glyph glyph-name="Idotaccent" unicode="&#x130;" horiz-adv-x="284" 
d="M183 725v-725h-82v725h82zM182 872v-99h-79v99h79z" />
    <glyph glyph-name="dotlessi" unicode="&#x131;" horiz-adv-x="230" 
d="M151 504v-504h-73v504h73z" />
    <glyph glyph-name="IJ" unicode="&#x132;" horiz-adv-x="593" 
d="M183 725v-725h-82v725h82zM510 725v-610c0 -86 -21.333 -150 -64 -192s-105 -63.333 -187 -64l-6 65c60 0 104.167 14.667 132.5 44s42.5 78.333 42.5 147v610h82z" />
    <glyph glyph-name="ij" unicode="&#x133;" horiz-adv-x="466" 
d="M151 504v-504h-73v504h73zM150 725v-102h-71v102h71zM396 725v-102h-71v102h71zM218 -112c36 4.66699 62.833 18 80.5 40s26.5 54.667 26.5 98v478h73v-477c0 -62.667 -14.833 -110.167 -44.5 -142.5s-72.5 -50.5 -128.5 -54.5z" />
    <glyph glyph-name="Jcircumflex" unicode="&#x134;" horiz-adv-x="276" 
d="M193 725v-610c0 -86 -21.333 -150 -64 -192s-105 -63.333 -187 -64l-6 65c60 0 104.167 14.667 132.5 44s42.5 78.333 42.5 147v610h82zM30 761l90 111h62l90 -111h-67l-54 68l-54 -68h-67z" />
    <glyph glyph-name="jcircumflex" unicode="&#x135;" horiz-adv-x="229" 
d="M-12 -112c36 4.66699 62.833 18 80.5 40s26.5 54.667 26.5 98v478h73v-477c0 -62.667 -14.833 -110.167 -44.5 -142.5s-72.5 -50.5 -128.5 -54.5zM30 589l92 136h52l93 -136h-65l-54 87l-54 -87h-64z" />
    <glyph glyph-name="Kcommaaccent" unicode="&#x136;" horiz-adv-x="588" 
d="M474 0l-221 344l-88 -105v-239h-82v725h82v-397l286 397h98l-241 -325l263 -400h-97zM268 -36l84 -0.000976562v-40c0 -35.333 -6.16699 -60.666 -18.5 -75.999s-34.833 -24.666 -67.5 -27.999l-4 31c17.333 2.66699 28.833 7.16699 34.5 13.5s8.5 17.166 8.5 32.499
l-37 4v63z" />
    <glyph glyph-name="kcommaaccent" unicode="&#x137;" horiz-adv-x="492" 
d="M147 749v-514l223 269h84l-181 -216l203 -288h-87l-165 240l-77 -82v-158h-73v749h73zM212 -36l84 -0.000976562v-40c0 -35.333 -6.16699 -60.666 -18.5 -75.999s-34.833 -24.666 -67.5 -27.999l-4 31c17.333 2.66699 28.833 7.16699 34.5 13.5s8.5 17.166 8.5 32.499
l-37 4v63z" />
    <glyph glyph-name="kgreenlandic" unicode="&#x138;" horiz-adv-x="492" 
d="M147 504v-269l223 269h84l-181 -216l203 -288h-87l-165 240l-77 -82v-158h-73v504h73z" />
    <glyph glyph-name="Lacute" unicode="&#x139;" horiz-adv-x="484" 
d="M163 725v-653h296v-72h-376v725h80zM249 872l-95 -111h-65l65 111h95z" />
    <glyph glyph-name="lacute" unicode="&#x13a;" horiz-adv-x="236" 
d="M155 749v-749h-74v749h74zM236 910l-90 -136h-58l60 136h88z" />
    <glyph glyph-name="Lcommaaccent" unicode="&#x13b;" horiz-adv-x="484" 
d="M163 725v-653h296v-72h-376v725h80zM239 -36l84 -0.000976562v-40c0 -35.333 -6.16699 -60.666 -18.5 -75.999s-34.833 -24.666 -67.5 -27.999l-4 31c17.333 2.66699 28.833 7.16699 34.5 13.5s8.5 17.166 8.5 32.499l-37 4v63z" />
    <glyph glyph-name="lcommaaccent" unicode="&#x13c;" horiz-adv-x="236" 
d="M155 749v-749h-74v749h74zM79 -36l84 -0.000976562v-40c0 -35.333 -6.16699 -60.666 -18.5 -75.999s-34.833 -24.666 -67.5 -27.999l-4 31c17.333 2.66699 28.833 7.16699 34.5 13.5s8.5 17.166 8.5 32.499l-37 4v63z" />
    <glyph glyph-name="Lcaron" unicode="&#x13d;" horiz-adv-x="484" 
d="M163 725v-653h296v-72h-376v725h80zM360 725l-52 -136h-41l25 136h68z" />
    <glyph glyph-name="lcaron" unicode="&#x13e;" horiz-adv-x="236" 
d="M155 749v-749h-74v749h74zM282 749l-52 -136h-41l25 136h68z" />
    <glyph glyph-name="Ldot" unicode="&#x13f;" horiz-adv-x="484" 
d="M406 461v-100h-66v100h66zM163 725v-653h296v-72h-376v725h80z" />
    <glyph glyph-name="ldot" unicode="&#x140;" horiz-adv-x="251" 
d="M268 436v-112h-50v112h50zM155 749v-749h-74v749h74z" />
    <glyph glyph-name="Lslash" unicode="&#x141;" horiz-adv-x="494" 
d="M173 725v-326l186 104v-69l-186 -103v-259h296v-72h-376v297l-62 -33v68l62 33v360h80z" />
    <glyph glyph-name="lslash" unicode="&#x142;" horiz-adv-x="311" 
d="M185 749v-305l93 61v-64l-93 -59v-382h-74v343l-83 -53v64l83 52v343h74z" />
    <glyph glyph-name="Nacute" unicode="&#x143;" horiz-adv-x="627" 
d="M149 725l319 -552h2v552h74v-725h-60l-325 564h-2v-564h-74v725h66zM427 872l-95 -111h-65l65 111h95z" />
    <glyph glyph-name="nacute" unicode="&#x144;" horiz-adv-x="509" 
d="M142 0h-73v504h65l2 -56h2c36 43.333 85.333 65 148 65c54 0 94.833 -16.667 122.5 -50s41.5 -78 41.5 -134v-329h-73v328c0 39.333 -9 69.666 -27 90.999s-45.667 32 -83 32c-28.667 0 -53.667 -6.16699 -75 -18.5s-38 -27.166 -50 -44.499v-388zM364 725l-90 -136h-58
l60 136h88z" />
    <glyph glyph-name="Ncommaaccent" unicode="&#x145;" horiz-adv-x="627" 
d="M149 725l319 -552h2v552h74v-725h-60l-325 564h-2v-564h-74v725h66zM282 -36l84 -0.000976562v-40c0 -35.333 -6.16699 -60.666 -18.5 -75.999s-34.833 -24.666 -67.5 -27.999l-4 31c17.333 2.66699 28.833 7.16699 34.5 13.5s8.5 17.166 8.5 32.499l-37 4v63z" />
    <glyph glyph-name="ncommaaccent" unicode="&#x146;" horiz-adv-x="509" 
d="M142 0h-73v504h65l2 -56h2c36 43.333 85.333 65 148 65c54 0 94.833 -16.667 122.5 -50s41.5 -78 41.5 -134v-329h-73v328c0 39.333 -9 69.666 -27 90.999s-45.667 32 -83 32c-28.667 0 -53.667 -6.16699 -75 -18.5s-38 -27.166 -50 -44.499v-388zM219 -36
l84 -0.000976562v-40c0 -35.333 -6.16699 -60.666 -18.5 -75.999s-34.833 -24.666 -67.5 -27.999l-4 31c17.333 2.66699 28.833 7.16699 34.5 13.5s8.5 17.166 8.5 32.499l-37 4v63z" />
    <glyph glyph-name="Ncaron" unicode="&#x147;" horiz-adv-x="627" 
d="M149 725l319 -552h2v552h74v-725h-60l-325 564h-2v-564h-74v725h66zM265 872l52 -70l54 70h65l-93 -111h-52l-92 111h66z" />
    <glyph glyph-name="ncaron" unicode="&#x148;" horiz-adv-x="509" 
d="M142 0h-73v504h65l2 -56h2c36 43.333 85.333 65 148 65c54 0 94.833 -16.667 122.5 -50s41.5 -78 41.5 -134v-329h-73v328c0 39.333 -9 69.666 -27 90.999s-45.667 32 -83 32c-28.667 0 -53.667 -6.16699 -75 -18.5s-38 -27.166 -50 -44.499v-388zM201 725l54 -87l54 87
h64l-92 -136h-52l-92 136h64z" />
    <glyph glyph-name="napostrophe" unicode="&#x149;" horiz-adv-x="694" 
d="M48 743h90v-70c0 -58 -16 -109.667 -48 -155l-31 15c17.333 34.667 26 71.667 26 111l-37 6v93zM327 0h-73v504h65l2 -56h2c36 43.333 85.333 65 148 65c54 0 94.833 -16.667 122.5 -50s41.5 -78 41.5 -134v-329h-73v328c0 39.333 -9 69.666 -27 90.999
s-45.667 32 -83 32c-28.667 0 -53.667 -6.16699 -75 -18.5s-38 -27.166 -50 -44.499v-388z" />
    <glyph glyph-name="Eng" unicode="&#x14a;" horiz-adv-x="627" 
d="M83 0l0.000976562 724.999h66l319 -554h2v554h74v-673c0 -62.667 -15.333 -109.167 -46 -139.5s-76 -46.166 -136 -47.499l-5 61c30 0 54.667 7.5 74 22.5s31.666 40.5 36.999 76.5l-309 539h-2v-564h-74z" />
    <glyph glyph-name="eng" unicode="&#x14b;" horiz-adv-x="509" 
d="M272 -116c36.667 4 63.333 18.001 80 42.001s25 58 25 102v300c0 39.333 -9 69.666 -27 90.999s-45.667 32 -83 32c-28.667 0 -53.667 -6.16699 -75 -18.5s-38 -27.166 -50 -44.499v-388h-73v504h65l2 -56h2c36 43.333 85.333 65 148 65c54 0 94.833 -16.667 122.5 -50
s41.5 -78 41.5 -134v-301c0 -62.667 -14.833 -110.334 -44.5 -143.001s-72.167 -51 -127.5 -55z" />
    <glyph glyph-name="Omacron" unicode="&#x14c;" horiz-adv-x="602" 
d="M301 735c78.667 0 138.5 -21.668 179.5 -65.001s61.5 -102.666 61.5 -177.999v-258c0 -76 -20.5 -135.667 -61.5 -179s-100.833 -65 -179.5 -65s-138.667 21.667 -180 65s-62 103 -62 179v257c0 76 20.667 135.667 62 179s101.333 65 180 65zM460 490.999
c0 116.667 -53 175 -159 175c-106.667 0 -160 -58.333 -160 -175v-257c0 -117.333 53.333 -176 160 -176c106 0 159 58.667 159 176v257zM430 798.999h-257v49h257v-49z" />
    <glyph glyph-name="omacron" unicode="&#x14d;" horiz-adv-x="480" 
d="M431 168c0 -26 -4.16699 -49.8311 -12.5 -71.498s-20.666 -40.334 -36.999 -56.001s-36.333 -27.834 -60 -36.501s-50.834 -13 -81.501 -13c-62 0 -109.333 16.5 -142 49.5s-49 75.5 -49 127.5v166c0 26 4.16699 49.833 12.5 71.5s20.5 40.5 36.5 56.5
s35.833 28.5 59.5 37.5s51.167 13.5 82.5 13.5c30.667 0 58 -4.5 82 -13.5s44 -21.333 60 -37s28.167 -34.5 36.5 -56.5s12.5 -46 12.5 -72v-166zM122 171.002c0 -37.333 9.5 -67 28.5 -89s48.833 -33 89.5 -33s70.5 11 89.5 33s28.5 51.667 28.5 89v161
c0 37.333 -9.5 67.166 -28.5 89.499s-48.833 33.5 -89.5 33.5c-41.333 0 -71.333 -11.167 -90 -33.5s-28 -52.166 -28 -89.499v-161zM358 629.002h-237v51h237v-51z" />
    <glyph glyph-name="Obreve" unicode="&#x14e;" horiz-adv-x="602" 
d="M301 735c78.667 0 138.5 -21.668 179.5 -65.001s61.5 -102.666 61.5 -177.999v-258c0 -76 -20.5 -135.667 -61.5 -179s-100.833 -65 -179.5 -65s-138.667 21.667 -180 65s-62 103 -62 179v257c0 76 20.667 135.667 62 179s101.333 65 180 65zM460 490.999
c0 116.667 -53 175 -159 175c-106.667 0 -160 -58.333 -160 -175v-257c0 -117.333 53.333 -176 160 -176c106 0 159 58.667 159 176v257zM237 871.999c2.66699 -30 9.16992 -50 19.5029 -60s25.166 -15 44.499 -15s34.166 5 44.499 15s16.5 30 18.5 60h56
c-3.33301 -21.333 -7.66602 -39.5 -12.999 -54.5s-12.833 -27 -22.5 -36s-21.334 -15.5 -35.001 -19.5s-29.834 -6 -48.501 -6c-19.333 0 -35.833 2 -49.5 6s-25.167 10.5 -34.5 19.5s-16.833 21 -22.5 36s-10.167 33.167 -13.5 54.5h56z" />
    <glyph glyph-name="obreve" unicode="&#x14f;" horiz-adv-x="480" 
d="M431 168c0 -26 -4.16699 -49.8311 -12.5 -71.498s-20.666 -40.334 -36.999 -56.001s-36.333 -27.834 -60 -36.501s-50.834 -13 -81.501 -13c-62 0 -109.333 16.5 -142 49.5s-49 75.5 -49 127.5v166c0 26 4.16699 49.833 12.5 71.5s20.5 40.5 36.5 56.5
s35.833 28.5 59.5 37.5s51.167 13.5 82.5 13.5c30.667 0 58 -4.5 82 -13.5s44 -21.333 60 -37s28.167 -34.5 36.5 -56.5s12.5 -46 12.5 -72v-166zM122 171.002c0 -37.333 9.5 -67 28.5 -89s48.833 -33 89.5 -33s70.5 11 89.5 33s28.5 51.667 28.5 89v161
c0 37.333 -9.5 67.166 -28.5 89.499s-48.833 33.5 -89.5 33.5c-41.333 0 -71.333 -11.167 -90 -33.5s-28 -52.166 -28 -89.499v-161zM176 725.002c2.66699 -39.333 9 -66 19 -80s24.667 -21 44 -21s34.166 7 44.499 21s16.5 40.667 18.5 80h56
c-3.33301 -27.333 -7.66602 -50.166 -12.999 -68.499s-12.666 -33 -21.999 -44s-20.833 -18.833 -34.5 -23.5s-30.167 -7 -49.5 -7s-35.833 2.33301 -49.5 7s-25 12.5 -34 23.5s-16.333 25.667 -22 44s-9.83398 41.166 -12.501 68.499h55z" />
    <glyph glyph-name="Ohungarumlaut" unicode="&#x150;" horiz-adv-x="602" 
d="M301 735c78.667 0 138.5 -21.668 179.5 -65.001s61.5 -102.666 61.5 -177.999v-258c0 -76 -20.5 -135.667 -61.5 -179s-100.833 -65 -179.5 -65s-138.667 21.667 -180 65s-62 103 -62 179v257c0 76 20.667 135.667 62 179s101.333 65 180 65zM460 490.999
c0 116.667 -53 175 -159 175c-106.667 0 -160 -58.333 -160 -175v-257c0 -117.333 53.333 -176 160 -176c106 0 159 58.667 159 176v257zM336 871.999l-74 -111h-51l44 111h81zM472 871.999l-90 -111h-52l61 111h81z" />
    <glyph glyph-name="ohungarumlaut" unicode="&#x151;" horiz-adv-x="480" 
d="M431 168c0 -26 -4.16699 -49.8311 -12.5 -71.498s-20.666 -40.334 -36.999 -56.001s-36.333 -27.834 -60 -36.501s-50.834 -13 -81.501 -13c-62 0 -109.333 16.5 -142 49.5s-49 75.5 -49 127.5v166c0 26 4.16699 49.833 12.5 71.5s20.5 40.5 36.5 56.5
s35.833 28.5 59.5 37.5s51.167 13.5 82.5 13.5c30.667 0 58 -4.5 82 -13.5s44 -21.333 60 -37s28.167 -34.5 36.5 -56.5s12.5 -46 12.5 -72v-166zM122 171.002c0 -37.333 9.5 -67 28.5 -89s48.833 -33 89.5 -33s70.5 11 89.5 33s28.5 51.667 28.5 89v161
c0 37.333 -9.5 67.166 -28.5 89.499s-48.833 33.5 -89.5 33.5c-41.333 0 -71.333 -11.167 -90 -33.5s-28 -52.166 -28 -89.499v-161zM277 725.002l-77 -136h-50l47 136h80zM412 725.002l-93 -136h-49l63 136h79z" />
    <glyph glyph-name="OE" unicode="&#x152;" horiz-adv-x="914" 
d="M862 725v-72h-320v-246h256v-65h-256v-271h335v-71h-417v71h-2c-16.667 -26 -39.167 -46 -67.5 -60s-63.166 -21 -104.499 -21c-35.333 0 -67 5.66699 -95 17s-51.833 27.5 -71.5 48.5s-34.667 46.5 -45 76.5s-15.5 64 -15.5 102v257c0 38 5.16699 72 15.5 102
s25.333 55.5 45 76.5s43.5 37.167 71.5 48.5s59.667 17 95 17c41.333 0 76.166 -7.16699 104.499 -21.5s50.833 -34.5 67.5 -60.5h2v72h402zM460 491c0 116 -53 174 -159 174c-106.667 0 -160 -58 -160 -174v-257c0 -116.667 53.333 -175 160 -175c106 0 159 58.333 159 175
v257z" />
    <glyph glyph-name="oe" unicode="&#x153;" horiz-adv-x="758" 
d="M430 244l-0.00195312 -75.999c0 -38 9.33301 -67.5 28 -88.5s47 -31.5 85 -31.5c33.333 0 59.666 7.83301 78.999 23.5s34 38.167 44 67.5l51 -22c-15.333 -40 -37.5 -71.167 -66.5 -93.5s-66.5 -33.5 -112.5 -33.5c-37.333 0 -68.166 7.33301 -92.499 22
s-42.166 33.667 -53.499 57c-13.333 -24.667 -33.166 -44 -59.499 -58s-59.166 -21 -98.499 -21c-30 0 -56.5 4.83301 -79.5 14.5s-42.333 22.5 -58 38.5s-27.5 34.667 -35.5 56s-12 43.666 -12 66.999v171c0 24 4 46.667 12 68s19.833 40 35.5 56s35 28.833 58 38.5
s49.5 14.5 79.5 14.5c39.333 0 72 -7.16699 98 -21.5s46 -33.166 60 -56.499c13.333 23.333 32 42.166 56 56.499s55 21.5 93 21.5c27.333 0 51.666 -4.83301 72.999 -14.5s39.5 -22.667 54.5 -39s26.333 -35.333 34 -57s11.5 -44.5 11.5 -68.5v-91h-284zM354.998 333.001
c0 40 -9.83301 70.5 -29.5 91.5s-48.5 31.5 -86.5 31.5s-66.667 -10.5 -86 -31.5s-29 -51.5 -29 -91.5v-162c0 -40.667 9.5 -71.667 28.5 -93s47.5 -32 85.5 -32s67 10.667 87 32s30 52.333 30 93v162zM429.998 292.001l217 -0.000976562v48c0 36 -9.5 64.167 -28.5 84.5
s-45.5 30.5 -79.5 30.5c-38 0 -65.667 -10.167 -83 -30.5s-26 -49.166 -26 -86.499v-46z" />
    <glyph glyph-name="Racute" unicode="&#x154;" horiz-adv-x="576" 
d="M282 317h-117v-317h-82v725h218c70 0 121.833 -17.167 155.5 -51.5s50.5 -82.833 50.5 -145.5c0 -56.667 -12.333 -101.667 -37 -135s-60.667 -54.333 -108 -63l191 -330h-94zM165 383h131.998c48.667 0 82.334 12.5 101.001 37.5s28 59.5 28 103.5s-9.16699 77 -27.5 99
s-51.166 33 -98.499 33h-135v-273zM373.998 872l-95 -111h-65l65 111h95z" />
    <glyph glyph-name="racute" unicode="&#x155;" horiz-adv-x="348" 
d="M321 432c-15.333 8 -32.333 12 -51 12c-38.667 0 -68.667 -14.5 -90 -43.5s-34 -66.167 -38 -111.5v-289h-73v504h64l3 -96h2c14 36 32.333 62.333 55 79s48.667 25 78 25c10 0 20.5 -1.16699 31.5 -3.5s20.833 -5.83301 29.5 -10.5zM301 725l-90 -136h-58l60 136h88z
" />
    <glyph glyph-name="Rcommaaccent" unicode="&#x156;" horiz-adv-x="576" 
d="M282 317h-117v-317h-82v725h218c70 0 121.833 -17.167 155.5 -51.5s50.5 -82.833 50.5 -145.5c0 -56.667 -12.333 -101.667 -37 -135s-60.667 -54.333 -108 -63l191 -330h-94zM165 383h131.998c48.667 0 82.334 12.5 101.001 37.5s28 59.5 28 103.5s-9.16699 77 -27.5 99
s-51.166 33 -98.499 33h-135v-273zM254.998 -36l84 -0.000976562v-40c0 -35.333 -6.16699 -60.666 -18.5 -75.999s-34.833 -24.666 -67.5 -27.999l-4 31c17.333 2.66699 28.833 7.16699 34.5 13.5s8.5 17.166 8.5 32.499l-37 4v63z" />
    <glyph glyph-name="rcommaaccent" unicode="&#x157;" horiz-adv-x="348" 
d="M321 432c-15.333 8 -32.333 12 -51 12c-38.667 0 -68.667 -14.5 -90 -43.5s-34 -66.167 -38 -111.5v-289h-73v504h64l3 -96h2c14 36 32.333 62.333 55 79s48.667 25 78 25c10 0 20.5 -1.16699 31.5 -3.5s20.833 -5.83301 29.5 -10.5zM66 -36l84 -0.000976562v-40
c0 -35.333 -6.16699 -60.666 -18.5 -75.999s-34.833 -24.666 -67.5 -27.999l-4 31c17.333 2.66699 28.833 7.16699 34.5 13.5s8.5 17.166 8.5 32.499l-37 4v63z" />
    <glyph glyph-name="Rcaron" unicode="&#x158;" horiz-adv-x="576" 
d="M282 317h-117v-317h-82v725h218c70 0 121.833 -17.167 155.5 -51.5s50.5 -82.833 50.5 -145.5c0 -56.667 -12.333 -101.667 -37 -135s-60.667 -54.333 -108 -63l191 -330h-94zM165 383h131.998c48.667 0 82.334 12.5 101.001 37.5s28 59.5 28 103.5s-9.16699 77 -27.5 99
s-51.166 33 -98.499 33h-135v-273zM217.998 872l52 -70l54 70h65l-93 -111h-52l-92 111h66z" />
    <glyph glyph-name="rcaron" unicode="&#x159;" horiz-adv-x="348" 
d="M321 432c-15.333 8 -32.333 12 -51 12c-38.667 0 -68.667 -14.5 -90 -43.5s-34 -66.167 -38 -111.5v-289h-73v504h64l3 -96h2c14 36 32.333 62.333 55 79s48.667 25 78 25c10 0 20.5 -1.16699 31.5 -3.5s20.833 -5.83301 29.5 -10.5zM141 725l54 -87l54 87h64l-92 -136
h-52l-92 136h64z" />
    <glyph glyph-name="Sacute" unicode="&#x15a;" horiz-adv-x="492" 
d="M242 735c52 0 96.499 -12.6621 133.499 -37.9951s63.167 -59 78.5 -101l-58 -26c-11.333 30.667 -29.833 54.667 -55.5 72s-56.5 26 -92.5 26c-23.333 0 -43.333 -2.83301 -60 -8.5s-30.167 -13.5 -40.5 -23.5s-17.833 -21.833 -22.5 -35.5s-7 -28.5 -7 -44.5
c0 -28.667 8.5 -52.334 25.5 -71.001s38.333 -35 64 -49s53.334 -27.333 83.001 -40s57.334 -27.834 83.001 -45.501s47 -39.167 64 -64.5s25.5 -57.333 25.5 -96c0 -64.667 -19.5 -114.167 -58.5 -148.5s-91.167 -51.5 -156.5 -51.5c-26 0 -50.667 3.66699 -74 11
s-44.5 17.833 -63.5 31.5s-35.5 30.334 -49.5 50.001s-24.667 42.167 -32 67.5l64 25c12 -38.667 32 -67.834 60 -87.501s59.333 -29.5 94 -29.5c44.667 0 78.667 10.333 102 31s35 52 35 94c0 30.667 -8.5 55.5 -25.5 74.5s-38.5 35.5 -64.5 49.5
s-53.833 27.167 -83.5 39.5s-57.5 27.166 -83.5 44.499s-47.5 38.5 -64.5 63.5s-25.5 57.5 -25.5 97.5c0 26 4.66699 50.167 14 72.5s22.666 41.666 39.999 57.999s38.833 29.166 64.5 38.499s54.5 14 86.5 14zM369.999 872.005l-95 -111h-65l65 111h95z" />
    <glyph glyph-name="sacute" unicode="&#x15b;" horiz-adv-x="416" 
d="M327 387c-11.333 25.333 -26.166 43.5039 -44.499 54.5039s-40.166 16.5 -65.499 16.5c-32.667 0 -56.667 -7.33301 -72 -22s-23 -32.667 -23 -54c0 -19.333 6.33301 -34.833 19 -46.5s28.5 -21.834 47.5 -30.501s39.667 -16.834 62 -24.501s43 -17.334 62 -29.001
s34.833 -26.334 47.5 -44.001s19 -40.834 19 -69.501c0 -22 -4 -42 -12 -60s-19.167 -33.5 -33.5 -46.5s-31.333 -23 -51 -30s-41.5 -10.5 -65.5 -10.5c-40 0 -74.667 8.66699 -104 26s-52.333 45 -69 83l48 24c12.667 -28.667 30 -49 52 -61s45.333 -18 70 -18
c32 0 56 7.83301 72 23.5s24 36.834 24 63.501c0 20 -6.33301 36.167 -19 48.5s-28.667 22.833 -48 31.5s-40 16.834 -62 24.501s-42.667 17.167 -62 28.5s-35.333 25.666 -48 42.999s-19 40 -19 68c0 18.667 3.5 36.167 10.5 52.5s17.167 30.833 30.5 43.5
s30.166 22.667 50.499 30s44.166 11 71.499 11c38 0 70.833 -8.83301 98.5 -26.5s48.5 -43.5 62.5 -77.5zM328 725.004l-90 -136h-58l60 136h88z" />
    <glyph glyph-name="Scircumflex" unicode="&#x15c;" horiz-adv-x="492" 
d="M242 735c52 0 96.499 -12.6621 133.499 -37.9951s63.167 -59 78.5 -101l-58 -26c-11.333 30.667 -29.833 54.667 -55.5 72s-56.5 26 -92.5 26c-23.333 0 -43.333 -2.83301 -60 -8.5s-30.167 -13.5 -40.5 -23.5s-17.833 -21.833 -22.5 -35.5s-7 -28.5 -7 -44.5
c0 -28.667 8.5 -52.334 25.5 -71.001s38.333 -35 64 -49s53.334 -27.333 83.001 -40s57.334 -27.834 83.001 -45.501s47 -39.167 64 -64.5s25.5 -57.333 25.5 -96c0 -64.667 -19.5 -114.167 -58.5 -148.5s-91.167 -51.5 -156.5 -51.5c-26 0 -50.667 3.66699 -74 11
s-44.5 17.833 -63.5 31.5s-35.5 30.334 -49.5 50.001s-24.667 42.167 -32 67.5l64 25c12 -38.667 32 -67.834 60 -87.501s59.333 -29.5 94 -29.5c44.667 0 78.667 10.333 102 31s35 52 35 94c0 30.667 -8.5 55.5 -25.5 74.5s-38.5 35.5 -64.5 49.5
s-53.833 27.167 -83.5 39.5s-57.5 27.166 -83.5 44.499s-47.5 38.5 -64.5 63.5s-25.5 57.5 -25.5 97.5c0 26 4.66699 50.167 14 72.5s22.666 41.666 39.999 57.999s38.833 29.166 64.5 38.499s54.5 14 86.5 14zM137.999 761.005l90 111h62l90 -111h-67l-54 68l-54 -68h-67z
" />
    <glyph glyph-name="scircumflex" unicode="&#x15d;" horiz-adv-x="416" 
d="M327 387c-11.333 25.333 -26.166 43.5039 -44.499 54.5039s-40.166 16.5 -65.499 16.5c-32.667 0 -56.667 -7.33301 -72 -22s-23 -32.667 -23 -54c0 -19.333 6.33301 -34.833 19 -46.5s28.5 -21.834 47.5 -30.501s39.667 -16.834 62 -24.501s43 -17.334 62 -29.001
s34.833 -26.334 47.5 -44.001s19 -40.834 19 -69.501c0 -22 -4 -42 -12 -60s-19.167 -33.5 -33.5 -46.5s-31.333 -23 -51 -30s-41.5 -10.5 -65.5 -10.5c-40 0 -74.667 8.66699 -104 26s-52.333 45 -69 83l48 24c12.667 -28.667 30 -49 52 -61s45.333 -18 70 -18
c32 0 56 7.83301 72 23.5s24 36.834 24 63.501c0 20 -6.33301 36.167 -19 48.5s-28.667 22.833 -48 31.5s-40 16.834 -62 24.501s-42.667 17.167 -62 28.5s-35.333 25.666 -48 42.999s-19 40 -19 68c0 18.667 3.5 36.167 10.5 52.5s17.167 30.833 30.5 43.5
s30.166 22.667 50.499 30s44.166 11 71.499 11c38 0 70.833 -8.83301 98.5 -26.5s48.5 -43.5 62.5 -77.5zM100 589.004l92 136h52l93 -136h-65l-54 87l-54 -87h-64z" />
    <glyph glyph-name="Scedilla" unicode="&#x15e;" horiz-adv-x="492" 
d="M242 735c52 0 96.499 -12.6621 133.499 -37.9951s63.167 -59 78.5 -101l-58 -26c-11.333 30.667 -29.833 54.667 -55.5 72s-56.5 26 -92.5 26c-23.333 0 -43.333 -2.83301 -60 -8.5s-30.167 -13.5 -40.5 -23.5s-17.833 -21.833 -22.5 -35.5s-7 -28.5 -7 -44.5
c0 -28.667 8.5 -52.334 25.5 -71.001s38.333 -35 64 -49s53.334 -27.333 83.001 -40s57.334 -27.834 83.001 -45.501s47 -39.167 64 -64.5s25.5 -57.333 25.5 -96c0 -64.667 -19.5 -114.167 -58.5 -148.5s-91.167 -51.5 -156.5 -51.5c-26 0 -50.667 3.66699 -74 11
s-44.5 17.833 -63.5 31.5s-35.5 30.334 -49.5 50.001s-24.667 42.167 -32 67.5l64 25c12 -38.667 32 -67.834 60 -87.501s59.333 -29.5 94 -29.5c44.667 0 78.667 10.333 102 31s35 52 35 94c0 30.667 -8.5 55.5 -25.5 74.5s-38.5 35.5 -64.5 49.5
s-53.833 27.167 -83.5 39.5s-57.5 27.166 -83.5 44.499s-47.5 38.5 -64.5 63.5s-25.5 57.5 -25.5 97.5c0 26 4.66699 50.167 14 72.5s22.666 41.666 39.999 57.999s38.833 29.166 64.5 38.499s54.5 14 86.5 14zM272.999 15.0049l-8 -48.9971
c31.333 -3.33301 52.5 -10.333 63.5 -21s16.5 -23.667 16.5 -39c0 -21.333 -9.83301 -38.833 -29.5 -52.5s-48.5 -22.167 -86.5 -25.5l-12 38c26.667 4.66699 44.667 9.66699 54 15s14 12.666 14 21.999c0 7.33301 -4.66699 13.666 -14 18.999s-29 8.66602 -59 9.99902
l18 86z" />
    <glyph glyph-name="scedilla" unicode="&#x15f;" horiz-adv-x="416" 
d="M327 387c-11.333 25.333 -26.166 43.5039 -44.499 54.5039s-40.166 16.5 -65.499 16.5c-32.667 0 -56.667 -7.33301 -72 -22s-23 -32.667 -23 -54c0 -19.333 6.33301 -34.833 19 -46.5s28.5 -21.834 47.5 -30.501s39.667 -16.834 62 -24.501s43 -17.334 62 -29.001
s34.833 -26.334 47.5 -44.001s19 -40.834 19 -69.501c0 -22 -4 -42 -12 -60s-19.167 -33.5 -33.5 -46.5s-31.333 -23 -51 -30s-41.5 -10.5 -65.5 -10.5c-40 0 -74.667 8.66699 -104 26s-52.333 45 -69 83l48 24c12.667 -28.667 30 -49 52 -61s45.333 -18 70 -18
c32 0 56 7.83301 72 23.5s24 36.834 24 63.501c0 20 -6.33301 36.167 -19 48.5s-28.667 22.833 -48 31.5s-40 16.834 -62 24.501s-42.667 17.167 -62 28.5s-35.333 25.666 -48 42.999s-19 40 -19 68c0 18.667 3.5 36.167 10.5 52.5s17.167 30.833 30.5 43.5
s30.166 22.667 50.499 30s44.166 11 71.499 11c38 0 70.833 -8.83301 98.5 -26.5s48.5 -43.5 62.5 -77.5zM233 15.0039l-8 -48.9971c31.333 -3.33301 52.5 -10.333 63.5 -21s16.5 -23.667 16.5 -39c0 -21.333 -9.83301 -38.833 -29.5 -52.5s-48.5 -22.167 -86.5 -25.5
l-12 38c26.667 4.66699 44.667 9.66699 54 15s14 12.666 14 21.999c0 7.33301 -4.66699 13.666 -14 18.999s-29 8.66602 -59 9.99902l18 86z" />
    <glyph glyph-name="Scaron" unicode="&#x160;" horiz-adv-x="492" 
d="M242 735c52 0 96.499 -12.6621 133.499 -37.9951s63.167 -59 78.5 -101l-58 -26c-11.333 30.667 -29.833 54.667 -55.5 72s-56.5 26 -92.5 26c-23.333 0 -43.333 -2.83301 -60 -8.5s-30.167 -13.5 -40.5 -23.5s-17.833 -21.833 -22.5 -35.5s-7 -28.5 -7 -44.5
c0 -28.667 8.5 -52.334 25.5 -71.001s38.333 -35 64 -49s53.334 -27.333 83.001 -40s57.334 -27.834 83.001 -45.501s47 -39.167 64 -64.5s25.5 -57.333 25.5 -96c0 -64.667 -19.5 -114.167 -58.5 -148.5s-91.167 -51.5 -156.5 -51.5c-26 0 -50.667 3.66699 -74 11
s-44.5 17.833 -63.5 31.5s-35.5 30.334 -49.5 50.001s-24.667 42.167 -32 67.5l64 25c12 -38.667 32 -67.834 60 -87.501s59.333 -29.5 94 -29.5c44.667 0 78.667 10.333 102 31s35 52 35 94c0 30.667 -8.5 55.5 -25.5 74.5s-38.5 35.5 -64.5 49.5
s-53.833 27.167 -83.5 39.5s-57.5 27.166 -83.5 44.499s-47.5 38.5 -64.5 63.5s-25.5 57.5 -25.5 97.5c0 26 4.66699 50.167 14 72.5s22.666 41.666 39.999 57.999s38.833 29.166 64.5 38.499s54.5 14 86.5 14zM201.999 872.005l52 -70l54 70h65l-93 -111h-52l-92 111h66z
" />
    <glyph glyph-name="scaron" unicode="&#x161;" horiz-adv-x="416" 
d="M327 387c-11.333 25.333 -26.166 43.5039 -44.499 54.5039s-40.166 16.5 -65.499 16.5c-32.667 0 -56.667 -7.33301 -72 -22s-23 -32.667 -23 -54c0 -19.333 6.33301 -34.833 19 -46.5s28.5 -21.834 47.5 -30.501s39.667 -16.834 62 -24.501s43 -17.334 62 -29.001
s34.833 -26.334 47.5 -44.001s19 -40.834 19 -69.501c0 -22 -4 -42 -12 -60s-19.167 -33.5 -33.5 -46.5s-31.333 -23 -51 -30s-41.5 -10.5 -65.5 -10.5c-40 0 -74.667 8.66699 -104 26s-52.333 45 -69 83l48 24c12.667 -28.667 30 -49 52 -61s45.333 -18 70 -18
c32 0 56 7.83301 72 23.5s24 36.834 24 63.501c0 20 -6.33301 36.167 -19 48.5s-28.667 22.833 -48 31.5s-40 16.834 -62 24.501s-42.667 17.167 -62 28.5s-35.333 25.666 -48 42.999s-19 40 -19 68c0 18.667 3.5 36.167 10.5 52.5s17.167 30.833 30.5 43.5
s30.166 22.667 50.499 30s44.166 11 71.499 11c38 0 70.833 -8.83301 98.5 -26.5s48.5 -43.5 62.5 -77.5zM164 725.004l54 -87l54 87h64l-92 -136h-52l-92 136h64z" />
    <glyph glyph-name="Tcommaaccent" unicode="&#x162;" horiz-adv-x="484" 
d="M468 725v-72h-185v-653h-82v653h-185v72h452zM266 15l-8 -48.9971c31.333 -3.33301 52.5 -10.333 63.5 -21s16.5 -23.667 16.5 -39c0 -21.333 -9.83301 -38.833 -29.5 -52.5s-48.5 -22.167 -86.5 -25.5l-12 38c26.667 4.66699 44.667 9.66699 54 15s14 12.666 14 21.999
c0 7.33301 -4.66699 13.666 -14 18.999s-29 8.66602 -59 9.99902l18 86z" />
    <glyph glyph-name="tcommaaccent" unicode="&#x163;" horiz-adv-x="330" 
d="M295 447h-130v-316c0 -30 6.33301 -50.833 19 -62.5s29.667 -17.5 51 -17.5c18 0 34 3.33301 48 10l10 -46c-11.333 -6.66699 -23.5 -12 -36.5 -16s-28.167 -6 -45.5 -6c-42 0 -72.667 12 -92 36s-29 59 -29 105v309l-68 13v46l71 4l19 144h53v-146h130v-57zM179 15
l-8 -48.9971c31.333 -3.33301 52.5 -10.333 63.5 -21s16.5 -23.667 16.5 -39c0 -21.333 -9.83301 -38.833 -29.5 -52.5s-48.5 -22.167 -86.5 -25.5l-12 38c26.667 4.66699 44.667 9.66699 54 15s14 12.666 14 21.999c0 7.33301 -4.66699 13.666 -14 18.999
s-29 8.66602 -59 9.99902l18 86z" />
    <glyph glyph-name="Tcaron" unicode="&#x164;" horiz-adv-x="484" 
d="M468 725v-72h-185v-653h-82v653h-185v72h452zM190 872l52 -70l54 70h65l-93 -111h-52l-92 111h66z" />
    <glyph glyph-name="tcaron" unicode="&#x165;" horiz-adv-x="330" 
d="M295 447h-130v-316c0 -30 6.33301 -50.833 19 -62.5s29.667 -17.5 51 -17.5c18 0 34 3.33301 48 10l10 -46c-11.333 -6.66699 -23.5 -12 -36.5 -16s-28.167 -6 -45.5 -6c-42 0 -72.667 12 -92 36s-29 59 -29 105v309l-68 13v46l71 4l19 144h53v-146h130v-57zM329 725
l-52 -136h-41l25 136h68z" />
    <glyph glyph-name="Tbar" unicode="&#x166;" horiz-adv-x="484" 
d="M468 725v-72h-185v-230h122v-51h-122v-372h-82v372h-123v51h123v230h-185v72h452z" />
    <glyph glyph-name="tbar" unicode="&#x167;" horiz-adv-x="331" 
d="M295 447h-130v-69h131v-50h-131v-197c0 -30 6.33301 -50.833 19 -62.5s29.667 -17.5 51 -17.5c18 0 34 3.33301 48 10l10 -46c-11.333 -6.66699 -23.5 -12 -36.5 -16s-28.167 -6 -45.5 -6c-42 0 -72.667 12 -92 36s-29 59 -29 105v194h-64v50h64v65l-68 13v46l71 4
l19 144h53v-146h130v-57z" />
    <glyph glyph-name="Utilde" unicode="&#x168;" horiz-adv-x="628" 
d="M555 725v-496.999c0 -74.667 -20.667 -133 -62 -175s-101 -63 -179 -63c-77.333 0 -137 20.667 -179 62s-63 99 -63 173v500h83v-500c0 -30.667 4.16699 -56.334 12.5 -77.001s19.833 -37.334 34.5 -50.001s31.5 -21.667 50.5 -27s39.5 -8 61.5 -8
c51.333 0 90.833 12.833 118.5 38.5s41.5 66.834 41.5 123.501v500h81zM453 865.001c-5.33301 -35.333 -13.832 -62.667 -25.499 -82s-29.834 -29 -54.501 -29c-13.333 0 -25.333 3.83301 -36 11.5s-20.334 16 -29.001 25l-24.5 25c-7.66699 7.66699 -15.5 11.5 -23.5 11.5
c-9.33301 0 -17 -5.33301 -23 -16s-11.333 -27.667 -16 -51l-40 7c5.33301 36 13.833 63.5 25.5 82.5s29.5 28.5 53.5 28.5c14 0 26.333 -3.83301 37 -11.5s20.334 -16.167 29.001 -25.5l24.5 -25.5c7.66699 -7.66699 15.167 -11.5 22.5 -11.5c10 0 18 5.5 24 16.5
s11.333 28.167 16 51.5z" />
    <glyph glyph-name="utilde" unicode="&#x169;" horiz-adv-x="509" 
d="M367 504h73v-504h-65l-4 54h-2c-36 -42 -84.667 -63 -146 -63c-54 0 -95 16.833 -123 50.5s-42 78.167 -42 133.5v329h74v-330c0 -38 9 -67.833 27 -89.5s45.667 -32.5 83 -32.5c28.667 0 53.667 6 75 18s38 26.667 50 44v390zM392 716
c-5.33301 -41.333 -13.8359 -73.332 -25.5029 -95.999s-30.167 -34 -55.5 -34c-14 0 -26.333 4.83301 -37 14.5s-20.167 20.167 -28.5 31.5l-24 31.5c-7.66699 9.66699 -15.5 14.5 -23.5 14.5c-9.33301 0 -16.833 -6.5 -22.5 -19.5s-11.167 -34.5 -16.5 -64.5l-40 8
c5.33301 42 13.833 74.333 25.5 97s29.834 34 54.501 34c14 0 26.333 -4.83301 37 -14.5s20.334 -20.334 29.001 -32.001l24.5 -32c7.66699 -9.66699 15.5 -14.5 23.5 -14.5c9.33301 0 16.833 6.66699 22.5 20s10.834 35 15.501 65z" />
    <glyph glyph-name="Umacron" unicode="&#x16a;" horiz-adv-x="628" 
d="M555 725v-496.999c0 -74.667 -20.667 -133 -62 -175s-101 -63 -179 -63c-77.333 0 -137 20.667 -179 62s-63 99 -63 173v500h83v-500c0 -30.667 4.16699 -56.334 12.5 -77.001s19.833 -37.334 34.5 -50.001s31.5 -21.667 50.5 -27s39.5 -8 61.5 -8
c51.333 0 90.833 12.833 118.5 38.5s41.5 66.834 41.5 123.501v500h81zM443 799.001h-257v49h257v-49z" />
    <glyph glyph-name="umacron" unicode="&#x16b;" horiz-adv-x="509" 
d="M367 504h73v-504h-65l-4 54h-2c-36 -42 -84.667 -63 -146 -63c-54 0 -95 16.833 -123 50.5s-42 78.167 -42 133.5v329h74v-330c0 -38 9 -67.833 27 -89.5s45.667 -32.5 83 -32.5c28.667 0 53.667 6 75 18s38 26.667 50 44v390zM373 629h-237v51h237v-51z" />
    <glyph glyph-name="Ubreve" unicode="&#x16c;" horiz-adv-x="628" 
d="M555 725v-496.999c0 -74.667 -20.667 -133 -62 -175s-101 -63 -179 -63c-77.333 0 -137 20.667 -179 62s-63 99 -63 173v500h83v-500c0 -30.667 4.16699 -56.334 12.5 -77.001s19.833 -37.334 34.5 -50.001s31.5 -21.667 50.5 -27s39.5 -8 61.5 -8
c51.333 0 90.833 12.833 118.5 38.5s41.5 66.834 41.5 123.501v500h81zM251 872.001c2.66699 -30 9.16992 -50 19.5029 -60s25.166 -15 44.499 -15s34.166 5 44.499 15s16.5 30 18.5 60h56c-3.33301 -21.333 -7.66602 -39.5 -12.999 -54.5s-12.833 -27 -22.5 -36
s-21.334 -15.5 -35.001 -19.5s-29.834 -6 -48.501 -6c-19.333 0 -35.833 2 -49.5 6s-25.167 10.5 -34.5 19.5s-16.833 21 -22.5 36s-10.167 33.167 -13.5 54.5h56z" />
    <glyph glyph-name="ubreve" unicode="&#x16d;" horiz-adv-x="509" 
d="M367 504h73v-504h-65l-4 54h-2c-36 -42 -84.667 -63 -146 -63c-54 0 -95 16.833 -123 50.5s-42 78.167 -42 133.5v329h74v-330c0 -38 9 -67.833 27 -89.5s45.667 -32.5 83 -32.5c28.667 0 53.667 6 75 18s38 26.667 50 44v390zM190 725c2.66699 -39.333 9 -66 19 -80
s24.667 -21 44 -21s34.166 7 44.499 21s16.5 40.667 18.5 80h56c-3.33301 -27.333 -7.66602 -50.166 -12.999 -68.499s-12.666 -33 -21.999 -44s-20.833 -18.833 -34.5 -23.5s-30.167 -7 -49.5 -7s-35.833 2.33301 -49.5 7s-25 12.5 -34 23.5s-16.333 25.667 -22 44
s-9.83398 41.166 -12.501 68.499h55z" />
    <glyph glyph-name="Uring" unicode="&#x16e;" horiz-adv-x="628" 
d="M555 725v-496.999c0 -74.667 -20.667 -133 -62 -175s-101 -63 -179 -63c-77.333 0 -137 20.667 -179 62s-63 99 -63 173v500h83v-500c0 -30.667 4.16699 -56.334 12.5 -77.001s19.833 -37.334 34.5 -50.001s31.5 -21.667 50.5 -27s39.5 -8 61.5 -8
c51.333 0 90.833 12.833 118.5 38.5s41.5 66.834 41.5 123.501v500h81zM232 823.001c0 21.333 7.83301 39.166 23.5 53.499s35.834 21.5 60.501 21.5c23.333 0 43 -7.16699 59 -21.5s24 -32.166 24 -53.499s-8 -39 -24 -53s-35.667 -21 -59 -21
c-24.667 0 -44.834 7 -60.501 21s-23.5 31.667 -23.5 53zM276 823.001c0 -11.333 3.66699 -20.833 11 -28.5s17 -11.5 29 -11.5c11.333 0 20.666 3.83301 27.999 11.5s11 17.167 11 28.5s-3.66699 21 -11 29s-16.666 12 -27.999 12c-12 0 -21.667 -4 -29 -12
s-11 -17.667 -11 -29z" />
    <glyph glyph-name="uring" unicode="&#x16f;" horiz-adv-x="509" 
d="M367 504h73v-504h-65l-4 54h-2c-36 -42 -84.667 -63 -146 -63c-54 0 -95 16.833 -123 50.5s-42 78.167 -42 133.5v329h74v-330c0 -38 9 -67.833 27 -89.5s45.667 -32.5 83 -32.5c28.667 0 53.667 6 75 18s38 26.667 50 44v390zM168 664
c0 23.333 7.83301 42.833 23.5 58.5s35.834 23.5 60.501 23.5c24 0 43.833 -7.83301 59.5 -23.5s23.5 -35.167 23.5 -58.5s-8 -42.666 -24 -57.999s-35.667 -23 -59 -23c-24.667 0 -44.834 7.66699 -60.501 23s-23.5 34.666 -23.5 57.999zM212 664
c0 -13.333 3.5 -24 10.5 -32s16.833 -12 29.5 -12c12 0 21.5 4 28.5 12s10.5 18.667 10.5 32c0 12.667 -3.5 23.334 -10.5 32.001s-16.5 13 -28.5 13c-12.667 0 -22.5 -4.33301 -29.5 -13s-10.5 -19.334 -10.5 -32.001z" />
    <glyph glyph-name="Uhungarumlaut" unicode="&#x170;" horiz-adv-x="628" 
d="M555 725v-496.999c0 -74.667 -20.667 -133 -62 -175s-101 -63 -179 -63c-77.333 0 -137 20.667 -179 62s-63 99 -63 173v500h83v-500c0 -30.667 4.16699 -56.334 12.5 -77.001s19.833 -37.334 34.5 -50.001s31.5 -21.667 50.5 -27s39.5 -8 61.5 -8
c51.333 0 90.833 12.833 118.5 38.5s41.5 66.834 41.5 123.501v500h81zM339 872.001l-74 -111h-51l44 111h81zM475 872.001l-90 -111h-52l61 111h81z" />
    <glyph glyph-name="uhungarumlaut" unicode="&#x171;" horiz-adv-x="509" 
d="M367 504h73v-504h-65l-4 54h-2c-36 -42 -84.667 -63 -146 -63c-54 0 -95 16.833 -123 50.5s-42 78.167 -42 133.5v329h74v-330c0 -38 9 -67.833 27 -89.5s45.667 -32.5 83 -32.5c28.667 0 53.667 6 75 18s38 26.667 50 44v390zM289 725l-77 -136h-50l47 136h80zM424 725
l-93 -136h-49l63 136h79z" />
    <glyph glyph-name="Uogonek" unicode="&#x172;" horiz-adv-x="628" 
d="M555 725l0.000976562 -496.998c0 -63.333 -14.833 -114.833 -44.5 -154.5s-72.834 -65.167 -129.501 -76.5c-23.333 -4.66699 -43.5 -12.667 -60.5 -24s-25.5 -28 -25.5 -50c0 -25.333 15.333 -38 46 -38c12.667 0 25.334 1.66699 38.001 5s24.667 9 36 17l16 -41
c-12.667 -9.33301 -27.334 -16.833 -44.001 -22.5s-35 -8.5 -55 -8.5c-66 0 -99 24.333 -99 73c0 17.333 5 33.166 15 47.499s24.667 26.5 44 36.5h-3c-69.333 4 -122.833 26.333 -160.5 67s-56.5 96 -56.5 166v500h83v-500c0 -30.667 4.16699 -56.334 12.5 -77.001
s19.833 -37.334 34.5 -50.001s31.5 -21.667 50.5 -27s39.5 -8 61.5 -8c51.333 0 90.833 12.833 118.5 38.5s41.5 66.834 41.5 123.501v500h81z" />
    <glyph glyph-name="uogonek" unicode="&#x173;" horiz-adv-x="509" 
d="M367 504h73v-504h-3c-10.667 0 -20.334 -2 -29.001 -6s-16.167 -9.33301 -22.5 -16s-11.166 -14.167 -14.499 -22.5s-5 -16.833 -5 -25.5c0 -30 16.333 -45 49 -45c12.667 0 24.667 1.66699 36 5s22.666 9 33.999 17l16 -41c-12.667 -9.33301 -27.5 -16.833 -44.5 -22.5
s-35.167 -8.5 -54.5 -8.5c-32.667 0 -57.5 6.66699 -74.5 20s-25.5 32 -25.5 56c0 18.667 5.83301 37 17.5 55s29.834 31.667 54.501 41l-3 47h-2c-36 -42 -84.667 -63 -146 -63c-54 0 -95 16.833 -123 50.5s-42 78.167 -42 133.5v329h74v-330c0 -38 9 -67.833 27 -89.5
s45.667 -32.5 83 -32.5c28.667 0 53.667 6 75 18s38 26.667 50 44v390z" />
    <glyph glyph-name="Wcircumflex" unicode="&#x174;" horiz-adv-x="915" 
d="M695 0h-89l-147 593h-2l-149 -593h-89l-179 725h83l142 -625h2l153 625h76l151 -627h2l144 627h83zM336 761l90 111h62l90 -111h-67l-54 68l-54 -68h-67z" />
    <glyph glyph-name="wcircumflex" unicode="&#x175;" horiz-adv-x="717" 
d="M359 422h-2l-111 -422h-81l-143 504h77l108 -430h2l114 430h71l113 -432h2l108 432h78l-145 -504h-80zM240 589l92 136h52l93 -136h-65l-54 87l-54 -87h-64z" />
    <glyph glyph-name="Ycircumflex" unicode="&#x176;" horiz-adv-x="561" 
d="M321 248v-248h-82v248l-229 477h93l176 -402h2l178 402h91zM160 761l90 111h62l90 -111h-67l-54 68l-54 -68h-67z" />
    <glyph glyph-name="ycircumflex" unicode="&#x177;" horiz-adv-x="504" 
d="M284 -30c-16.667 -44.667 -38.332 -78.3311 -64.999 -100.998s-62.334 -35.334 -107.001 -38.001l-6 53c30.667 4.66699 54.667 14.167 72 28.5s31.333 37.166 42 68.499l9 27l-206 496h82l159 -414h2l138 414h77zM148.002 589.003l92 136h52l93 -136h-65l-54 87l-54 -87
h-64z" />
    <glyph glyph-name="Ydieresis" unicode="&#x178;" horiz-adv-x="561" 
d="M321 248v-248h-82v248l-229 477h93l176 -402h2l178 402h91zM226 871v-98h-61v98h61zM396 871v-98h-62v98h62z" />
    <glyph glyph-name="Zacute" unicode="&#x179;" 
d="M486 0h-447v51l348 603h-330v71h429v-48l-350 -606h350v-71zM386 872l-95 -111h-65l65 111h95z" />
    <glyph glyph-name="zacute" unicode="&#x17a;" horiz-adv-x="430" 
d="M387 0h-346v47l260 397h-248v60h337v-46l-262 -398h259v-60zM330 725l-90 -136h-58l60 136h88z" />
    <glyph glyph-name="Zdotaccent" unicode="&#x17b;" 
d="M486 0h-447v51l348 603h-330v71h429v-48l-350 -606h350v-71zM314 872v-99h-79v99h79z" />
    <glyph glyph-name="zdotaccent" unicode="&#x17c;" horiz-adv-x="430" 
d="M387 0h-346v47l260 397h-248v60h337v-46l-262 -398h259v-60zM258 725v-102h-71v102h71z" />
    <glyph glyph-name="Zcaron" unicode="&#x17d;" 
d="M486 0h-447v51l348 603h-330v71h429v-48l-350 -606h350v-71zM222 872l52 -70l54 70h65l-93 -111h-52l-92 111h66z" />
    <glyph glyph-name="zcaron" unicode="&#x17e;" horiz-adv-x="430" 
d="M387 0h-346v47l260 397h-248v60h337v-46l-262 -398h259v-60zM169 725l54 -87l54 87h64l-92 -136h-52l-92 136h64z" />
    <glyph glyph-name="longs" unicode="&#x17f;" horiz-adv-x="288" 
d="M317 677c-24 -1.33301 -44.167 -5.33203 -60.5 -11.999s-29.5 -15.834 -39.5 -27.501s-17.167 -25.5 -21.5 -41.5s-6.5 -33.333 -6.5 -52v-544h-73v450h-94v54h94v41c0 24.667 3.5 48 10.5 70s18.333 41.167 34 57.5s36 29.5 61 39.5s55.5 15.667 91.5 17z" />
    <glyph glyph-name="uni018F" unicode="&#x18f;" horiz-adv-x="579" 
d="M51 368h386.004v129c0 51.333 -13.5 92.666 -40.5 123.999s-68.167 47 -123.5 47c-34.667 0 -66.167 -8 -94.5 -24s-48.833 -44.667 -61.5 -86l-61 22c7.33301 27.333 18 50.833 32 70.5s30.667 35.667 50 48s40.666 21.5 63.999 27.5s48 9 74 9
c39.333 0 74.166 -5.83301 104.499 -17.5s55.666 -28.167 75.999 -49.5s35.833 -46.833 46.5 -76.5s16 -62.167 16 -97.5v-256c0 -36 -4.5 -69.167 -13.5 -99.5s-23.167 -56.5 -42.5 -78.5s-44.166 -39.167 -74.499 -51.5s-66.833 -18.5 -109.5 -18.5
c-38.667 0 -72.334 6 -101.001 18s-52.334 28.5 -71.001 49.5s-32.667 45.833 -42 74.5s-14 59.334 -14 92.001v144zM278.004 57c56.667 0 97.334 15.833 122.001 47.5s37 75.167 37 130.5v78h-312v-92c0 -52 12.667 -92.333 38 -121s63.666 -43 114.999 -43z" />
    <glyph glyph-name="florin" unicode="&#x192;" horiz-adv-x="332" 
d="M316 450l-136 0.000976562l-97 -524h-72l95 524h-66l10 54h66l8 41c4.66699 24.667 12.667 48 24 70s26.5 41.167 45.5 57.5s42 29.5 69 39.5s58.5 15.667 94.5 17l-6 -52c-24.667 -1.33301 -46 -5.33301 -64 -12s-33.167 -15.834 -45.5 -27.501s-22.333 -25.5 -30 -41.5
s-13.5 -33.333 -17.5 -52l-7 -40h139z" />
    <glyph glyph-name="uni01B5" unicode="&#x1b5;" 
d="M69 405h174l144 249h-330v71h429v-48l-157 -272h139v-60h-174l-158 -274h350v-71h-447v51l169 294h-139v60z" />
    <glyph glyph-name="uni01B6" unicode="&#x1b6;" horiz-adv-x="430" 
d="M62 291h139l100 153h-248v60h337v-46l-110 -167h103v-51h-137l-118 -180h259v-60h-346v47l126 193h-105v51z" />
    <glyph glyph-name="Aringacute" unicode="&#x1fa;" horiz-adv-x="605" 
d="M427 931l-80.001 -92.999c12 -6.66699 21.5 -15.5 28.5 -26.5s10.5 -23.5 10.5 -37.5c0 -13.333 -3.16699 -25.333 -9.5 -36s-15.166 -19.334 -26.499 -26.001l242 -712h-86l-61 191h-288l-60 -191h-84l241 712c-23.333 14 -35 34.667 -35 62
c0 18.667 5.83301 34.5 17.5 47.5s27.167 21.5 46.5 25.5l49 84h95zM177.999 256.001h247l-123 389h-2zM262.999 774.001c0 -11.333 3.66699 -20.833 11 -28.5s17 -11.5 29 -11.5c11.333 0 20.666 3.83301 27.999 11.5s11 17.167 11 28.5s-3.66699 21 -11 29
s-16.666 12 -27.999 12c-12 0 -21.667 -4 -29 -12s-11 -17.667 -11 -29z" />
    <glyph glyph-name="aringacute" unicode="&#x1fb;" horiz-adv-x="458" 
d="M59 406c19.333 32 42.4961 57.998 69.4961 77.998s60.5 30 100.5 30c28 0 51.833 -4.33301 71.5 -13s35.834 -20.667 48.501 -36s22 -33.5 28 -54.5s9 -43.833 9 -68.5v-253c0 -14 3.5 -25 10.5 -33s17.5 -12 31.5 -12h14v-44
c-5.33301 -1.33301 -11.166 -2.66602 -17.499 -3.99902s-13.166 -2 -20.499 -2c-21.333 0 -39 4.83301 -53 14.5s-24 21.834 -30 36.501c-18.667 -17.333 -39.667 -30.5 -63 -39.5s-48 -13.5 -74 -13.5c-44.667 0 -79.334 12 -104.001 36s-37 56.333 -37 97
c0 23.333 3.66699 44.833 11 64.5s19.833 36.834 37.5 51.501s40.834 26 69.501 34s64.334 12 107.001 12h45v55c0 75.333 -31 113 -93 113c-24.667 0 -46.5 -6.83301 -65.5 -20.5s-35.833 -32.834 -50.5 -57.501zM197.996 45.998c25.333 0 47 4.5 65 13.5
s34.667 22.167 50 39.5v135h-45c-30 0 -54.833 -2.5 -74.5 -7.5s-35.334 -12 -47.001 -21s-20 -20 -25 -33s-7.5 -27.5 -7.5 -43.5c0 -29.333 7.33301 -50.5 22 -63.5s35.334 -19.5 62.001 -19.5zM144.996 632.998c0 23.333 7.83301 42.833 23.5 58.5
s35.834 23.5 60.501 23.5c24 0 43.833 -7.83301 59.5 -23.5s23.5 -35.167 23.5 -58.5s-8 -42.666 -24 -57.999s-35.667 -23 -59 -23c-24.667 0 -44.834 7.66699 -60.501 23s-23.5 34.666 -23.5 57.999zM188.996 632.998c0 -13.333 3.5 -24 10.5 -32s16.833 -12 29.5 -12
c12 0 21.5 4 28.5 12s10.5 18.667 10.5 32c0 12.667 -3.5 23.334 -10.5 32.001s-16.5 13 -28.5 13c-12.667 0 -22.5 -4.33301 -29.5 -13s-10.5 -19.334 -10.5 -32.001zM340.996 887.998l-90 -136h-58l60 136h88z" />
    <glyph glyph-name="AEacute" unicode="&#x1fc;" horiz-adv-x="859" 
d="M100 0h-85l354 725h441v-72h-322l24 -246h256v-65h-250l25 -271h278v-71h-355l-17 193h-257zM223 258h220l-33 388h-2zM657 872l-95 -111h-65l65 111h95z" />
    <glyph glyph-name="aeacute" unicode="&#x1fd;" horiz-adv-x="724" 
d="M404 243l0.000976562 -75.001c0 -38 8.66699 -67.5 26 -88.5s45 -31.5 83 -31.5c32 0 57.333 7.83301 76 23.5s33.334 38.167 44.001 67.5l50 -22c-15.333 -40 -37 -71.167 -65 -93.5s-65 -33.5 -111 -33.5c-40 0 -71.667 7.83301 -95 23.5s-40.666 36.167 -51.999 61.5
h-2c-17.333 -30.667 -41.666 -52.5 -72.999 -65.5s-64 -19.5 -98 -19.5c-45.333 0 -80.666 12.333 -105.999 37s-38 57.334 -38 98.001c0 23.333 3.83301 45 11.5 65s20.5 37.5 38.5 52.5s41.833 26.833 71.5 35.5s66.5 13 110.5 13h54v58c0 34 -9 59.833 -27 77.5
s-43 26.5 -75 26.5c-26 0 -48.5 -7.5 -67.5 -22.5s-33.167 -35.167 -42.5 -60.5l-52 24c13.333 36 34.666 65 63.999 87s63 33 101 33c35.333 0 64.166 -6.66699 86.499 -20s39.166 -30.666 50.499 -51.999h2c12 21.333 29.333 38.666 52 51.999s52 20 88 20
c27.333 0 51.666 -4.83301 72.999 -14.5s39.166 -22.667 53.499 -39s25.333 -35.333 33 -57s11.5 -44.5 11.5 -68.5v-92h-276zM202.001 46.999c12.667 0 25.8301 1.66797 39.4971 5.00098s26.334 8.5 38.001 15.5s21.834 15.5 30.501 25.5s15 22 19 36v108h-54
c-30.667 0 -56.167 -2.83301 -76.5 -8.5s-36.666 -13.334 -48.999 -23.001s-21 -21 -26 -34s-7.5 -27.167 -7.5 -42.5c0 -54.667 28.667 -82 86 -82zM403.997 291l209 -0.000976562v49c0 36 -8.83301 64.167 -26.5 84.5s-43.5 30.5 -77.5 30.5c-38 0 -65 -10.167 -81 -30.5
s-24 -49.166 -24 -86.499v-47zM491.997 724.999l-90 -136h-58l60 136h88z" />
    <glyph glyph-name="Oslashacute" unicode="&#x1fe;" horiz-adv-x="602" 
d="M301 735c40.667 0 76.502 -6.16602 107.502 -18.499s56.5 -29.833 76.5 -52.5l42 60l32 -25l-49 -70c21.333 -38.667 32 -84.334 32 -137.001v-258c0 -76 -20.5 -135.667 -61.5 -179s-100.833 -65 -179.5 -65c-40.667 0 -76.334 6 -107.001 18s-56.334 29 -77.001 51
l-39 -57l-31 25l46 66c-22.667 39.333 -34 86.333 -34 141v257c0 76 20.667 135.667 62 179s101.333 65 180 65zM141.002 234.001c0 -11.333 0.5 -22.668 1.5 -34.001s2.16699 -21.666 3.5 -30.999l292 426c-24 47.333 -69.667 71 -137 71
c-106.667 0 -160 -58.333 -160 -175v-257zM460.002 490.999c0 10.667 -0.500977 21 -1.50098 31s-2.16699 19.667 -3.5 29l-291 -424c24.667 -46 70.334 -69 137.001 -69c106 0 159 58.667 159 176v257zM419.001 871.999l-95 -111h-65l65 111h95z" />
    <glyph glyph-name="oslashacute" unicode="&#x1ff;" horiz-adv-x="480" 
d="M431 168c0 -26 -4.16797 -49.832 -12.501 -71.499s-20.666 -40.334 -36.999 -56.001s-36.333 -27.834 -60 -36.501s-50.834 -13 -81.501 -13c-60 0 -106.667 15.667 -140 47l-28 -36l-31 25l33 43c-16.667 26.667 -25 59.334 -25 98.001v166
c0 26 4.16699 49.833 12.5 71.5s20.5 40.5 36.5 56.5s35.833 28.5 59.5 37.5s51.167 13.5 82.5 13.5c30.667 0 57.834 -4.5 81.501 -13.5s43.5 -21.167 59.5 -36.5l30 38l32 -25l-36 -46c16 -27.333 24 -59.333 24 -96v-166zM121.999 171.001
c0 -6 0.166016 -12.168 0.499023 -18.501s0.833008 -12.833 1.5 -19.5l215 276c-9.33301 14.667 -22.166 26 -38.499 34s-36.5 12 -60.5 12c-41.333 0 -71.333 -11.167 -90 -33.5s-28 -52.166 -28 -89.499v-161zM357.998 332c0 5.33301 -0.165039 10.833 -0.498047 16.5
s-0.833008 11.5 -1.5 17.5l-214 -274c9.33301 -13.333 22.166 -23.833 38.499 -31.5s36.166 -11.5 59.499 -11.5c40.667 0 70.5 11 89.5 33s28.5 51.667 28.5 89v161zM353 725l-90 -136h-58l60 136h88z" />
    <glyph glyph-name="Scommaaccent" unicode="&#x218;" horiz-adv-x="492" 
d="M242 735c52 0 96.499 -12.6621 133.499 -37.9951s63.167 -59 78.5 -101l-58 -26c-11.333 30.667 -29.833 54.667 -55.5 72s-56.5 26 -92.5 26c-23.333 0 -43.333 -2.83301 -60 -8.5s-30.167 -13.5 -40.5 -23.5s-17.833 -21.833 -22.5 -35.5s-7 -28.5 -7 -44.5
c0 -28.667 8.5 -52.334 25.5 -71.001s38.333 -35 64 -49s53.334 -27.333 83.001 -40s57.334 -27.834 83.001 -45.501s47 -39.167 64 -64.5s25.5 -57.333 25.5 -96c0 -64.667 -19.5 -114.167 -58.5 -148.5s-91.167 -51.5 -156.5 -51.5c-26 0 -50.667 3.66699 -74 11
s-44.5 17.833 -63.5 31.5s-35.5 30.334 -49.5 50.001s-24.667 42.167 -32 67.5l64 25c12 -38.667 32 -67.834 60 -87.501s59.333 -29.5 94 -29.5c44.667 0 78.667 10.333 102 31s35 52 35 94c0 30.667 -8.5 55.5 -25.5 74.5s-38.5 35.5 -64.5 49.5
s-53.833 27.167 -83.5 39.5s-57.5 27.166 -83.5 44.499s-47.5 38.5 -64.5 63.5s-25.5 57.5 -25.5 97.5c0 26 4.66699 50.167 14 72.5s22.666 41.666 39.999 57.999s38.833 29.166 64.5 38.499s54.5 14 86.5 14zM209.999 -35.9951l84 -0.000976562v-40
c0 -35.333 -6.16699 -60.666 -18.5 -75.999s-34.833 -24.666 -67.5 -27.999l-4 31c17.333 2.66699 28.833 7.16699 34.5 13.5s8.5 17.166 8.5 32.499l-37 4v63z" />
    <glyph glyph-name="scommaaccent" unicode="&#x219;" horiz-adv-x="416" 
d="M327 387c-11.333 25.333 -26.166 43.5039 -44.499 54.5039s-40.166 16.5 -65.499 16.5c-32.667 0 -56.667 -7.33301 -72 -22s-23 -32.667 -23 -54c0 -19.333 6.33301 -34.833 19 -46.5s28.5 -21.834 47.5 -30.501s39.667 -16.834 62 -24.501s43 -17.334 62 -29.001
s34.833 -26.334 47.5 -44.001s19 -40.834 19 -69.501c0 -22 -4 -42 -12 -60s-19.167 -33.5 -33.5 -46.5s-31.333 -23 -51 -30s-41.5 -10.5 -65.5 -10.5c-40 0 -74.667 8.66699 -104 26s-52.333 45 -69 83l48 24c12.667 -28.667 30 -49 52 -61s45.333 -18 70 -18
c32 0 56 7.83301 72 23.5s24 36.834 24 63.501c0 20 -6.33301 36.167 -19 48.5s-28.667 22.833 -48 31.5s-40 16.834 -62 24.501s-42.667 17.167 -62 28.5s-35.333 25.666 -48 42.999s-19 40 -19 68c0 18.667 3.5 36.167 10.5 52.5s17.167 30.833 30.5 43.5
s30.166 22.667 50.499 30s44.166 11 71.499 11c38 0 70.833 -8.83301 98.5 -26.5s48.5 -43.5 62.5 -77.5zM173 -35.9961l84 -0.000976562v-40c0 -35.333 -6.16699 -60.666 -18.5 -75.999s-34.833 -24.666 -67.5 -27.999l-4 31c17.333 2.66699 28.833 7.16699 34.5 13.5
s8.5 17.166 8.5 32.499l-37 4v63z" />
    <glyph glyph-name="uni021A" unicode="&#x21a;" horiz-adv-x="484" 
d="M468 725v-72h-185v-653h-82v653h-185v72h452zM200 -36l84 -0.000976562v-40c0 -35.333 -6.16699 -60.666 -18.5 -75.999s-34.833 -24.666 -67.5 -27.999l-4 31c17.333 2.66699 28.833 7.16699 34.5 13.5s8.5 17.166 8.5 32.499l-37 4v63z" />
    <glyph glyph-name="uni021B" unicode="&#x21b;" horiz-adv-x="330" 
d="M295 447h-130v-316c0 -30 6.33301 -50.833 19 -62.5s29.667 -17.5 51 -17.5c18 0 34 3.33301 48 10l10 -46c-11.333 -6.66699 -23.5 -12 -36.5 -16s-28.167 -6 -45.5 -6c-42 0 -72.667 12 -92 36s-29 59 -29 105v309l-68 13v46l71 4l19 144h53v-146h130v-57zM157 -36
l84 -0.000976562v-40c0 -35.333 -6.16699 -60.666 -18.5 -75.999s-34.833 -24.666 -67.5 -27.999l-4 31c17.333 2.66699 28.833 7.16699 34.5 13.5s8.5 17.166 8.5 32.499l-37 4v63z" />
    <glyph glyph-name="uni0237" unicode="&#x237;" horiz-adv-x="213" 
d="M-28 -112c36 4.66699 62.833 18 80.5 40s26.5 54.667 26.5 98v478h73v-477c0 -62.667 -14.833 -110.167 -44.5 -142.5s-72.5 -50.5 -128.5 -54.5z" />
    <glyph glyph-name="uni0259" unicode="&#x259;" horiz-adv-x="455" 
d="M332 253l0.000976562 78.001c0 39.333 -10.333 69.833 -31 91.5s-50 32.5 -88 32.5c-29.333 0 -53.333 -6.83301 -72 -20.5s-34.667 -36.167 -48 -67.5l-53 20c28 84 87.333 126 178 126c30 0 56.667 -4.5 80 -13.5s43 -21.5 59 -37.5s28 -35 36 -57s12 -46 12 -72v-163
c0 -26 -4 -49.833 -12 -71.5s-19.833 -40.5 -35.5 -56.5s-34.834 -28.5 -57.501 -37.5s-48.667 -13.5 -78 -13.5c-28.667 0 -54.167 4.66699 -76.5 14s-41.333 22.166 -57 38.499s-27.5 35.5 -35.5 57.5s-12 46 -12 72v80h291zM220.001 48.001c38 0 66.167 10.833 84.5 32.5
s27.5 50.5 27.5 86.5v38h-226v-40c0 -36 10 -64.5 30 -85.5s48 -31.5 84 -31.5z" />
    <glyph glyph-name="uni02BB" unicode="&#x2bb;" horiz-adv-x="185" 
d="M138 602h-91v70c0 30 4.33301 58 13 84s20.667 50 36 72l29 -16c-8.66699 -18 -14.667 -35.833 -18 -53.5s-5 -36.5 -5 -56.5l36 -6v-94z" />
    <glyph glyph-name="afii57929" unicode="&#x2bc;" horiz-adv-x="185" 
d="M48 743h90v-70c0 -58 -16 -109.667 -48 -155l-31 15c17.333 34.667 26 71.667 26 111l-37 6v93z" />
    <glyph glyph-name="circumflex" unicode="&#x2c6;" horiz-adv-x="273" 
d="M18 589l92 136h52l93 -136h-65l-54 87l-54 -87h-64z" />
    <glyph glyph-name="caron" unicode="&#x2c7;" horiz-adv-x="273" 
d="M82 725l54 -87l54 87h64l-92 -136h-52l-92 136h64z" />
    <glyph glyph-name="breve" unicode="&#x2d8;" horiz-adv-x="273" 
d="M73 725c2.66699 -39.333 9 -66 19 -80s24.667 -21 44 -21s34.166 7 44.499 21s16.5 40.667 18.5 80h56c-3.33301 -27.333 -7.66602 -50.166 -12.999 -68.499s-12.666 -33 -21.999 -44s-20.833 -18.833 -34.5 -23.5s-30.167 -7 -49.5 -7s-35.833 2.33301 -49.5 7
s-25 12.5 -34 23.5s-16.333 25.667 -22 44s-9.83398 41.166 -12.501 68.499h55z" />
    <glyph glyph-name="dotaccent" unicode="&#x2d9;" horiz-adv-x="273" 
d="M121 725v-102h-71v102h71z" />
    <glyph glyph-name="ring" unicode="&#x2da;" horiz-adv-x="273" 
d="M53 664c0 23.333 7.83301 42.833 23.5 58.5s35.834 23.5 60.501 23.5c24 0 43.833 -7.83301 59.5 -23.5s23.5 -35.167 23.5 -58.5s-8 -42.666 -24 -57.999s-35.667 -23 -59 -23c-24.667 0 -44.834 7.66699 -60.501 23s-23.5 34.666 -23.5 57.999zM97 664
c0 -13.333 3.5 -24 10.5 -32s16.833 -12 29.5 -12c12 0 21.5 4 28.5 12s10.5 18.667 10.5 32c0 12.667 -3.5 23.334 -10.5 32.001s-16.5 13 -28.5 13c-12.667 0 -22.5 -4.33301 -29.5 -13s-10.5 -19.334 -10.5 -32.001z" />
    <glyph glyph-name="ogonek" unicode="&#x2db;" horiz-adv-x="273" 
d="M188 4c-28.667 -8.66699 -49.5 -20.333 -62.5 -35s-19.5 -30 -19.5 -46c0 -25.333 15.333 -38 46 -38c12.667 0 25.334 1.66699 38.001 5s24.667 9 36 17l16 -41c-12.667 -9.33301 -27.334 -16.833 -44.001 -22.5s-35 -8.5 -55 -8.5c-66 0 -99 24.333 -99 73
c0 24 9.5 44.833 28.5 62.5s45.5 31.167 79.5 40.5z" />
    <glyph glyph-name="tilde" unicode="&#x2dc;" horiz-adv-x="273" 
d="M273 716c-5.33301 -41.333 -13.8359 -73.332 -25.5029 -95.999s-30.167 -34 -55.5 -34c-14 0 -26.333 4.83301 -37 14.5s-20.167 20.167 -28.5 31.5l-24 31.5c-7.66699 9.66699 -15.5 14.5 -23.5 14.5c-9.33301 0 -16.833 -6.5 -22.5 -19.5s-11.167 -34.5 -16.5 -64.5
l-40 8c5.33301 42 13.833 74.333 25.5 97s29.834 34 54.501 34c14 0 26.333 -4.83301 37 -14.5s20.334 -20.334 29.001 -32.001l24.5 -32c7.66699 -9.66699 15.5 -14.5 23.5 -14.5c9.33301 0 16.833 6.66699 22.5 20s10.834 35 15.501 65z" />
    <glyph glyph-name="hungarumlaut" unicode="&#x2dd;" horiz-adv-x="273" 
d="M176 725l-77 -136h-50l47 136h80zM311 725l-93 -136h-49l63 136h79z" />
    <glyph glyph-name="gravecomb" unicode="&#x300;" horiz-adv-x="1" 
d="M-155 725l71 -136h-59l-99 136h87z" />
    <glyph glyph-name="acutecomb" unicode="&#x301;" horiz-adv-x="1" 
d="M-52 725l-90 -136h-58l60 136h88z" />
    <glyph glyph-name="uni0302" unicode="&#x302;" horiz-adv-x="1" 
d="M-227 589l92 136h52l93 -136h-65l-54 87l-54 -87h-64z" />
    <glyph glyph-name="tildecomb" unicode="&#x303;" horiz-adv-x="1" 
d="M-6 716c-5.33301 -41.333 -13.8359 -73.332 -25.5029 -95.999s-30.167 -34 -55.5 -34c-14 0 -26.333 4.83301 -37 14.5s-20.167 20.167 -28.5 31.5l-24 31.5c-7.66699 9.66699 -15.5 14.5 -23.5 14.5c-9.33301 0 -16.833 -6.5 -22.5 -19.5s-11.167 -34.5 -16.5 -64.5
l-40 8c5.33301 42 13.833 74.333 25.5 97s29.834 34 54.501 34c14 0 26.333 -4.83301 37 -14.5s20.334 -20.334 29.001 -32.001l24.5 -32c7.66699 -9.66699 15.5 -14.5 23.5 -14.5c9.33301 0 16.833 6.66699 22.5 20s10.834 35 15.501 65z" />
    <glyph glyph-name="uni0304" unicode="&#x304;" horiz-adv-x="1" 
d="M-16 629h-237v51h237v-51z" />
    <glyph glyph-name="uni0306" unicode="&#x306;" horiz-adv-x="1" 
d="M-202 725c2.66699 -39.333 9 -66 19 -80s24.667 -21 44 -21s34.166 7 44.499 21s16.5 40.667 18.5 80h56c-3.33301 -27.333 -7.66602 -50.166 -12.999 -68.499s-12.666 -33 -21.999 -44s-20.833 -18.833 -34.5 -23.5s-30.167 -7 -49.5 -7s-35.833 2.33301 -49.5 7
s-25 12.5 -34 23.5s-16.333 25.667 -22 44s-9.83398 41.166 -12.501 68.499h55z" />
    <glyph glyph-name="uni0307" unicode="&#x307;" horiz-adv-x="1" 
d="M-55 725v-102h-71v102h71z" />
    <glyph glyph-name="uni0308" unicode="&#x308;" horiz-adv-x="1" 
d="M-176 725v-103h-59v103h59zM-36 725v-103h-59v103h59z" />
    <glyph glyph-name="uni030A" unicode="&#x30a;" horiz-adv-x="1" 
d="M-226 664c0 23.333 7.83301 42.833 23.5 58.5s35.834 23.5 60.501 23.5c24 0 43.833 -7.83301 59.5 -23.5s23.5 -35.167 23.5 -58.5s-8 -42.666 -24 -57.999s-35.667 -23 -59 -23c-24.667 0 -44.834 7.66699 -60.501 23s-23.5 34.666 -23.5 57.999zM-182 664
c0 -13.333 3.5 -24 10.5 -32s16.833 -12 29.5 -12c12 0 21.5 4 28.5 12s10.5 18.667 10.5 32c0 12.667 -3.5 23.334 -10.5 32.001s-16.5 13 -28.5 13c-12.667 0 -22.5 -4.33301 -29.5 -13s-10.5 -19.334 -10.5 -32.001z" />
    <glyph glyph-name="uni030B" unicode="&#x30b;" horiz-adv-x="1" 
d="M-97 725l-77 -136h-50l47 136h80zM38 725l-93 -136h-49l63 136h79z" />
    <glyph glyph-name="uni030C" unicode="&#x30c;" horiz-adv-x="1" 
d="M-192 725l54 -87l54 87h64l-92 -136h-52l-92 136h64z" />
    <glyph glyph-name="uni0312" unicode="&#x312;" horiz-adv-x="1" 
d="M-186 585l-84 0.00292969v39c0 36 6.16699 61.667 18.5 77s34.833 24.666 67.5 27.999l4 -31c-16.667 -2.66699 -28 -7.33398 -34 -14.001s-9 -17.334 -9 -32.001l37 -5v-62z" />
    <glyph glyph-name="uni0315" unicode="&#x315;" horiz-adv-x="1" 
d="M-125 725l-52 -136h-41l25 136h68z" />
    <glyph glyph-name="uni0326" unicode="&#x326;" horiz-adv-x="1" 
d="M-277 -36l84 -0.000976562v-40c0 -35.333 -6.16699 -60.666 -18.5 -75.999s-34.833 -24.666 -67.5 -27.999l-4 31c17.333 2.66699 28.833 7.16699 34.5 13.5s8.5 17.166 8.5 32.499l-37 4v63z" />
    <glyph glyph-name="uni0327" unicode="&#x327;" horiz-adv-x="1" 
d="M-80 15l-8 -48.9971c31.333 -3.33301 52.5 -10.333 63.5 -21s16.5 -23.667 16.5 -39c0 -21.333 -9.83301 -38.833 -29.5 -52.5s-48.5 -22.167 -86.5 -25.5l-12 38c26.667 4.66699 44.667 9.66699 54 15s14 12.666 14 21.999c0 7.33301 -4.66699 13.666 -14 18.999
s-29 8.66602 -59 9.99902l18 86z" />
    <glyph glyph-name="uni0328" unicode="&#x328;" horiz-adv-x="1" 
d="M-67 4c-28.667 -8.66699 -49.5 -20.333 -62.5 -35s-19.5 -30 -19.5 -46c0 -25.333 15.333 -38 46 -38c12.667 0 25.334 1.66699 38.001 5s24.667 9 36 17l16 -41c-12.667 -9.33301 -27.334 -16.833 -44.001 -22.5s-35 -8.5 -55 -8.5c-66 0 -99 24.333 -99 73
c0 24 9.5 44.833 28.5 62.5s45.5 31.167 79.5 40.5z" />
    <glyph glyph-name="uni0335" unicode="&#x335;" horiz-adv-x="1" 
d="M-17 227h-237v51h237v-51z" />
    <glyph glyph-name="uni0336" unicode="&#x336;" horiz-adv-x="1" 
d="M-557 282h533v-59h-533v59z" />
    <glyph glyph-name="uni0394" unicode="&#x394;" horiz-adv-x="605" 
d="M269 725h68l255 -725h-579zM118 68h368l-182 560h-2z" />
    <glyph glyph-name="uni03A9" unicode="&#x3a9;" horiz-adv-x="602" 
d="M301 735c78.667 0 138.499 -19.5 179.499 -58.5s61.5 -93.833 61.5 -164.5v-136c0 -55.333 -13 -98.666 -39 -129.999s-61 -54 -105 -68v-108h140v-70h-199v226c42.667 8.66699 73.5 25 92.5 49s28.5 57 28.5 99v136c0 50 -13.667 88.5 -41 115.5
s-66.666 40.5 -117.999 40.5s-90.833 -13.5 -118.5 -40.5s-41.5 -65.5 -41.5 -115.5v-136c0 -42 9.5 -75 28.5 -99s50.167 -40.333 93.5 -49v-226h-200v70h140v108c-44 14 -79 36.667 -105 68s-39 74.666 -39 129.999v136c0 70.667 20.667 125.5 62 164.5
s101.333 58.5 180 58.5z" />
    <glyph glyph-name="uni03BC" unicode="&#x3bc;" horiz-adv-x="520" 
d="M69 504h72.999v-326c0 -38.667 9.66699 -68.667 29 -90s48 -32 86 -32c28 0 52 6.16699 72 18.5s36 26.833 48 43.5v386h73v-504h-65l-3 55h-2c-30 -38 -70.333 -57 -121 -57c-56 0 -96.333 21.333 -121 64h-2c0.666992 -20 1.83398 -40.333 3.50098 -61
s3.16699 -41 4.5 -61s2.83301 -39.167 4.5 -57.5s3.5 -34.833 5.5 -49.5l-75 -6c-1.33301 24 -2.5 52 -3.5 84l-3 97c-1 32.667 -1.83301 64 -2.5 94s-1 55.333 -1 76v326z" />
    <glyph glyph-name="pi" unicode="&#x3c0;" horiz-adv-x="511" 
d="M355 0v445.001h-200v-350c0 -32 -8.66699 -56.667 -26 -74s-41.333 -26 -72 -26c-7.33301 0 -14.333 0.666992 -21 2s-12.667 2.66602 -18 3.99902v44h14c18.667 0 31.667 4.83301 39 14.5s11 23.167 11 40.5v343h-62v61h468v-61h-60v-443h-73z" />
    <glyph glyph-name="uni0400" unicode="&#x400;" horiz-adv-x="537" 
d="M485 725v-72h-320v-246h256v-65h-256v-271h335v-71h-417v725h402zM264 872l72 -111h-67l-103 111h98z" />
    <glyph glyph-name="afii10023" unicode="&#x401;" horiz-adv-x="537" 
d="M485 725v-72h-320v-246h256v-65h-256v-271h335v-71h-417v725h402zM235 871v-98h-61v98h61zM405 871v-98h-62v98h62z" />
    <glyph glyph-name="afii10051" unicode="&#x402;" horiz-adv-x="605" 
d="M238 0l-73.002 0.000976562v659h-151v66h385v-66h-161v-215h2c17.333 22 38 38.5 62 49.5s50.667 16.5 80 16.5c54 0 94.833 -16.667 122.5 -50s41.5 -78.333 41.5 -135v-298c0 -62.667 -14.833 -110.167 -44.5 -142.5s-72.5 -50.5 -128.5 -54.5l-5 54
c36.667 4 63.334 17.667 80.001 41s25 57 25 101v298c0 39.333 -9 69.666 -27 90.999s-46 32 -84 32c-29.333 0 -54.666 -7.5 -75.999 -22.5s-37.333 -34.167 -48 -57.5v-367z" />
    <glyph glyph-name="afii10052" unicode="&#x403;" horiz-adv-x="443" 
d="M427 725v-72h-263v-653h-81v725h344zM361 872l-95 -111h-65l65 111h95z" />
    <glyph glyph-name="afii10053" unicode="&#x404;" horiz-adv-x="538" 
d="M438 559c-12 32.667 -30.6689 59.001 -56.002 79.001s-56.666 30 -93.999 30c-51.333 0 -88.5 -14.833 -111.5 -44.5s-34.5 -73.167 -34.5 -130.5v-86h233v-68h-233v-112c0 -54 12.667 -96.167 38 -126.5s61 -45.5 107 -45.5c37.333 0 69 9.83301 95 29.5
s45.333 49.5 58 89.5l59 -23c-16 -54 -43.5 -94.333 -82.5 -121s-84.833 -40 -137.5 -40c-33.333 0 -63.5 5.66699 -90.5 17s-50 27.5 -69 48.5s-33.833 46.333 -44.5 76s-16 62.5 -16 98.5v262c0 75.333 19.333 134.666 58 177.999s93.334 65 164.001 65
c54 0 99.333 -14.5 136 -43.5s63 -65.5 79 -109.5z" />
    <glyph glyph-name="afii10054" unicode="&#x405;" horiz-adv-x="492" 
d="M242 735c52 0 96.499 -12.6621 133.499 -37.9951s63.167 -59 78.5 -101l-58 -26c-11.333 30.667 -29.833 54.667 -55.5 72s-56.5 26 -92.5 26c-23.333 0 -43.333 -2.83301 -60 -8.5s-30.167 -13.5 -40.5 -23.5s-17.833 -21.833 -22.5 -35.5s-7 -28.5 -7 -44.5
c0 -28.667 8.5 -52.334 25.5 -71.001s38.333 -35 64 -49s53.334 -27.333 83.001 -40s57.334 -27.834 83.001 -45.501s47 -39.167 64 -64.5s25.5 -57.333 25.5 -96c0 -64.667 -19.5 -114.167 -58.5 -148.5s-91.167 -51.5 -156.5 -51.5c-26 0 -50.667 3.66699 -74 11
s-44.5 17.833 -63.5 31.5s-35.5 30.334 -49.5 50.001s-24.667 42.167 -32 67.5l64 25c12 -38.667 32 -67.834 60 -87.501s59.333 -29.5 94 -29.5c44.667 0 78.667 10.333 102 31s35 52 35 94c0 30.667 -8.5 55.5 -25.5 74.5s-38.5 35.5 -64.5 49.5
s-53.833 27.167 -83.5 39.5s-57.5 27.166 -83.5 44.499s-47.5 38.5 -64.5 63.5s-25.5 57.5 -25.5 97.5c0 26 4.66699 50.167 14 72.5s22.666 41.666 39.999 57.999s38.833 29.166 64.5 38.499s54.5 14 86.5 14z" />
    <glyph glyph-name="afii10055" unicode="&#x406;" horiz-adv-x="284" 
d="M183 725v-725h-82v725h82z" />
    <glyph glyph-name="afii10056" unicode="&#x407;" horiz-adv-x="284" 
d="M88 871v-98h-61v98h61zM258 871v-98h-62v98h62zM183 725v-725h-82v725h82z" />
    <glyph glyph-name="afii10057" unicode="&#x408;" horiz-adv-x="276" 
d="M193 725v-610c0 -86 -21.333 -150 -64 -192s-105 -63.333 -187 -64l-6 65c60 0 104.167 14.667 132.5 44s42.5 78.333 42.5 147v610h82z" />
    <glyph glyph-name="afii10058" unicode="&#x409;" horiz-adv-x="920" 
d="M532 725l0.00390625 -303.998h139c75.333 0 129.166 -18.167 161.499 -54.5s48.5 -86.5 48.5 -150.5c0 -70.667 -16.5 -124.334 -49.5 -161.001s-87.833 -55 -164.5 -55h-217v655h-214l-13 -276c-4 -80 -10.5 -145 -19.5 -195s-20.5 -89 -34.5 -117
s-30.833 -47 -50.5 -57s-41.834 -15 -66.501 -15c-8 0 -15.833 0.5 -23.5 1.5s-14.167 2.5 -19.5 4.5v54h19c17.333 0 32.666 4 45.999 12s24.666 23.667 33.999 47s17 56.666 23 99.999s10.667 100 14 170l16 341h371zM664.004 68.002c24 0 44.5 2.49902 61.5 7.49902
s31 13.333 42 25s19.167 27 24.5 46s8 42.167 8 69.5c0 48.667 -10.667 83.834 -32 105.501s-57 32.5 -107 32.5h-129v-286h132z" />
    <glyph glyph-name="afii10059" unicode="&#x40a;" horiz-adv-x="930" 
d="M544 725l0.000976562 -303.999h138c75.333 0 129.166 -18.167 161.499 -54.5s48.5 -86.5 48.5 -150.5c0 -70.667 -16.5 -124.334 -49.5 -161.001s-87.833 -55 -164.5 -55h-217v352h-296v-352h-82v725h82v-300h296v300h83zM544.001 354.001v-286.001h131
c24 0 44.5 2.5 61.5 7.5s31 13.333 42 25s19.167 27 24.5 46s8 42.167 8 69.5c0 48.667 -10.667 83.834 -32 105.501s-57 32.5 -107 32.5h-128z" />
    <glyph glyph-name="afii10060" unicode="&#x40b;" horiz-adv-x="605" 
d="M238 0l-73.001 0.000976562v659h-151v66h385v-66h-161v-215h2c17.333 22 38 38.5 62 49.5s50.667 16.5 80 16.5c54 0 94.833 -16.667 122.5 -50s41.5 -78.333 41.5 -135v-325h-73v324c0 39.333 -9 69.666 -27 90.999s-46 32 -84 32c-29.333 0 -54.666 -7.5 -75.999 -22.5
s-37.333 -34.167 -48 -57.5v-367z" />
    <glyph glyph-name="afii10061" unicode="&#x40c;" horiz-adv-x="598" 
d="M553 669h-22.998c-20.667 0 -37.334 -4.66699 -50.001 -14s-23.667 -23.333 -33 -42l-88 -169c-16.667 -32 -39 -54 -67 -66v-2c34 -10.667 59 -31.667 75 -63l107 -206c10 -19.333 21.5 -33 34.5 -41s29.167 -12 48.5 -12h21v-54
c-5.33301 -1.33301 -12.5 -2.5 -21.5 -3.5s-18.167 -1.5 -27.5 -1.5c-30.667 0 -56.667 7.66699 -78 23s-39 36.666 -53 63.999l-111 212c-9.33301 18.667 -20.333 31.5 -33 38.5s-30.667 10.5 -54 10.5h-36v-343h-81v725h81v-319h35c18.667 0 34.667 3.83301 48 11.5
s25.666 22.834 36.999 45.501l95 182c14.667 28 32.5 49.167 53.5 63.5s46.833 21.5 77.5 21.5c9.33301 0 17.5 -0.5 24.5 -1.5s13.167 -2.16699 18.5 -3.5v-56zM413.002 872l-95 -111h-65l65 111h95z" />
    <glyph glyph-name="uni040D" unicode="&#x40d;" horiz-adv-x="637" 
d="M553 725v-725h-78v585h-2l-311 -585h-79v725h79v-585h2l311 585h78zM300 872l72 -111h-67l-103 111h98z" />
    <glyph glyph-name="afii10062" unicode="&#x40e;" horiz-adv-x="561" 
d="M105 725l196.001 -416.002h2l158 416h89l-238 -593c-18 -46 -43.833 -79.833 -77.5 -101.5s-73.167 -32.5 -118.5 -32.5l-5 64c28 2.66699 53.167 10.334 75.5 23.001s39.166 35.334 50.499 68.001l25 75l-252 497h95zM222.001 871.998
c2.66699 -30 9.16992 -50 19.5029 -60s25.166 -15 44.499 -15s34.166 5 44.499 15s16.5 30 18.5 60h56c-3.33301 -21.333 -7.66602 -39.5 -12.999 -54.5s-12.833 -27 -22.5 -36s-21.334 -15.5 -35.001 -19.5s-29.834 -6 -48.501 -6c-19.333 0 -35.833 2 -49.5 6
s-25.167 10.5 -34.5 19.5s-16.833 21 -22.5 36s-10.167 33.167 -13.5 54.5h56z" />
    <glyph glyph-name="afii10145" unicode="&#x40f;" horiz-adv-x="616" 
d="M347 0v-169h-77v169h-187v725h82v-654h286v654h82v-725h-186z" />
    <glyph glyph-name="afii10017" unicode="&#x410;" horiz-adv-x="605" 
d="M97 0h-84l245 725h88l246 -725h-86l-61 191h-288zM178 256h247l-123 389h-2z" />
    <glyph glyph-name="afii10018" unicode="&#x411;" horiz-adv-x="552" 
d="M482 725v-70.999h-317v-232h138c75.333 0 129.333 -18.333 162 -55s49 -87 49 -151c0 -70.667 -16.667 -124.334 -50 -161.001s-88 -55 -164 -55h-217v725h399zM297 68.001c22.667 0 42.5 2.5 59.5 7.5s31.167 13.333 42.5 25s19.833 27 25.5 46s8.5 42.167 8.5 69.5
c0 48 -10.833 82.833 -32.5 104.5s-56.5 32.5 -104.5 32.5h-131v-285h132z" />
    <glyph glyph-name="afii10019" unicode="&#x412;" horiz-adv-x="578" 
d="M496 544c0 -44 -8 -78.834 -24 -104.501s-42 -44.167 -78 -55.5v-2c47.333 -10 82 -30 104 -60s33 -68.333 33 -115c0 -67.333 -16.667 -118.666 -50 -153.999s-87.666 -53 -162.999 -53h-235v725h209c69.333 0 120.666 -16.167 153.999 -48.5s50 -76.5 50 -132.5z
M164 67.999h150c45.333 0 79.333 10.5 102 31.5s34 58.167 34 111.5c0 46 -11 79.667 -33 101s-56.333 32 -103 32h-150v-276zM164 409.999h130c46 0 78.333 10.667 97 32s28 53 28 95c0 40 -9.66699 69.667 -29 89s-51.333 29 -96 29h-130v-245z" />
    <glyph glyph-name="afii10020" unicode="&#x413;" horiz-adv-x="443" 
d="M427 725v-72h-263v-653h-81v725h344z" />
    <glyph glyph-name="afii10021" unicode="&#x414;" horiz-adv-x="619" 
d="M522 725l0.000976562 -660.001h83v-224h-81v159h-440v-159h-80v224h71c19.333 49.333 35.666 104.833 48.999 166.5s22 131.834 26 210.501l15 283h357zM237.001 654.999l-12 -218c-4 -73.333 -12.167 -142.333 -24.5 -207s-27.833 -119.667 -46.5 -165h287v590h-204z
" />
    <glyph glyph-name="afii10022" unicode="&#x415;" horiz-adv-x="537" 
d="M485 725v-72h-320v-246h256v-65h-256v-271h335v-71h-417v725h402z" />
    <glyph glyph-name="afii10024" unicode="&#x416;" horiz-adv-x="866" 
d="M43 724c5.33301 1.33301 12 2.66406 20 3.99707s16.667 2 26 2c23.333 0 45 -6.83301 65 -20.5s36.333 -34.5 49 -62.5l84 -185c10 -22 20.667 -36.833 32 -44.5s25.333 -11.5 42 -11.5h32v319h81v-319h31c17.333 0 31.666 3.83301 42.999 11.5s22 22.5 32 44.5l84 185
c12.667 27.333 28.834 48 48.501 62s41.167 21 64.5 21c10 0 18.833 -0.666992 26.5 -2s14.167 -2.66602 19.5 -3.99902v-55h-21c-18.667 0 -33.5 -4.5 -44.5 -13.5s-20.833 -23.167 -29.5 -42.5l-77 -170c-7.33301 -16.667 -16 -30.167 -26 -40.5
s-21.333 -18.833 -34 -25.5v-2c15.333 -5.33301 28.5 -13.166 39.5 -23.499s20.5 -22.833 28.5 -37.5l96 -207c9.33301 -19.333 19.5 -33 30.5 -41s25.167 -12 42.5 -12h18v-54c-11.333 -3.33301 -25.666 -5 -42.999 -5c-28 0 -52.5 7.16699 -73.5 21.5
s-37.833 35.5 -50.5 63.5l-98 214c-8.66699 18.667 -18.667 31.5 -30 38.5s-27 10.5 -47 10.5h-30v-343h-81v343h-31c-20 0 -35.5 -3.5 -46.5 -10.5s-20.833 -19.833 -29.5 -38.5l-99 -214c-12.667 -28 -29.5 -49.167 -50.5 -63.5s-45.5 -21.5 -73.5 -21.5
c-17.333 0 -31.666 1.66699 -42.999 5v54h19c17.333 0 31.5 4 42.5 12s21.167 21.667 30.5 41l95 207c13.333 30 36 50.667 68 62v2c-24.667 12.667 -44.334 34.334 -59.001 65.001l-78 170c-8.66699 18.667 -18.334 32.667 -29.001 42s-25.667 14 -45 14h-21v55z" />
    <glyph glyph-name="afii10025" unicode="&#x417;" horiz-adv-x="528" 
d="M190 407l58.002 0.00292969c43.333 0 77.166 8.5 101.499 25.5s36.5 43.833 36.5 80.5v48c0 34.667 -12 61.5 -36 80.5s-56 28.5 -96 28.5c-38 0 -69.333 -9 -94 -27s-45 -46.333 -61 -85l-59 24c18 48 46.167 85.5 84.5 112.5s83.5 40.5 135.5 40.5
c33.333 0 62.833 -4.66699 88.5 -14s47.167 -21.666 64.5 -36.999s30.5 -33.333 39.5 -54s13.5 -42.334 13.5 -65.001v-48c0 -34.667 -8.66699 -63.834 -26 -87.501s-42.666 -40.834 -75.999 -51.501v-2c38 -8.66699 67 -24.5 87 -47.5s30 -54.5 30 -94.5v-66
c0 -26 -5 -50 -15 -72s-24.5 -40.833 -43.5 -56.5s-42.167 -27.834 -69.5 -36.501s-58 -13 -92 -13c-110 0 -184.667 53.667 -224 161l59 22c15.333 -42 36.666 -72.667 63.999 -92s59.333 -29 96 -29c49.333 0 85.666 10.833 108.999 32.5s35 50.5 35 86.5v64
c0 20.667 -3.5 37.667 -10.5 51s-17 24 -30 32s-28.833 13.5 -47.5 16.5s-39.667 4.5 -63 4.5h-59v68z" />
    <glyph glyph-name="afii10026" unicode="&#x418;" horiz-adv-x="637" 
d="M553 725v-725h-78v585h-2l-311 -585h-79v725h79v-585h2l311 585h78z" />
    <glyph glyph-name="afii10027" unicode="&#x419;" horiz-adv-x="637" 
d="M553 725v-725h-78v585h-2l-311 -585h-79v725h79v-585h2l311 585h78zM254 872c2.66699 -30 9.16992 -50 19.5029 -60s25.166 -15 44.499 -15s34.166 5 44.499 15s16.5 30 18.5 60h56c-3.33301 -21.333 -7.66602 -39.5 -12.999 -54.5s-12.833 -27 -22.5 -36
s-21.334 -15.5 -35.001 -19.5s-29.834 -6 -48.501 -6c-19.333 0 -35.833 2 -49.5 6s-25.167 10.5 -34.5 19.5s-16.833 21 -22.5 36s-10.167 33.167 -13.5 54.5h56z" />
    <glyph glyph-name="afii10028" unicode="&#x41a;" horiz-adv-x="598" 
d="M553 669h-22.998c-20.667 0 -37.334 -4.66699 -50.001 -14s-23.667 -23.333 -33 -42l-88 -169c-16.667 -32 -39 -54 -67 -66v-2c34 -10.667 59 -31.667 75 -63l107 -206c10 -19.333 21.5 -33 34.5 -41s29.167 -12 48.5 -12h21v-54
c-5.33301 -1.33301 -12.5 -2.5 -21.5 -3.5s-18.167 -1.5 -27.5 -1.5c-30.667 0 -56.667 7.66699 -78 23s-39 36.666 -53 63.999l-111 212c-9.33301 18.667 -20.333 31.5 -33 38.5s-30.667 10.5 -54 10.5h-36v-343h-81v725h81v-319h35c18.667 0 34.667 3.83301 48 11.5
s25.666 22.834 36.999 45.501l95 182c14.667 28 32.5 49.167 53.5 63.5s46.833 21.5 77.5 21.5c9.33301 0 17.5 -0.5 24.5 -1.5s13.167 -2.16699 18.5 -3.5v-56z" />
    <glyph glyph-name="afii10029" unicode="&#x41b;" horiz-adv-x="616" 
d="M236 655l-12.9971 -275.999c-4 -80 -10.5 -145 -19.5 -195s-20.5 -89 -34.5 -117s-30.833 -47 -50.5 -57s-41.834 -15 -66.501 -15c-8 0 -15.833 0.5 -23.5 1.5s-14.167 2.5 -19.5 4.5v54h19c17.333 0 32.666 4 45.999 12s24.666 23.667 33.999 47s17 56.666 23 99.999
s10.667 100 14 170l16 341h371v-725h-82v655h-214z" />
    <glyph glyph-name="afii10030" unicode="&#x41c;" horiz-adv-x="784" 
d="M701 725v-725h-75v557h-2l-213 -417h-37l-214 417h-2v-557h-75v725h74l234 -472h2l234 472h74z" />
    <glyph glyph-name="afii10031" unicode="&#x41d;" horiz-adv-x="627" 
d="M165 725v-319h297v319h82v-725h-82v335h-297v-335h-82v725h82z" />
    <glyph glyph-name="afii10032" unicode="&#x41e;" horiz-adv-x="602" 
d="M301 735c78.667 0 138.5 -21.668 179.5 -65.001s61.5 -102.666 61.5 -177.999v-258c0 -76 -20.5 -135.667 -61.5 -179s-100.833 -65 -179.5 -65s-138.667 21.667 -180 65s-62 103 -62 179v257c0 76 20.667 135.667 62 179s101.333 65 180 65zM460 490.999
c0 116.667 -53 175 -159 175c-106.667 0 -160 -58.333 -160 -175v-257c0 -117.333 53.333 -176 160 -176c106 0 159 58.667 159 176v257z" />
    <glyph glyph-name="afii10033" unicode="&#x41f;" horiz-adv-x="616" 
d="M533 725v-725h-82v655h-286v-655h-82v725h450z" />
    <glyph glyph-name="afii10034" unicode="&#x420;" horiz-adv-x="559" 
d="M319 725c66 0 116.333 -18.833 151 -56.5s52 -91.167 52 -160.5c0 -68 -17 -121 -51 -159s-83.333 -57 -148 -57h-158v-292h-82v725h236zM165 358l153 0.000976562c42.667 0 73.667 12.167 93 36.5s29 62.166 29 113.499c0 50.667 -9.66699 88 -29 112s-50.333 36 -93 36
h-153v-298z" />
    <glyph glyph-name="afii10035" unicode="&#x421;" horiz-adv-x="533" 
d="M287 735c26 0 50.1641 -3.83105 72.4971 -11.498s42.333 -18 60 -31s32.834 -28.5 45.501 -46.5s22 -37.333 28 -58l-60 -24c-10 31.333 -26.667 56.166 -50 74.499s-53.666 27.5 -90.999 27.5c-49.333 0 -86.666 -15.333 -111.999 -46s-38 -74.334 -38 -131.001v-258
c0 -52 12.833 -94 38.5 -126s63.167 -48 112.5 -48c38.667 0 69 8.16699 91 24.5s38.667 44.833 50 85.5l61 -22c-13.333 -54 -37.666 -93.333 -72.999 -118s-80.333 -37 -135 -37c-34.667 0 -66 5.83301 -94 17.5s-52 28 -72 49s-35.333 46.333 -46 76s-16 62.167 -16 97.5
v258c0 76.667 20.167 137 60.5 181s96.166 66 167.499 66z" />
    <glyph glyph-name="afii10036" unicode="&#x422;" horiz-adv-x="484" 
d="M468 725v-72h-185v-653h-82v653h-185v72h452z" />
    <glyph glyph-name="afii10037" unicode="&#x423;" horiz-adv-x="561" 
d="M105 725l196.001 -416.002h2l158 416h89l-238 -593c-18 -46 -43.833 -79.833 -77.5 -101.5s-73.167 -32.5 -118.5 -32.5l-5 64c28 2.66699 53.167 10.334 75.5 23.001s39.166 35.334 50.499 68.001l25 75l-252 497h95z" />
    <glyph glyph-name="afii10038" unicode="&#x424;" horiz-adv-x="694" 
d="M388 725v-92.999h29c39.333 0 73.5 -5.5 102.5 -16.5s53 -26 72 -45s33 -41.5 42 -67.5s13.5 -54.333 13.5 -85v-105c0 -32 -4.66699 -61.333 -14 -88s-23.5 -49.5 -42.5 -68.5s-43 -33.833 -72 -44.5s-62.833 -16 -101.5 -16h-29v-96h-82v96h-29
c-38.667 0 -72.5 5.33301 -101.5 16s-53 25.5 -72 44.5s-33.167 41.833 -42.5 68.5s-14 56 -14 88v104c0 31.333 4.66699 60.166 14 86.499s23.5 49 42.5 68s42.833 33.833 71.5 44.5s62.667 16 102 16h29v93h82zM385 565.001v-403.001h34c52.667 0 90.667 13.333 114 40
s35 63.334 35 110.001v105c0 45.333 -11.667 81.333 -35 108s-61.333 40 -114 40h-34zM309 162v403h-34c-53.333 0 -91.5 -13.5 -114.5 -40.5s-34.5 -62.833 -34.5 -107.5v-105c0 -46 11.667 -82.5 35 -109.5s61.333 -40.5 114 -40.5h34z" />
    <glyph glyph-name="afii10039" unicode="&#x425;" horiz-adv-x="580" 
d="M238 367l-204 358h93l163 -309h2l163 309h91l-202 -361l207 -364h-92l-169 314h-2l-168 -314h-90z" />
    <glyph glyph-name="afii10040" unicode="&#x426;" horiz-adv-x="612" 
d="M83 0v725h82v-654h269v654h82v-651h83v-243h-77v169h-439z" />
    <glyph glyph-name="afii10041" unicode="&#x427;" horiz-adv-x="563" 
d="M398 0l-0.000976562 312.999c-20.667 -4 -41.167 -7.16699 -61.5 -9.5s-39.833 -3.5 -58.5 -3.5c-82 0 -141 16.833 -177 50.5s-54 86.834 -54 159.501v215h82v-214c0 -26.667 3.16699 -49 9.5 -67s16.166 -32.5 29.499 -43.5s30.5 -19 51.5 -24s46.167 -7.5 75.5 -7.5
c16.667 0 33.334 0.5 50.001 1.5s34.334 3.16699 53.001 6.5v348h82v-725h-82z" />
    <glyph glyph-name="afii10042" unicode="&#x428;" horiz-adv-x="852" 
d="M83 0v725h82v-654h220v654h82v-654h220v654h82v-725h-686z" />
    <glyph glyph-name="afii10043" unicode="&#x429;" horiz-adv-x="865" 
d="M852 74v-243h-82v169h-687v725h82v-654h220v654h82v-654h220v654h82v-651h83z" />
    <glyph glyph-name="afii10044" unicode="&#x42a;" horiz-adv-x="659" 
d="M16 655l0.000976562 70.001h256v-304h139c75.333 0 129.166 -18.167 161.499 -54.5s48.5 -86.5 48.5 -150.5c0 -70.667 -16.5 -124.334 -49.5 -161.001s-87.833 -55 -164.5 -55h-217v655h-174zM404.001 68.001c24 0 44.5 2.49902 61.5 7.49902s31 13.333 42 25
s19.167 27 24.5 46s8 42.167 8 69.5c0 48.667 -10.667 83.834 -32 105.501s-57 32.5 -107 32.5h-129v-286h132z" />
    <glyph glyph-name="afii10045" unicode="&#x42b;" horiz-adv-x="798" 
d="M165 725l0.000976562 -303.999h139c75.333 0 129.166 -18.167 161.499 -54.5s48.5 -86.5 48.5 -150.5c0 -70.667 -16.5 -124.334 -49.5 -161.001s-87.833 -55 -164.5 -55h-217v725h82zM297.001 68.001c24 0 44.5 2.49902 61.5 7.49902s31 13.333 42 25s19.167 27 24.5 46
s8 42.167 8 69.5c0 48.667 -10.667 83.834 -32 105.501s-57 32.5 -107 32.5h-129v-286h132zM715.001 725v-725h-82v725h82z" />
    <glyph glyph-name="afii10046" unicode="&#x42c;" horiz-adv-x="552" 
d="M165 725l0.000976562 -303.999h139c75.333 0 129.166 -18.167 161.499 -54.5s48.5 -86.5 48.5 -150.5c0 -70.667 -16.5 -124.334 -49.5 -161.001s-87.833 -55 -164.5 -55h-217v725h82zM297.001 68.001c24 0 44.5 2.49902 61.5 7.49902s31 13.333 42 25s19.167 27 24.5 46
s8 42.167 8 69.5c0 48.667 -10.667 83.834 -32 105.501s-57 32.5 -107 32.5h-129v-286h132z" />
    <glyph glyph-name="afii10047" unicode="&#x42d;" horiz-adv-x="538" 
d="M162 407l233.997 -0.000976562v86c0 57.333 -11.667 100.833 -35 130.5s-60.666 44.5 -111.999 44.5c-37.333 0 -68.666 -10 -93.999 -30s-44 -46.333 -56 -79l-58 23c16.667 44 43.167 80.5 79.5 109.5s81.5 43.5 135.5 43.5c70.667 0 125.334 -21.667 164.001 -65
s58 -102.666 58 -177.999v-262c0 -36 -5.16699 -68.833 -15.5 -98.5s-25.166 -55 -44.499 -76s-42.5 -37.167 -69.5 -48.5s-57.167 -17 -90.5 -17c-52 0 -97.5 13.333 -136.5 40s-66.5 67 -82.5 121l58 23c12.667 -40 32.167 -69.833 58.5 -89.5s58.166 -29.5 95.499 -29.5
c46 0 81.667 15.167 107 45.5s38 72.5 38 126.5v112h-234v68z" />
    <glyph glyph-name="afii10048" unicode="&#x42e;" horiz-adv-x="832" 
d="M164 725v-318.001h145v84c0 76 19.667 135.667 59 179s97 65 173 65c75.333 0 132.666 -21.667 171.999 -65s59 -102.666 59 -177.999v-258c0 -76 -19.667 -135.667 -59 -179s-96.666 -65 -171.999 -65c-76 0 -133.667 21.667 -173 65s-59 103 -59 179v108h-145v-342h-81
v725h81zM690 490.999c0 115.333 -49.667 173 -149 173c-100 0 -150 -57.667 -150 -173v-257c0 -116 50 -174 150 -174c99.333 0 149 58 149 174v257z" />
    <glyph glyph-name="afii10049" unicode="&#x42f;" horiz-adv-x="580" 
d="M497 725l0.00195312 -725.001h-82v321h-76c-21.333 0 -38 -3.83301 -50 -11.5s-22 -21.167 -30 -40.5l-81 -190c-12.667 -29.333 -29.334 -50.666 -50.001 -63.999s-45 -20 -73 -20c-7.33301 0 -15 0.5 -23 1.5s-14.667 2.16699 -20 3.5v54h19c17.333 0 31.833 4 43.5 12
s21.5 21.667 29.5 41l72 173c11.333 26 28.666 45 51.999 57v2c-52 8.66699 -89.667 28.5 -113 59.5s-35 73.5 -35 127.5c0 61.333 17.333 109.833 52 145.5s90.667 53.5 168 53.5h197zM415.002 655.999h-113c-48 0 -83.167 -10.5 -105.5 -31.5s-33.5 -55.5 -33.5 -103.5
c0 -46 10.5 -80.5 31.5 -103.5s57.833 -34.5 110.5 -34.5h110v273z" />
    <glyph glyph-name="afii10065" unicode="&#x430;" horiz-adv-x="458" 
d="M59 406c19.333 32 42.4961 57.998 69.4961 77.998s60.5 30 100.5 30c28 0 51.833 -4.33301 71.5 -13s35.834 -20.667 48.501 -36s22 -33.5 28 -54.5s9 -43.833 9 -68.5v-253c0 -14 3.5 -25 10.5 -33s17.5 -12 31.5 -12h14v-44
c-5.33301 -1.33301 -11.166 -2.66602 -17.499 -3.99902s-13.166 -2 -20.499 -2c-21.333 0 -39 4.83301 -53 14.5s-24 21.834 -30 36.501c-18.667 -17.333 -39.667 -30.5 -63 -39.5s-48 -13.5 -74 -13.5c-44.667 0 -79.334 12 -104.001 36s-37 56.333 -37 97
c0 23.333 3.66699 44.833 11 64.5s19.833 36.834 37.5 51.501s40.834 26 69.501 34s64.334 12 107.001 12h45v55c0 75.333 -31 113 -93 113c-24.667 0 -46.5 -6.83301 -65.5 -20.5s-35.833 -32.834 -50.5 -57.501zM197.996 45.998c25.333 0 47 4.5 65 13.5
s34.667 22.167 50 39.5v135h-45c-30 0 -54.833 -2.5 -74.5 -7.5s-35.334 -12 -47.001 -21s-20 -20 -25 -33s-7.5 -27.5 -7.5 -43.5c0 -29.333 7.33301 -50.5 22 -63.5s35.334 -19.5 62.001 -19.5z" />
    <glyph glyph-name="afii10066" unicode="&#x431;" horiz-adv-x="481" 
d="M413 667c-10 -6 -21.833 -11.3311 -35.5 -15.998s-27.5 -8.33398 -41.5 -11.001l-102 -18c-24 -4 -44.167 -10.833 -60.5 -20.5s-29.5 -21.334 -39.5 -35.001s-17.167 -29.167 -21.5 -46.5s-6.5 -35.666 -6.5 -54.999v-22h2c13.333 21.333 32 38.166 56 50.499
s53.667 18.5 89 18.5c58 0 102.167 -16.667 132.5 -50s45.5 -76 45.5 -128v-166c0 -26 -4.16699 -49.833 -12.5 -71.5s-20.666 -40.334 -36.999 -56.001s-36.333 -27.834 -60 -36.501s-50.834 -13 -81.501 -13c-31.333 0 -58.833 4.33301 -82.5 13
s-43.5 20.834 -59.5 36.501s-28.167 34.334 -36.5 56.001s-12.5 45.5 -12.5 71.5v296c0 58 14.667 106.167 44 144.5s71 63.5 125 75.5l184 41zM122 171.002c0 -37.333 9.50098 -67 28.501 -89s48.833 -33 89.5 -33s70.5 11 89.5 33s28.5 51.667 28.5 89v159
c0 38 -9.33301 68.333 -28 91s-48.334 34 -89.001 34c-41.333 0 -71.5 -11.333 -90.5 -34s-28.5 -53 -28.5 -91v-159z" />
    <glyph glyph-name="afii10067" unicode="&#x432;" horiz-adv-x="467" 
d="M407 383c0 -31.333 -6.66602 -56.165 -19.999 -74.498s-35 -31.5 -65 -39.5v-2c39.333 -6.66699 68.166 -20.334 86.499 -41.001s27.5 -47.334 27.5 -80.001c0 -48 -13.333 -84.333 -40 -109s-71 -37 -133 -37h-194v504h178c54 0 94.167 -10.833 120.5 -32.5
s39.5 -51.167 39.5 -88.5zM138.001 56.001l123 -0.000976562c36 0 62.833 6.83301 80.5 20.5s26.5 37.834 26.5 72.501c0 31.333 -8.66699 53.833 -26 67.5s-44.333 20.5 -81 20.5h-123v-181zM138.001 288l100.999 0.000976562c37.333 0 63.833 7.5 79.5 22.5
s23.5 36.5 23.5 64.5c0 25.333 -7.16699 43.666 -21.5 54.999s-38.166 17 -71.499 17h-111v-159z" />
    <glyph glyph-name="afii10068" unicode="&#x433;" horiz-adv-x="377" 
d="M359 442h-217v-442h-73v504h290v-62z" />
    <glyph glyph-name="afii10069" unicode="&#x434;" horiz-adv-x="530" 
d="M442 504v-444.001h70v-217h-69v157h-365v-157h-69v217h64c12.667 34 23 69.333 31 106s13.667 74.334 17 113.001l19 225h302zM202 443.999l-15 -169c-3.33301 -38 -9 -76 -17 -114s-17.667 -73 -29 -105h229v388h-168z" />
    <glyph glyph-name="afii10070" unicode="&#x435;" horiz-adv-x="455" 
d="M122 252l-0.000976562 -79.001c0 -39.333 10.333 -69.833 31 -91.5s50 -32.5 88 -32.5c29.333 0 53.333 6.83301 72 20.5s34.667 36.5 48 68.5l53 -21c-14.667 -42 -36.5 -73.5 -65.5 -94.5s-66.833 -31.5 -113.5 -31.5c-30 0 -56.5 4.5 -79.5 13.5
s-42.5 21.5 -58.5 37.5s-28 35 -36 57s-12 46 -12 72v163c0 26 4 49.833 12 71.5s19.833 40.5 35.5 56.5s34.834 28.5 57.501 37.5s48.667 13.5 78 13.5c28.667 0 54.167 -4.66699 76.5 -14s41.333 -22.166 57 -38.499s27.5 -35.5 35.5 -57.5s12 -45.667 12 -71v-80h-291z
M121.999 299.999h226v39c0 36 -10 64.5 -30 85.5s-48 31.5 -84 31.5c-38 0 -66.167 -10.833 -84.5 -32.5s-27.5 -50.167 -27.5 -85.5v-38z" />
    <glyph glyph-name="afii10072" unicode="&#x436;" horiz-adv-x="699" 
d="M38 504c4.66699 1.33301 9.83008 2.33301 15.4971 3s11.5 1 17.5 1c30.667 0 54.834 -6.33301 72.501 -19s30.5 -30.334 38.5 -53.001l32 -90c8.66699 -24 18.834 -40.167 30.501 -48.5s24.167 -12.5 37.5 -12.5h31v219h72v-219h32c13.333 0 25.833 4.16699 37.5 12.5
s21.834 24.5 30.501 48.5l32 90c8 22.667 20.833 40.334 38.5 53.001s41.834 19 72.501 19c6 0 11.833 -0.333008 17.5 -1s10.834 -1.66699 15.501 -3v-49h-19c-17.333 0 -31.333 -4.66699 -42 -14s-18.334 -20.666 -23.001 -33.999l-29 -85
c-10 -27.333 -25.667 -47 -47 -59v-2c13.333 -5.33301 24 -12.666 32 -21.999s14.667 -20.666 20 -33.999l42 -104c14 -36.667 36.667 -55 68 -55h14v-44c-5.33301 -1.33301 -11 -2.66602 -17 -3.99902s-13 -2 -21 -2c-26.667 0 -48 5.83301 -64 17.5
s-30.667 32.167 -44 61.5l-53 121c-10 23.333 -28.333 35 -55 35h-38v-231h-72v231h-37c-26.667 0 -45 -11.667 -55 -35l-53 -121c-13.333 -29.333 -28 -49.833 -44 -61.5s-37.333 -17.5 -64 -17.5c-8 0 -15 0.666992 -21 2s-11.667 2.66602 -17 3.99902v44h14
c31.333 0 54 18.333 68 55l42 104c5.33301 13.333 12 24.666 20 33.999s18.667 16.666 32 21.999v2c-21.333 11.333 -37 31 -47 59l-29 85c-4.66699 13.333 -12.334 24.666 -23.001 33.999s-24.667 14 -42 14h-19v49z" />
    <glyph glyph-name="afii10073" unicode="&#x437;" horiz-adv-x="431" 
d="M146 286l54.0049 -0.000976562c36 0 63.667 6 83 18s29 34.333 29 67c0 28.667 -9 50 -27 64s-43.333 21 -76 21c-30 0 -55.5 -6.66699 -76.5 -20s-36.5 -32.333 -46.5 -57l-54 14c13.333 36 35.166 64.833 65.499 86.5s69.166 32.5 116.499 32.5
c28.667 0 53.667 -3.5 75 -10.5s39.166 -16.667 53.499 -29s25 -27 32 -44s10.5 -35.167 10.5 -54.5c0 -57.333 -25.667 -94.333 -77 -111v-2c30 -6.66699 52.833 -19.167 68.5 -37.5s23.5 -44.166 23.5 -77.499c0 -52 -16.167 -91 -48.5 -117s-78.833 -39 -139.5 -39
c-42.667 0 -80.334 8.5 -113.001 25.5s-56.334 43.167 -71.001 78.5l52 19c11.333 -22.667 28.5 -40 51.5 -52s48.833 -18 77.5 -18c44 0 75 9.16699 93 27.5s27 43.833 27 76.5c0 34 -11.167 56.5 -33.5 67.5s-53.5 16.5 -93.5 16.5h-56v55z" />
    <glyph glyph-name="afii10074" unicode="&#x438;" horiz-adv-x="528" 
d="M458 504v-504h-69v410h-2l-249 -410h-69v504h69v-413h2l249 413h69z" />
    <glyph glyph-name="afii10075" unicode="&#x439;" horiz-adv-x="528" 
d="M458 504v-504h-69v410h-2l-249 -410h-69v504h69v-413h2l249 413h69zM206 725c2.66699 -39.333 9 -66 19 -80s24.667 -21 44 -21s34.166 7 44.499 21s16.5 40.667 18.5 80h56c-3.33301 -27.333 -7.66602 -50.166 -12.999 -68.499s-12.666 -33 -21.999 -44
s-20.833 -18.833 -34.5 -23.5s-30.167 -7 -49.5 -7s-35.833 2.33301 -49.5 7s-25 12.5 -34 23.5s-16.333 25.667 -22 44s-9.83398 41.166 -12.501 68.499h55z" />
    </font>
</defs>
</svg>
